<svg version="1.1" viewBox="0.0 0.0 713.3517060367454 445.98687664041995" fill="none" stroke="none" stroke-linecap="square" stroke-miterlimit="10" xmlns:xlink="http://www.w3.org/1999/xlink" xmlns="http://www.w3.org/2000/svg"><clipPath id="p.0"><path d="m0 0l713.3517 0l0 445.98688l-713.3517 0l0 -445.98688z" clip-rule="nonzero"/></clipPath><g clip-path="url(#p.0)"><path fill="#000000" fill-opacity="0.0" d="m0 0l713.3517 0l0 445.98688l-713.3517 0z" fill-rule="evenodd"/><path fill="#9b9b9b" fill-opacity="0.4438" d="m114.77316 272.08307l72.58238 0l0 72.12033l-72.58238 0z" fill-rule="evenodd"/><path fill="#7b7b7b" fill-opacity="0.4438" d="m187.35555 272.08307l24.040115 -24.0401l0 72.12033l-24.040115 24.0401z" fill-rule="evenodd"/><path fill="#afafaf" fill-opacity="0.4438" d="m114.77316 272.08307l24.040115 -24.0401l72.58238 0l-24.040115 24.0401z" fill-rule="evenodd"/><path fill="#000000" fill-opacity="0.0" d="m114.77316 272.08307l24.040115 -24.0401l72.58238 0l0 72.12033l-24.040115 24.0401l-72.58238 0zm0 0l72.58238 0l24.040115 -24.0401m-24.040115 24.0401l0 72.12033" fill-rule="evenodd"/><path stroke="#000000" stroke-width="1.0" stroke-linejoin="round" stroke-linecap="butt" stroke-dasharray="1.0,3.0" d="m114.77316 272.08307l24.040115 -24.0401l72.58238 0l0 72.12033l-24.040115 24.0401l-72.58238 0zm0 0l72.58238 0l24.040115 -24.0401m-24.040115 24.0401l0 72.12033" fill-rule="evenodd"/><path fill="#9b9b9b" fill-opacity="0.4438" d="m90.67391 296.06708l72.582375 0l0 72.12033l-72.582375 0z" fill-rule="evenodd"/><path fill="#7b7b7b" fill-opacity="0.4438" d="m163.25629 296.06708l24.040115 -24.0401l0 72.12033l-24.040115 24.0401z" fill-rule="evenodd"/><path fill="#afafaf" fill-opacity="0.4438" d="m90.67391 296.06708l24.040108 -24.0401l72.58238 0l-24.040115 24.0401z" fill-rule="evenodd"/><path fill="#000000" fill-opacity="0.0" d="m90.67391 296.06708l24.040108 -24.0401l72.58238 0l0 72.12033l-24.040115 24.0401l-72.582375 0zm0 0l72.582375 0l24.040115 -24.0401m-24.040115 24.0401l0 72.12033" fill-rule="evenodd"/><path stroke="#000000" stroke-width="1.0" stroke-linejoin="round" stroke-linecap="butt" stroke-dasharray="1.0,3.0" d="m90.67391 296.06708l24.040108 -24.0401l72.58238 0l0 72.12033l-24.040115 24.0401l-72.582375 0zm0 0l72.582375 0l24.040115 -24.0401m-24.040115 24.0401l0 72.12033" fill-rule="evenodd"/><path fill="#9b9b9b" fill-opacity="0.4438" d="m67.23806 319.5937l72.582375 0l0 72.1203l-72.582375 0z" fill-rule="evenodd"/><path fill="#7b7b7b" fill-opacity="0.4438" d="m139.82043 319.5937l24.040115 -24.04013l0 72.12033l-24.040115 24.0401z" fill-rule="evenodd"/><path fill="#afafaf" fill-opacity="0.4438" d="m67.23806 319.5937l24.040108 -24.04013l72.58238 0l-24.040115 24.04013z" fill-rule="evenodd"/><path fill="#000000" fill-opacity="0.0" d="m67.23806 319.5937l24.040108 -24.04013l72.58238 0l0 72.12033l-24.040115 24.0401l-72.582375 0zm0 0l72.582375 0l24.040115 -24.04013m-24.040115 24.04013l0 72.1203" fill-rule="evenodd"/><path stroke="#000000" stroke-width="1.0" stroke-linejoin="round" stroke-linecap="butt" stroke-dasharray="1.0,3.0" d="m67.23806 319.5937l24.040108 -24.04013l72.58238 0l0 72.12033l-24.040115 24.0401l-72.582375 0zm0 0l72.582375 0l24.040115 -24.04013m-24.040115 24.04013l0 72.1203" fill-rule="evenodd"/><path fill="#9b9b9b" fill-opacity="0.4438" d="m42.86564 343.582l72.58238 0l0 72.12033l-72.58238 0z" fill-rule="evenodd"/><path fill="#7b7b7b" fill-opacity="0.4438" d="m115.44802 343.582l24.040108 -24.0401l0 72.12033l-24.040108 24.0401z" fill-rule="evenodd"/><path fill="#afafaf" fill-opacity="0.4438" d="m42.86564 343.582l24.040108 -24.0401l72.58238 0l-24.040108 24.0401z" fill-rule="evenodd"/><path fill="#000000" fill-opacity="0.0" d="m42.86564 343.582l24.040108 -24.0401l72.58238 0l0 72.12033l-24.040108 24.0401l-72.58238 0zm0 0l72.58238 0l24.040108 -24.0401m-24.040108 24.0401l0 72.12033" fill-rule="evenodd"/><path stroke="#000000" stroke-width="1.0" stroke-linejoin="round" stroke-linecap="butt" stroke-dasharray="1.0,3.0" d="m42.86564 343.582l24.040108 -24.0401l72.58238 0l0 72.12033l-24.040108 24.0401l-72.58238 0zm0 0l72.58238 0l24.040108 -24.0401m-24.040108 24.0401l0 72.12033" fill-rule="evenodd"/><path fill="#9b9b9b" fill-opacity="0.4438" d="m186.77316 272.08307l72.5824 0l0 72.12033l-72.5824 0z" fill-rule="evenodd"/><path fill="#7b7b7b" fill-opacity="0.4438" d="m259.35556 272.08307l24.0401 -24.0401l0 72.12033l-24.0401 24.0401z" fill-rule="evenodd"/><path fill="#afafaf" fill-opacity="0.4438" d="m186.77316 272.08307l24.040115 -24.0401l72.58238 0l-24.0401 24.0401z" fill-rule="evenodd"/><path fill="#000000" fill-opacity="0.0" d="m186.77316 272.08307l24.040115 -24.0401l72.58238 0l0 72.12033l-24.0401 24.0401l-72.5824 0zm0 0l72.5824 0l24.0401 -24.0401m-24.0401 24.0401l0 72.12033" fill-rule="evenodd"/><path stroke="#000000" stroke-width="1.0" stroke-linejoin="round" stroke-linecap="butt" stroke-dasharray="1.0,3.0" d="m186.77316 272.08307l24.040115 -24.0401l72.58238 0l0 72.12033l-24.0401 24.0401l-72.5824 0zm0 0l72.5824 0l24.0401 -24.0401m-24.0401 24.0401l0 72.12033" fill-rule="evenodd"/><path fill="#9b9b9b" fill-opacity="0.4438" d="m162.6739 296.06708l72.58238 0l0 72.12033l-72.58238 0z" fill-rule="evenodd"/><path fill="#7b7b7b" fill-opacity="0.4438" d="m235.25629 296.06708l24.0401 -24.0401l0 72.12033l-24.0401 24.0401z" fill-rule="evenodd"/><path fill="#afafaf" fill-opacity="0.4438" d="m162.6739 296.06708l24.040115 -24.0401l72.58237 0l-24.0401 24.0401z" fill-rule="evenodd"/><path fill="#000000" fill-opacity="0.0" d="m162.6739 296.06708l24.040115 -24.0401l72.58237 0l0 72.12033l-24.0401 24.0401l-72.58238 0zm0 0l72.58238 0l24.0401 -24.0401m-24.0401 24.0401l0 72.12033" fill-rule="evenodd"/><path stroke="#000000" stroke-width="1.0" stroke-linejoin="round" stroke-linecap="butt" stroke-dasharray="1.0,3.0" d="m162.6739 296.06708l24.040115 -24.0401l72.58237 0l0 72.12033l-24.0401 24.0401l-72.58238 0zm0 0l72.58238 0l24.0401 -24.0401m-24.0401 24.0401l0 72.12033" fill-rule="evenodd"/><path fill="#9b9b9b" fill-opacity="0.4438" d="m139.23805 319.5937l72.58238 0l0 72.1203l-72.58238 0z" fill-rule="evenodd"/><path fill="#7b7b7b" fill-opacity="0.4438" d="m211.82043 319.5937l24.040115 -24.04013l0 72.12033l-24.040115 24.0401z" fill-rule="evenodd"/><path fill="#afafaf" fill-opacity="0.4438" d="m139.23805 319.5937l24.040115 -24.04013l72.58238 0l-24.040115 24.04013z" fill-rule="evenodd"/><path fill="#000000" fill-opacity="0.0" d="m139.23805 319.5937l24.040115 -24.04013l72.58238 0l0 72.12033l-24.040115 24.0401l-72.58238 0zm0 0l72.58238 0l24.040115 -24.04013m-24.040115 24.04013l0 72.1203" fill-rule="evenodd"/><path stroke="#000000" stroke-width="1.0" stroke-linejoin="round" stroke-linecap="butt" stroke-dasharray="1.0,3.0" d="m139.23805 319.5937l24.040115 -24.04013l72.58238 0l0 72.12033l-24.040115 24.0401l-72.58238 0zm0 0l72.58238 0l24.040115 -24.04013m-24.040115 24.04013l0 72.1203" fill-rule="evenodd"/><path fill="#9b9b9b" fill-opacity="0.4438" d="m114.86564 343.582l72.582375 0l0 72.12033l-72.582375 0z" fill-rule="evenodd"/><path fill="#7b7b7b" fill-opacity="0.4438" d="m187.44801 343.582l24.040115 -24.0401l0 72.12033l-24.040115 24.0401z" fill-rule="evenodd"/><path fill="#afafaf" fill-opacity="0.4438" d="m114.86564 343.582l24.040108 -24.0401l72.58238 0l-24.040115 24.0401z" fill-rule="evenodd"/><path fill="#000000" fill-opacity="0.0" d="m114.86564 343.582l24.040108 -24.0401l72.58238 0l0 72.12033l-24.040115 24.0401l-72.582375 0zm0 0l72.582375 0l24.040115 -24.0401m-24.040115 24.0401l0 72.12033" fill-rule="evenodd"/><path stroke="#000000" stroke-width="1.0" stroke-linejoin="round" stroke-linecap="butt" stroke-dasharray="1.0,3.0" d="m114.86564 343.582l24.040108 -24.0401l72.58238 0l0 72.12033l-24.040115 24.0401l-72.582375 0zm0 0l72.582375 0l24.040115 -24.0401m-24.040115 24.0401l0 72.12033" fill-rule="evenodd"/><path fill="#9b9b9b" fill-opacity="0.4438" d="m258.77316 272.08307l72.5824 0l0 72.12033l-72.5824 0z" fill-rule="evenodd"/><path fill="#7b7b7b" fill-opacity="0.4438" d="m331.35556 272.08307l24.0401 -24.0401l0 72.12033l-24.0401 24.0401z" fill-rule="evenodd"/><path fill="#afafaf" fill-opacity="0.4438" d="m258.77316 272.08307l24.0401 -24.0401l72.5824 0l-24.0401 24.0401z" fill-rule="evenodd"/><path fill="#000000" fill-opacity="0.0" d="m258.77316 272.08307l24.0401 -24.0401l72.5824 0l0 72.12033l-24.0401 24.0401l-72.5824 0zm0 0l72.5824 0l24.0401 -24.0401m-24.0401 24.0401l0 72.12033" fill-rule="evenodd"/><path stroke="#000000" stroke-width="1.0" stroke-linejoin="round" stroke-linecap="butt" stroke-dasharray="1.0,3.0" d="m258.77316 272.08307l24.0401 -24.0401l72.5824 0l0 72.12033l-24.0401 24.0401l-72.5824 0zm0 0l72.5824 0l24.0401 -24.0401m-24.0401 24.0401l0 72.12033" fill-rule="evenodd"/><path fill="#9b9b9b" fill-opacity="0.4438" d="m234.6739 296.06708l72.58238 0l0 72.12033l-72.58238 0z" fill-rule="evenodd"/><path fill="#7b7b7b" fill-opacity="0.4438" d="m307.2563 296.06708l24.0401 -24.0401l0 72.12033l-24.0401 24.0401z" fill-rule="evenodd"/><path fill="#afafaf" fill-opacity="0.4438" d="m234.6739 296.06708l24.040115 -24.0401l72.58237 0l-24.0401 24.0401z" fill-rule="evenodd"/><path fill="#000000" fill-opacity="0.0" d="m234.6739 296.06708l24.040115 -24.0401l72.58237 0l0 72.12033l-24.0401 24.0401l-72.58238 0zm0 0l72.58238 0l24.0401 -24.0401m-24.0401 24.0401l0 72.12033" fill-rule="evenodd"/><path stroke="#000000" stroke-width="1.0" stroke-linejoin="round" stroke-linecap="butt" stroke-dasharray="1.0,3.0" d="m234.6739 296.06708l24.040115 -24.0401l72.58237 0l0 72.12033l-24.0401 24.0401l-72.58238 0zm0 0l72.58238 0l24.0401 -24.0401m-24.0401 24.0401l0 72.12033" fill-rule="evenodd"/><path fill="#9b9b9b" fill-opacity="0.4438" d="m211.23805 319.5937l72.58238 0l0 72.1203l-72.58238 0z" fill-rule="evenodd"/><path fill="#7b7b7b" fill-opacity="0.4438" d="m283.82043 319.5937l24.0401 -24.04013l0 72.12033l-24.0401 24.0401z" fill-rule="evenodd"/><path fill="#afafaf" fill-opacity="0.4438" d="m211.23805 319.5937l24.040115 -24.04013l72.58237 0l-24.0401 24.04013z" fill-rule="evenodd"/><path fill="#000000" fill-opacity="0.0" d="m211.23805 319.5937l24.040115 -24.04013l72.58237 0l0 72.12033l-24.0401 24.0401l-72.58238 0zm0 0l72.58238 0l24.0401 -24.04013m-24.0401 24.04013l0 72.1203" fill-rule="evenodd"/><path stroke="#000000" stroke-width="1.0" stroke-linejoin="round" stroke-linecap="butt" stroke-dasharray="1.0,3.0" d="m211.23805 319.5937l24.040115 -24.04013l72.58237 0l0 72.12033l-24.0401 24.0401l-72.58238 0zm0 0l72.58238 0l24.0401 -24.04013m-24.0401 24.04013l0 72.1203" fill-rule="evenodd"/><path fill="#9b9b9b" fill-opacity="0.4438" d="m186.86563 343.582l72.5824 0l0 72.12033l-72.5824 0z" fill-rule="evenodd"/><path fill="#7b7b7b" fill-opacity="0.4438" d="m259.44803 343.582l24.0401 -24.0401l0 72.12033l-24.0401 24.0401z" fill-rule="evenodd"/><path fill="#afafaf" fill-opacity="0.4438" d="m186.86563 343.582l24.040115 -24.0401l72.58238 0l-24.0401 24.0401z" fill-rule="evenodd"/><path fill="#000000" fill-opacity="0.0" d="m186.86563 343.582l24.040115 -24.0401l72.58238 0l0 72.12033l-24.0401 24.0401l-72.5824 0zm0 0l72.5824 0l24.0401 -24.0401m-24.0401 24.0401l0 72.12033" fill-rule="evenodd"/><path stroke="#000000" stroke-width="1.0" stroke-linejoin="round" stroke-linecap="butt" stroke-dasharray="1.0,3.0" d="m186.86563 343.582l24.040115 -24.0401l72.58238 0l0 72.12033l-24.0401 24.0401l-72.5824 0zm0 0l72.5824 0l24.0401 -24.0401m-24.0401 24.0401l0 72.12033" fill-rule="evenodd"/><path fill="#9b9b9b" fill-opacity="0.4438" d="m330.77316 272.08307l72.5824 0l0 72.12033l-72.5824 0z" fill-rule="evenodd"/><path fill="#7b7b7b" fill-opacity="0.4438" d="m403.35556 272.08307l24.0401 -24.0401l0 72.12033l-24.0401 24.0401z" fill-rule="evenodd"/><path fill="#afafaf" fill-opacity="0.4438" d="m330.77316 272.08307l24.0401 -24.0401l72.5824 0l-24.0401 24.0401z" fill-rule="evenodd"/><path fill="#000000" fill-opacity="0.0" d="m330.77316 272.08307l24.0401 -24.0401l72.5824 0l0 72.12033l-24.0401 24.0401l-72.5824 0zm0 0l72.5824 0l24.0401 -24.0401m-24.0401 24.0401l0 72.12033" fill-rule="evenodd"/><path stroke="#000000" stroke-width="1.0" stroke-linejoin="round" stroke-linecap="butt" stroke-dasharray="1.0,3.0" d="m330.77316 272.08307l24.0401 -24.0401l72.5824 0l0 72.12033l-24.0401 24.0401l-72.5824 0zm0 0l72.5824 0l24.0401 -24.0401m-24.0401 24.0401l0 72.12033" fill-rule="evenodd"/><path fill="#9b9b9b" fill-opacity="0.4438" d="m306.67392 296.06708l72.58237 0l0 72.12033l-72.58237 0z" fill-rule="evenodd"/><path fill="#7b7b7b" fill-opacity="0.4438" d="m379.2563 296.06708l24.0401 -24.0401l0 72.12033l-24.0401 24.0401z" fill-rule="evenodd"/><path fill="#afafaf" fill-opacity="0.4438" d="m306.67392 296.06708l24.0401 -24.0401l72.58237 0l-24.0401 24.0401z" fill-rule="evenodd"/><path fill="#000000" fill-opacity="0.0" d="m306.67392 296.06708l24.0401 -24.0401l72.58237 0l0 72.12033l-24.0401 24.0401l-72.58237 0zm0 0l72.58237 0l24.0401 -24.0401m-24.0401 24.0401l0 72.12033" fill-rule="evenodd"/><path stroke="#000000" stroke-width="1.0" stroke-linejoin="round" stroke-linecap="butt" stroke-dasharray="1.0,3.0" d="m306.67392 296.06708l24.0401 -24.0401l72.58237 0l0 72.12033l-24.0401 24.0401l-72.58237 0zm0 0l72.58237 0l24.0401 -24.0401m-24.0401 24.0401l0 72.12033" fill-rule="evenodd"/><path fill="#9b9b9b" fill-opacity="0.4438" d="m283.23807 319.5937l72.58237 0l0 72.1203l-72.58237 0z" fill-rule="evenodd"/><path fill="#7b7b7b" fill-opacity="0.4438" d="m355.82043 319.5937l24.0401 -24.04013l0 72.12033l-24.0401 24.0401z" fill-rule="evenodd"/><path fill="#afafaf" fill-opacity="0.4438" d="m283.23807 319.5937l24.0401 -24.04013l72.58237 0l-24.0401 24.04013z" fill-rule="evenodd"/><path fill="#000000" fill-opacity="0.0" d="m283.23807 319.5937l24.0401 -24.04013l72.58237 0l0 72.12033l-24.0401 24.0401l-72.58237 0zm0 0l72.58237 0l24.0401 -24.04013m-24.0401 24.04013l0 72.1203" fill-rule="evenodd"/><path stroke="#000000" stroke-width="1.0" stroke-linejoin="round" stroke-linecap="butt" stroke-dasharray="1.0,3.0" d="m283.23807 319.5937l24.0401 -24.04013l72.58237 0l0 72.12033l-24.0401 24.0401l-72.58237 0zm0 0l72.58237 0l24.0401 -24.04013m-24.0401 24.04013l0 72.1203" fill-rule="evenodd"/><path fill="#9b9b9b" fill-opacity="0.4438" d="m258.86563 343.582l72.5824 0l0 72.12033l-72.5824 0z" fill-rule="evenodd"/><path fill="#7b7b7b" fill-opacity="0.4438" d="m331.44803 343.582l24.0401 -24.0401l0 72.12033l-24.0401 24.0401z" fill-rule="evenodd"/><path fill="#afafaf" fill-opacity="0.4438" d="m258.86563 343.582l24.0401 -24.0401l72.5824 0l-24.0401 24.0401z" fill-rule="evenodd"/><path fill="#000000" fill-opacity="0.0" d="m258.86563 343.582l24.0401 -24.0401l72.5824 0l0 72.12033l-24.0401 24.0401l-72.5824 0zm0 0l72.5824 0l24.0401 -24.0401m-24.0401 24.0401l0 72.12033" fill-rule="evenodd"/><path stroke="#000000" stroke-width="1.0" stroke-linejoin="round" stroke-linecap="butt" stroke-dasharray="1.0,3.0" d="m258.86563 343.582l24.0401 -24.0401l72.5824 0l0 72.12033l-24.0401 24.0401l-72.5824 0zm0 0l72.5824 0l24.0401 -24.0401m-24.0401 24.0401l0 72.12033" fill-rule="evenodd"/><path fill="#9b9b9b" fill-opacity="0.4438" d="m114.77316 200.08307l72.58238 0l0 72.12033l-72.58238 0z" fill-rule="evenodd"/><path fill="#7b7b7b" fill-opacity="0.4438" d="m187.35555 200.08307l24.040115 -24.0401l0 72.120316l-24.040115 24.040115z" fill-rule="evenodd"/><path fill="#afafaf" fill-opacity="0.4438" d="m114.77316 200.08307l24.040115 -24.0401l72.58238 0l-24.040115 24.0401z" fill-rule="evenodd"/><path fill="#000000" fill-opacity="0.0" d="m114.77316 200.08307l24.040115 -24.0401l72.58238 0l0 72.120316l-24.040115 24.040115l-72.58238 0zm0 0l72.58238 0l24.040115 -24.0401m-24.040115 24.0401l0 72.12033" fill-rule="evenodd"/><path stroke="#000000" stroke-width="1.0" stroke-linejoin="round" stroke-linecap="butt" stroke-dasharray="1.0,3.0" d="m114.77316 200.08307l24.040115 -24.0401l72.58238 0l0 72.120316l-24.040115 24.040115l-72.58238 0zm0 0l72.58238 0l24.040115 -24.0401m-24.040115 24.0401l0 72.12033" fill-rule="evenodd"/><path fill="#9b9b9b" fill-opacity="0.4438" d="m90.67391 224.06708l72.582375 0l0 72.12033l-72.582375 0z" fill-rule="evenodd"/><path fill="#7b7b7b" fill-opacity="0.4438" d="m163.25629 224.06708l24.040115 -24.0401l0 72.12033l-24.040115 24.0401z" fill-rule="evenodd"/><path fill="#afafaf" fill-opacity="0.4438" d="m90.67391 224.06708l24.040108 -24.0401l72.58238 0l-24.040115 24.0401z" fill-rule="evenodd"/><path fill="#000000" fill-opacity="0.0" d="m90.67391 224.06708l24.040108 -24.0401l72.58238 0l0 72.12033l-24.040115 24.0401l-72.582375 0zm0 0l72.582375 0l24.040115 -24.0401m-24.040115 24.0401l0 72.12033" fill-rule="evenodd"/><path stroke="#000000" stroke-width="1.0" stroke-linejoin="round" stroke-linecap="butt" stroke-dasharray="1.0,3.0" d="m90.67391 224.06708l24.040108 -24.0401l72.58238 0l0 72.12033l-24.040115 24.0401l-72.582375 0zm0 0l72.582375 0l24.040115 -24.0401m-24.040115 24.0401l0 72.12033" fill-rule="evenodd"/><path fill="#9b9b9b" fill-opacity="0.4438" d="m67.23806 247.59367l72.582375 0l0 72.120316l-72.582375 0z" fill-rule="evenodd"/><path fill="#7b7b7b" fill-opacity="0.4438" d="m139.82043 247.59367l24.040115 -24.0401l0 72.120316l-24.040115 24.0401z" fill-rule="evenodd"/><path fill="#afafaf" fill-opacity="0.4438" d="m67.23806 247.59367l24.040108 -24.0401l72.58238 0l-24.040115 24.0401z" fill-rule="evenodd"/><path fill="#000000" fill-opacity="0.0" d="m67.23806 247.59367l24.040108 -24.0401l72.58238 0l0 72.120316l-24.040115 24.0401l-72.582375 0zm0 0l72.582375 0l24.040115 -24.0401m-24.040115 24.0401l0 72.120316" fill-rule="evenodd"/><path stroke="#000000" stroke-width="1.0" stroke-linejoin="round" stroke-linecap="butt" stroke-dasharray="1.0,3.0" d="m67.23806 247.59367l24.040108 -24.0401l72.58238 0l0 72.120316l-24.040115 24.0401l-72.582375 0zm0 0l72.582375 0l24.040115 -24.0401m-24.040115 24.0401l0 72.120316" fill-rule="evenodd"/><path fill="#9b9b9b" fill-opacity="0.4438" d="m42.86564 271.582l72.58238 0l0 72.12033l-72.58238 0z" fill-rule="evenodd"/><path fill="#7b7b7b" fill-opacity="0.4438" d="m115.44802 271.582l24.040108 -24.0401l0 72.12033l-24.040108 24.0401z" fill-rule="evenodd"/><path fill="#afafaf" fill-opacity="0.4438" d="m42.86564 271.582l24.040108 -24.0401l72.58238 0l-24.040108 24.0401z" fill-rule="evenodd"/><path fill="#000000" fill-opacity="0.0" d="m42.86564 271.582l24.040108 -24.0401l72.58238 0l0 72.12033l-24.040108 24.0401l-72.58238 0zm0 0l72.58238 0l24.040108 -24.0401m-24.040108 24.0401l0 72.12033" fill-rule="evenodd"/><path stroke="#000000" stroke-width="1.0" stroke-linejoin="round" stroke-linecap="butt" stroke-dasharray="1.0,3.0" d="m42.86564 271.582l24.040108 -24.0401l72.58238 0l0 72.12033l-24.040108 24.0401l-72.58238 0zm0 0l72.58238 0l24.040108 -24.0401m-24.040108 24.0401l0 72.12033" fill-rule="evenodd"/><path fill="#9b9b9b" fill-opacity="0.4438" d="m186.77316 200.08307l72.5824 0l0 72.12033l-72.5824 0z" fill-rule="evenodd"/><path fill="#7b7b7b" fill-opacity="0.4438" d="m259.35556 200.08307l24.0401 -24.0401l0 72.120316l-24.0401 24.040115z" fill-rule="evenodd"/><path fill="#afafaf" fill-opacity="0.4438" d="m186.77316 200.08307l24.040115 -24.0401l72.58238 0l-24.0401 24.0401z" fill-rule="evenodd"/><path fill="#000000" fill-opacity="0.0" d="m186.77316 200.08307l24.040115 -24.0401l72.58238 0l0 72.120316l-24.0401 24.040115l-72.5824 0zm0 0l72.5824 0l24.0401 -24.0401m-24.0401 24.0401l0 72.12033" fill-rule="evenodd"/><path stroke="#000000" stroke-width="1.0" stroke-linejoin="round" stroke-linecap="butt" stroke-dasharray="1.0,3.0" d="m186.77316 200.08307l24.040115 -24.0401l72.58238 0l0 72.120316l-24.0401 24.040115l-72.5824 0zm0 0l72.5824 0l24.0401 -24.0401m-24.0401 24.0401l0 72.12033" fill-rule="evenodd"/><path fill="#9b9b9b" fill-opacity="0.4438" d="m162.6739 224.06708l72.58238 0l0 72.12033l-72.58238 0z" fill-rule="evenodd"/><path fill="#7b7b7b" fill-opacity="0.4438" d="m235.25629 224.06708l24.0401 -24.0401l0 72.12033l-24.0401 24.0401z" fill-rule="evenodd"/><path fill="#afafaf" fill-opacity="0.4438" d="m162.6739 224.06708l24.040115 -24.0401l72.58237 0l-24.0401 24.0401z" fill-rule="evenodd"/><path fill="#000000" fill-opacity="0.0" d="m162.6739 224.06708l24.040115 -24.0401l72.58237 0l0 72.12033l-24.0401 24.0401l-72.58238 0zm0 0l72.58238 0l24.0401 -24.0401m-24.0401 24.0401l0 72.12033" fill-rule="evenodd"/><path stroke="#000000" stroke-width="1.0" stroke-linejoin="round" stroke-linecap="butt" stroke-dasharray="1.0,3.0" d="m162.6739 224.06708l24.040115 -24.0401l72.58237 0l0 72.12033l-24.0401 24.0401l-72.58238 0zm0 0l72.58238 0l24.0401 -24.0401m-24.0401 24.0401l0 72.12033" fill-rule="evenodd"/><path fill="#9b9b9b" fill-opacity="0.4438" d="m139.23805 247.59367l72.58238 0l0 72.120316l-72.58238 0z" fill-rule="evenodd"/><path fill="#7b7b7b" fill-opacity="0.4438" d="m211.82043 247.59367l24.040115 -24.0401l0 72.120316l-24.040115 24.0401z" fill-rule="evenodd"/><path fill="#afafaf" fill-opacity="0.4438" d="m139.23805 247.59367l24.040115 -24.0401l72.58238 0l-24.040115 24.0401z" fill-rule="evenodd"/><path fill="#000000" fill-opacity="0.0" d="m139.23805 247.59367l24.040115 -24.0401l72.58238 0l0 72.120316l-24.040115 24.0401l-72.58238 0zm0 0l72.58238 0l24.040115 -24.0401m-24.040115 24.0401l0 72.120316" fill-rule="evenodd"/><path stroke="#000000" stroke-width="1.0" stroke-linejoin="round" stroke-linecap="butt" stroke-dasharray="1.0,3.0" d="m139.23805 247.59367l24.040115 -24.0401l72.58238 0l0 72.120316l-24.040115 24.0401l-72.58238 0zm0 0l72.58238 0l24.040115 -24.0401m-24.040115 24.0401l0 72.120316" fill-rule="evenodd"/><path fill="#9b9b9b" fill-opacity="0.4438" d="m114.86564 271.582l72.582375 0l0 72.12033l-72.582375 0z" fill-rule="evenodd"/><path fill="#7b7b7b" fill-opacity="0.4438" d="m187.44801 271.582l24.040115 -24.0401l0 72.12033l-24.040115 24.0401z" fill-rule="evenodd"/><path fill="#afafaf" fill-opacity="0.4438" d="m114.86564 271.582l24.040108 -24.0401l72.58238 0l-24.040115 24.0401z" fill-rule="evenodd"/><path fill="#000000" fill-opacity="0.0" d="m114.86564 271.582l24.040108 -24.0401l72.58238 0l0 72.12033l-24.040115 24.0401l-72.582375 0zm0 0l72.582375 0l24.040115 -24.0401m-24.040115 24.0401l0 72.12033" fill-rule="evenodd"/><path stroke="#000000" stroke-width="1.0" stroke-linejoin="round" stroke-linecap="butt" stroke-dasharray="1.0,3.0" d="m114.86564 271.582l24.040108 -24.0401l72.58238 0l0 72.12033l-24.040115 24.0401l-72.582375 0zm0 0l72.582375 0l24.040115 -24.0401m-24.040115 24.0401l0 72.12033" fill-rule="evenodd"/><path fill="#9b9b9b" fill-opacity="0.4438" d="m258.77316 200.08307l72.5824 0l0 72.12033l-72.5824 0z" fill-rule="evenodd"/><path fill="#7b7b7b" fill-opacity="0.4438" d="m331.35556 200.08307l24.0401 -24.0401l0 72.120316l-24.0401 24.040115z" fill-rule="evenodd"/><path fill="#afafaf" fill-opacity="0.4438" d="m258.77316 200.08307l24.0401 -24.0401l72.5824 0l-24.0401 24.0401z" fill-rule="evenodd"/><path fill="#000000" fill-opacity="0.0" d="m258.77316 200.08307l24.0401 -24.0401l72.5824 0l0 72.120316l-24.0401 24.040115l-72.5824 0zm0 0l72.5824 0l24.0401 -24.0401m-24.0401 24.0401l0 72.12033" fill-rule="evenodd"/><path stroke="#000000" stroke-width="1.0" stroke-linejoin="round" stroke-linecap="butt" stroke-dasharray="1.0,3.0" d="m258.77316 200.08307l24.0401 -24.0401l72.5824 0l0 72.120316l-24.0401 24.040115l-72.5824 0zm0 0l72.5824 0l24.0401 -24.0401m-24.0401 24.0401l0 72.12033" fill-rule="evenodd"/><path fill="#9b9b9b" fill-opacity="0.4438" d="m234.6739 224.06708l72.58238 0l0 72.12033l-72.58238 0z" fill-rule="evenodd"/><path fill="#7b7b7b" fill-opacity="0.4438" d="m307.2563 224.06708l24.0401 -24.0401l0 72.12033l-24.0401 24.0401z" fill-rule="evenodd"/><path fill="#afafaf" fill-opacity="0.4438" d="m234.6739 224.06708l24.040115 -24.0401l72.58237 0l-24.0401 24.0401z" fill-rule="evenodd"/><path fill="#000000" fill-opacity="0.0" d="m234.6739 224.06708l24.040115 -24.0401l72.58237 0l0 72.12033l-24.0401 24.0401l-72.58238 0zm0 0l72.58238 0l24.0401 -24.0401m-24.0401 24.0401l0 72.12033" fill-rule="evenodd"/><path stroke="#000000" stroke-width="1.0" stroke-linejoin="round" stroke-linecap="butt" stroke-dasharray="1.0,3.0" d="m234.6739 224.06708l24.040115 -24.0401l72.58237 0l0 72.12033l-24.0401 24.0401l-72.58238 0zm0 0l72.58238 0l24.0401 -24.0401m-24.0401 24.0401l0 72.12033" fill-rule="evenodd"/><path fill="#9b9b9b" fill-opacity="0.4438" d="m211.23805 247.59367l72.58238 0l0 72.120316l-72.58238 0z" fill-rule="evenodd"/><path fill="#7b7b7b" fill-opacity="0.4438" d="m283.82043 247.59367l24.0401 -24.0401l0 72.120316l-24.0401 24.0401z" fill-rule="evenodd"/><path fill="#afafaf" fill-opacity="0.4438" d="m211.23805 247.59367l24.040115 -24.0401l72.58237 0l-24.0401 24.0401z" fill-rule="evenodd"/><path fill="#000000" fill-opacity="0.0" d="m211.23805 247.59367l24.040115 -24.0401l72.58237 0l0 72.120316l-24.0401 24.0401l-72.58238 0zm0 0l72.58238 0l24.0401 -24.0401m-24.0401 24.0401l0 72.120316" fill-rule="evenodd"/><path stroke="#000000" stroke-width="1.0" stroke-linejoin="round" stroke-linecap="butt" stroke-dasharray="1.0,3.0" d="m211.23805 247.59367l24.040115 -24.0401l72.58237 0l0 72.120316l-24.0401 24.0401l-72.58238 0zm0 0l72.58238 0l24.0401 -24.0401m-24.0401 24.0401l0 72.120316" fill-rule="evenodd"/><path fill="#9b9b9b" fill-opacity="0.4438" d="m186.86563 271.582l72.5824 0l0 72.12033l-72.5824 0z" fill-rule="evenodd"/><path fill="#7b7b7b" fill-opacity="0.4438" d="m259.44803 271.582l24.0401 -24.0401l0 72.12033l-24.0401 24.0401z" fill-rule="evenodd"/><path fill="#afafaf" fill-opacity="0.4438" d="m186.86563 271.582l24.040115 -24.0401l72.58238 0l-24.0401 24.0401z" fill-rule="evenodd"/><path fill="#000000" fill-opacity="0.0" d="m186.86563 271.582l24.040115 -24.0401l72.58238 0l0 72.12033l-24.0401 24.0401l-72.5824 0zm0 0l72.5824 0l24.0401 -24.0401m-24.0401 24.0401l0 72.12033" fill-rule="evenodd"/><path stroke="#000000" stroke-width="1.0" stroke-linejoin="round" stroke-linecap="butt" stroke-dasharray="1.0,3.0" d="m186.86563 271.582l24.040115 -24.0401l72.58238 0l0 72.12033l-24.0401 24.0401l-72.5824 0zm0 0l72.5824 0l24.0401 -24.0401m-24.0401 24.0401l0 72.12033" fill-rule="evenodd"/><path fill="#9b9b9b" fill-opacity="0.4438" d="m330.77316 200.08307l72.5824 0l0 72.12033l-72.5824 0z" fill-rule="evenodd"/><path fill="#7b7b7b" fill-opacity="0.4438" d="m403.35556 200.08307l24.0401 -24.0401l0 72.120316l-24.0401 24.040115z" fill-rule="evenodd"/><path fill="#afafaf" fill-opacity="0.4438" d="m330.77316 200.08307l24.0401 -24.0401l72.5824 0l-24.0401 24.0401z" fill-rule="evenodd"/><path fill="#000000" fill-opacity="0.0" d="m330.77316 200.08307l24.0401 -24.0401l72.5824 0l0 72.120316l-24.0401 24.040115l-72.5824 0zm0 0l72.5824 0l24.0401 -24.0401m-24.0401 24.0401l0 72.12033" fill-rule="evenodd"/><path stroke="#000000" stroke-width="1.0" stroke-linejoin="round" stroke-linecap="butt" stroke-dasharray="1.0,3.0" d="m330.77316 200.08307l24.0401 -24.0401l72.5824 0l0 72.120316l-24.0401 24.040115l-72.5824 0zm0 0l72.5824 0l24.0401 -24.0401m-24.0401 24.0401l0 72.12033" fill-rule="evenodd"/><path fill="#9b9b9b" fill-opacity="0.4438" d="m306.67392 224.06708l72.58237 0l0 72.12033l-72.58237 0z" fill-rule="evenodd"/><path fill="#7b7b7b" fill-opacity="0.4438" d="m379.2563 224.06708l24.0401 -24.0401l0 72.12033l-24.0401 24.0401z" fill-rule="evenodd"/><path fill="#afafaf" fill-opacity="0.4438" d="m306.67392 224.06708l24.0401 -24.0401l72.58237 0l-24.0401 24.0401z" fill-rule="evenodd"/><path fill="#000000" fill-opacity="0.0" d="m306.67392 224.06708l24.0401 -24.0401l72.58237 0l0 72.12033l-24.0401 24.0401l-72.58237 0zm0 0l72.58237 0l24.0401 -24.0401m-24.0401 24.0401l0 72.12033" fill-rule="evenodd"/><path stroke="#000000" stroke-width="1.0" stroke-linejoin="round" stroke-linecap="butt" stroke-dasharray="1.0,3.0" d="m306.67392 224.06708l24.0401 -24.0401l72.58237 0l0 72.12033l-24.0401 24.0401l-72.58237 0zm0 0l72.58237 0l24.0401 -24.0401m-24.0401 24.0401l0 72.12033" fill-rule="evenodd"/><path fill="#9b9b9b" fill-opacity="0.4438" d="m283.23807 247.59367l72.58237 0l0 72.120316l-72.58237 0z" fill-rule="evenodd"/><path fill="#7b7b7b" fill-opacity="0.4438" d="m355.82043 247.59367l24.0401 -24.0401l0 72.120316l-24.0401 24.0401z" fill-rule="evenodd"/><path fill="#afafaf" fill-opacity="0.4438" d="m283.23807 247.59367l24.0401 -24.0401l72.58237 0l-24.0401 24.0401z" fill-rule="evenodd"/><path fill="#000000" fill-opacity="0.0" d="m283.23807 247.59367l24.0401 -24.0401l72.58237 0l0 72.120316l-24.0401 24.0401l-72.58237 0zm0 0l72.58237 0l24.0401 -24.0401m-24.0401 24.0401l0 72.120316" fill-rule="evenodd"/><path stroke="#000000" stroke-width="1.0" stroke-linejoin="round" stroke-linecap="butt" stroke-dasharray="1.0,3.0" d="m283.23807 247.59367l24.0401 -24.0401l72.58237 0l0 72.120316l-24.0401 24.0401l-72.58237 0zm0 0l72.58237 0l24.0401 -24.0401m-24.0401 24.0401l0 72.120316" fill-rule="evenodd"/><path fill="#9b9b9b" fill-opacity="0.4438" d="m258.86563 271.582l72.5824 0l0 72.12033l-72.5824 0z" fill-rule="evenodd"/><path fill="#7b7b7b" fill-opacity="0.4438" d="m331.44803 271.582l24.0401 -24.0401l0 72.12033l-24.0401 24.0401z" fill-rule="evenodd"/><path fill="#afafaf" fill-opacity="0.4438" d="m258.86563 271.582l24.0401 -24.0401l72.5824 0l-24.0401 24.0401z" fill-rule="evenodd"/><path fill="#000000" fill-opacity="0.0" d="m258.86563 271.582l24.0401 -24.0401l72.5824 0l0 72.12033l-24.0401 24.0401l-72.5824 0zm0 0l72.5824 0l24.0401 -24.0401m-24.0401 24.0401l0 72.12033" fill-rule="evenodd"/><path stroke="#000000" stroke-width="1.0" stroke-linejoin="round" stroke-linecap="butt" stroke-dasharray="1.0,3.0" d="m258.86563 271.582l24.0401 -24.0401l72.5824 0l0 72.12033l-24.0401 24.0401l-72.5824 0zm0 0l72.5824 0l24.0401 -24.0401m-24.0401 24.0401l0 72.12033" fill-rule="evenodd"/><path fill="#9b9b9b" fill-opacity="0.4438" d="m114.77316 128.08307l72.58238 0l0 72.12033l-72.58238 0z" fill-rule="evenodd"/><path fill="#7b7b7b" fill-opacity="0.4438" d="m187.35555 128.08307l24.040115 -24.040108l0 72.12032l-24.040115 24.040115z" fill-rule="evenodd"/><path fill="#afafaf" fill-opacity="0.4438" d="m114.77316 128.08307l24.040115 -24.040108l72.58238 0l-24.040115 24.040108z" fill-rule="evenodd"/><path fill="#000000" fill-opacity="0.0" d="m114.77316 128.08307l24.040115 -24.040108l72.58238 0l0 72.12032l-24.040115 24.040115l-72.58238 0zm0 0l72.58238 0l24.040115 -24.040108m-24.040115 24.040108l0 72.12033" fill-rule="evenodd"/><path stroke="#000000" stroke-width="1.0" stroke-linejoin="round" stroke-linecap="butt" stroke-dasharray="1.0,3.0" d="m114.77316 128.08307l24.040115 -24.040108l72.58238 0l0 72.12032l-24.040115 24.040115l-72.58238 0zm0 0l72.58238 0l24.040115 -24.040108m-24.040115 24.040108l0 72.12033" fill-rule="evenodd"/><path fill="#9b9b9b" fill-opacity="0.4438" d="m90.67391 152.06708l72.582375 0l0 72.12033l-72.582375 0z" fill-rule="evenodd"/><path fill="#7b7b7b" fill-opacity="0.4438" d="m163.25629 152.06708l24.040115 -24.0401l0 72.120316l-24.040115 24.040115z" fill-rule="evenodd"/><path fill="#afafaf" fill-opacity="0.4438" d="m90.67391 152.06708l24.040108 -24.0401l72.58238 0l-24.040115 24.0401z" fill-rule="evenodd"/><path fill="#000000" fill-opacity="0.0" d="m90.67391 152.06708l24.040108 -24.0401l72.58238 0l0 72.120316l-24.040115 24.040115l-72.582375 0zm0 0l72.582375 0l24.040115 -24.0401m-24.040115 24.0401l0 72.12033" fill-rule="evenodd"/><path stroke="#000000" stroke-width="1.0" stroke-linejoin="round" stroke-linecap="butt" stroke-dasharray="1.0,3.0" d="m90.67391 152.06708l24.040108 -24.0401l72.58238 0l0 72.120316l-24.040115 24.040115l-72.582375 0zm0 0l72.582375 0l24.040115 -24.0401m-24.040115 24.0401l0 72.12033" fill-rule="evenodd"/><path fill="#9b9b9b" fill-opacity="0.4438" d="m67.23806 175.59367l72.582375 0l0 72.12033l-72.582375 0z" fill-rule="evenodd"/><path fill="#7b7b7b" fill-opacity="0.4438" d="m139.82043 175.59367l24.040115 -24.0401l0 72.120316l-24.040115 24.040115z" fill-rule="evenodd"/><path fill="#afafaf" fill-opacity="0.4438" d="m67.23806 175.59367l24.040108 -24.0401l72.58238 0l-24.040115 24.0401z" fill-rule="evenodd"/><path fill="#000000" fill-opacity="0.0" d="m67.23806 175.59367l24.040108 -24.0401l72.58238 0l0 72.120316l-24.040115 24.040115l-72.582375 0zm0 0l72.582375 0l24.040115 -24.0401m-24.040115 24.0401l0 72.12033" fill-rule="evenodd"/><path stroke="#000000" stroke-width="1.0" stroke-linejoin="round" stroke-linecap="butt" stroke-dasharray="1.0,3.0" d="m67.23806 175.59367l24.040108 -24.0401l72.58238 0l0 72.120316l-24.040115 24.040115l-72.582375 0zm0 0l72.582375 0l24.040115 -24.0401m-24.040115 24.0401l0 72.12033" fill-rule="evenodd"/><path fill="#9b9b9b" fill-opacity="0.4438" d="m42.86564 199.582l72.58238 0l0 72.12033l-72.58238 0z" fill-rule="evenodd"/><path fill="#7b7b7b" fill-opacity="0.4438" d="m115.44802 199.582l24.040108 -24.0401l0 72.120316l-24.040108 24.040115z" fill-rule="evenodd"/><path fill="#afafaf" fill-opacity="0.4438" d="m42.86564 199.582l24.040108 -24.0401l72.58238 0l-24.040108 24.0401z" fill-rule="evenodd"/><path fill="#000000" fill-opacity="0.0" d="m42.86564 199.582l24.040108 -24.0401l72.58238 0l0 72.120316l-24.040108 24.040115l-72.58238 0zm0 0l72.58238 0l24.040108 -24.0401m-24.040108 24.0401l0 72.12033" fill-rule="evenodd"/><path stroke="#000000" stroke-width="1.0" stroke-linejoin="round" stroke-linecap="butt" stroke-dasharray="1.0,3.0" d="m42.86564 199.582l24.040108 -24.0401l72.58238 0l0 72.120316l-24.040108 24.040115l-72.58238 0zm0 0l72.58238 0l24.040108 -24.0401m-24.040108 24.0401l0 72.12033" fill-rule="evenodd"/><path fill="#9b9b9b" fill-opacity="0.4438" d="m186.77316 128.08307l72.5824 0l0 72.12033l-72.5824 0z" fill-rule="evenodd"/><path fill="#7b7b7b" fill-opacity="0.4438" d="m259.35556 128.08307l24.0401 -24.040108l0 72.12032l-24.0401 24.040115z" fill-rule="evenodd"/><path fill="#afafaf" fill-opacity="0.4438" d="m186.77316 128.08307l24.040115 -24.040108l72.58238 0l-24.0401 24.040108z" fill-rule="evenodd"/><path fill="#000000" fill-opacity="0.0" d="m186.77316 128.08307l24.040115 -24.040108l72.58238 0l0 72.12032l-24.0401 24.040115l-72.5824 0zm0 0l72.5824 0l24.0401 -24.040108m-24.0401 24.040108l0 72.12033" fill-rule="evenodd"/><path stroke="#000000" stroke-width="1.0" stroke-linejoin="round" stroke-linecap="butt" stroke-dasharray="1.0,3.0" d="m186.77316 128.08307l24.040115 -24.040108l72.58238 0l0 72.12032l-24.0401 24.040115l-72.5824 0zm0 0l72.5824 0l24.0401 -24.040108m-24.0401 24.040108l0 72.12033" fill-rule="evenodd"/><path fill="#9b9b9b" fill-opacity="0.4438" d="m162.6739 152.06708l72.58238 0l0 72.12033l-72.58238 0z" fill-rule="evenodd"/><path fill="#7b7b7b" fill-opacity="0.4438" d="m235.25629 152.06708l24.0401 -24.0401l0 72.120316l-24.0401 24.040115z" fill-rule="evenodd"/><path fill="#afafaf" fill-opacity="0.4438" d="m162.6739 152.06708l24.040115 -24.0401l72.58237 0l-24.0401 24.0401z" fill-rule="evenodd"/><path fill="#000000" fill-opacity="0.0" d="m162.6739 152.06708l24.040115 -24.0401l72.58237 0l0 72.120316l-24.0401 24.040115l-72.58238 0zm0 0l72.58238 0l24.0401 -24.0401m-24.0401 24.0401l0 72.12033" fill-rule="evenodd"/><path stroke="#000000" stroke-width="1.0" stroke-linejoin="round" stroke-linecap="butt" stroke-dasharray="1.0,3.0" d="m162.6739 152.06708l24.040115 -24.0401l72.58237 0l0 72.120316l-24.0401 24.040115l-72.58238 0zm0 0l72.58238 0l24.0401 -24.0401m-24.0401 24.0401l0 72.12033" fill-rule="evenodd"/><path fill="#9b9b9b" fill-opacity="0.4438" d="m139.23805 175.59367l72.58238 0l0 72.12033l-72.58238 0z" fill-rule="evenodd"/><path fill="#7b7b7b" fill-opacity="0.4438" d="m211.82043 175.59367l24.040115 -24.0401l0 72.120316l-24.040115 24.040115z" fill-rule="evenodd"/><path fill="#afafaf" fill-opacity="0.4438" d="m139.23805 175.59367l24.040115 -24.0401l72.58238 0l-24.040115 24.0401z" fill-rule="evenodd"/><path fill="#000000" fill-opacity="0.0" d="m139.23805 175.59367l24.040115 -24.0401l72.58238 0l0 72.120316l-24.040115 24.040115l-72.58238 0zm0 0l72.58238 0l24.040115 -24.0401m-24.040115 24.0401l0 72.12033" fill-rule="evenodd"/><path stroke="#000000" stroke-width="1.0" stroke-linejoin="round" stroke-linecap="butt" stroke-dasharray="1.0,3.0" d="m139.23805 175.59367l24.040115 -24.0401l72.58238 0l0 72.120316l-24.040115 24.040115l-72.58238 0zm0 0l72.58238 0l24.040115 -24.0401m-24.040115 24.0401l0 72.12033" fill-rule="evenodd"/><path fill="#9b9b9b" fill-opacity="0.4438" d="m114.86564 199.582l72.582375 0l0 72.12033l-72.582375 0z" fill-rule="evenodd"/><path fill="#7b7b7b" fill-opacity="0.4438" d="m187.44801 199.582l24.040115 -24.0401l0 72.120316l-24.040115 24.040115z" fill-rule="evenodd"/><path fill="#afafaf" fill-opacity="0.4438" d="m114.86564 199.582l24.040108 -24.0401l72.58238 0l-24.040115 24.0401z" fill-rule="evenodd"/><path fill="#000000" fill-opacity="0.0" d="m114.86564 199.582l24.040108 -24.0401l72.58238 0l0 72.120316l-24.040115 24.040115l-72.582375 0zm0 0l72.582375 0l24.040115 -24.0401m-24.040115 24.0401l0 72.12033" fill-rule="evenodd"/><path stroke="#000000" stroke-width="1.0" stroke-linejoin="round" stroke-linecap="butt" stroke-dasharray="1.0,3.0" d="m114.86564 199.582l24.040108 -24.0401l72.58238 0l0 72.120316l-24.040115 24.040115l-72.582375 0zm0 0l72.582375 0l24.040115 -24.0401m-24.040115 24.0401l0 72.12033" fill-rule="evenodd"/><path fill="#9b9b9b" fill-opacity="0.4438" d="m258.77316 128.08307l72.5824 0l0 72.12033l-72.5824 0z" fill-rule="evenodd"/><path fill="#7b7b7b" fill-opacity="0.4438" d="m331.35556 128.08307l24.0401 -24.040108l0 72.12032l-24.0401 24.040115z" fill-rule="evenodd"/><path fill="#afafaf" fill-opacity="0.4438" d="m258.77316 128.08307l24.0401 -24.040108l72.5824 0l-24.0401 24.040108z" fill-rule="evenodd"/><path fill="#000000" fill-opacity="0.0" d="m258.77316 128.08307l24.0401 -24.040108l72.5824 0l0 72.12032l-24.0401 24.040115l-72.5824 0zm0 0l72.5824 0l24.0401 -24.040108m-24.0401 24.040108l0 72.12033" fill-rule="evenodd"/><path stroke="#000000" stroke-width="1.0" stroke-linejoin="round" stroke-linecap="butt" stroke-dasharray="1.0,3.0" d="m258.77316 128.08307l24.0401 -24.040108l72.5824 0l0 72.12032l-24.0401 24.040115l-72.5824 0zm0 0l72.5824 0l24.0401 -24.040108m-24.0401 24.040108l0 72.12033" fill-rule="evenodd"/><path fill="#9b9b9b" fill-opacity="0.4438" d="m234.6739 152.06708l72.58238 0l0 72.12033l-72.58238 0z" fill-rule="evenodd"/><path fill="#7b7b7b" fill-opacity="0.4438" d="m307.2563 152.06708l24.0401 -24.0401l0 72.120316l-24.0401 24.040115z" fill-rule="evenodd"/><path fill="#afafaf" fill-opacity="0.4438" d="m234.6739 152.06708l24.040115 -24.0401l72.58237 0l-24.0401 24.0401z" fill-rule="evenodd"/><path fill="#000000" fill-opacity="0.0" d="m234.6739 152.06708l24.040115 -24.0401l72.58237 0l0 72.120316l-24.0401 24.040115l-72.58238 0zm0 0l72.58238 0l24.0401 -24.0401m-24.0401 24.0401l0 72.12033" fill-rule="evenodd"/><path stroke="#000000" stroke-width="1.0" stroke-linejoin="round" stroke-linecap="butt" stroke-dasharray="1.0,3.0" d="m234.6739 152.06708l24.040115 -24.0401l72.58237 0l0 72.120316l-24.0401 24.040115l-72.58238 0zm0 0l72.58238 0l24.0401 -24.0401m-24.0401 24.0401l0 72.12033" fill-rule="evenodd"/><path fill="#9b9b9b" fill-opacity="0.4438" d="m211.23805 175.59367l72.58238 0l0 72.12033l-72.58238 0z" fill-rule="evenodd"/><path fill="#7b7b7b" fill-opacity="0.4438" d="m283.82043 175.59367l24.0401 -24.0401l0 72.120316l-24.0401 24.040115z" fill-rule="evenodd"/><path fill="#afafaf" fill-opacity="0.4438" d="m211.23805 175.59367l24.040115 -24.0401l72.58237 0l-24.0401 24.0401z" fill-rule="evenodd"/><path fill="#000000" fill-opacity="0.0" d="m211.23805 175.59367l24.040115 -24.0401l72.58237 0l0 72.120316l-24.0401 24.040115l-72.58238 0zm0 0l72.58238 0l24.0401 -24.0401m-24.0401 24.0401l0 72.12033" fill-rule="evenodd"/><path stroke="#000000" stroke-width="1.0" stroke-linejoin="round" stroke-linecap="butt" stroke-dasharray="1.0,3.0" d="m211.23805 175.59367l24.040115 -24.0401l72.58237 0l0 72.120316l-24.0401 24.040115l-72.58238 0zm0 0l72.58238 0l24.0401 -24.0401m-24.0401 24.0401l0 72.12033" fill-rule="evenodd"/><path fill="#9b9b9b" fill-opacity="0.4438" d="m186.86563 199.582l72.5824 0l0 72.12033l-72.5824 0z" fill-rule="evenodd"/><path fill="#7b7b7b" fill-opacity="0.4438" d="m259.44803 199.582l24.0401 -24.0401l0 72.120316l-24.0401 24.040115z" fill-rule="evenodd"/><path fill="#afafaf" fill-opacity="0.4438" d="m186.86563 199.582l24.040115 -24.0401l72.58238 0l-24.0401 24.0401z" fill-rule="evenodd"/><path fill="#000000" fill-opacity="0.0" d="m186.86563 199.582l24.040115 -24.0401l72.58238 0l0 72.120316l-24.0401 24.040115l-72.5824 0zm0 0l72.5824 0l24.0401 -24.0401m-24.0401 24.0401l0 72.12033" fill-rule="evenodd"/><path stroke="#000000" stroke-width="1.0" stroke-linejoin="round" stroke-linecap="butt" stroke-dasharray="1.0,3.0" d="m186.86563 199.582l24.040115 -24.0401l72.58238 0l0 72.120316l-24.0401 24.040115l-72.5824 0zm0 0l72.5824 0l24.0401 -24.0401m-24.0401 24.0401l0 72.12033" fill-rule="evenodd"/><path fill="#9b9b9b" fill-opacity="0.4438" d="m330.77316 128.08307l72.5824 0l0 72.12033l-72.5824 0z" fill-rule="evenodd"/><path fill="#7b7b7b" fill-opacity="0.4438" d="m403.35556 128.08307l24.0401 -24.040108l0 72.12032l-24.0401 24.040115z" fill-rule="evenodd"/><path fill="#afafaf" fill-opacity="0.4438" d="m330.77316 128.08307l24.0401 -24.040108l72.5824 0l-24.0401 24.040108z" fill-rule="evenodd"/><path fill="#000000" fill-opacity="0.0" d="m330.77316 128.08307l24.0401 -24.040108l72.5824 0l0 72.12032l-24.0401 24.040115l-72.5824 0zm0 0l72.5824 0l24.0401 -24.040108m-24.0401 24.040108l0 72.12033" fill-rule="evenodd"/><path stroke="#000000" stroke-width="1.0" stroke-linejoin="round" stroke-linecap="butt" stroke-dasharray="1.0,3.0" d="m330.77316 128.08307l24.0401 -24.040108l72.5824 0l0 72.12032l-24.0401 24.040115l-72.5824 0zm0 0l72.5824 0l24.0401 -24.040108m-24.0401 24.040108l0 72.12033" fill-rule="evenodd"/><path fill="#9b9b9b" fill-opacity="0.4438" d="m306.67392 152.06708l72.58237 0l0 72.12033l-72.58237 0z" fill-rule="evenodd"/><path fill="#7b7b7b" fill-opacity="0.4438" d="m379.2563 152.06708l24.0401 -24.0401l0 72.120316l-24.0401 24.040115z" fill-rule="evenodd"/><path fill="#afafaf" fill-opacity="0.4438" d="m306.67392 152.06708l24.0401 -24.0401l72.58237 0l-24.0401 24.0401z" fill-rule="evenodd"/><path fill="#000000" fill-opacity="0.0" d="m306.67392 152.06708l24.0401 -24.0401l72.58237 0l0 72.120316l-24.0401 24.040115l-72.58237 0zm0 0l72.58237 0l24.0401 -24.0401m-24.0401 24.0401l0 72.12033" fill-rule="evenodd"/><path stroke="#000000" stroke-width="1.0" stroke-linejoin="round" stroke-linecap="butt" stroke-dasharray="1.0,3.0" d="m306.67392 152.06708l24.0401 -24.0401l72.58237 0l0 72.120316l-24.0401 24.040115l-72.58237 0zm0 0l72.58237 0l24.0401 -24.0401m-24.0401 24.0401l0 72.12033" fill-rule="evenodd"/><path fill="#9b9b9b" fill-opacity="0.4438" d="m283.23807 175.59367l72.58237 0l0 72.12033l-72.58237 0z" fill-rule="evenodd"/><path fill="#7b7b7b" fill-opacity="0.4438" d="m355.82043 175.59367l24.0401 -24.0401l0 72.120316l-24.0401 24.040115z" fill-rule="evenodd"/><path fill="#afafaf" fill-opacity="0.4438" d="m283.23807 175.59367l24.0401 -24.0401l72.58237 0l-24.0401 24.0401z" fill-rule="evenodd"/><path fill="#000000" fill-opacity="0.0" d="m283.23807 175.59367l24.0401 -24.0401l72.58237 0l0 72.120316l-24.0401 24.040115l-72.58237 0zm0 0l72.58237 0l24.0401 -24.0401m-24.0401 24.0401l0 72.12033" fill-rule="evenodd"/><path stroke="#000000" stroke-width="1.0" stroke-linejoin="round" stroke-linecap="butt" stroke-dasharray="1.0,3.0" d="m283.23807 175.59367l24.0401 -24.0401l72.58237 0l0 72.120316l-24.0401 24.040115l-72.58237 0zm0 0l72.58237 0l24.0401 -24.0401m-24.0401 24.0401l0 72.12033" fill-rule="evenodd"/><path fill="#9b9b9b" fill-opacity="0.4438" d="m258.86563 199.582l72.5824 0l0 72.12033l-72.5824 0z" fill-rule="evenodd"/><path fill="#7b7b7b" fill-opacity="0.4438" d="m331.44803 199.582l24.0401 -24.0401l0 72.120316l-24.0401 24.040115z" fill-rule="evenodd"/><path fill="#afafaf" fill-opacity="0.4438" d="m258.86563 199.582l24.0401 -24.0401l72.5824 0l-24.0401 24.0401z" fill-rule="evenodd"/><path fill="#000000" fill-opacity="0.0" d="m258.86563 199.582l24.0401 -24.0401l72.5824 0l0 72.120316l-24.0401 24.040115l-72.5824 0zm0 0l72.5824 0l24.0401 -24.0401m-24.0401 24.0401l0 72.12033" fill-rule="evenodd"/><path stroke="#000000" stroke-width="1.0" stroke-linejoin="round" stroke-linecap="butt" stroke-dasharray="1.0,3.0" d="m258.86563 199.582l24.0401 -24.0401l72.5824 0l0 72.120316l-24.0401 24.040115l-72.5824 0zm0 0l72.5824 0l24.0401 -24.0401m-24.0401 24.0401l0 72.12033" fill-rule="evenodd"/><path fill="#9b9b9b" fill-opacity="0.4438" d="m114.77316 56.083073l72.58238 0l0 72.12033l-72.58238 0z" fill-rule="evenodd"/><path fill="#7b7b7b" fill-opacity="0.4438" d="m187.35555 56.083073l24.040115 -24.040108l0 72.120316l-24.040115 24.040115z" fill-rule="evenodd"/><path fill="#afafaf" fill-opacity="0.4438" d="m114.77316 56.083073l24.040115 -24.040108l72.58238 0l-24.040115 24.040108z" fill-rule="evenodd"/><path fill="#000000" fill-opacity="0.0" d="m114.77316 56.083073l24.040115 -24.040108l72.58238 0l0 72.120316l-24.040115 24.040115l-72.58238 0zm0 0l72.58238 0l24.040115 -24.040108m-24.040115 24.040108l0 72.12033" fill-rule="evenodd"/><path stroke="#000000" stroke-width="1.0" stroke-linejoin="round" stroke-linecap="butt" stroke-dasharray="1.0,3.0" d="m114.77316 56.083073l24.040115 -24.040108l72.58238 0l0 72.120316l-24.040115 24.040115l-72.58238 0zm0 0l72.58238 0l24.040115 -24.040108m-24.040115 24.040108l0 72.12033" fill-rule="evenodd"/><path fill="#9b9b9b" fill-opacity="0.4438" d="m90.67391 80.06708l72.582375 0l0 72.12033l-72.582375 0z" fill-rule="evenodd"/><path fill="#7b7b7b" fill-opacity="0.4438" d="m163.25629 80.06708l24.040115 -24.040104l0 72.120316l-24.040115 24.040115z" fill-rule="evenodd"/><path fill="#afafaf" fill-opacity="0.4438" d="m90.67391 80.06708l24.040108 -24.040104l72.58238 0l-24.040115 24.040104z" fill-rule="evenodd"/><path fill="#000000" fill-opacity="0.0" d="m90.67391 80.06708l24.040108 -24.040104l72.58238 0l0 72.120316l-24.040115 24.040115l-72.582375 0zm0 0l72.582375 0l24.040115 -24.040104m-24.040115 24.040104l0 72.12033" fill-rule="evenodd"/><path stroke="#000000" stroke-width="1.0" stroke-linejoin="round" stroke-linecap="butt" stroke-dasharray="1.0,3.0" d="m90.67391 80.06708l24.040108 -24.040104l72.58238 0l0 72.120316l-24.040115 24.040115l-72.582375 0zm0 0l72.582375 0l24.040115 -24.040104m-24.040115 24.040104l0 72.12033" fill-rule="evenodd"/><path fill="#9b9b9b" fill-opacity="0.4438" d="m67.23806 103.59367l72.582375 0l0 72.12033l-72.582375 0z" fill-rule="evenodd"/><path fill="#7b7b7b" fill-opacity="0.4438" d="m139.82043 103.59367l24.040115 -24.040108l0 72.12032l-24.040115 24.040115z" fill-rule="evenodd"/><path fill="#afafaf" fill-opacity="0.4438" d="m67.23806 103.59367l24.040108 -24.040108l72.58238 0l-24.040115 24.040108z" fill-rule="evenodd"/><path fill="#000000" fill-opacity="0.0" d="m67.23806 103.59367l24.040108 -24.040108l72.58238 0l0 72.12032l-24.040115 24.040115l-72.582375 0zm0 0l72.582375 0l24.040115 -24.040108m-24.040115 24.040108l0 72.12033" fill-rule="evenodd"/><path stroke="#000000" stroke-width="1.0" stroke-linejoin="round" stroke-linecap="butt" stroke-dasharray="1.0,3.0" d="m67.23806 103.59367l24.040108 -24.040108l72.58238 0l0 72.12032l-24.040115 24.040115l-72.582375 0zm0 0l72.582375 0l24.040115 -24.040108m-24.040115 24.040108l0 72.12033" fill-rule="evenodd"/><path fill="#9b9b9b" fill-opacity="0.4438" d="m42.86564 127.582l72.58238 0l0 72.12033l-72.58238 0z" fill-rule="evenodd"/><path fill="#7b7b7b" fill-opacity="0.4438" d="m115.44802 127.582l24.040108 -24.040108l0 72.12032l-24.040108 24.040115z" fill-rule="evenodd"/><path fill="#afafaf" fill-opacity="0.4438" d="m42.86564 127.582l24.040108 -24.040108l72.58238 0l-24.040108 24.040108z" fill-rule="evenodd"/><path fill="#000000" fill-opacity="0.0" d="m42.86564 127.582l24.040108 -24.040108l72.58238 0l0 72.12032l-24.040108 24.040115l-72.58238 0zm0 0l72.58238 0l24.040108 -24.040108m-24.040108 24.040108l0 72.12033" fill-rule="evenodd"/><path stroke="#000000" stroke-width="1.0" stroke-linejoin="round" stroke-linecap="butt" stroke-dasharray="1.0,3.0" d="m42.86564 127.582l24.040108 -24.040108l72.58238 0l0 72.12032l-24.040108 24.040115l-72.58238 0zm0 0l72.58238 0l24.040108 -24.040108m-24.040108 24.040108l0 72.12033" fill-rule="evenodd"/><path fill="#9b9b9b" fill-opacity="0.4438" d="m186.77316 56.083073l72.5824 0l0 72.12033l-72.5824 0z" fill-rule="evenodd"/><path fill="#7b7b7b" fill-opacity="0.4438" d="m259.35556 56.083073l24.0401 -24.040108l0 72.120316l-24.0401 24.040115z" fill-rule="evenodd"/><path fill="#afafaf" fill-opacity="0.4438" d="m186.77316 56.083073l24.040115 -24.040108l72.58238 0l-24.0401 24.040108z" fill-rule="evenodd"/><path fill="#000000" fill-opacity="0.0" d="m186.77316 56.083073l24.040115 -24.040108l72.58238 0l0 72.120316l-24.0401 24.040115l-72.5824 0zm0 0l72.5824 0l24.0401 -24.040108m-24.0401 24.040108l0 72.12033" fill-rule="evenodd"/><path stroke="#000000" stroke-width="1.0" stroke-linejoin="round" stroke-linecap="butt" stroke-dasharray="1.0,3.0" d="m186.77316 56.083073l24.040115 -24.040108l72.58238 0l0 72.120316l-24.0401 24.040115l-72.5824 0zm0 0l72.5824 0l24.0401 -24.040108m-24.0401 24.040108l0 72.12033" fill-rule="evenodd"/><path fill="#9b9b9b" fill-opacity="0.4438" d="m162.6739 80.06708l72.58238 0l0 72.12033l-72.58238 0z" fill-rule="evenodd"/><path fill="#7b7b7b" fill-opacity="0.4438" d="m235.25629 80.06708l24.0401 -24.040104l0 72.120316l-24.0401 24.040115z" fill-rule="evenodd"/><path fill="#afafaf" fill-opacity="0.4438" d="m162.6739 80.06708l24.040115 -24.040104l72.58237 0l-24.0401 24.040104z" fill-rule="evenodd"/><path fill="#000000" fill-opacity="0.0" d="m162.6739 80.06708l24.040115 -24.040104l72.58237 0l0 72.120316l-24.0401 24.040115l-72.58238 0zm0 0l72.58238 0l24.0401 -24.040104m-24.0401 24.040104l0 72.12033" fill-rule="evenodd"/><path stroke="#000000" stroke-width="1.0" stroke-linejoin="round" stroke-linecap="butt" stroke-dasharray="1.0,3.0" d="m162.6739 80.06708l24.040115 -24.040104l72.58237 0l0 72.120316l-24.0401 24.040115l-72.58238 0zm0 0l72.58238 0l24.0401 -24.040104m-24.0401 24.040104l0 72.12033" fill-rule="evenodd"/><path fill="#9b9b9b" fill-opacity="0.4438" d="m139.23805 103.59367l72.58238 0l0 72.12033l-72.58238 0z" fill-rule="evenodd"/><path fill="#7b7b7b" fill-opacity="0.4438" d="m211.82043 103.59367l24.040115 -24.040108l0 72.12032l-24.040115 24.040115z" fill-rule="evenodd"/><path fill="#afafaf" fill-opacity="0.4438" d="m139.23805 103.59367l24.040115 -24.040108l72.58238 0l-24.040115 24.040108z" fill-rule="evenodd"/><path fill="#000000" fill-opacity="0.0" d="m139.23805 103.59367l24.040115 -24.040108l72.58238 0l0 72.12032l-24.040115 24.040115l-72.58238 0zm0 0l72.58238 0l24.040115 -24.040108m-24.040115 24.040108l0 72.12033" fill-rule="evenodd"/><path stroke="#000000" stroke-width="1.0" stroke-linejoin="round" stroke-linecap="butt" stroke-dasharray="1.0,3.0" d="m139.23805 103.59367l24.040115 -24.040108l72.58238 0l0 72.12032l-24.040115 24.040115l-72.58238 0zm0 0l72.58238 0l24.040115 -24.040108m-24.040115 24.040108l0 72.12033" fill-rule="evenodd"/><path fill="#9b9b9b" fill-opacity="0.4438" d="m114.86564 127.582l72.582375 0l0 72.12033l-72.582375 0z" fill-rule="evenodd"/><path fill="#7b7b7b" fill-opacity="0.4438" d="m187.44801 127.582l24.040115 -24.040108l0 72.12032l-24.040115 24.040115z" fill-rule="evenodd"/><path fill="#afafaf" fill-opacity="0.4438" d="m114.86564 127.582l24.040108 -24.040108l72.58238 0l-24.040115 24.040108z" fill-rule="evenodd"/><path fill="#000000" fill-opacity="0.0" d="m114.86564 127.582l24.040108 -24.040108l72.58238 0l0 72.12032l-24.040115 24.040115l-72.582375 0zm0 0l72.582375 0l24.040115 -24.040108m-24.040115 24.040108l0 72.12033" fill-rule="evenodd"/><path stroke="#000000" stroke-width="1.0" stroke-linejoin="round" stroke-linecap="butt" stroke-dasharray="1.0,3.0" d="m114.86564 127.582l24.040108 -24.040108l72.58238 0l0 72.12032l-24.040115 24.040115l-72.582375 0zm0 0l72.582375 0l24.040115 -24.040108m-24.040115 24.040108l0 72.12033" fill-rule="evenodd"/><path fill="#9b9b9b" fill-opacity="0.4438" d="m258.77316 56.083073l72.5824 0l0 72.12033l-72.5824 0z" fill-rule="evenodd"/><path fill="#7b7b7b" fill-opacity="0.4438" d="m331.35556 56.083073l24.0401 -24.040108l0 72.120316l-24.0401 24.040115z" fill-rule="evenodd"/><path fill="#afafaf" fill-opacity="0.4438" d="m258.77316 56.083073l24.0401 -24.040108l72.5824 0l-24.0401 24.040108z" fill-rule="evenodd"/><path fill="#000000" fill-opacity="0.0" d="m258.77316 56.083073l24.0401 -24.040108l72.5824 0l0 72.120316l-24.0401 24.040115l-72.5824 0zm0 0l72.5824 0l24.0401 -24.040108m-24.0401 24.040108l0 72.12033" fill-rule="evenodd"/><path stroke="#000000" stroke-width="1.0" stroke-linejoin="round" stroke-linecap="butt" stroke-dasharray="1.0,3.0" d="m258.77316 56.083073l24.0401 -24.040108l72.5824 0l0 72.120316l-24.0401 24.040115l-72.5824 0zm0 0l72.5824 0l24.0401 -24.040108m-24.0401 24.040108l0 72.12033" fill-rule="evenodd"/><path fill="#9b9b9b" fill-opacity="0.4438" d="m234.6739 80.06708l72.58238 0l0 72.12033l-72.58238 0z" fill-rule="evenodd"/><path fill="#7b7b7b" fill-opacity="0.4438" d="m307.2563 80.06708l24.0401 -24.040104l0 72.120316l-24.0401 24.040115z" fill-rule="evenodd"/><path fill="#afafaf" fill-opacity="0.4438" d="m234.6739 80.06708l24.040115 -24.040104l72.58237 0l-24.0401 24.040104z" fill-rule="evenodd"/><path fill="#000000" fill-opacity="0.0" d="m234.6739 80.06708l24.040115 -24.040104l72.58237 0l0 72.120316l-24.0401 24.040115l-72.58238 0zm0 0l72.58238 0l24.0401 -24.040104m-24.0401 24.040104l0 72.12033" fill-rule="evenodd"/><path stroke="#000000" stroke-width="1.0" stroke-linejoin="round" stroke-linecap="butt" stroke-dasharray="1.0,3.0" d="m234.6739 80.06708l24.040115 -24.040104l72.58237 0l0 72.120316l-24.0401 24.040115l-72.58238 0zm0 0l72.58238 0l24.0401 -24.040104m-24.0401 24.040104l0 72.12033" fill-rule="evenodd"/><path fill="#ff0000" d="m211.23805 103.59367l72.58238 0l0 72.12033l-72.58238 0z" fill-rule="evenodd"/><path fill="#cb0000" d="m283.82043 103.59367l24.0401 -24.040108l0 72.12032l-24.0401 24.040115z" fill-rule="evenodd"/><path fill="#ff3333" d="m211.23805 103.59367l24.040115 -24.040108l72.58237 0l-24.0401 24.040108z" fill-rule="evenodd"/><path fill="#000000" fill-opacity="0.0" d="m211.23805 103.59367l24.040115 -24.040108l72.58237 0l0 72.12032l-24.0401 24.040115l-72.58238 0zm0 0l72.58238 0l24.0401 -24.040108m-24.0401 24.040108l0 72.12033" fill-rule="evenodd"/><path stroke="#000000" stroke-width="1.0" stroke-linejoin="round" stroke-linecap="butt" stroke-dasharray="1.0,3.0" d="m211.23805 103.59367l24.040115 -24.040108l72.58237 0l0 72.12032l-24.0401 24.040115l-72.58238 0zm0 0l72.58238 0l24.0401 -24.040108m-24.0401 24.040108l0 72.12033" fill-rule="evenodd"/><path fill="#9b9b9b" fill-opacity="0.4438" d="m186.86563 127.582l72.5824 0l0 72.12033l-72.5824 0z" fill-rule="evenodd"/><path fill="#7b7b7b" fill-opacity="0.4438" d="m259.44803 127.582l24.0401 -24.040108l0 72.12032l-24.0401 24.040115z" fill-rule="evenodd"/><path fill="#afafaf" fill-opacity="0.4438" d="m186.86563 127.582l24.040115 -24.040108l72.58238 0l-24.0401 24.040108z" fill-rule="evenodd"/><path fill="#000000" fill-opacity="0.0" d="m186.86563 127.582l24.040115 -24.040108l72.58238 0l0 72.12032l-24.0401 24.040115l-72.5824 0zm0 0l72.5824 0l24.0401 -24.040108m-24.0401 24.040108l0 72.12033" fill-rule="evenodd"/><path stroke="#000000" stroke-width="1.0" stroke-linejoin="round" stroke-linecap="butt" stroke-dasharray="1.0,3.0" d="m186.86563 127.582l24.040115 -24.040108l72.58238 0l0 72.12032l-24.0401 24.040115l-72.5824 0zm0 0l72.5824 0l24.0401 -24.040108m-24.0401 24.040108l0 72.12033" fill-rule="evenodd"/><path fill="#9b9b9b" fill-opacity="0.4438" d="m330.77316 56.083073l72.5824 0l0 72.12033l-72.5824 0z" fill-rule="evenodd"/><path fill="#7b7b7b" fill-opacity="0.4438" d="m403.35556 56.083073l24.0401 -24.040108l0 72.120316l-24.0401 24.040115z" fill-rule="evenodd"/><path fill="#afafaf" fill-opacity="0.4438" d="m330.77316 56.083073l24.0401 -24.040108l72.5824 0l-24.0401 24.040108z" fill-rule="evenodd"/><path fill="#000000" fill-opacity="0.0" d="m330.77316 56.083073l24.0401 -24.040108l72.5824 0l0 72.120316l-24.0401 24.040115l-72.5824 0zm0 0l72.5824 0l24.0401 -24.040108m-24.0401 24.040108l0 72.12033" fill-rule="evenodd"/><path stroke="#000000" stroke-width="1.0" stroke-linejoin="round" stroke-linecap="butt" stroke-dasharray="1.0,3.0" d="m330.77316 56.083073l24.0401 -24.040108l72.5824 0l0 72.120316l-24.0401 24.040115l-72.5824 0zm0 0l72.5824 0l24.0401 -24.040108m-24.0401 24.040108l0 72.12033" fill-rule="evenodd"/><path fill="#9b9b9b" fill-opacity="0.4438" d="m306.67392 80.06708l72.58237 0l0 72.12033l-72.58237 0z" fill-rule="evenodd"/><path fill="#7b7b7b" fill-opacity="0.4438" d="m379.2563 80.06708l24.0401 -24.040104l0 72.120316l-24.0401 24.040115z" fill-rule="evenodd"/><path fill="#afafaf" fill-opacity="0.4438" d="m306.67392 80.06708l24.0401 -24.040104l72.58237 0l-24.0401 24.040104z" fill-rule="evenodd"/><path fill="#000000" fill-opacity="0.0" d="m306.67392 80.06708l24.0401 -24.040104l72.58237 0l0 72.120316l-24.0401 24.040115l-72.58237 0zm0 0l72.58237 0l24.0401 -24.040104m-24.0401 24.040104l0 72.12033" fill-rule="evenodd"/><path stroke="#000000" stroke-width="1.0" stroke-linejoin="round" stroke-linecap="butt" stroke-dasharray="1.0,3.0" d="m306.67392 80.06708l24.0401 -24.040104l72.58237 0l0 72.120316l-24.0401 24.040115l-72.58237 0zm0 0l72.58237 0l24.0401 -24.040104m-24.0401 24.040104l0 72.12033" fill-rule="evenodd"/><path fill="#9b9b9b" fill-opacity="0.4438" d="m283.23807 103.59367l72.58237 0l0 72.12033l-72.58237 0z" fill-rule="evenodd"/><path fill="#7b7b7b" fill-opacity="0.4438" d="m355.82043 103.59367l24.0401 -24.040108l0 72.12032l-24.0401 24.040115z" fill-rule="evenodd"/><path fill="#afafaf" fill-opacity="0.4438" d="m283.23807 103.59367l24.0401 -24.040108l72.58237 0l-24.0401 24.040108z" fill-rule="evenodd"/><path fill="#000000" fill-opacity="0.0" d="m283.23807 103.59367l24.0401 -24.040108l72.58237 0l0 72.12032l-24.0401 24.040115l-72.58237 0zm0 0l72.58237 0l24.0401 -24.040108m-24.0401 24.040108l0 72.12033" fill-rule="evenodd"/><path stroke="#000000" stroke-width="1.0" stroke-linejoin="round" stroke-linecap="butt" stroke-dasharray="1.0,3.0" d="m283.23807 103.59367l24.0401 -24.040108l72.58237 0l0 72.12032l-24.0401 24.040115l-72.58237 0zm0 0l72.58237 0l24.0401 -24.040108m-24.0401 24.040108l0 72.12033" fill-rule="evenodd"/><path fill="#9b9b9b" fill-opacity="0.4438" d="m258.86563 127.582l72.5824 0l0 72.12033l-72.5824 0z" fill-rule="evenodd"/><path fill="#7b7b7b" fill-opacity="0.4438" d="m331.44803 127.582l24.0401 -24.040108l0 72.12032l-24.0401 24.040115z" fill-rule="evenodd"/><path fill="#afafaf" fill-opacity="0.4438" d="m258.86563 127.582l24.0401 -24.040108l72.5824 0l-24.0401 24.040108z" fill-rule="evenodd"/><path fill="#000000" fill-opacity="0.0" d="m258.86563 127.582l24.0401 -24.040108l72.5824 0l0 72.12032l-24.0401 24.040115l-72.5824 0zm0 0l72.5824 0l24.0401 -24.040108m-24.0401 24.040108l0 72.12033" fill-rule="evenodd"/><path stroke="#000000" stroke-width="1.0" stroke-linejoin="round" stroke-linecap="butt" stroke-dasharray="1.0,3.0" d="m258.86563 127.582l24.0401 -24.040108l72.5824 0l0 72.12032l-24.0401 24.040115l-72.5824 0zm0 0l72.5824 0l24.0401 -24.040108m-24.0401 24.040108l0 72.12033" fill-rule="evenodd"/><path fill="#000000" fill-opacity="0.0" d="m20.496063 135.09088l321.73227 0" fill-rule="evenodd"/><path stroke="#000000" stroke-width="3.0" stroke-linejoin="round" stroke-linecap="butt" d="m20.496063 135.09088l303.73227 0" fill-rule="evenodd"/><path fill="#000000" stroke="#000000" stroke-width="3.0" stroke-linecap="butt" d="m324.22833 140.04608l13.614319 -4.9552l-13.614319 -4.9552z" fill-rule="evenodd"/><path fill="#000000" fill-opacity="0.0" d="m20.496063 135.09055l0 268.6299" fill-rule="evenodd"/><path stroke="#000000" stroke-width="3.0" stroke-linejoin="round" stroke-linecap="butt" d="m20.496063 135.09055l0 250.62991" fill-rule="evenodd"/><path fill="#000000" stroke="#000000" stroke-width="3.0" stroke-linecap="butt" d="m15.540866 385.72046l4.9551973 13.614319l4.9551964 -13.614319z" fill-rule="evenodd"/><path fill="#000000" fill-opacity="0.0" d="m20.76903 135.09186l94.64567 -94.64566" fill-rule="evenodd"/><path stroke="#000000" stroke-width="3.0" stroke-linejoin="round" stroke-linecap="butt" d="m20.76903 135.09186l81.91775 -81.91774" fill-rule="evenodd"/><path fill="#000000" stroke="#000000" stroke-width="3.0" stroke-linecap="butt" d="m106.19063 56.67797l6.1229095 -13.130615l-13.130615 6.1229057z" fill-rule="evenodd"/><path fill="#000000" fill-opacity="0.0" d="m7.5590553 392.1391l22.267715 0l0 36.81891l-22.267715 0z" fill-rule="evenodd"/><path fill="#000000" d="m18.85593 413.01535l0 -4.0625l4.390625 0l0 4.0625l-4.390625 0zm0 18.84375l0 -16.59375l4.390625 0l0 16.59375l-4.390625 0z" fill-rule="nonzero"/><path fill="#000000" fill-opacity="0.0" d="m344.14172 102.34646l22.26773 0l0 36.8189l-22.26773 0z" fill-rule="evenodd"/><path fill="#000000" d="m355.34485 123.22271l0 -4.0625l4.390625 0l0 4.0625l-4.390625 0zm4.390625 2.25l0 16.078117q0 3.171875 -0.421875 4.46875q-0.40625 1.3125 -1.59375 2.046875q-1.171875 0.734375 -3.0 0.734375q-0.65625 0 -1.421875 -0.125q-0.75 -0.109375 -1.625 -0.34375l0.765625 -3.75q0.3125 0.0625 0.59375 0.09375q0.265625 0.046875 0.5 0.046875q0.671875 0 1.09375 -0.296875q0.4375 -0.28125 0.578125 -0.6875q0.140625 -0.40625 0.140625 -2.4375l0 -15.828117l4.390625 0z" fill-rule="nonzero"/><path fill="#000000" fill-opacity="0.0" d="m106.27821 -8.0l22.267715 0l0 36.818897l-22.267715 0z" fill-rule="evenodd"/><path fill="#000000" d="m117.41884 31.720001l0 -22.90625l4.390625 0l0 12.15625l5.140625 -5.84375l5.40625 0l-5.671875 6.0625l6.078125 10.53125l-4.734375 0l-4.171875 -7.453125l-2.046875 2.140625l0 5.3125l-4.390625 0z" fill-rule="nonzero"/><path fill="#000000" fill-opacity="0.0" d="m497.74277 87.42782l-217.19684 0" fill-rule="evenodd"/><path stroke="#000000" stroke-width="3.0" stroke-linejoin="round" stroke-linecap="butt" d="m497.74277 87.42782l-199.19684 0" fill-rule="evenodd"/><path fill="#000000" stroke="#000000" stroke-width="3.0" stroke-linecap="butt" d="m298.54593 82.472626l-13.614288 4.9551926l13.614288 4.9552z" fill-rule="evenodd"/><path fill="#000000" fill-opacity="0.0" d="m498.27823 56.0l217.19681 0l0 36.8189l-217.19681 0z" fill-rule="evenodd"/><path fill="#000000" d="m509.62198 72.81375l9.1562195 0q2.71875 0 4.046875 0.234375q1.34375 0.21875 2.390625 0.9375q1.0625 0.71875 1.765625 1.921875q0.703125 1.1875 0.703125 2.671875q0 1.609375 -0.875 2.953125q-0.859375 1.34375 -2.34375 2.015625q2.09375 0.609375 3.21875 2.078125q1.125 1.46875 1.125 3.453125q0 1.5625 -0.734375 3.046875q-0.71875 1.46875 -1.984375 2.359375q-1.25 0.875 -3.09375 1.078125q-1.15625 0.125 -5.578125 0.15625l-7.7968445 0l0 -22.90625zm4.6249695 3.8125l0 5.296875l3.03125 0q2.703125 0 3.359375 -0.078125q1.1875 -0.140625 1.859375 -0.8125q0.6875 -0.6875 0.6875 -1.796875q0 -1.0625 -0.59375 -1.71875q-0.578125 -0.671875 -1.734375 -0.8125q-0.6875 -0.078125 -3.953125 -0.078125l-2.65625 0zm0 9.109375l0 6.125l4.28125 0q2.5 0 3.171875 -0.140625q1.03125 -0.1875 1.671875 -0.90625q0.65625 -0.734375 0.65625 -1.953125q0 -1.03125 -0.5 -1.75q-0.5 -0.71875 -1.453125 -1.046875q-0.9375 -0.328125 -4.09375 -0.328125l-3.734375 0zm29.359375 9.984375l0 -2.484375q-0.90625 1.328125 -2.390625 2.09375q-1.46875 0.765625 -3.109375 0.765625q-1.671875 0 -3.0 -0.734375q-1.328125 -0.734375 -1.921875 -2.0625q-0.59375 -1.328125 -0.59375 -3.671875l0 -10.5l4.390625 0l0 7.625q0 3.5 0.234375 4.296875q0.25 0.78125 0.890625 1.25q0.640625 0.453125 1.625 0.453125q1.125 0 2.015625 -0.609375q0.890625 -0.625 1.21875 -1.53125q0.328125 -0.921875 0.328125 -4.484375l0 -7.0l4.390625 0l0 16.59375l-4.078125 0zm6.703125 -16.59375l2.4375 0l0 -1.25q0 -2.09375 0.4375 -3.125q0.453125 -1.03125 1.640625 -1.671875q1.203125 -0.65625 3.03125 -0.65625q1.875 0 3.671875 0.5625l-0.59375 3.0625q-1.046875 -0.25 -2.015625 -0.25q-0.953125 0 -1.375 0.453125q-0.40625 0.4375 -0.40625 1.703125l0 1.171875l3.28125 0l0 3.453125l-3.28125 0l0 13.140625l-4.390625 0l0 -13.140625l-2.4375 0l0 -3.453125zm10.65625 0l2.4375 0l0 -1.25q0 -2.09375 0.4375 -3.125q0.453125 -1.03125 1.640625 -1.671875q1.203125 -0.65625 3.03125 -0.65625q1.875 0 3.671875 0.5625l-0.59375 3.0625q-1.046875 -0.25 -2.015625 -0.25q-0.953125 0 -1.375 0.453125q-0.40625 0.4375 -0.40625 1.703125l0 1.171875l3.28125 0l0 3.453125l-3.28125 0l0 13.140625l-4.390625 0l0 -13.140625l-2.4375 0l0 -3.453125zm22.1875 11.3125l4.375 0.734375q-0.84375 2.40625 -2.671875 3.671875q-1.8125 1.25 -4.546875 1.25q-4.328125 0 -6.40625 -2.828125q-1.640625 -2.265625 -1.640625 -5.71875q0 -4.125 2.15625 -6.453125q2.15625 -2.34375 5.453125 -2.34375q3.703125 0 5.84375 2.453125q2.140625 2.4375 2.046875 7.484375l-11.0 0q0.046875 1.953125 1.0625 3.046875q1.015625 1.078125 2.53125 1.078125q1.03125 0 1.734375 -0.5625q0.703125 -0.5625 1.0625 -1.8125zm0.25 -4.4375q-0.046875 -1.90625 -0.984375 -2.890625q-0.9375 -1.0 -2.28125 -1.0q-1.4375 0 -2.375 1.046875q-0.9375 1.046875 -0.921875 2.84375l6.5625 0zm12.140625 9.71875l-4.390625 0l0 -16.59375l4.078125 0l0 2.359375q1.046875 -1.671875 1.875 -2.203125q0.84375 -0.53125 1.90625 -0.53125q1.5 0 2.890625 0.828125l-1.359375 3.828125q-1.109375 -0.71875 -2.0625 -0.71875q-0.921875 0 -1.5625 0.515625q-0.640625 0.5 -1.015625 1.828125q-0.359375 1.328125 -0.359375 5.5625l0 5.125zm24.421875 6.734375l-3.015625 0q-2.390625 -3.609375 -3.640625 -7.5q-1.25 -3.890625 -1.25 -7.53125q0 -4.515625 1.546875 -8.546875q1.34375 -3.5 3.40625 -6.453125l3.0 0q-2.140625 4.734375 -2.953125 8.0625q-0.796875 3.3125 -0.796875 7.03125q0 2.5625 0.46875 5.25q0.484375 2.6875 1.3125 5.109375q0.546875 1.59375 1.921875 4.578125zm3.21875 -6.734375l0 -22.90625l4.390625 0l0 12.15625l5.140625 -5.84375l5.40625 0l-5.671875 6.0625l6.078125 10.53125l-4.734375 0l-4.171875 -7.453125l-2.046875 2.140625l0 5.3125l-4.390625 0zm17.84375 -4.390625l4.390625 0l0 3.140625q0 1.90625 -0.328125 3.0q-0.328125 1.109375 -1.25 1.984375q-0.90625 0.875 -2.3125 1.375l-0.859375 -1.8125q1.328125 -0.4375 1.890625 -1.203125q0.5625 -0.765625 0.59375 -2.09375l-2.125 0l0 -4.390625zm17.796875 -14.453125l0 -4.0625l4.390625 0l0 4.0625l-4.390625 0zm4.390625 2.25l0 16.078125q0 3.171875 -0.421875 4.46875q-0.40625 1.3125 -1.59375 2.046875q-1.171875 0.734375 -3.0 0.734375q-0.65625 0 -1.421875 -0.125q-0.75 -0.109375 -1.625 -0.34375l0.765625 -3.75q0.3125 0.0625 0.59375 0.09375q0.265625 0.046875 0.5 0.046875q0.671875 0 1.09375 -0.296875q0.4375 -0.28125 0.578125 -0.6875q0.140625 -0.40625 0.140625 -2.4375l0 -15.828125l4.390625 0zm4.484375 12.203125l4.390625 0l0 3.140625q0 1.90625 -0.328125 3.0q-0.328125 1.109375 -1.25 1.984375q-0.90625 0.875 -2.3125 1.375l-0.859375 -1.8125q1.328125 -0.4375 1.890625 -1.203125q0.5625 -0.765625 0.59375 -2.09375l-2.125 0l0 -4.390625zm17.890625 -14.453125l0 -4.0625l4.390625 0l0 4.0625l-4.390625 0zm0 18.84375l0 -16.59375l4.390625 0l0 16.59375l-4.390625 0zm7.671875 6.734375q1.296875 -2.78125 1.828125 -4.265625q0.53125 -1.484375 0.984375 -3.421875q0.453125 -1.9375 0.671875 -3.671875q0.21875 -1.75 0.21875 -3.578125q0 -3.71875 -0.796875 -7.03125q-0.796875 -3.328125 -2.9375 -8.0625l2.984375 0q2.359375 3.359375 3.65625 7.125q1.3125 3.765625 1.3125 7.640625q0 3.265625 -1.03125 7.0q-1.171875 4.1875 -3.859375 8.265625l-3.03125 0z" fill-rule="nonzero"/></g></svg>