<svg version="1.1" viewBox="0.0 0.0 1257.8372703412074 406.2230971128609" fill="none" stroke="none" stroke-linecap="square" stroke-miterlimit="10" xmlns:xlink="http://www.w3.org/1999/xlink" xmlns="http://www.w3.org/2000/svg"><clipPath id="p.0"><path d="m0 0l1257.8373 0l0 406.22308l-1257.8373 0l0 -406.22308z" clip-rule="nonzero"/></clipPath><g clip-path="url(#p.0)"><path fill="#000000" fill-opacity="0.0" d="m0 0l1257.8373 0l0 406.22308l-1257.8373 0z" fill-rule="evenodd"/><path fill="#cfe2f3" fill-opacity="0.8431" d="m149.08398 18.879265l185.82678 0l0 179.3071l-185.82678 0z" fill-rule="evenodd"/><path stroke="#000000" stroke-width="1.0" stroke-linejoin="round" stroke-linecap="butt" d="m149.08398 18.879265l185.82678 0l0 179.3071l-185.82678 0z" fill-rule="evenodd"/><path fill="#cfe2f3" fill-opacity="0.8431" d="m334.91077 18.879265l185.82678 0l0 179.3071l-185.82678 0z" fill-rule="evenodd"/><path stroke="#666666" stroke-width="2.0" stroke-linejoin="round" stroke-linecap="butt" d="m334.91077 18.879265l185.82678 0l0 179.3071l-185.82678 0z" fill-rule="evenodd"/><path fill="#cfe2f3" fill-opacity="0.8431" d="m149.08398 198.18636l185.82678 0l0 179.30708l-185.82678 0z" fill-rule="evenodd"/><path stroke="#000000" stroke-width="1.0" stroke-linejoin="round" stroke-linecap="butt" d="m149.08398 198.18636l185.82678 0l0 179.30708l-185.82678 0z" fill-rule="evenodd"/><path fill="#cfe2f3" d="m334.91077 198.18636l185.82678 0l0 179.30708l-185.82678 0z" fill-rule="evenodd"/><path stroke="#666666" stroke-width="2.0" stroke-linejoin="round" stroke-linecap="butt" d="m334.91077 198.18636l185.82678 0l0 179.30708l-185.82678 0z" fill-rule="evenodd"/><path fill="#efefef" fill-opacity="0.7255" d="m149.54068 198.17323l280.15747 0l0 179.30708l-280.15747 0z" fill-rule="evenodd"/><path stroke="#000000" stroke-width="1.0" stroke-linejoin="round" stroke-linecap="butt" d="m149.54068 198.17323l280.15747 0l0 179.30708l-280.15747 0z" fill-rule="evenodd"/><path fill="#cc0000" fill-opacity="0.4078" d="m334.91077 198.17848l94.33069 0l0 179.30708l-94.33069 0z" fill-rule="evenodd"/><path stroke="#666666" stroke-width="1.0" stroke-linejoin="round" stroke-linecap="butt" d="m334.91077 198.17848l94.33069 0l0 179.30708l-94.33069 0z" fill-rule="evenodd"/><path fill="#000000" fill-opacity="0.0" d="m83.48819 232.86351l60.472443 0" fill-rule="evenodd"/><path stroke="#000000" stroke-width="1.0" stroke-linejoin="round" stroke-linecap="butt" d="m83.48819 232.86351l54.472443 0" fill-rule="evenodd"/><path fill="#000000" stroke="#000000" stroke-width="1.0" stroke-linecap="butt" d="m137.96063 234.51524l4.538101 -1.6517334l-4.538101 -1.6517181z" fill-rule="evenodd"/><path fill="#000000" fill-opacity="0.0" d="m15.464567 210.5643l96.0 0l0 38.551178l-96.0 0z" fill-rule="evenodd"/><path fill="#000000" d="m33.402065 242.60431l-2.109373 0l0 -13.4375q-0.75 0.71875 -2.0 1.453125q-1.234375 0.71875 -2.21875 1.078125l0 -2.03125q1.78125 -0.828125 3.09375 -2.015625q1.328125 -1.1875 1.8749981 -2.296875l1.359375 0l0 17.25zm5.1445312 -3.71875l2.09375 -0.328125q0.171875 1.25 0.96875 1.921875q0.8125 0.671875 2.25 0.671875q1.453125 0 2.15625 -0.59375q0.703125 -0.59375 0.703125 -1.390625q0 -0.71875 -0.625 -1.125q-0.421875 -0.28125 -2.15625 -0.71875q-2.3125 -0.578125 -3.21875 -1.0q-0.890625 -0.4375 -1.359375 -1.1875q-0.453125 -0.765625 -0.453125 -1.671875q0 -0.828125 0.375 -1.53125q0.390625 -0.71875 1.046875 -1.1875q0.484375 -0.359375 1.328125 -0.609375q0.859375 -0.265625 1.828125 -0.265625q1.46875 0 2.578125 0.421875q1.109375 0.421875 1.625 1.15625q0.53125 0.71875 0.734375 1.921875l-2.0625 0.28125q-0.140625 -0.96875 -0.8125 -1.5q-0.671875 -0.546875 -1.90625 -0.546875q-1.453125 0 -2.078125 0.484375q-0.625 0.484375 -0.625 1.125q0 0.40625 0.265625 0.734375q0.25 0.34375 0.8125 0.5625q0.3125 0.125 1.859375 0.546875q2.234375 0.59375 3.109375 0.984375q0.890625 0.375 1.390625 1.109375q0.515625 0.71875 0.515625 1.796875q0 1.046875 -0.625 1.984375q-0.609375 0.9375 -1.765625 1.453125q-1.15625 0.5 -2.625 0.5q-2.421875 0 -3.703125 -1.0q-1.265625 -1.015625 -1.625 -3.0zm17.453125 1.828125l0.3125 1.859375q-0.890625 0.203125 -1.59375 0.203125q-1.15625 0 -1.796875 -0.359375q-0.625 -0.375 -0.890625 -0.96875q-0.25 -0.59375 -0.25 -2.484375l0 -7.171875l-1.546875 0l0 -1.640625l1.546875 0l0 -3.078125l2.09375 -1.265625l0 4.34375l2.125 0l0 1.640625l-2.125 0l0 7.28125q0 0.90625 0.109375 1.171875q0.125 0.25 0.375 0.40625q0.25 0.140625 0.71875 0.140625q0.34375 0 0.921875 -0.078125z" fill-rule="nonzero"/><path fill="#000000" d="m26.230192 271.6043l0 -17.1875l6.437498 0q1.96875 0 3.15625 0.53125q1.1875 0.515625 1.859375 1.609375q0.6875 1.078125 0.6875 2.265625q0 1.09375 -0.609375 2.078125q-0.59375 0.96875 -1.796875 1.5625q1.5625 0.453125 2.390625 1.5625q0.84375 1.09375 0.84375 2.59375q0 1.203125 -0.515625 2.25q-0.5 1.03125 -1.25 1.59375q-0.75 0.5625 -1.890625 0.859375q-1.125 0.28125 -2.765625 0.28125l-6.546873 0zm2.265625 -9.96875l3.718748 0q1.515625 0 2.171875 -0.1875q0.859375 -0.265625 1.296875 -0.859375q0.4375 -0.59375 0.4375 -1.5q0 -0.859375 -0.40625 -1.5q-0.40625 -0.65625 -1.171875 -0.890625q-0.765625 -0.25 -2.609373 -0.25l-3.4375 0l0 5.1875zm0 7.9375l4.281248 0q1.09375 0 1.546875 -0.078125q0.78125 -0.140625 1.3125 -0.46875q0.53125 -0.328125 0.859375 -0.953125q0.34375 -0.625 0.34375 -1.453125q0 -0.953125 -0.5 -1.65625q-0.484375 -0.71875 -1.359375 -1.0q-0.875 -0.296875 -2.515625 -0.296875l-3.968748 0l0 5.90625zm21.710936 2.03125l0 -1.828125q-1.453125 2.109375 -3.9375 2.109375q-1.109375 0 -2.0625 -0.421875q-0.953125 -0.421875 -1.421875 -1.0625q-0.453125 -0.640625 -0.640625 -1.5625q-0.140625 -0.625 -0.140625 -1.96875l0 -7.71875l2.109375 0l0 6.90625q0 1.65625 0.140625 2.234375q0.1875 0.828125 0.828125 1.3125q0.65625 0.46875 1.609375 0.46875q0.9375 0 1.765625 -0.484375q0.84375 -0.5 1.1875 -1.328125q0.34375 -0.84375 0.34375 -2.4375l0 -6.671875l2.109375 0l0 12.453125l-1.890625 0zm5.7070312 0l0 -10.8125l-1.875 0l0 -1.640625l1.875 0l0 -1.3125q0 -1.265625 0.21875 -1.875q0.296875 -0.8125 1.0625 -1.3125q0.78125 -0.515625 2.15625 -0.515625q0.890625 0 1.96875 0.203125l-0.3125 1.84375q-0.65625 -0.125 -1.25 -0.125q-0.953125 0 -1.359375 0.421875q-0.390625 0.40625 -0.390625 1.53125l0 1.140625l2.421875 0l0 1.640625l-2.421875 0l0 10.8125l-2.09375 0zm6.234375 0l0 -10.8125l-1.875 0l0 -1.640625l1.875 0l0 -1.3125q0 -1.265625 0.21875 -1.875q0.296875 -0.8125 1.0625 -1.3125q0.7812538 -0.515625 2.1562538 -0.515625q0.890625 0 1.96875 0.203125l-0.3125 1.84375q-0.65625 -0.125 -1.25 -0.125q-0.953125 0 -1.359375 0.421875q-0.390625 0.40625 -0.390625 1.53125l0 1.140625l2.421875 0l0 1.640625l-2.421875 0l0 10.8125l-2.0937538 0zm14.683598 -4.015625l2.171875 0.28125q-0.515625 1.90625 -1.90625 2.96875q-1.390625 1.046875 -3.5625 1.046875q-2.734375 0 -4.34375 -1.671875q-1.59375 -1.6875 -1.59375 -4.734375q0 -3.140625 1.609375 -4.875q1.625 -1.734375 4.203125 -1.734375q2.5 0 4.078125 1.703125q1.59375 1.703125 1.59375 4.78125q0 0.1875 -0.015625 0.5625l-9.28125 0q0.109375 2.046875 1.15625 3.140625q1.046875 1.09375 2.609375 1.09375q1.15625 0 1.96875 -0.609375q0.828125 -0.609375 1.3125 -1.953125zm-6.9375 -3.40625l6.953125 0q-0.140625 -1.5625 -0.796875 -2.359375q-1.0 -1.21875 -2.609375 -1.21875q-1.453125 0 -2.453125 0.984375q-0.984375 0.96875 -1.09375 2.59375zm11.738281 7.421875l0 -12.453125l1.890625 0l0 1.890625q0.734375 -1.328125 1.34375 -1.75q0.625 -0.421875 1.359375 -0.421875q1.0625 0 2.171875 0.6875l-0.734375 1.953125q-0.765625 -0.453125 -1.546875 -0.453125q-0.6875 0 -1.25 0.421875q-0.546875 0.40625 -0.78125 1.140625q-0.34375 1.125 -0.34375 2.46875l0 6.515625l-2.109375 0z" fill-rule="nonzero"/><path fill="#000000" fill-opacity="0.0" d="m549.2546 199.85564l99.055115 0l0 66.01576l-99.055115 0z" fill-rule="evenodd"/><path fill="#000000" d="m560.1608 231.89565l0 -17.1875l12.421875 0l0 2.03125l-10.15625 0l0 5.265625l9.5 0l0 2.015625l-9.5 0l0 5.84375l10.546875 0l0 2.03125l-12.8125 0zm14.2734375 0l4.546875 -6.46875l-4.203125 -5.984375l2.640625 0l1.90625 2.921875q0.546875 0.828125 0.875 1.390625q0.515625 -0.765625 0.9375 -1.359375l2.109375 -2.953125l2.515625 0l-4.296875 5.859375l4.625 6.59375l-2.59375 0l-2.546875 -3.875l-0.6875 -1.03125l-3.265625 4.90625l-2.5625 0zm18.015625 -1.890625l0.3125 1.859375q-0.890625 0.203125 -1.59375 0.203125q-1.15625 0 -1.796875 -0.359375q-0.625 -0.375 -0.890625 -0.96875q-0.25 -0.59375 -0.25 -2.484375l0 -7.171875l-1.546875 0l0 -1.640625l1.546875 0l0 -3.078125l2.09375 -1.265625l0 4.34375l2.125 0l0 1.640625l-2.125 0l0 7.28125q0 0.90625 0.109375 1.171875q0.125 0.25 0.375 0.40625q0.25 0.140625 0.71875 0.140625q0.34375 0 0.921875 -0.078125zm2.0429688 1.890625l0 -12.453125l1.890625 0l0 1.890625q0.734375 -1.328125 1.34375 -1.75q0.625 -0.421875 1.359375 -0.421875q1.0625 0 2.171875 0.6875l-0.734375 1.953125q-0.765625 -0.453125 -1.546875 -0.453125q-0.6875 0 -1.25 0.421875q-0.546875 0.40625 -0.78125 1.140625q-0.34375 1.125 -0.34375 2.46875l0 6.515625l-2.109375 0zm16.132812 -1.53125q-1.171875 0.984375 -2.265625 1.40625q-1.078125 0.40625 -2.3125 0.40625q-2.046875 0 -3.15625 -1.0q-1.09375 -1.0 -1.09375 -2.5625q0 -0.921875 0.40625 -1.671875q0.421875 -0.75 1.09375 -1.203125q0.671875 -0.46875 1.515625 -0.703125q0.625 -0.15625 1.875 -0.3125q2.5625 -0.3125 3.765625 -0.734375q0.015625 -0.421875 0.015625 -0.546875q0 -1.28125 -0.609375 -1.8125q-0.796875 -0.71875 -2.390625 -0.71875q-1.5 0 -2.203125 0.53125q-0.703125 0.515625 -1.046875 1.84375l-2.0625 -0.28125q0.28125 -1.328125 0.921875 -2.140625q0.640625 -0.8125 1.859375 -1.25q1.21875 -0.453125 2.828125 -0.453125q1.59375 0 2.59375 0.375q1.0 0.375 1.46875 0.953125q0.46875 0.5625 0.65625 1.4375q0.09375 0.53125 0.09375 1.9375l0 2.8125q0 2.9375 0.140625 3.71875q0.140625 0.78125 0.53125 1.5l-2.203125 0q-0.328125 -0.65625 -0.421875 -1.53125zm-0.171875 -4.71875q-1.15625 0.46875 -3.453125 0.796875q-1.296875 0.1875 -1.84375 0.421875q-0.53125 0.234375 -0.828125 0.6875q-0.28125 0.453125 -0.28125 1.0q0 0.84375 0.625 1.40625q0.640625 0.5625 1.875 0.5625q1.21875 0 2.171875 -0.53125q0.953125 -0.53125 1.390625 -1.453125q0.34375 -0.71875 0.34375 -2.109375l0 -0.78125z" fill-rule="nonzero"/><path fill="#000000" d="m567.9108 260.89563l0 -1.578125q-1.1875 1.859375 -3.484375 1.859375q-1.484375 0 -2.734375 -0.8125q-1.25 -0.828125 -1.9375 -2.296875q-0.671875 -1.46875 -0.671875 -3.3906097q0 -1.859375 0.609375 -3.375q0.625 -1.515625 1.859375 -2.328125q1.25 -0.8125 2.78125 -0.8125q1.125 0 2.0 0.484375q0.890625 0.46875 1.4375 1.234375l0 -6.171875l2.09375 0l0 17.187485l-1.953125 0zm-6.671875 -6.2187347q0 2.3906097 1.0 3.5781097q1.015625 1.1875 2.390625 1.1875q1.390625 0 2.34375 -1.125q0.96875 -1.140625 0.96875 -3.4531097q0 -2.5625 -0.984375 -3.75q-0.984375 -1.203125 -2.421875 -1.203125q-1.40625 0 -2.359375 1.15625q-0.9375 1.140625 -0.9375 3.609375zm20.066406 4.6874847q-1.171875 0.984375 -2.265625 1.40625q-1.078125 0.40625 -2.3125 0.40625q-2.046875 0 -3.15625 -1.0q-1.09375 -1.0 -1.09375 -2.5625q0 -0.921875 0.40625 -1.6718597q0.421875 -0.75 1.09375 -1.203125q0.671875 -0.46875 1.515625 -0.703125q0.625 -0.15625 1.875 -0.3125q2.5625 -0.3125 3.765625 -0.734375q0.015625 -0.421875 0.015625 -0.546875q0 -1.28125 -0.609375 -1.8125q-0.796875 -0.71875 -2.390625 -0.71875q-1.5 0 -2.203125 0.53125q-0.703125 0.515625 -1.046875 1.84375l-2.0625 -0.28125q0.28125 -1.328125 0.921875 -2.140625q0.640625 -0.8125 1.859375 -1.25q1.21875 -0.453125 2.828125 -0.453125q1.59375 0 2.59375 0.375q1.0 0.375 1.46875 0.953125q0.46875 0.5625 0.65625 1.4375q0.09375 0.53125 0.09375 1.9375l0 2.8125q0 2.9374847 0.140625 3.7187347q0.140625 0.78125 0.53125 1.5l-2.203125 0q-0.328125 -0.65625 -0.421875 -1.53125zm-0.171875 -4.7187347q-1.15625 0.46875 -3.453125 0.796875q-1.296875 0.1875 -1.84375 0.421875q-0.53125 0.23435974 -0.828125 0.68748474q-0.28125 0.453125 -0.28125 1.0q0 0.84375 0.625 1.40625q0.640625 0.5625 1.875 0.5625q1.21875 0 2.171875 -0.53125q0.953125 -0.53125 1.390625 -1.453125q0.34375 -0.71875 0.34375 -2.1093597l0 -0.78125zm10.003906 4.3593597l0.3125 1.859375q-0.890625 0.203125 -1.59375 0.203125q-1.15625 0 -1.796875 -0.359375q-0.625 -0.375 -0.890625 -0.96875q-0.25 -0.59375 -0.25 -2.484375l0 -7.1718597l-1.546875 0l0 -1.640625l1.546875 0l0 -3.078125l2.09375 -1.265625l0 4.34375l2.125 0l0 1.640625l-2.125 0l0 7.2812347q0 0.90625 0.109375 1.171875q0.125 0.25 0.375 0.40625q0.25 0.140625 0.71875 0.140625q0.34375 0 0.921875 -0.078125zm10.183594 0.359375q-1.171875 0.984375 -2.265625 1.40625q-1.078125 0.40625 -2.3125 0.40625q-2.046875 0 -3.15625 -1.0q-1.09375 -1.0 -1.09375 -2.5625q0 -0.921875 0.40625 -1.6718597q0.421875 -0.75 1.09375 -1.203125q0.671875 -0.46875 1.515625 -0.703125q0.625 -0.15625 1.875 -0.3125q2.5625 -0.3125 3.765625 -0.734375q0.015625 -0.421875 0.015625 -0.546875q0 -1.28125 -0.609375 -1.8125q-0.796875 -0.71875 -2.390625 -0.71875q-1.5 0 -2.203125 0.53125q-0.703125 0.515625 -1.046875 1.84375l-2.0625 -0.28125q0.28125 -1.328125 0.921875 -2.140625q0.640625 -0.8125 1.859375 -1.25q1.21875 -0.453125 2.828125 -0.453125q1.59375 0 2.59375 0.375q1.0 0.375 1.46875 0.953125q0.46875 0.5625 0.65625 1.4375q0.09375 0.53125 0.09375 1.9375l0 2.8125q0 2.9374847 0.140625 3.7187347q0.140625 0.78125 0.53125 1.5l-2.203125 0q-0.328125 -0.65625 -0.421875 -1.53125zm-0.171875 -4.7187347q-1.15625 0.46875 -3.453125 0.796875q-1.296875 0.1875 -1.84375 0.421875q-0.53125 0.23435974 -0.828125 0.68748474q-0.28125 0.453125 -0.28125 1.0q0 0.84375 0.625 1.40625q0.640625 0.5625 1.875 0.5625q1.21875 0 2.171875 -0.53125q0.953125 -0.53125 1.390625 -1.453125q0.34375 -0.71875 0.34375 -2.1093597l0 -0.78125z" fill-rule="nonzero"/><path fill="#000000" fill-opacity="0.0" d="m83.48819 328.4252l96.0 0" fill-rule="evenodd"/><path stroke="#000000" stroke-width="1.0" stroke-linejoin="round" stroke-linecap="butt" d="m83.48819 328.4252l90.0 0" fill-rule="evenodd"/><path fill="#000000" stroke="#000000" stroke-width="1.0" stroke-linecap="butt" d="m173.48819 330.07693l4.538101 -1.6517334l-4.538101 -1.6517334z" fill-rule="evenodd"/><path fill="#000000" fill-opacity="0.0" d="m15.464567 288.36746l96.0 0l0 66.01575l-96.0 0z" fill-rule="evenodd"/><path fill="#000000" d="m33.402065 320.40744l-2.109373 0l0 -13.4375q-0.75 0.71875 -2.0 1.453125q-1.234375 0.71875 -2.21875 1.078125l0 -2.03125q1.78125 -0.828125 3.09375 -2.015625q1.328125 -1.1875 1.8749981 -2.296875l1.359375 0l0 17.25zm5.1445312 -3.71875l2.09375 -0.328125q0.171875 1.25 0.96875 1.921875q0.8125 0.671875 2.25 0.671875q1.453125 0 2.15625 -0.59375q0.703125 -0.59375 0.703125 -1.390625q0 -0.71875 -0.625 -1.125q-0.421875 -0.28125 -2.15625 -0.71875q-2.3125 -0.578125 -3.21875 -1.0q-0.890625 -0.4375 -1.359375 -1.1875q-0.453125 -0.765625 -0.453125 -1.671875q0 -0.828125 0.375 -1.53125q0.390625 -0.71875 1.046875 -1.1875q0.484375 -0.359375 1.328125 -0.609375q0.859375 -0.265625 1.828125 -0.265625q1.46875 0 2.578125 0.421875q1.109375 0.421875 1.625 1.15625q0.53125 0.71875 0.734375 1.921875l-2.0625 0.28125q-0.140625 -0.96875 -0.8125 -1.5q-0.671875 -0.546875 -1.90625 -0.546875q-1.453125 0 -2.078125 0.484375q-0.625 0.484375 -0.625 1.125q0 0.40625 0.265625 0.734375q0.25 0.34375 0.8125 0.5625q0.3125 0.125 1.859375 0.546875q2.234375 0.59375 3.109375 0.984375q0.890625 0.375 1.390625 1.109375q0.515625 0.71875 0.515625 1.796875q0 1.046875 -0.625 1.984375q-0.609375 0.9375 -1.765625 1.453125q-1.15625 0.5 -2.625 0.5q-2.421875 0 -3.703125 -1.0q-1.265625 -1.015625 -1.625 -3.0zm17.453125 1.828125l0.3125 1.859375q-0.890625 0.203125 -1.59375 0.203125q-1.15625 0 -1.796875 -0.359375q-0.625 -0.375 -0.890625 -0.96875q-0.25 -0.59375 -0.25 -2.484375l0 -7.171875l-1.546875 0l0 -1.640625l1.546875 0l0 -3.078125l2.09375 -1.265625l0 4.34375l2.125 0l0 1.640625l-2.125 0l0 7.28125q0 0.90625 0.109375 1.171875q0.125 0.25 0.375 0.40625q0.25 0.140625 0.71875 0.140625q0.34375 0 0.921875 -0.078125z" fill-rule="nonzero"/><path fill="#000000" d="m25.620817 341.03244q0 -4.265625 2.296875 -6.6875q2.296875 -2.421875 5.937498 -2.421875q2.375 0 4.28125 1.140625q1.921875 1.125 2.921875 3.171875q1.0 2.03125 1.0 4.609375q0 2.609375 -1.0625 4.671875q-1.046875 2.0625 -2.984375 3.125q-1.9375 1.0625 -4.171875 1.0625q-2.421873 0 -4.343748 -1.171875q-1.90625 -1.171875 -2.890625 -3.203125q-0.984375 -2.03125 -0.984375 -4.296875zm2.34375 0.046875q0 3.09375 1.671875 4.890625q1.671875 1.78125 4.187498 1.78125q2.578125 0 4.234375 -1.796875q1.65625 -1.8125 1.65625 -5.125q0 -2.09375 -0.71875 -3.65625q-0.703125 -1.578125 -2.078125 -2.4375q-1.359375 -0.859375 -3.046875 -0.859375q-2.421873 0 -4.171873 1.65625q-1.734375 1.65625 -1.734375 5.546875zm24.902342 8.328125l0 -1.828125q-1.453125 2.109375 -3.9375 2.109375q-1.109375 0 -2.0625 -0.421875q-0.953125 -0.421875 -1.421875 -1.0625q-0.453125 -0.640625 -0.640625 -1.5625q-0.140625 -0.625 -0.140625 -1.96875l0 -7.71875l2.109375 0l0 6.90625q0 1.65625 0.140625 2.234375q0.1875 0.828125 0.828125 1.3125q0.65625 0.46875 1.609375 0.46875q0.9375 0 1.765625 -0.484375q0.84375 -0.5 1.1875 -1.328125q0.34375 -0.84375 0.34375 -2.4375l0 -6.671875l2.109375 0l0 12.453125l-1.890625 0zm9.800781 -1.890625l0.3125 1.859375q-0.890625 0.203125 -1.59375 0.203125q-1.15625 0 -1.796875 -0.359375q-0.625 -0.375 -0.890625 -0.96875q-0.25 -0.59375 -0.25 -2.484375l0 -7.171875l-1.546875 0l0 -1.640625l1.546875 0l0 -3.078125l2.09375 -1.265625l0 4.34375l2.125 0l0 1.640625l-2.125 0l0 7.28125q0 0.90625 0.109375 1.171875q0.125 0.25 0.375 0.40625q0.25 0.140625 0.71875 0.140625q0.34375 0 0.921875 -0.078125zm2.0585976 6.65625l0 -17.21875l1.921875 0l0 1.625q0.6875 -0.953125 1.53125 -1.421875q0.859375 -0.484375 2.078125 -0.484375q1.59375 0 2.8125 0.828125q1.21875 0.8125 1.84375 2.3125q0.625 1.5 0.625 3.28125q0 1.90625 -0.6875 3.4375q-0.6875 1.53125 -2.0 2.34375q-1.296875 0.8125 -2.734375 0.8125q-1.0625 0 -1.90625 -0.4375q-0.828125 -0.453125 -1.375 -1.140625l0 6.0625l-2.109375 0zm1.921875 -10.921875q0 2.40625 0.96875 3.5625q0.96875 1.140625 2.359375 1.140625q1.40625 0 2.40625 -1.1875q1.0 -1.1875 1.0 -3.6875q0 -2.375 -0.984375 -3.5625q-0.96875 -1.1875 -2.328125 -1.1875q-1.359375 0 -2.390625 1.265625q-1.03125 1.25 -1.03125 3.65625zm19.582031 6.15625l0 -1.828125q-1.453125 2.109375 -3.9375 2.109375q-1.109375 0 -2.0625 -0.421875q-0.953125 -0.421875 -1.421875 -1.0625q-0.453125 -0.640625 -0.640625 -1.5625q-0.140625 -0.625 -0.140625 -1.96875l0 -7.71875l2.109375 0l0 6.90625q0 1.65625 0.140625 2.234375q0.1875 0.828125 0.828125 1.3125q0.65625 0.46875 1.609375 0.46875q0.9375 0 1.765625 -0.484375q0.84375 -0.5 1.1875 -1.328125q0.34375 -0.84375 0.34375 -2.4375l0 -6.671875l2.109375 0l0 12.453125l-1.890625 0zm9.800781 -1.890625l0.3125 1.859375q-0.890625 0.203125 -1.59375 0.203125q-1.15625 0 -1.796875 -0.359375q-0.625 -0.375 -0.890625 -0.96875q-0.25 -0.59375 -0.25 -2.484375l0 -7.171875l-1.546875 0l0 -1.640625l1.546875 0l0 -3.078125l2.09375 -1.265625l0 4.34375l2.125 0l0 1.640625l-2.125 0l0 7.28125q0 0.90625 0.109375 1.171875q0.125 0.25 0.375 0.40625q0.25 0.140625 0.71875 0.140625q0.34375 0 0.921875 -0.078125z" fill-rule="nonzero"/><path fill="#000000" d="m26.558317 378.40744l0 -10.8125l-1.875 0l0 -1.640625l1.875 0l0 -1.3125q0 -1.265625 0.21875 -1.875q0.296875 -0.8125 1.0625 -1.3125q0.78125 -0.515625 2.15625 -0.515625q0.890625 0 1.96875 0.203125l-0.3125 1.84375q-0.65625 -0.125 -1.25 -0.125q-0.953125 0 -1.359375 0.421875q-0.390625 0.40625 -0.390625 1.53125l0 1.140625l2.421875 0l0 1.640625l-2.421875 0l0 10.8125l-2.09375 0zm6.167967 -14.75l0 -2.4375l2.109375 0l0 2.4375l-2.109375 0zm0 14.75l0 -12.453125l2.109375 0l0 12.453125l-2.109375 0zm5.2695312 0l0 -17.1875l2.109375 0l0 17.1875l-2.109375 0zm13.910156 -4.015625l2.171875 0.28125q-0.515625 1.90625 -1.90625 2.96875q-1.390625 1.046875 -3.5625 1.046875q-2.734375 0 -4.34375 -1.671875q-1.59375 -1.6875 -1.59375 -4.734375q0 -3.140625 1.609375 -4.875q1.625 -1.734375 4.203125 -1.734375q2.5 0 4.078125 1.703125q1.59375 1.703125 1.59375 4.78125q0 0.1875 -0.015625 0.5625l-9.28125 0q0.109375 2.046875 1.15625 3.140625q1.046875 1.09375 2.609375 1.09375q1.15625 0 1.96875 -0.609375q0.828125 -0.609375 1.3125 -1.953125zm-6.9375 -3.40625l6.953125 0q-0.140625 -1.5625 -0.796875 -2.359375q-1.0 -1.21875 -2.609375 -1.21875q-1.453125 0 -2.453125 0.984375q-0.984375 0.96875 -1.09375 2.59375z" fill-rule="nonzero"/><path fill="#efefef" fill-opacity="0.7255" d="m149.54068 18.879265l280.15747 0l0 179.3071l-280.15747 0z" fill-rule="evenodd"/><path stroke="#000000" stroke-width="2.0" stroke-linejoin="round" stroke-linecap="butt" d="m149.54068 18.879265l280.15747 0l0 179.3071l-280.15747 0z" fill-rule="evenodd"/><path fill="#000000" fill-opacity="0.0" d="m143.36745 191.1181l292.50397 0l0 193.41733l-292.50397 0z" fill-rule="evenodd"/><path stroke="#000000" stroke-width="3.0" stroke-linejoin="round" stroke-linecap="butt" stroke-dasharray="12.0,9.0" d="m143.36745 191.1181l292.50397 0l0 193.41733l-292.50397 0z" fill-rule="evenodd"/><path fill="#000000" fill-opacity="0.0" d="m549.2546 232.86351l-137.82675 0" fill-rule="evenodd"/><path stroke="#000000" stroke-width="1.0" stroke-linejoin="round" stroke-linecap="butt" d="m549.2546 232.86351l-131.82675 0" fill-rule="evenodd"/><path fill="#000000" stroke="#000000" stroke-width="1.0" stroke-linecap="butt" d="m417.42783 231.21179l-4.5381165 1.6517181l4.5381165 1.6517334z" fill-rule="evenodd"/><path fill="#000000" fill-opacity="0.0" d="m319.958 354.3832l51.590546 0l0 38.551178l-51.590546 0z" fill-rule="evenodd"/><path fill="#000000" d="m329.09863 381.3032l3.53125 -5.03125l-3.265625 -4.640625l2.046875 0l1.484375 2.265625q0.421875 0.640625 0.671875 1.078125q0.40625 -0.59375 0.734375 -1.0625l1.640625 -2.28125l1.953125 0l-3.34375 4.546875l3.59375 5.125l-2.015625 0l-1.984375 -3.0l-0.515625 -0.8125l-2.546875 3.8125l-1.984375 0z" fill-rule="nonzero"/><path fill="#6fa8dc" fill-opacity="0.4804" d="m832.2398 202.1077l159.22833 0l0 130.25195l-159.22833 0z" fill-rule="evenodd"/><path fill="#5886af" fill-opacity="0.4804" d="m991.46814 202.1077l43.41736 -43.417328l0 130.25198l-43.41736 43.417297z" fill-rule="evenodd"/><path fill="#8bb9e3" fill-opacity="0.4804" d="m832.2398 202.1077l43.417297 -43.417328l159.2284 0l-43.41736 43.417328z" fill-rule="evenodd"/><path fill="#000000" fill-opacity="0.0" d="m832.2398 202.1077l43.417297 -43.417328l159.2284 0l0 130.25198l-43.41736 43.417297l-159.22833 0zm0 0l159.22833 0l43.41736 -43.417328m-43.41736 43.417328l0 130.25195" fill-rule="evenodd"/><path stroke="#000000" stroke-width="1.0" stroke-linejoin="round" stroke-linecap="butt" stroke-dasharray="1.0,3.0" d="m832.2398 202.1077l43.417297 -43.417328l159.2284 0l0 130.25198l-43.41736 43.417297l-159.22833 0zm0 0l159.22833 0l43.41736 -43.417328m-43.41736 43.417328l0 130.25195" fill-rule="evenodd"/><path fill="#6fa8dc" fill-opacity="0.4804" d="m989.2638 202.1077l159.2284 0l0 130.25195l-159.2284 0z" fill-rule="evenodd"/><path fill="#5886af" fill-opacity="0.4804" d="m1148.4922 202.1077l43.417236 -43.417328l0 130.25198l-43.417236 43.417297z" fill-rule="evenodd"/><path fill="#8bb9e3" fill-opacity="0.4804" d="m989.2638 202.1077l43.41736 -43.417328l159.22827 0l-43.417236 43.417328z" fill-rule="evenodd"/><path fill="#000000" fill-opacity="0.0" d="m989.2638 202.1077l43.41736 -43.417328l159.22827 0l0 130.25198l-43.417236 43.417297l-159.2284 0zm0 0l159.2284 0l43.417236 -43.417328m-43.417236 43.417328l0 130.25195" fill-rule="evenodd"/><path stroke="#000000" stroke-width="1.0" stroke-linejoin="round" stroke-linecap="butt" stroke-dasharray="1.0,3.0" d="m989.2638 202.1077l43.41736 -43.417328l159.22827 0l0 130.25198l-43.417236 43.417297l-159.2284 0zm0 0l159.2284 0l43.417236 -43.417328m-43.417236 43.417328l0 130.25195" fill-rule="evenodd"/><path fill="#6fa8dc" fill-opacity="0.4804" d="m832.2398 74.867424l159.22833 0l0 130.25195l-159.22833 0z" fill-rule="evenodd"/><path fill="#5886af" fill-opacity="0.4804" d="m991.46814 74.867424l43.41736 -43.417324l0 130.25197l-43.41736 43.417313z" fill-rule="evenodd"/><path fill="#8bb9e3" fill-opacity="0.4804" d="m832.2398 74.867424l43.417297 -43.417324l159.2284 0l-43.41736 43.417324z" fill-rule="evenodd"/><path fill="#000000" fill-opacity="0.0" d="m832.2398 74.867424l43.417297 -43.417324l159.2284 0l0 130.25197l-43.41736 43.417313l-159.22833 0zm0 0l159.22833 0l43.41736 -43.417324m-43.41736 43.417324l0 130.25195" fill-rule="evenodd"/><path stroke="#000000" stroke-width="1.0" stroke-linejoin="round" stroke-linecap="butt" stroke-dasharray="1.0,3.0" d="m832.2398 74.867424l43.417297 -43.417324l159.2284 0l0 130.25197l-43.41736 43.417313l-159.22833 0zm0 0l159.22833 0l43.41736 -43.417324m-43.41736 43.417324l0 130.25195" fill-rule="evenodd"/><path fill="#6fa8dc" fill-opacity="0.4804" d="m989.2638 74.867424l159.2284 0l0 130.25195l-159.2284 0z" fill-rule="evenodd"/><path fill="#5886af" fill-opacity="0.4804" d="m1148.4922 74.867424l43.417236 -43.417324l0 130.25197l-43.417236 43.417313z" fill-rule="evenodd"/><path fill="#8bb9e3" fill-opacity="0.4804" d="m989.2638 74.867424l43.41736 -43.417324l159.22827 0l-43.417236 43.417324z" fill-rule="evenodd"/><path fill="#000000" fill-opacity="0.0" d="m989.2638 74.867424l43.41736 -43.417324l159.22827 0l0 130.25197l-43.417236 43.417313l-159.2284 0zm0 0l159.2284 0l43.417236 -43.417324m-43.417236 43.417324l0 130.25195" fill-rule="evenodd"/><path stroke="#000000" stroke-width="1.0" stroke-linejoin="round" stroke-linecap="butt" stroke-dasharray="1.0,3.0" d="m989.2638 74.867424l43.41736 -43.417324l159.22827 0l0 130.25197l-43.417236 43.417313l-159.2284 0zm0 0l159.2284 0l43.417236 -43.417324m-43.417236 43.417324l0 130.25195" fill-rule="evenodd"/><path fill="#6fa8dc" fill-opacity="0.4804" d="m788.622 244.52112l159.22833 0l0 130.25198l-159.22833 0z" fill-rule="evenodd"/><path fill="#5886af" fill-opacity="0.4804" d="m947.85034 244.52112l43.41736 -43.417328l0 130.25198l-43.41736 43.417328z" fill-rule="evenodd"/><path fill="#8bb9e3" fill-opacity="0.4804" d="m788.622 244.52112l43.417297 -43.417328l159.2284 0l-43.41736 43.417328z" fill-rule="evenodd"/><path fill="#000000" fill-opacity="0.0" d="m788.622 244.52112l43.417297 -43.417328l159.2284 0l0 130.25198l-43.41736 43.417328l-159.22833 0zm0 0l159.22833 0l43.41736 -43.417328m-43.41736 43.417328l0 130.25198" fill-rule="evenodd"/><path stroke="#000000" stroke-width="1.0" stroke-linejoin="round" stroke-linecap="butt" stroke-dasharray="1.0,3.0" d="m788.622 244.52112l43.417297 -43.417328l159.2284 0l0 130.25198l-43.41736 43.417328l-159.22833 0zm0 0l159.22833 0l43.41736 -43.417328m-43.41736 43.417328l0 130.25198" fill-rule="evenodd"/><path fill="#6fa8dc" fill-opacity="0.4804" d="m945.646 244.52112l159.2284 0l0 130.25198l-159.2284 0z" fill-rule="evenodd"/><path fill="#5886af" fill-opacity="0.4804" d="m1104.8744 244.52112l43.41736 -43.417328l0 130.25198l-43.41736 43.417328z" fill-rule="evenodd"/><path fill="#8bb9e3" fill-opacity="0.4804" d="m945.646 244.52112l43.41736 -43.417328l159.2284 0l-43.41736 43.417328z" fill-rule="evenodd"/><path fill="#000000" fill-opacity="0.0" d="m945.646 244.52112l43.41736 -43.417328l159.2284 0l0 130.25198l-43.41736 43.417328l-159.2284 0zm0 0l159.2284 0l43.41736 -43.417328m-43.41736 43.417328l0 130.25198" fill-rule="evenodd"/><path stroke="#000000" stroke-width="1.0" stroke-linejoin="round" stroke-linecap="butt" stroke-dasharray="1.0,3.0" d="m945.646 244.52112l43.41736 -43.417328l159.2284 0l0 130.25198l-43.41736 43.417328l-159.2284 0zm0 0l159.2284 0l43.41736 -43.417328m-43.41736 43.417328l0 130.25198" fill-rule="evenodd"/><path fill="#6fa8dc" fill-opacity="0.4804" d="m788.622 117.280846l159.22833 0l0 130.25198l-159.22833 0z" fill-rule="evenodd"/><path fill="#5886af" fill-opacity="0.4804" d="m947.85034 117.280846l43.41736 -43.41732l0 130.25197l-43.41736 43.417328z" fill-rule="evenodd"/><path fill="#8bb9e3" fill-opacity="0.4804" d="m788.622 117.280846l43.417297 -43.41732l159.2284 0l-43.41736 43.41732z" fill-rule="evenodd"/><path fill="#000000" fill-opacity="0.0" d="m788.622 117.280846l43.417297 -43.41732l159.2284 0l0 130.25197l-43.41736 43.417328l-159.22833 0zm0 0l159.22833 0l43.41736 -43.41732m-43.41736 43.41732l0 130.25198" fill-rule="evenodd"/><path stroke="#000000" stroke-width="1.0" stroke-linejoin="round" stroke-linecap="butt" stroke-dasharray="1.0,3.0" d="m788.622 117.280846l43.417297 -43.41732l159.2284 0l0 130.25197l-43.41736 43.417328l-159.22833 0zm0 0l159.22833 0l43.41736 -43.41732m-43.41736 43.41732l0 130.25198" fill-rule="evenodd"/><path fill="#6fa8dc" fill-opacity="0.4804" d="m945.646 117.280846l159.2284 0l0 130.25198l-159.2284 0z" fill-rule="evenodd"/><path fill="#5886af" fill-opacity="0.4804" d="m1104.8744 117.280846l43.41736 -43.41732l0 130.25197l-43.41736 43.417328z" fill-rule="evenodd"/><path fill="#8bb9e3" fill-opacity="0.4804" d="m945.646 117.280846l43.41736 -43.41732l159.2284 0l-43.41736 43.41732z" fill-rule="evenodd"/><path fill="#000000" fill-opacity="0.0" d="m945.646 117.280846l43.41736 -43.41732l159.2284 0l0 130.25197l-43.41736 43.417328l-159.2284 0zm0 0l159.2284 0l43.41736 -43.41732m-43.41736 43.41732l0 130.25198" fill-rule="evenodd"/><path stroke="#000000" stroke-width="1.0" stroke-linejoin="round" stroke-linecap="butt" stroke-dasharray="1.0,3.0" d="m945.646 117.280846l43.41736 -43.41732l159.2284 0l0 130.25197l-43.41736 43.417328l-159.2284 0zm0 0l159.2284 0l43.41736 -43.41732m-43.41736 43.41732l0 130.25198" fill-rule="evenodd"/><path fill="#00ff00" fill-opacity="0.324" d="m788.6221 116.22572l43.684753 -42.362206l113.32312 0l-43.684753 42.362206z" fill-rule="evenodd"/><path stroke="#000000" stroke-width="1.0" stroke-linejoin="round" stroke-linecap="butt" d="m788.6221 116.22572l43.684753 -42.362206l113.32312 0l-43.684753 42.362206z" fill-rule="evenodd"/><path fill="#00ff00" fill-opacity="0.324" d="m788.6221 132.22572l43.684753 -42.362206l113.32312 0l-43.684753 42.362206z" fill-rule="evenodd"/><path stroke="#000000" stroke-width="1.0" stroke-linejoin="round" stroke-linecap="butt" d="m788.6221 132.22572l43.684753 -42.362206l113.32312 0l-43.684753 42.362206z" fill-rule="evenodd"/><path fill="#00ff00" fill-opacity="0.324" d="m788.6221 148.22572l43.684753 -42.362206l113.32312 0l-43.684753 42.362206z" fill-rule="evenodd"/><path stroke="#000000" stroke-width="1.0" stroke-linejoin="round" stroke-linecap="butt" d="m788.6221 148.22572l43.684753 -42.362206l113.32312 0l-43.684753 42.362206z" fill-rule="evenodd"/><path fill="#00ff00" fill-opacity="0.324" d="m788.6221 164.22572l43.684753 -42.362206l113.32312 0l-43.684753 42.362206z" fill-rule="evenodd"/><path stroke="#000000" stroke-width="1.0" stroke-linejoin="round" stroke-linecap="butt" d="m788.6221 164.22572l43.684753 -42.362206l113.32312 0l-43.684753 42.362206z" fill-rule="evenodd"/><path fill="#00ff00" fill-opacity="0.324" d="m788.6221 180.22572l43.684753 -42.362213l113.32312 0l-43.684753 42.362213z" fill-rule="evenodd"/><path stroke="#000000" stroke-width="1.0" stroke-linejoin="round" stroke-linecap="butt" d="m788.6221 180.22572l43.684753 -42.362213l113.32312 0l-43.684753 42.362213z" fill-rule="evenodd"/><path fill="#00ff00" fill-opacity="0.324" d="m788.6221 196.22572l43.684753 -42.362213l113.32312 0l-43.684753 42.362213z" fill-rule="evenodd"/><path stroke="#000000" stroke-width="1.0" stroke-linejoin="round" stroke-linecap="butt" d="m788.6221 196.22572l43.684753 -42.362213l113.32312 0l-43.684753 42.362213z" fill-rule="evenodd"/><path fill="#00ff00" fill-opacity="0.324" d="m788.6221 212.22572l43.684753 -42.362213l113.32312 0l-43.684753 42.362213z" fill-rule="evenodd"/><path stroke="#000000" stroke-width="1.0" stroke-linejoin="round" stroke-linecap="butt" d="m788.6221 212.22572l43.684753 -42.362213l113.32312 0l-43.684753 42.362213z" fill-rule="evenodd"/><path fill="#000000" fill-opacity="0.0" d="m886.9449 109.808395l51.590576 0l0 38.551178l-51.590576 0z" fill-rule="evenodd"/><path fill="#000000" d="m896.0855 136.7284l3.53125 -5.03125l-3.265625 -4.640625l2.046875 0l1.484375 2.265625q0.421875 0.640625 0.671875 1.078125q0.40625 -0.59375 0.734375 -1.0625l1.640625 -2.28125l1.953125 0l-3.34375 4.546875l3.59375 5.125l-2.015625 0l-1.984375 -3.0l-0.515625 -0.8125l-2.546875 3.8125l-1.984375 0z" fill-rule="nonzero"/><path fill="#000000" fill-opacity="0.0" d="m886.9449 125.808395l51.590576 0l0 38.551178l-51.590576 0z" fill-rule="evenodd"/><path fill="#000000" d="m896.0855 152.7284l3.53125 -5.03125l-3.265625 -4.640625l2.046875 0l1.484375 2.265625q0.421875 0.640625 0.671875 1.078125q0.40625 -0.59375 0.734375 -1.0625l1.640625 -2.28125l1.953125 0l-3.34375 4.546875l3.59375 5.125l-2.015625 0l-1.984375 -3.0l-0.515625 -0.8125l-2.546875 3.8125l-1.984375 0z" fill-rule="nonzero"/><path fill="#000000" fill-opacity="0.0" d="m886.9449 141.8084l51.590576 0l0 38.551178l-51.590576 0z" fill-rule="evenodd"/><path fill="#000000" d="m896.0855 168.7284l3.53125 -5.03125l-3.265625 -4.640625l2.046875 0l1.484375 2.265625q0.421875 0.640625 0.671875 1.078125q0.40625 -0.59375 0.734375 -1.0625l1.640625 -2.28125l1.953125 0l-3.34375 4.546875l3.59375 5.125l-2.015625 0l-1.984375 -3.0l-0.515625 -0.8125l-2.546875 3.8125l-1.984375 0z" fill-rule="nonzero"/><path fill="#000000" fill-opacity="0.0" d="m886.9449 157.8084l51.590576 0l0 38.551178l-51.590576 0z" fill-rule="evenodd"/><path fill="#000000" d="m896.0855 184.7284l3.53125 -5.03125l-3.265625 -4.640625l2.046875 0l1.484375 2.265625q0.421875 0.640625 0.671875 1.078125q0.40625 -0.59375 0.734375 -1.0625l1.640625 -2.28125l1.953125 0l-3.34375 4.546875l3.59375 5.125l-2.015625 0l-1.984375 -3.0l-0.515625 -0.8125l-2.546875 3.8125l-1.984375 0z" fill-rule="nonzero"/><path fill="#000000" fill-opacity="0.0" d="m886.9449 173.8084l51.590576 0l0 38.551178l-51.590576 0z" fill-rule="evenodd"/><path fill="#000000" d="m896.0855 200.7284l3.53125 -5.03125l-3.265625 -4.640625l2.046875 0l1.484375 2.265625q0.421875 0.640625 0.671875 1.078125q0.40625 -0.59375 0.734375 -1.0625l1.640625 -2.28125l1.953125 0l-3.34375 4.546875l3.59375 5.125l-2.015625 0l-1.984375 -3.0l-0.515625 -0.8125l-2.546875 3.8125l-1.984375 0z" fill-rule="nonzero"/><path fill="#000000" fill-opacity="0.0" d="m886.9449 189.8084l51.590576 0l0 38.551178l-51.590576 0z" fill-rule="evenodd"/><path fill="#000000" d="m896.0855 216.7284l3.53125 -5.03125l-3.265625 -4.640625l2.046875 0l1.484375 2.265625q0.421875 0.640625 0.671875 1.078125q0.40625 -0.59375 0.734375 -1.0625l1.640625 -2.28125l1.953125 0l-3.34375 4.546875l3.59375 5.125l-2.015625 0l-1.984375 -3.0l-0.515625 -0.8125l-2.546875 3.8125l-1.984375 0z" fill-rule="nonzero"/><path fill="#000000" fill-opacity="0.0" d="m886.9449 93.808395l51.590576 0l0 38.551178l-51.590576 0z" fill-rule="evenodd"/><path fill="#000000" d="m896.0855 120.72839l3.53125 -5.03125l-3.265625 -4.640625l2.046875 0l1.484375 2.265625q0.421875 0.640625 0.671875 1.078125q0.40625 -0.59375 0.734375 -1.0625l1.640625 -2.28125l1.953125 0l-3.34375 4.546875l3.59375 5.125l-2.015625 0l-1.984375 -3.0l-0.515625 -0.8125l-2.546875 3.8125l-1.984375 0z" fill-rule="nonzero"/><path fill="#cc0000" fill-opacity="0.4078" d="m900.6457 116.22572l43.684753 -42.362206l44.94513 0l-43.684753 42.362206z" fill-rule="evenodd"/><path stroke="#000000" stroke-width="1.0" stroke-linejoin="round" stroke-linecap="butt" d="m900.6457 116.22572l43.684753 -42.362206l44.94513 0l-43.684753 42.362206z" fill-rule="evenodd"/><path fill="#cc0000" fill-opacity="0.4078" d="m900.6457 132.22572l43.684753 -42.362206l44.94513 0l-43.684753 42.362206z" fill-rule="evenodd"/><path stroke="#000000" stroke-width="1.0" stroke-linejoin="round" stroke-linecap="butt" d="m900.6457 132.22572l43.684753 -42.362206l44.94513 0l-43.684753 42.362206z" fill-rule="evenodd"/><path fill="#cc0000" fill-opacity="0.4078" d="m900.6457 148.22572l43.684753 -42.362206l44.94513 0l-43.684753 42.362206z" fill-rule="evenodd"/><path stroke="#000000" stroke-width="1.0" stroke-linejoin="round" stroke-linecap="butt" d="m900.6457 148.22572l43.684753 -42.362206l44.94513 0l-43.684753 42.362206z" fill-rule="evenodd"/><path fill="#cc0000" fill-opacity="0.4078" d="m900.6457 164.22572l43.684753 -42.362206l44.94513 0l-43.684753 42.362206z" fill-rule="evenodd"/><path stroke="#000000" stroke-width="1.0" stroke-linejoin="round" stroke-linecap="butt" d="m900.6457 164.22572l43.684753 -42.362206l44.94513 0l-43.684753 42.362206z" fill-rule="evenodd"/><path fill="#cc0000" fill-opacity="0.4078" d="m900.6457 180.22572l43.684753 -42.362213l44.94513 0l-43.684753 42.362213z" fill-rule="evenodd"/><path stroke="#000000" stroke-width="1.0" stroke-linejoin="round" stroke-linecap="butt" d="m900.6457 180.22572l43.684753 -42.362213l44.94513 0l-43.684753 42.362213z" fill-rule="evenodd"/><path fill="#cc0000" fill-opacity="0.4078" d="m900.6457 196.22572l43.684753 -42.362213l44.94513 0l-43.684753 42.362213z" fill-rule="evenodd"/><path stroke="#000000" stroke-width="1.0" stroke-linejoin="round" stroke-linecap="butt" d="m900.6457 196.22572l43.684753 -42.362213l44.94513 0l-43.684753 42.362213z" fill-rule="evenodd"/><path fill="#cc0000" fill-opacity="0.4078" d="m900.6457 212.22572l43.684753 -42.362213l44.94513 0l-43.684753 42.362213z" fill-rule="evenodd"/><path stroke="#000000" stroke-width="1.0" stroke-linejoin="round" stroke-linecap="butt" d="m900.6457 212.22572l43.684753 -42.362213l44.94513 0l-43.684753 42.362213z" fill-rule="evenodd"/><path fill="#000000" fill-opacity="0.0" d="m763.2126 116.22835l0 259.40155" fill-rule="evenodd"/><path stroke="#000000" stroke-width="1.0" stroke-linejoin="round" stroke-linecap="butt" d="m763.2126 116.22835l0 253.40157" fill-rule="evenodd"/><path fill="#000000" stroke="#000000" stroke-width="1.0" stroke-linecap="butt" d="m761.56085 369.6299l1.6517334 4.5381165l1.6517334 -4.5381165z" fill-rule="evenodd"/><path fill="#000000" fill-opacity="0.0" d="m762.3018 116.22835l446.89764 0" fill-rule="evenodd"/><path stroke="#000000" stroke-width="1.0" stroke-linejoin="round" stroke-linecap="butt" d="m762.3018 116.22835l440.89764 0" fill-rule="evenodd"/><path fill="#000000" stroke="#000000" stroke-width="1.0" stroke-linecap="butt" d="m1203.1995 117.88008l4.538086 -1.6517334l-4.538086 -1.6517334z" fill-rule="evenodd"/><path fill="#000000" fill-opacity="0.0" d="m763.2126 116.22572l86.456726 -88.28346" fill-rule="evenodd"/><path stroke="#000000" stroke-width="1.0" stroke-linejoin="round" stroke-linecap="butt" d="m763.2126 116.22572l82.258606 -83.996704" fill-rule="evenodd"/><path fill="#000000" stroke="#000000" stroke-width="1.0" stroke-linecap="butt" d="m846.6513 33.384693l1.9951172 -4.3979645l-4.3552856 2.0866108z" fill-rule="evenodd"/><path fill="#000000" fill-opacity="0.0" d="m841.6102 -8.910761l32.094482 0l0 61.16535l-32.094482 0z" fill-rule="evenodd"/><path fill="#000000" d="m852.2196 23.12924l0 -17.1875l3.296875 0l0 9.125l3.84375 -4.390625l4.0625 0l-4.25 4.546875l4.546875 7.90625l-3.546875 0l-3.125 -5.59375l-1.53125 1.609375l0 3.984375l-3.296875 0z" fill-rule="nonzero"/><path fill="#000000" fill-opacity="0.0" d="m747.16406 367.6719l32.094482 0l0 38.551178l-32.094482 0z" fill-rule="evenodd"/><path fill="#000000" d="m757.8828 385.5713l0 -3.046875l3.296875 0l0 3.046875l-3.296875 0zm0 14.140625l0 -12.453125l3.296875 0l0 12.453125l-3.296875 0z" fill-rule="nonzero"/><path fill="#000000" fill-opacity="0.0" d="m1209.1981 89.25722l32.094482 0l0 38.551178l-32.094482 0z" fill-rule="evenodd"/><path fill="#000000" d="m1219.8544 107.15659l0 -3.046875l3.296875 0l0 3.046875l-3.296875 0zm3.296875 1.6875l0 12.0625q0 2.390625 -0.3125 3.359375q-0.3125 0.984375 -1.203125 1.53125q-0.875 0.546875 -2.25 0.546875q-0.5 0 -1.078125 -0.09375q-0.5625 -0.078125 -1.21875 -0.25l0.578125 -2.8125q0.234375 0.046875 0.453125 0.078125q0.203125 0.03125 0.375 0.03125q0.5 0 0.8125 -0.21875q0.328125 -0.21875 0.4375 -0.53125q0.109375 -0.296875 0.109375 -1.828125l0 -11.875l3.296875 0z" fill-rule="nonzero"/><path fill="#000000" fill-opacity="0.0" d="m741.7782 116.22835l1.8267822 130.14172" fill-rule="evenodd"/><path stroke="#000000" stroke-width="1.0" stroke-linejoin="round" stroke-linecap="butt" d="m741.8624 122.22775l1.6583252 118.142914" fill-rule="evenodd"/><path fill="#000000" stroke="#000000" stroke-width="1.0" stroke-linecap="butt" d="m743.514 122.204575l-1.715271 -4.514473l-1.5878296 4.560837z" fill-rule="evenodd"/><path fill="#000000" stroke="#000000" stroke-width="1.0" stroke-linecap="butt" d="m741.8692 240.39386l1.715271 4.5144653l1.5878906 -4.560837z" fill-rule="evenodd"/><path fill="#000000" fill-opacity="0.0" d="m694.64636 155.76903l51.590576 0l0 38.551178l-51.590576 0z" fill-rule="evenodd"/><path fill="#000000" d="m705.9901 172.58278l9.15625 0q2.71875 0 4.046875 0.234375q1.34375 0.21875 2.390625 0.9375q1.0625 0.71875 1.765625 1.921875q0.703125 1.1875 0.703125 2.671875q0 1.609375 -0.875 2.953125q-0.859375 1.34375 -2.34375 2.015625q2.09375 0.609375 3.21875 2.078125q1.125 1.46875 1.125 3.453125q0 1.5625 -0.734375 3.046875q-0.71875 1.46875 -1.984375 2.359375q-1.25 0.875 -3.09375 1.078125q-1.15625 0.125 -5.578125 0.15625l-7.796875 0l0 -22.90625zm4.625 3.8125l0 5.296875l3.03125 0q2.703125 0 3.359375 -0.078125q1.1875 -0.140625 1.859375 -0.8125q0.6875 -0.6875 0.6875 -1.796875q0 -1.0625 -0.59375 -1.71875q-0.578125 -0.671875 -1.734375 -0.8125q-0.6875 -0.078125 -3.953125 -0.078125l-2.65625 0zm0 9.109375l0 6.125l4.28125 0q2.5 0 3.171875 -0.140625q1.03125 -0.1875 1.671875 -0.90625q0.65625 -0.734375 0.65625 -1.953125q0 -1.03125 -0.5 -1.75q-0.5 -0.71875 -1.453125 -1.046875q-0.9375 -0.328125 -4.09375 -0.328125l-3.734375 0z" fill-rule="nonzero"/><path fill="#000000" d="m728.0995 184.50465l0 -2.375l2.5625 0l0 2.375l-2.5625 0zm0 10.984375l0 -9.671875l2.5625 0l0 9.671875l-2.5625 0z" fill-rule="nonzero"/></g></svg>