<svg version="1.1" viewBox="0.0 0.0 446.8582677165354 434.9790026246719" fill="none" stroke="none" stroke-linecap="square" stroke-miterlimit="10" xmlns:xlink="http://www.w3.org/1999/xlink" xmlns="http://www.w3.org/2000/svg"><clipPath id="p.0"><path d="m0 0l446.85828 0l0 434.979l-446.85828 0l0 -434.979z" clip-rule="nonzero"/></clipPath><g clip-path="url(#p.0)"><path fill="#000000" fill-opacity="0.0" d="m0 0l446.85828 0l0 434.979l-446.85828 0z" fill-rule="evenodd"/><path fill="#9b9b9b" fill-opacity="0.4438" d="m114.77316 272.08307l72.58238 0l0 72.12033l-72.58238 0z" fill-rule="evenodd"/><path fill="#7b7b7b" fill-opacity="0.4438" d="m187.35555 272.08307l24.040115 -24.0401l0 72.12033l-24.040115 24.0401z" fill-rule="evenodd"/><path fill="#afafaf" fill-opacity="0.4438" d="m114.77316 272.08307l24.040115 -24.0401l72.58238 0l-24.040115 24.0401z" fill-rule="evenodd"/><path fill="#000000" fill-opacity="0.0" d="m114.77316 272.08307l24.040115 -24.0401l72.58238 0l0 72.12033l-24.040115 24.0401l-72.58238 0zm0 0l72.58238 0l24.040115 -24.0401m-24.040115 24.0401l0 72.12033" fill-rule="evenodd"/><path stroke="#000000" stroke-width="1.0" stroke-linejoin="round" stroke-linecap="butt" stroke-dasharray="1.0,3.0" d="m114.77316 272.08307l24.040115 -24.0401l72.58238 0l0 72.12033l-24.040115 24.0401l-72.58238 0zm0 0l72.58238 0l24.040115 -24.0401m-24.040115 24.0401l0 72.12033" fill-rule="evenodd"/><path fill="#9b9b9b" fill-opacity="0.4438" d="m90.67391 296.06708l72.582375 0l0 72.12033l-72.582375 0z" fill-rule="evenodd"/><path fill="#7b7b7b" fill-opacity="0.4438" d="m163.25629 296.06708l24.040115 -24.0401l0 72.12033l-24.040115 24.0401z" fill-rule="evenodd"/><path fill="#afafaf" fill-opacity="0.4438" d="m90.67391 296.06708l24.040108 -24.0401l72.58238 0l-24.040115 24.0401z" fill-rule="evenodd"/><path fill="#000000" fill-opacity="0.0" d="m90.67391 296.06708l24.040108 -24.0401l72.58238 0l0 72.12033l-24.040115 24.0401l-72.582375 0zm0 0l72.582375 0l24.040115 -24.0401m-24.040115 24.0401l0 72.12033" fill-rule="evenodd"/><path stroke="#000000" stroke-width="1.0" stroke-linejoin="round" stroke-linecap="butt" stroke-dasharray="1.0,3.0" d="m90.67391 296.06708l24.040108 -24.0401l72.58238 0l0 72.12033l-24.040115 24.0401l-72.582375 0zm0 0l72.582375 0l24.040115 -24.0401m-24.040115 24.0401l0 72.12033" fill-rule="evenodd"/><path fill="#9b9b9b" fill-opacity="0.4438" d="m67.23806 319.5937l72.582375 0l0 72.1203l-72.582375 0z" fill-rule="evenodd"/><path fill="#7b7b7b" fill-opacity="0.4438" d="m139.82043 319.5937l24.040115 -24.04013l0 72.12033l-24.040115 24.0401z" fill-rule="evenodd"/><path fill="#afafaf" fill-opacity="0.4438" d="m67.23806 319.5937l24.040108 -24.04013l72.58238 0l-24.040115 24.04013z" fill-rule="evenodd"/><path fill="#000000" fill-opacity="0.0" d="m67.23806 319.5937l24.040108 -24.04013l72.58238 0l0 72.12033l-24.040115 24.0401l-72.582375 0zm0 0l72.582375 0l24.040115 -24.04013m-24.040115 24.04013l0 72.1203" fill-rule="evenodd"/><path stroke="#000000" stroke-width="1.0" stroke-linejoin="round" stroke-linecap="butt" stroke-dasharray="1.0,3.0" d="m67.23806 319.5937l24.040108 -24.04013l72.58238 0l0 72.12033l-24.040115 24.0401l-72.582375 0zm0 0l72.582375 0l24.040115 -24.04013m-24.040115 24.04013l0 72.1203" fill-rule="evenodd"/><path fill="#9b9b9b" fill-opacity="0.4438" d="m42.86564 343.582l72.58238 0l0 72.12033l-72.58238 0z" fill-rule="evenodd"/><path fill="#7b7b7b" fill-opacity="0.4438" d="m115.44802 343.582l24.040108 -24.0401l0 72.12033l-24.040108 24.0401z" fill-rule="evenodd"/><path fill="#afafaf" fill-opacity="0.4438" d="m42.86564 343.582l24.040108 -24.0401l72.58238 0l-24.040108 24.0401z" fill-rule="evenodd"/><path fill="#000000" fill-opacity="0.0" d="m42.86564 343.582l24.040108 -24.0401l72.58238 0l0 72.12033l-24.040108 24.0401l-72.58238 0zm0 0l72.58238 0l24.040108 -24.0401m-24.040108 24.0401l0 72.12033" fill-rule="evenodd"/><path stroke="#000000" stroke-width="1.0" stroke-linejoin="round" stroke-linecap="butt" stroke-dasharray="1.0,3.0" d="m42.86564 343.582l24.040108 -24.0401l72.58238 0l0 72.12033l-24.040108 24.0401l-72.58238 0zm0 0l72.58238 0l24.040108 -24.0401m-24.040108 24.0401l0 72.12033" fill-rule="evenodd"/><path fill="#9b9b9b" fill-opacity="0.4438" d="m186.77316 272.08307l72.5824 0l0 72.12033l-72.5824 0z" fill-rule="evenodd"/><path fill="#7b7b7b" fill-opacity="0.4438" d="m259.35556 272.08307l24.0401 -24.0401l0 72.12033l-24.0401 24.0401z" fill-rule="evenodd"/><path fill="#afafaf" fill-opacity="0.4438" d="m186.77316 272.08307l24.040115 -24.0401l72.58238 0l-24.0401 24.0401z" fill-rule="evenodd"/><path fill="#000000" fill-opacity="0.0" d="m186.77316 272.08307l24.040115 -24.0401l72.58238 0l0 72.12033l-24.0401 24.0401l-72.5824 0zm0 0l72.5824 0l24.0401 -24.0401m-24.0401 24.0401l0 72.12033" fill-rule="evenodd"/><path stroke="#000000" stroke-width="1.0" stroke-linejoin="round" stroke-linecap="butt" stroke-dasharray="1.0,3.0" d="m186.77316 272.08307l24.040115 -24.0401l72.58238 0l0 72.12033l-24.0401 24.0401l-72.5824 0zm0 0l72.5824 0l24.0401 -24.0401m-24.0401 24.0401l0 72.12033" fill-rule="evenodd"/><path fill="#9b9b9b" fill-opacity="0.4438" d="m162.6739 296.06708l72.58238 0l0 72.12033l-72.58238 0z" fill-rule="evenodd"/><path fill="#7b7b7b" fill-opacity="0.4438" d="m235.25629 296.06708l24.0401 -24.0401l0 72.12033l-24.0401 24.0401z" fill-rule="evenodd"/><path fill="#afafaf" fill-opacity="0.4438" d="m162.6739 296.06708l24.040115 -24.0401l72.58237 0l-24.0401 24.0401z" fill-rule="evenodd"/><path fill="#000000" fill-opacity="0.0" d="m162.6739 296.06708l24.040115 -24.0401l72.58237 0l0 72.12033l-24.0401 24.0401l-72.58238 0zm0 0l72.58238 0l24.0401 -24.0401m-24.0401 24.0401l0 72.12033" fill-rule="evenodd"/><path stroke="#000000" stroke-width="1.0" stroke-linejoin="round" stroke-linecap="butt" stroke-dasharray="1.0,3.0" d="m162.6739 296.06708l24.040115 -24.0401l72.58237 0l0 72.12033l-24.0401 24.0401l-72.58238 0zm0 0l72.58238 0l24.0401 -24.0401m-24.0401 24.0401l0 72.12033" fill-rule="evenodd"/><path fill="#9b9b9b" fill-opacity="0.4438" d="m139.23805 319.5937l72.58238 0l0 72.1203l-72.58238 0z" fill-rule="evenodd"/><path fill="#7b7b7b" fill-opacity="0.4438" d="m211.82043 319.5937l24.040115 -24.04013l0 72.12033l-24.040115 24.0401z" fill-rule="evenodd"/><path fill="#afafaf" fill-opacity="0.4438" d="m139.23805 319.5937l24.040115 -24.04013l72.58238 0l-24.040115 24.04013z" fill-rule="evenodd"/><path fill="#000000" fill-opacity="0.0" d="m139.23805 319.5937l24.040115 -24.04013l72.58238 0l0 72.12033l-24.040115 24.0401l-72.58238 0zm0 0l72.58238 0l24.040115 -24.04013m-24.040115 24.04013l0 72.1203" fill-rule="evenodd"/><path stroke="#000000" stroke-width="1.0" stroke-linejoin="round" stroke-linecap="butt" stroke-dasharray="1.0,3.0" d="m139.23805 319.5937l24.040115 -24.04013l72.58238 0l0 72.12033l-24.040115 24.0401l-72.58238 0zm0 0l72.58238 0l24.040115 -24.04013m-24.040115 24.04013l0 72.1203" fill-rule="evenodd"/><path fill="#9b9b9b" fill-opacity="0.4438" d="m114.86564 343.582l72.582375 0l0 72.12033l-72.582375 0z" fill-rule="evenodd"/><path fill="#7b7b7b" fill-opacity="0.4438" d="m187.44801 343.582l24.040115 -24.0401l0 72.12033l-24.040115 24.0401z" fill-rule="evenodd"/><path fill="#afafaf" fill-opacity="0.4438" d="m114.86564 343.582l24.040108 -24.0401l72.58238 0l-24.040115 24.0401z" fill-rule="evenodd"/><path fill="#000000" fill-opacity="0.0" d="m114.86564 343.582l24.040108 -24.0401l72.58238 0l0 72.12033l-24.040115 24.0401l-72.582375 0zm0 0l72.582375 0l24.040115 -24.0401m-24.040115 24.0401l0 72.12033" fill-rule="evenodd"/><path stroke="#000000" stroke-width="1.0" stroke-linejoin="round" stroke-linecap="butt" stroke-dasharray="1.0,3.0" d="m114.86564 343.582l24.040108 -24.0401l72.58238 0l0 72.12033l-24.040115 24.0401l-72.582375 0zm0 0l72.582375 0l24.040115 -24.0401m-24.040115 24.0401l0 72.12033" fill-rule="evenodd"/><path fill="#9b9b9b" fill-opacity="0.4438" d="m258.77316 272.08307l72.5824 0l0 72.12033l-72.5824 0z" fill-rule="evenodd"/><path fill="#7b7b7b" fill-opacity="0.4438" d="m331.35556 272.08307l24.0401 -24.0401l0 72.12033l-24.0401 24.0401z" fill-rule="evenodd"/><path fill="#afafaf" fill-opacity="0.4438" d="m258.77316 272.08307l24.0401 -24.0401l72.5824 0l-24.0401 24.0401z" fill-rule="evenodd"/><path fill="#000000" fill-opacity="0.0" d="m258.77316 272.08307l24.0401 -24.0401l72.5824 0l0 72.12033l-24.0401 24.0401l-72.5824 0zm0 0l72.5824 0l24.0401 -24.0401m-24.0401 24.0401l0 72.12033" fill-rule="evenodd"/><path stroke="#000000" stroke-width="1.0" stroke-linejoin="round" stroke-linecap="butt" stroke-dasharray="1.0,3.0" d="m258.77316 272.08307l24.0401 -24.0401l72.5824 0l0 72.12033l-24.0401 24.0401l-72.5824 0zm0 0l72.5824 0l24.0401 -24.0401m-24.0401 24.0401l0 72.12033" fill-rule="evenodd"/><path fill="#9b9b9b" fill-opacity="0.4438" d="m234.6739 296.06708l72.58238 0l0 72.12033l-72.58238 0z" fill-rule="evenodd"/><path fill="#7b7b7b" fill-opacity="0.4438" d="m307.2563 296.06708l24.0401 -24.0401l0 72.12033l-24.0401 24.0401z" fill-rule="evenodd"/><path fill="#afafaf" fill-opacity="0.4438" d="m234.6739 296.06708l24.040115 -24.0401l72.58237 0l-24.0401 24.0401z" fill-rule="evenodd"/><path fill="#000000" fill-opacity="0.0" d="m234.6739 296.06708l24.040115 -24.0401l72.58237 0l0 72.12033l-24.0401 24.0401l-72.58238 0zm0 0l72.58238 0l24.0401 -24.0401m-24.0401 24.0401l0 72.12033" fill-rule="evenodd"/><path stroke="#000000" stroke-width="1.0" stroke-linejoin="round" stroke-linecap="butt" stroke-dasharray="1.0,3.0" d="m234.6739 296.06708l24.040115 -24.0401l72.58237 0l0 72.12033l-24.0401 24.0401l-72.58238 0zm0 0l72.58238 0l24.0401 -24.0401m-24.0401 24.0401l0 72.12033" fill-rule="evenodd"/><path fill="#9b9b9b" fill-opacity="0.4438" d="m211.23805 319.5937l72.58238 0l0 72.1203l-72.58238 0z" fill-rule="evenodd"/><path fill="#7b7b7b" fill-opacity="0.4438" d="m283.82043 319.5937l24.0401 -24.04013l0 72.12033l-24.0401 24.0401z" fill-rule="evenodd"/><path fill="#afafaf" fill-opacity="0.4438" d="m211.23805 319.5937l24.040115 -24.04013l72.58237 0l-24.0401 24.04013z" fill-rule="evenodd"/><path fill="#000000" fill-opacity="0.0" d="m211.23805 319.5937l24.040115 -24.04013l72.58237 0l0 72.12033l-24.0401 24.0401l-72.58238 0zm0 0l72.58238 0l24.0401 -24.04013m-24.0401 24.04013l0 72.1203" fill-rule="evenodd"/><path stroke="#000000" stroke-width="1.0" stroke-linejoin="round" stroke-linecap="butt" stroke-dasharray="1.0,3.0" d="m211.23805 319.5937l24.040115 -24.04013l72.58237 0l0 72.12033l-24.0401 24.0401l-72.58238 0zm0 0l72.58238 0l24.0401 -24.04013m-24.0401 24.04013l0 72.1203" fill-rule="evenodd"/><path fill="#9b9b9b" fill-opacity="0.4438" d="m186.86563 343.582l72.5824 0l0 72.12033l-72.5824 0z" fill-rule="evenodd"/><path fill="#7b7b7b" fill-opacity="0.4438" d="m259.44803 343.582l24.0401 -24.0401l0 72.12033l-24.0401 24.0401z" fill-rule="evenodd"/><path fill="#afafaf" fill-opacity="0.4438" d="m186.86563 343.582l24.040115 -24.0401l72.58238 0l-24.0401 24.0401z" fill-rule="evenodd"/><path fill="#000000" fill-opacity="0.0" d="m186.86563 343.582l24.040115 -24.0401l72.58238 0l0 72.12033l-24.0401 24.0401l-72.5824 0zm0 0l72.5824 0l24.0401 -24.0401m-24.0401 24.0401l0 72.12033" fill-rule="evenodd"/><path stroke="#000000" stroke-width="1.0" stroke-linejoin="round" stroke-linecap="butt" stroke-dasharray="1.0,3.0" d="m186.86563 343.582l24.040115 -24.0401l72.58238 0l0 72.12033l-24.0401 24.0401l-72.5824 0zm0 0l72.5824 0l24.0401 -24.0401m-24.0401 24.0401l0 72.12033" fill-rule="evenodd"/><path fill="#9b9b9b" fill-opacity="0.4438" d="m330.77316 272.08307l72.5824 0l0 72.12033l-72.5824 0z" fill-rule="evenodd"/><path fill="#7b7b7b" fill-opacity="0.4438" d="m403.35556 272.08307l24.0401 -24.0401l0 72.12033l-24.0401 24.0401z" fill-rule="evenodd"/><path fill="#afafaf" fill-opacity="0.4438" d="m330.77316 272.08307l24.0401 -24.0401l72.5824 0l-24.0401 24.0401z" fill-rule="evenodd"/><path fill="#000000" fill-opacity="0.0" d="m330.77316 272.08307l24.0401 -24.0401l72.5824 0l0 72.12033l-24.0401 24.0401l-72.5824 0zm0 0l72.5824 0l24.0401 -24.0401m-24.0401 24.0401l0 72.12033" fill-rule="evenodd"/><path stroke="#000000" stroke-width="1.0" stroke-linejoin="round" stroke-linecap="butt" stroke-dasharray="1.0,3.0" d="m330.77316 272.08307l24.0401 -24.0401l72.5824 0l0 72.12033l-24.0401 24.0401l-72.5824 0zm0 0l72.5824 0l24.0401 -24.0401m-24.0401 24.0401l0 72.12033" fill-rule="evenodd"/><path fill="#9b9b9b" fill-opacity="0.4438" d="m306.67392 296.06708l72.58237 0l0 72.12033l-72.58237 0z" fill-rule="evenodd"/><path fill="#7b7b7b" fill-opacity="0.4438" d="m379.2563 296.06708l24.0401 -24.0401l0 72.12033l-24.0401 24.0401z" fill-rule="evenodd"/><path fill="#afafaf" fill-opacity="0.4438" d="m306.67392 296.06708l24.0401 -24.0401l72.58237 0l-24.0401 24.0401z" fill-rule="evenodd"/><path fill="#000000" fill-opacity="0.0" d="m306.67392 296.06708l24.0401 -24.0401l72.58237 0l0 72.12033l-24.0401 24.0401l-72.58237 0zm0 0l72.58237 0l24.0401 -24.0401m-24.0401 24.0401l0 72.12033" fill-rule="evenodd"/><path stroke="#000000" stroke-width="1.0" stroke-linejoin="round" stroke-linecap="butt" stroke-dasharray="1.0,3.0" d="m306.67392 296.06708l24.0401 -24.0401l72.58237 0l0 72.12033l-24.0401 24.0401l-72.58237 0zm0 0l72.58237 0l24.0401 -24.0401m-24.0401 24.0401l0 72.12033" fill-rule="evenodd"/><path fill="#9b9b9b" fill-opacity="0.4438" d="m283.23807 319.5937l72.58237 0l0 72.1203l-72.58237 0z" fill-rule="evenodd"/><path fill="#7b7b7b" fill-opacity="0.4438" d="m355.82043 319.5937l24.0401 -24.04013l0 72.12033l-24.0401 24.0401z" fill-rule="evenodd"/><path fill="#afafaf" fill-opacity="0.4438" d="m283.23807 319.5937l24.0401 -24.04013l72.58237 0l-24.0401 24.04013z" fill-rule="evenodd"/><path fill="#000000" fill-opacity="0.0" d="m283.23807 319.5937l24.0401 -24.04013l72.58237 0l0 72.12033l-24.0401 24.0401l-72.58237 0zm0 0l72.58237 0l24.0401 -24.04013m-24.0401 24.04013l0 72.1203" fill-rule="evenodd"/><path stroke="#000000" stroke-width="1.0" stroke-linejoin="round" stroke-linecap="butt" stroke-dasharray="1.0,3.0" d="m283.23807 319.5937l24.0401 -24.04013l72.58237 0l0 72.12033l-24.0401 24.0401l-72.58237 0zm0 0l72.58237 0l24.0401 -24.04013m-24.0401 24.04013l0 72.1203" fill-rule="evenodd"/><path fill="#9b9b9b" fill-opacity="0.4438" d="m258.86563 343.582l72.5824 0l0 72.12033l-72.5824 0z" fill-rule="evenodd"/><path fill="#7b7b7b" fill-opacity="0.4438" d="m331.44803 343.582l24.0401 -24.0401l0 72.12033l-24.0401 24.0401z" fill-rule="evenodd"/><path fill="#afafaf" fill-opacity="0.4438" d="m258.86563 343.582l24.0401 -24.0401l72.5824 0l-24.0401 24.0401z" fill-rule="evenodd"/><path fill="#000000" fill-opacity="0.0" d="m258.86563 343.582l24.0401 -24.0401l72.5824 0l0 72.12033l-24.0401 24.0401l-72.5824 0zm0 0l72.5824 0l24.0401 -24.0401m-24.0401 24.0401l0 72.12033" fill-rule="evenodd"/><path stroke="#000000" stroke-width="1.0" stroke-linejoin="round" stroke-linecap="butt" stroke-dasharray="1.0,3.0" d="m258.86563 343.582l24.0401 -24.0401l72.5824 0l0 72.12033l-24.0401 24.0401l-72.5824 0zm0 0l72.5824 0l24.0401 -24.0401m-24.0401 24.0401l0 72.12033" fill-rule="evenodd"/><path fill="#9b9b9b" fill-opacity="0.4438" d="m114.77316 200.08307l72.58238 0l0 72.12033l-72.58238 0z" fill-rule="evenodd"/><path fill="#7b7b7b" fill-opacity="0.4438" d="m187.35555 200.08307l24.040115 -24.0401l0 72.120316l-24.040115 24.040115z" fill-rule="evenodd"/><path fill="#afafaf" fill-opacity="0.4438" d="m114.77316 200.08307l24.040115 -24.0401l72.58238 0l-24.040115 24.0401z" fill-rule="evenodd"/><path fill="#000000" fill-opacity="0.0" d="m114.77316 200.08307l24.040115 -24.0401l72.58238 0l0 72.120316l-24.040115 24.040115l-72.58238 0zm0 0l72.58238 0l24.040115 -24.0401m-24.040115 24.0401l0 72.12033" fill-rule="evenodd"/><path stroke="#000000" stroke-width="1.0" stroke-linejoin="round" stroke-linecap="butt" stroke-dasharray="1.0,3.0" d="m114.77316 200.08307l24.040115 -24.0401l72.58238 0l0 72.120316l-24.040115 24.040115l-72.58238 0zm0 0l72.58238 0l24.040115 -24.0401m-24.040115 24.0401l0 72.12033" fill-rule="evenodd"/><path fill="#9b9b9b" fill-opacity="0.4438" d="m90.67391 224.06708l72.582375 0l0 72.12033l-72.582375 0z" fill-rule="evenodd"/><path fill="#7b7b7b" fill-opacity="0.4438" d="m163.25629 224.06708l24.040115 -24.0401l0 72.12033l-24.040115 24.0401z" fill-rule="evenodd"/><path fill="#afafaf" fill-opacity="0.4438" d="m90.67391 224.06708l24.040108 -24.0401l72.58238 0l-24.040115 24.0401z" fill-rule="evenodd"/><path fill="#000000" fill-opacity="0.0" d="m90.67391 224.06708l24.040108 -24.0401l72.58238 0l0 72.12033l-24.040115 24.0401l-72.582375 0zm0 0l72.582375 0l24.040115 -24.0401m-24.040115 24.0401l0 72.12033" fill-rule="evenodd"/><path stroke="#000000" stroke-width="1.0" stroke-linejoin="round" stroke-linecap="butt" stroke-dasharray="1.0,3.0" d="m90.67391 224.06708l24.040108 -24.0401l72.58238 0l0 72.12033l-24.040115 24.0401l-72.582375 0zm0 0l72.582375 0l24.040115 -24.0401m-24.040115 24.0401l0 72.12033" fill-rule="evenodd"/><path fill="#9b9b9b" fill-opacity="0.4438" d="m67.23806 247.59367l72.582375 0l0 72.120316l-72.582375 0z" fill-rule="evenodd"/><path fill="#7b7b7b" fill-opacity="0.4438" d="m139.82043 247.59367l24.040115 -24.0401l0 72.120316l-24.040115 24.0401z" fill-rule="evenodd"/><path fill="#afafaf" fill-opacity="0.4438" d="m67.23806 247.59367l24.040108 -24.0401l72.58238 0l-24.040115 24.0401z" fill-rule="evenodd"/><path fill="#000000" fill-opacity="0.0" d="m67.23806 247.59367l24.040108 -24.0401l72.58238 0l0 72.120316l-24.040115 24.0401l-72.582375 0zm0 0l72.582375 0l24.040115 -24.0401m-24.040115 24.0401l0 72.120316" fill-rule="evenodd"/><path stroke="#000000" stroke-width="1.0" stroke-linejoin="round" stroke-linecap="butt" stroke-dasharray="1.0,3.0" d="m67.23806 247.59367l24.040108 -24.0401l72.58238 0l0 72.120316l-24.040115 24.0401l-72.582375 0zm0 0l72.582375 0l24.040115 -24.0401m-24.040115 24.0401l0 72.120316" fill-rule="evenodd"/><path fill="#9b9b9b" fill-opacity="0.4438" d="m42.86564 271.582l72.58238 0l0 72.12033l-72.58238 0z" fill-rule="evenodd"/><path fill="#7b7b7b" fill-opacity="0.4438" d="m115.44802 271.582l24.040108 -24.0401l0 72.12033l-24.040108 24.0401z" fill-rule="evenodd"/><path fill="#afafaf" fill-opacity="0.4438" d="m42.86564 271.582l24.040108 -24.0401l72.58238 0l-24.040108 24.0401z" fill-rule="evenodd"/><path fill="#000000" fill-opacity="0.0" d="m42.86564 271.582l24.040108 -24.0401l72.58238 0l0 72.12033l-24.040108 24.0401l-72.58238 0zm0 0l72.58238 0l24.040108 -24.0401m-24.040108 24.0401l0 72.12033" fill-rule="evenodd"/><path stroke="#000000" stroke-width="1.0" stroke-linejoin="round" stroke-linecap="butt" stroke-dasharray="1.0,3.0" d="m42.86564 271.582l24.040108 -24.0401l72.58238 0l0 72.12033l-24.040108 24.0401l-72.58238 0zm0 0l72.58238 0l24.040108 -24.0401m-24.040108 24.0401l0 72.12033" fill-rule="evenodd"/><path fill="#9b9b9b" fill-opacity="0.4438" d="m186.77316 200.08307l72.5824 0l0 72.12033l-72.5824 0z" fill-rule="evenodd"/><path fill="#7b7b7b" fill-opacity="0.4438" d="m259.35556 200.08307l24.0401 -24.0401l0 72.120316l-24.0401 24.040115z" fill-rule="evenodd"/><path fill="#afafaf" fill-opacity="0.4438" d="m186.77316 200.08307l24.040115 -24.0401l72.58238 0l-24.0401 24.0401z" fill-rule="evenodd"/><path fill="#000000" fill-opacity="0.0" d="m186.77316 200.08307l24.040115 -24.0401l72.58238 0l0 72.120316l-24.0401 24.040115l-72.5824 0zm0 0l72.5824 0l24.0401 -24.0401m-24.0401 24.0401l0 72.12033" fill-rule="evenodd"/><path stroke="#000000" stroke-width="1.0" stroke-linejoin="round" stroke-linecap="butt" stroke-dasharray="1.0,3.0" d="m186.77316 200.08307l24.040115 -24.0401l72.58238 0l0 72.120316l-24.0401 24.040115l-72.5824 0zm0 0l72.5824 0l24.0401 -24.0401m-24.0401 24.0401l0 72.12033" fill-rule="evenodd"/><path fill="#9b9b9b" fill-opacity="0.4438" d="m162.6739 224.06708l72.58238 0l0 72.12033l-72.58238 0z" fill-rule="evenodd"/><path fill="#7b7b7b" fill-opacity="0.4438" d="m235.25629 224.06708l24.0401 -24.0401l0 72.12033l-24.0401 24.0401z" fill-rule="evenodd"/><path fill="#afafaf" fill-opacity="0.4438" d="m162.6739 224.06708l24.040115 -24.0401l72.58237 0l-24.0401 24.0401z" fill-rule="evenodd"/><path fill="#000000" fill-opacity="0.0" d="m162.6739 224.06708l24.040115 -24.0401l72.58237 0l0 72.12033l-24.0401 24.0401l-72.58238 0zm0 0l72.58238 0l24.0401 -24.0401m-24.0401 24.0401l0 72.12033" fill-rule="evenodd"/><path stroke="#000000" stroke-width="1.0" stroke-linejoin="round" stroke-linecap="butt" stroke-dasharray="1.0,3.0" d="m162.6739 224.06708l24.040115 -24.0401l72.58237 0l0 72.12033l-24.0401 24.0401l-72.58238 0zm0 0l72.58238 0l24.0401 -24.0401m-24.0401 24.0401l0 72.12033" fill-rule="evenodd"/><path fill="#9b9b9b" fill-opacity="0.4438" d="m139.23805 247.59367l72.58238 0l0 72.120316l-72.58238 0z" fill-rule="evenodd"/><path fill="#7b7b7b" fill-opacity="0.4438" d="m211.82043 247.59367l24.040115 -24.0401l0 72.120316l-24.040115 24.0401z" fill-rule="evenodd"/><path fill="#afafaf" fill-opacity="0.4438" d="m139.23805 247.59367l24.040115 -24.0401l72.58238 0l-24.040115 24.0401z" fill-rule="evenodd"/><path fill="#000000" fill-opacity="0.0" d="m139.23805 247.59367l24.040115 -24.0401l72.58238 0l0 72.120316l-24.040115 24.0401l-72.58238 0zm0 0l72.58238 0l24.040115 -24.0401m-24.040115 24.0401l0 72.120316" fill-rule="evenodd"/><path stroke="#000000" stroke-width="1.0" stroke-linejoin="round" stroke-linecap="butt" stroke-dasharray="1.0,3.0" d="m139.23805 247.59367l24.040115 -24.0401l72.58238 0l0 72.120316l-24.040115 24.0401l-72.58238 0zm0 0l72.58238 0l24.040115 -24.0401m-24.040115 24.0401l0 72.120316" fill-rule="evenodd"/><path fill="#9b9b9b" fill-opacity="0.4438" d="m114.86564 271.582l72.582375 0l0 72.12033l-72.582375 0z" fill-rule="evenodd"/><path fill="#7b7b7b" fill-opacity="0.4438" d="m187.44801 271.582l24.040115 -24.0401l0 72.12033l-24.040115 24.0401z" fill-rule="evenodd"/><path fill="#afafaf" fill-opacity="0.4438" d="m114.86564 271.582l24.040108 -24.0401l72.58238 0l-24.040115 24.0401z" fill-rule="evenodd"/><path fill="#000000" fill-opacity="0.0" d="m114.86564 271.582l24.040108 -24.0401l72.58238 0l0 72.12033l-24.040115 24.0401l-72.582375 0zm0 0l72.582375 0l24.040115 -24.0401m-24.040115 24.0401l0 72.12033" fill-rule="evenodd"/><path stroke="#000000" stroke-width="1.0" stroke-linejoin="round" stroke-linecap="butt" stroke-dasharray="1.0,3.0" d="m114.86564 271.582l24.040108 -24.0401l72.58238 0l0 72.12033l-24.040115 24.0401l-72.582375 0zm0 0l72.582375 0l24.040115 -24.0401m-24.040115 24.0401l0 72.12033" fill-rule="evenodd"/><path fill="#9b9b9b" fill-opacity="0.4438" d="m258.77316 200.08307l72.5824 0l0 72.12033l-72.5824 0z" fill-rule="evenodd"/><path fill="#7b7b7b" fill-opacity="0.4438" d="m331.35556 200.08307l24.0401 -24.0401l0 72.120316l-24.0401 24.040115z" fill-rule="evenodd"/><path fill="#afafaf" fill-opacity="0.4438" d="m258.77316 200.08307l24.0401 -24.0401l72.5824 0l-24.0401 24.0401z" fill-rule="evenodd"/><path fill="#000000" fill-opacity="0.0" d="m258.77316 200.08307l24.0401 -24.0401l72.5824 0l0 72.120316l-24.0401 24.040115l-72.5824 0zm0 0l72.5824 0l24.0401 -24.0401m-24.0401 24.0401l0 72.12033" fill-rule="evenodd"/><path stroke="#000000" stroke-width="1.0" stroke-linejoin="round" stroke-linecap="butt" stroke-dasharray="1.0,3.0" d="m258.77316 200.08307l24.0401 -24.0401l72.5824 0l0 72.120316l-24.0401 24.040115l-72.5824 0zm0 0l72.5824 0l24.0401 -24.0401m-24.0401 24.0401l0 72.12033" fill-rule="evenodd"/><path fill="#9b9b9b" fill-opacity="0.4438" d="m234.6739 224.06708l72.58238 0l0 72.12033l-72.58238 0z" fill-rule="evenodd"/><path fill="#7b7b7b" fill-opacity="0.4438" d="m307.2563 224.06708l24.0401 -24.0401l0 72.12033l-24.0401 24.0401z" fill-rule="evenodd"/><path fill="#afafaf" fill-opacity="0.4438" d="m234.6739 224.06708l24.040115 -24.0401l72.58237 0l-24.0401 24.0401z" fill-rule="evenodd"/><path fill="#000000" fill-opacity="0.0" d="m234.6739 224.06708l24.040115 -24.0401l72.58237 0l0 72.12033l-24.0401 24.0401l-72.58238 0zm0 0l72.58238 0l24.0401 -24.0401m-24.0401 24.0401l0 72.12033" fill-rule="evenodd"/><path stroke="#000000" stroke-width="1.0" stroke-linejoin="round" stroke-linecap="butt" stroke-dasharray="1.0,3.0" d="m234.6739 224.06708l24.040115 -24.0401l72.58237 0l0 72.12033l-24.0401 24.0401l-72.58238 0zm0 0l72.58238 0l24.0401 -24.0401m-24.0401 24.0401l0 72.12033" fill-rule="evenodd"/><path fill="#9b9b9b" fill-opacity="0.4438" d="m211.23805 247.59367l72.58238 0l0 72.120316l-72.58238 0z" fill-rule="evenodd"/><path fill="#7b7b7b" fill-opacity="0.4438" d="m283.82043 247.59367l24.0401 -24.0401l0 72.120316l-24.0401 24.0401z" fill-rule="evenodd"/><path fill="#afafaf" fill-opacity="0.4438" d="m211.23805 247.59367l24.040115 -24.0401l72.58237 0l-24.0401 24.0401z" fill-rule="evenodd"/><path fill="#000000" fill-opacity="0.0" d="m211.23805 247.59367l24.040115 -24.0401l72.58237 0l0 72.120316l-24.0401 24.0401l-72.58238 0zm0 0l72.58238 0l24.0401 -24.0401m-24.0401 24.0401l0 72.120316" fill-rule="evenodd"/><path stroke="#000000" stroke-width="1.0" stroke-linejoin="round" stroke-linecap="butt" stroke-dasharray="1.0,3.0" d="m211.23805 247.59367l24.040115 -24.0401l72.58237 0l0 72.120316l-24.0401 24.0401l-72.58238 0zm0 0l72.58238 0l24.0401 -24.0401m-24.0401 24.0401l0 72.120316" fill-rule="evenodd"/><path fill="#9b9b9b" fill-opacity="0.4438" d="m186.86563 271.582l72.5824 0l0 72.12033l-72.5824 0z" fill-rule="evenodd"/><path fill="#7b7b7b" fill-opacity="0.4438" d="m259.44803 271.582l24.0401 -24.0401l0 72.12033l-24.0401 24.0401z" fill-rule="evenodd"/><path fill="#afafaf" fill-opacity="0.4438" d="m186.86563 271.582l24.040115 -24.0401l72.58238 0l-24.0401 24.0401z" fill-rule="evenodd"/><path fill="#000000" fill-opacity="0.0" d="m186.86563 271.582l24.040115 -24.0401l72.58238 0l0 72.12033l-24.0401 24.0401l-72.5824 0zm0 0l72.5824 0l24.0401 -24.0401m-24.0401 24.0401l0 72.12033" fill-rule="evenodd"/><path stroke="#000000" stroke-width="1.0" stroke-linejoin="round" stroke-linecap="butt" stroke-dasharray="1.0,3.0" d="m186.86563 271.582l24.040115 -24.0401l72.58238 0l0 72.12033l-24.0401 24.0401l-72.5824 0zm0 0l72.5824 0l24.0401 -24.0401m-24.0401 24.0401l0 72.12033" fill-rule="evenodd"/><path fill="#9b9b9b" fill-opacity="0.4438" d="m330.77316 200.08307l72.5824 0l0 72.12033l-72.5824 0z" fill-rule="evenodd"/><path fill="#7b7b7b" fill-opacity="0.4438" d="m403.35556 200.08307l24.0401 -24.0401l0 72.120316l-24.0401 24.040115z" fill-rule="evenodd"/><path fill="#afafaf" fill-opacity="0.4438" d="m330.77316 200.08307l24.0401 -24.0401l72.5824 0l-24.0401 24.0401z" fill-rule="evenodd"/><path fill="#000000" fill-opacity="0.0" d="m330.77316 200.08307l24.0401 -24.0401l72.5824 0l0 72.120316l-24.0401 24.040115l-72.5824 0zm0 0l72.5824 0l24.0401 -24.0401m-24.0401 24.0401l0 72.12033" fill-rule="evenodd"/><path stroke="#000000" stroke-width="1.0" stroke-linejoin="round" stroke-linecap="butt" stroke-dasharray="1.0,3.0" d="m330.77316 200.08307l24.0401 -24.0401l72.5824 0l0 72.120316l-24.0401 24.040115l-72.5824 0zm0 0l72.5824 0l24.0401 -24.0401m-24.0401 24.0401l0 72.12033" fill-rule="evenodd"/><path fill="#9b9b9b" fill-opacity="0.4438" d="m306.67392 224.06708l72.58237 0l0 72.12033l-72.58237 0z" fill-rule="evenodd"/><path fill="#7b7b7b" fill-opacity="0.4438" d="m379.2563 224.06708l24.0401 -24.0401l0 72.12033l-24.0401 24.0401z" fill-rule="evenodd"/><path fill="#afafaf" fill-opacity="0.4438" d="m306.67392 224.06708l24.0401 -24.0401l72.58237 0l-24.0401 24.0401z" fill-rule="evenodd"/><path fill="#000000" fill-opacity="0.0" d="m306.67392 224.06708l24.0401 -24.0401l72.58237 0l0 72.12033l-24.0401 24.0401l-72.58237 0zm0 0l72.58237 0l24.0401 -24.0401m-24.0401 24.0401l0 72.12033" fill-rule="evenodd"/><path stroke="#000000" stroke-width="1.0" stroke-linejoin="round" stroke-linecap="butt" stroke-dasharray="1.0,3.0" d="m306.67392 224.06708l24.0401 -24.0401l72.58237 0l0 72.12033l-24.0401 24.0401l-72.58237 0zm0 0l72.58237 0l24.0401 -24.0401m-24.0401 24.0401l0 72.12033" fill-rule="evenodd"/><path fill="#9b9b9b" fill-opacity="0.4438" d="m283.23807 247.59367l72.58237 0l0 72.120316l-72.58237 0z" fill-rule="evenodd"/><path fill="#7b7b7b" fill-opacity="0.4438" d="m355.82043 247.59367l24.0401 -24.0401l0 72.120316l-24.0401 24.0401z" fill-rule="evenodd"/><path fill="#afafaf" fill-opacity="0.4438" d="m283.23807 247.59367l24.0401 -24.0401l72.58237 0l-24.0401 24.0401z" fill-rule="evenodd"/><path fill="#000000" fill-opacity="0.0" d="m283.23807 247.59367l24.0401 -24.0401l72.58237 0l0 72.120316l-24.0401 24.0401l-72.58237 0zm0 0l72.58237 0l24.0401 -24.0401m-24.0401 24.0401l0 72.120316" fill-rule="evenodd"/><path stroke="#000000" stroke-width="1.0" stroke-linejoin="round" stroke-linecap="butt" stroke-dasharray="1.0,3.0" d="m283.23807 247.59367l24.0401 -24.0401l72.58237 0l0 72.120316l-24.0401 24.0401l-72.58237 0zm0 0l72.58237 0l24.0401 -24.0401m-24.0401 24.0401l0 72.120316" fill-rule="evenodd"/><path fill="#9b9b9b" fill-opacity="0.4438" d="m258.86563 271.582l72.5824 0l0 72.12033l-72.5824 0z" fill-rule="evenodd"/><path fill="#7b7b7b" fill-opacity="0.4438" d="m331.44803 271.582l24.0401 -24.0401l0 72.12033l-24.0401 24.0401z" fill-rule="evenodd"/><path fill="#afafaf" fill-opacity="0.4438" d="m258.86563 271.582l24.0401 -24.0401l72.5824 0l-24.0401 24.0401z" fill-rule="evenodd"/><path fill="#000000" fill-opacity="0.0" d="m258.86563 271.582l24.0401 -24.0401l72.5824 0l0 72.12033l-24.0401 24.0401l-72.5824 0zm0 0l72.5824 0l24.0401 -24.0401m-24.0401 24.0401l0 72.12033" fill-rule="evenodd"/><path stroke="#000000" stroke-width="1.0" stroke-linejoin="round" stroke-linecap="butt" stroke-dasharray="1.0,3.0" d="m258.86563 271.582l24.0401 -24.0401l72.5824 0l0 72.12033l-24.0401 24.0401l-72.5824 0zm0 0l72.5824 0l24.0401 -24.0401m-24.0401 24.0401l0 72.12033" fill-rule="evenodd"/><path fill="#9b9b9b" fill-opacity="0.4438" d="m114.77316 128.08307l72.58238 0l0 72.12033l-72.58238 0z" fill-rule="evenodd"/><path fill="#7b7b7b" fill-opacity="0.4438" d="m187.35555 128.08307l24.040115 -24.040108l0 72.12032l-24.040115 24.040115z" fill-rule="evenodd"/><path fill="#afafaf" fill-opacity="0.4438" d="m114.77316 128.08307l24.040115 -24.040108l72.58238 0l-24.040115 24.040108z" fill-rule="evenodd"/><path fill="#000000" fill-opacity="0.0" d="m114.77316 128.08307l24.040115 -24.040108l72.58238 0l0 72.12032l-24.040115 24.040115l-72.58238 0zm0 0l72.58238 0l24.040115 -24.040108m-24.040115 24.040108l0 72.12033" fill-rule="evenodd"/><path stroke="#000000" stroke-width="1.0" stroke-linejoin="round" stroke-linecap="butt" stroke-dasharray="1.0,3.0" d="m114.77316 128.08307l24.040115 -24.040108l72.58238 0l0 72.12032l-24.040115 24.040115l-72.58238 0zm0 0l72.58238 0l24.040115 -24.040108m-24.040115 24.040108l0 72.12033" fill-rule="evenodd"/><path fill="#9b9b9b" fill-opacity="0.4438" d="m90.67391 152.06708l72.582375 0l0 72.12033l-72.582375 0z" fill-rule="evenodd"/><path fill="#7b7b7b" fill-opacity="0.4438" d="m163.25629 152.06708l24.040115 -24.0401l0 72.120316l-24.040115 24.040115z" fill-rule="evenodd"/><path fill="#afafaf" fill-opacity="0.4438" d="m90.67391 152.06708l24.040108 -24.0401l72.58238 0l-24.040115 24.0401z" fill-rule="evenodd"/><path fill="#000000" fill-opacity="0.0" d="m90.67391 152.06708l24.040108 -24.0401l72.58238 0l0 72.120316l-24.040115 24.040115l-72.582375 0zm0 0l72.582375 0l24.040115 -24.0401m-24.040115 24.0401l0 72.12033" fill-rule="evenodd"/><path stroke="#000000" stroke-width="1.0" stroke-linejoin="round" stroke-linecap="butt" stroke-dasharray="1.0,3.0" d="m90.67391 152.06708l24.040108 -24.0401l72.58238 0l0 72.120316l-24.040115 24.040115l-72.582375 0zm0 0l72.582375 0l24.040115 -24.0401m-24.040115 24.0401l0 72.12033" fill-rule="evenodd"/><path fill="#9b9b9b" fill-opacity="0.4438" d="m67.23806 175.59367l72.582375 0l0 72.12033l-72.582375 0z" fill-rule="evenodd"/><path fill="#7b7b7b" fill-opacity="0.4438" d="m139.82043 175.59367l24.040115 -24.0401l0 72.120316l-24.040115 24.040115z" fill-rule="evenodd"/><path fill="#afafaf" fill-opacity="0.4438" d="m67.23806 175.59367l24.040108 -24.0401l72.58238 0l-24.040115 24.0401z" fill-rule="evenodd"/><path fill="#000000" fill-opacity="0.0" d="m67.23806 175.59367l24.040108 -24.0401l72.58238 0l0 72.120316l-24.040115 24.040115l-72.582375 0zm0 0l72.582375 0l24.040115 -24.0401m-24.040115 24.0401l0 72.12033" fill-rule="evenodd"/><path stroke="#000000" stroke-width="1.0" stroke-linejoin="round" stroke-linecap="butt" stroke-dasharray="1.0,3.0" d="m67.23806 175.59367l24.040108 -24.0401l72.58238 0l0 72.120316l-24.040115 24.040115l-72.582375 0zm0 0l72.582375 0l24.040115 -24.0401m-24.040115 24.0401l0 72.12033" fill-rule="evenodd"/><path fill="#9b9b9b" fill-opacity="0.4438" d="m42.86564 199.582l72.58238 0l0 72.12033l-72.58238 0z" fill-rule="evenodd"/><path fill="#7b7b7b" fill-opacity="0.4438" d="m115.44802 199.582l24.040108 -24.0401l0 72.120316l-24.040108 24.040115z" fill-rule="evenodd"/><path fill="#afafaf" fill-opacity="0.4438" d="m42.86564 199.582l24.040108 -24.0401l72.58238 0l-24.040108 24.0401z" fill-rule="evenodd"/><path fill="#000000" fill-opacity="0.0" d="m42.86564 199.582l24.040108 -24.0401l72.58238 0l0 72.120316l-24.040108 24.040115l-72.58238 0zm0 0l72.58238 0l24.040108 -24.0401m-24.040108 24.0401l0 72.12033" fill-rule="evenodd"/><path stroke="#000000" stroke-width="1.0" stroke-linejoin="round" stroke-linecap="butt" stroke-dasharray="1.0,3.0" d="m42.86564 199.582l24.040108 -24.0401l72.58238 0l0 72.120316l-24.040108 24.040115l-72.58238 0zm0 0l72.58238 0l24.040108 -24.0401m-24.040108 24.0401l0 72.12033" fill-rule="evenodd"/><path fill="#9b9b9b" fill-opacity="0.4438" d="m186.77316 128.08307l72.5824 0l0 72.12033l-72.5824 0z" fill-rule="evenodd"/><path fill="#7b7b7b" fill-opacity="0.4438" d="m259.35556 128.08307l24.0401 -24.040108l0 72.12032l-24.0401 24.040115z" fill-rule="evenodd"/><path fill="#afafaf" fill-opacity="0.4438" d="m186.77316 128.08307l24.040115 -24.040108l72.58238 0l-24.0401 24.040108z" fill-rule="evenodd"/><path fill="#000000" fill-opacity="0.0" d="m186.77316 128.08307l24.040115 -24.040108l72.58238 0l0 72.12032l-24.0401 24.040115l-72.5824 0zm0 0l72.5824 0l24.0401 -24.040108m-24.0401 24.040108l0 72.12033" fill-rule="evenodd"/><path stroke="#000000" stroke-width="1.0" stroke-linejoin="round" stroke-linecap="butt" stroke-dasharray="1.0,3.0" d="m186.77316 128.08307l24.040115 -24.040108l72.58238 0l0 72.12032l-24.0401 24.040115l-72.5824 0zm0 0l72.5824 0l24.0401 -24.040108m-24.0401 24.040108l0 72.12033" fill-rule="evenodd"/><path fill="#9b9b9b" fill-opacity="0.4438" d="m162.6739 152.06708l72.58238 0l0 72.12033l-72.58238 0z" fill-rule="evenodd"/><path fill="#7b7b7b" fill-opacity="0.4438" d="m235.25629 152.06708l24.0401 -24.0401l0 72.120316l-24.0401 24.040115z" fill-rule="evenodd"/><path fill="#afafaf" fill-opacity="0.4438" d="m162.6739 152.06708l24.040115 -24.0401l72.58237 0l-24.0401 24.0401z" fill-rule="evenodd"/><path fill="#000000" fill-opacity="0.0" d="m162.6739 152.06708l24.040115 -24.0401l72.58237 0l0 72.120316l-24.0401 24.040115l-72.58238 0zm0 0l72.58238 0l24.0401 -24.0401m-24.0401 24.0401l0 72.12033" fill-rule="evenodd"/><path stroke="#000000" stroke-width="1.0" stroke-linejoin="round" stroke-linecap="butt" stroke-dasharray="1.0,3.0" d="m162.6739 152.06708l24.040115 -24.0401l72.58237 0l0 72.120316l-24.0401 24.040115l-72.58238 0zm0 0l72.58238 0l24.0401 -24.0401m-24.0401 24.0401l0 72.12033" fill-rule="evenodd"/><path fill="#9b9b9b" fill-opacity="0.4438" d="m139.23805 175.59367l72.58238 0l0 72.12033l-72.58238 0z" fill-rule="evenodd"/><path fill="#7b7b7b" fill-opacity="0.4438" d="m211.82043 175.59367l24.040115 -24.0401l0 72.120316l-24.040115 24.040115z" fill-rule="evenodd"/><path fill="#afafaf" fill-opacity="0.4438" d="m139.23805 175.59367l24.040115 -24.0401l72.58238 0l-24.040115 24.0401z" fill-rule="evenodd"/><path fill="#000000" fill-opacity="0.0" d="m139.23805 175.59367l24.040115 -24.0401l72.58238 0l0 72.120316l-24.040115 24.040115l-72.58238 0zm0 0l72.58238 0l24.040115 -24.0401m-24.040115 24.0401l0 72.12033" fill-rule="evenodd"/><path stroke="#000000" stroke-width="1.0" stroke-linejoin="round" stroke-linecap="butt" stroke-dasharray="1.0,3.0" d="m139.23805 175.59367l24.040115 -24.0401l72.58238 0l0 72.120316l-24.040115 24.040115l-72.58238 0zm0 0l72.58238 0l24.040115 -24.0401m-24.040115 24.0401l0 72.12033" fill-rule="evenodd"/><path fill="#9b9b9b" fill-opacity="0.4438" d="m114.86564 199.582l72.582375 0l0 72.12033l-72.582375 0z" fill-rule="evenodd"/><path fill="#7b7b7b" fill-opacity="0.4438" d="m187.44801 199.582l24.040115 -24.0401l0 72.120316l-24.040115 24.040115z" fill-rule="evenodd"/><path fill="#afafaf" fill-opacity="0.4438" d="m114.86564 199.582l24.040108 -24.0401l72.58238 0l-24.040115 24.0401z" fill-rule="evenodd"/><path fill="#000000" fill-opacity="0.0" d="m114.86564 199.582l24.040108 -24.0401l72.58238 0l0 72.120316l-24.040115 24.040115l-72.582375 0zm0 0l72.582375 0l24.040115 -24.0401m-24.040115 24.0401l0 72.12033" fill-rule="evenodd"/><path stroke="#000000" stroke-width="1.0" stroke-linejoin="round" stroke-linecap="butt" stroke-dasharray="1.0,3.0" d="m114.86564 199.582l24.040108 -24.0401l72.58238 0l0 72.120316l-24.040115 24.040115l-72.582375 0zm0 0l72.582375 0l24.040115 -24.0401m-24.040115 24.0401l0 72.12033" fill-rule="evenodd"/><path fill="#9b9b9b" fill-opacity="0.4438" d="m258.77316 128.08307l72.5824 0l0 72.12033l-72.5824 0z" fill-rule="evenodd"/><path fill="#7b7b7b" fill-opacity="0.4438" d="m331.35556 128.08307l24.0401 -24.040108l0 72.12032l-24.0401 24.040115z" fill-rule="evenodd"/><path fill="#afafaf" fill-opacity="0.4438" d="m258.77316 128.08307l24.0401 -24.040108l72.5824 0l-24.0401 24.040108z" fill-rule="evenodd"/><path fill="#000000" fill-opacity="0.0" d="m258.77316 128.08307l24.0401 -24.040108l72.5824 0l0 72.12032l-24.0401 24.040115l-72.5824 0zm0 0l72.5824 0l24.0401 -24.040108m-24.0401 24.040108l0 72.12033" fill-rule="evenodd"/><path stroke="#000000" stroke-width="1.0" stroke-linejoin="round" stroke-linecap="butt" stroke-dasharray="1.0,3.0" d="m258.77316 128.08307l24.0401 -24.040108l72.5824 0l0 72.12032l-24.0401 24.040115l-72.5824 0zm0 0l72.5824 0l24.0401 -24.040108m-24.0401 24.040108l0 72.12033" fill-rule="evenodd"/><path fill="#9b9b9b" fill-opacity="0.4438" d="m234.6739 152.06708l72.58238 0l0 72.12033l-72.58238 0z" fill-rule="evenodd"/><path fill="#7b7b7b" fill-opacity="0.4438" d="m307.2563 152.06708l24.0401 -24.0401l0 72.120316l-24.0401 24.040115z" fill-rule="evenodd"/><path fill="#afafaf" fill-opacity="0.4438" d="m234.6739 152.06708l24.040115 -24.0401l72.58237 0l-24.0401 24.0401z" fill-rule="evenodd"/><path fill="#000000" fill-opacity="0.0" d="m234.6739 152.06708l24.040115 -24.0401l72.58237 0l0 72.120316l-24.0401 24.040115l-72.58238 0zm0 0l72.58238 0l24.0401 -24.0401m-24.0401 24.0401l0 72.12033" fill-rule="evenodd"/><path stroke="#000000" stroke-width="1.0" stroke-linejoin="round" stroke-linecap="butt" stroke-dasharray="1.0,3.0" d="m234.6739 152.06708l24.040115 -24.0401l72.58237 0l0 72.120316l-24.0401 24.040115l-72.58238 0zm0 0l72.58238 0l24.0401 -24.0401m-24.0401 24.0401l0 72.12033" fill-rule="evenodd"/><path fill="#9b9b9b" fill-opacity="0.4438" d="m211.23805 175.59367l72.58238 0l0 72.12033l-72.58238 0z" fill-rule="evenodd"/><path fill="#7b7b7b" fill-opacity="0.4438" d="m283.82043 175.59367l24.0401 -24.0401l0 72.120316l-24.0401 24.040115z" fill-rule="evenodd"/><path fill="#afafaf" fill-opacity="0.4438" d="m211.23805 175.59367l24.040115 -24.0401l72.58237 0l-24.0401 24.0401z" fill-rule="evenodd"/><path fill="#000000" fill-opacity="0.0" d="m211.23805 175.59367l24.040115 -24.0401l72.58237 0l0 72.120316l-24.0401 24.040115l-72.58238 0zm0 0l72.58238 0l24.0401 -24.0401m-24.0401 24.0401l0 72.12033" fill-rule="evenodd"/><path stroke="#000000" stroke-width="1.0" stroke-linejoin="round" stroke-linecap="butt" stroke-dasharray="1.0,3.0" d="m211.23805 175.59367l24.040115 -24.0401l72.58237 0l0 72.120316l-24.0401 24.040115l-72.58238 0zm0 0l72.58238 0l24.0401 -24.0401m-24.0401 24.0401l0 72.12033" fill-rule="evenodd"/><path fill="#9b9b9b" fill-opacity="0.4438" d="m186.86563 199.582l72.5824 0l0 72.12033l-72.5824 0z" fill-rule="evenodd"/><path fill="#7b7b7b" fill-opacity="0.4438" d="m259.44803 199.582l24.0401 -24.0401l0 72.120316l-24.0401 24.040115z" fill-rule="evenodd"/><path fill="#afafaf" fill-opacity="0.4438" d="m186.86563 199.582l24.040115 -24.0401l72.58238 0l-24.0401 24.0401z" fill-rule="evenodd"/><path fill="#000000" fill-opacity="0.0" d="m186.86563 199.582l24.040115 -24.0401l72.58238 0l0 72.120316l-24.0401 24.040115l-72.5824 0zm0 0l72.5824 0l24.0401 -24.0401m-24.0401 24.0401l0 72.12033" fill-rule="evenodd"/><path stroke="#000000" stroke-width="1.0" stroke-linejoin="round" stroke-linecap="butt" stroke-dasharray="1.0,3.0" d="m186.86563 199.582l24.040115 -24.0401l72.58238 0l0 72.120316l-24.0401 24.040115l-72.5824 0zm0 0l72.5824 0l24.0401 -24.0401m-24.0401 24.0401l0 72.12033" fill-rule="evenodd"/><path fill="#9b9b9b" fill-opacity="0.4438" d="m330.77316 128.08307l72.5824 0l0 72.12033l-72.5824 0z" fill-rule="evenodd"/><path fill="#7b7b7b" fill-opacity="0.4438" d="m403.35556 128.08307l24.0401 -24.040108l0 72.12032l-24.0401 24.040115z" fill-rule="evenodd"/><path fill="#afafaf" fill-opacity="0.4438" d="m330.77316 128.08307l24.0401 -24.040108l72.5824 0l-24.0401 24.040108z" fill-rule="evenodd"/><path fill="#000000" fill-opacity="0.0" d="m330.77316 128.08307l24.0401 -24.040108l72.5824 0l0 72.12032l-24.0401 24.040115l-72.5824 0zm0 0l72.5824 0l24.0401 -24.040108m-24.0401 24.040108l0 72.12033" fill-rule="evenodd"/><path stroke="#000000" stroke-width="1.0" stroke-linejoin="round" stroke-linecap="butt" stroke-dasharray="1.0,3.0" d="m330.77316 128.08307l24.0401 -24.040108l72.5824 0l0 72.12032l-24.0401 24.040115l-72.5824 0zm0 0l72.5824 0l24.0401 -24.040108m-24.0401 24.040108l0 72.12033" fill-rule="evenodd"/><path fill="#9b9b9b" fill-opacity="0.4438" d="m306.67392 152.06708l72.58237 0l0 72.12033l-72.58237 0z" fill-rule="evenodd"/><path fill="#7b7b7b" fill-opacity="0.4438" d="m379.2563 152.06708l24.0401 -24.0401l0 72.120316l-24.0401 24.040115z" fill-rule="evenodd"/><path fill="#afafaf" fill-opacity="0.4438" d="m306.67392 152.06708l24.0401 -24.0401l72.58237 0l-24.0401 24.0401z" fill-rule="evenodd"/><path fill="#000000" fill-opacity="0.0" d="m306.67392 152.06708l24.0401 -24.0401l72.58237 0l0 72.120316l-24.0401 24.040115l-72.58237 0zm0 0l72.58237 0l24.0401 -24.0401m-24.0401 24.0401l0 72.12033" fill-rule="evenodd"/><path stroke="#000000" stroke-width="1.0" stroke-linejoin="round" stroke-linecap="butt" stroke-dasharray="1.0,3.0" d="m306.67392 152.06708l24.0401 -24.0401l72.58237 0l0 72.120316l-24.0401 24.040115l-72.58237 0zm0 0l72.58237 0l24.0401 -24.0401m-24.0401 24.0401l0 72.12033" fill-rule="evenodd"/><path fill="#9b9b9b" fill-opacity="0.4438" d="m283.23807 175.59367l72.58237 0l0 72.12033l-72.58237 0z" fill-rule="evenodd"/><path fill="#7b7b7b" fill-opacity="0.4438" d="m355.82043 175.59367l24.0401 -24.0401l0 72.120316l-24.0401 24.040115z" fill-rule="evenodd"/><path fill="#afafaf" fill-opacity="0.4438" d="m283.23807 175.59367l24.0401 -24.0401l72.58237 0l-24.0401 24.0401z" fill-rule="evenodd"/><path fill="#000000" fill-opacity="0.0" d="m283.23807 175.59367l24.0401 -24.0401l72.58237 0l0 72.120316l-24.0401 24.040115l-72.58237 0zm0 0l72.58237 0l24.0401 -24.0401m-24.0401 24.0401l0 72.12033" fill-rule="evenodd"/><path stroke="#000000" stroke-width="1.0" stroke-linejoin="round" stroke-linecap="butt" stroke-dasharray="1.0,3.0" d="m283.23807 175.59367l24.0401 -24.0401l72.58237 0l0 72.120316l-24.0401 24.040115l-72.58237 0zm0 0l72.58237 0l24.0401 -24.0401m-24.0401 24.0401l0 72.12033" fill-rule="evenodd"/><path fill="#9b9b9b" fill-opacity="0.4438" d="m258.86563 199.582l72.5824 0l0 72.12033l-72.5824 0z" fill-rule="evenodd"/><path fill="#7b7b7b" fill-opacity="0.4438" d="m331.44803 199.582l24.0401 -24.0401l0 72.120316l-24.0401 24.040115z" fill-rule="evenodd"/><path fill="#afafaf" fill-opacity="0.4438" d="m258.86563 199.582l24.0401 -24.0401l72.5824 0l-24.0401 24.0401z" fill-rule="evenodd"/><path fill="#000000" fill-opacity="0.0" d="m258.86563 199.582l24.0401 -24.0401l72.5824 0l0 72.120316l-24.0401 24.040115l-72.5824 0zm0 0l72.5824 0l24.0401 -24.0401m-24.0401 24.0401l0 72.12033" fill-rule="evenodd"/><path stroke="#000000" stroke-width="1.0" stroke-linejoin="round" stroke-linecap="butt" stroke-dasharray="1.0,3.0" d="m258.86563 199.582l24.0401 -24.0401l72.5824 0l0 72.120316l-24.0401 24.040115l-72.5824 0zm0 0l72.5824 0l24.0401 -24.0401m-24.0401 24.0401l0 72.12033" fill-rule="evenodd"/><path fill="#9b9b9b" fill-opacity="0.4438" d="m114.77316 56.083073l72.58238 0l0 72.12033l-72.58238 0z" fill-rule="evenodd"/><path fill="#7b7b7b" fill-opacity="0.4438" d="m187.35555 56.083073l24.040115 -24.040108l0 72.120316l-24.040115 24.040115z" fill-rule="evenodd"/><path fill="#afafaf" fill-opacity="0.4438" d="m114.77316 56.083073l24.040115 -24.040108l72.58238 0l-24.040115 24.040108z" fill-rule="evenodd"/><path fill="#000000" fill-opacity="0.0" d="m114.77316 56.083073l24.040115 -24.040108l72.58238 0l0 72.120316l-24.040115 24.040115l-72.58238 0zm0 0l72.58238 0l24.040115 -24.040108m-24.040115 24.040108l0 72.12033" fill-rule="evenodd"/><path stroke="#000000" stroke-width="1.0" stroke-linejoin="round" stroke-linecap="butt" stroke-dasharray="1.0,3.0" d="m114.77316 56.083073l24.040115 -24.040108l72.58238 0l0 72.120316l-24.040115 24.040115l-72.58238 0zm0 0l72.58238 0l24.040115 -24.040108m-24.040115 24.040108l0 72.12033" fill-rule="evenodd"/><path fill="#9b9b9b" fill-opacity="0.4438" d="m90.67391 80.06708l72.582375 0l0 72.12033l-72.582375 0z" fill-rule="evenodd"/><path fill="#7b7b7b" fill-opacity="0.4438" d="m163.25629 80.06708l24.040115 -24.040104l0 72.120316l-24.040115 24.040115z" fill-rule="evenodd"/><path fill="#afafaf" fill-opacity="0.4438" d="m90.67391 80.06708l24.040108 -24.040104l72.58238 0l-24.040115 24.040104z" fill-rule="evenodd"/><path fill="#000000" fill-opacity="0.0" d="m90.67391 80.06708l24.040108 -24.040104l72.58238 0l0 72.120316l-24.040115 24.040115l-72.582375 0zm0 0l72.582375 0l24.040115 -24.040104m-24.040115 24.040104l0 72.12033" fill-rule="evenodd"/><path stroke="#000000" stroke-width="1.0" stroke-linejoin="round" stroke-linecap="butt" stroke-dasharray="1.0,3.0" d="m90.67391 80.06708l24.040108 -24.040104l72.58238 0l0 72.120316l-24.040115 24.040115l-72.582375 0zm0 0l72.582375 0l24.040115 -24.040104m-24.040115 24.040104l0 72.12033" fill-rule="evenodd"/><path fill="#9b9b9b" fill-opacity="0.4438" d="m67.23806 103.59367l72.582375 0l0 72.12033l-72.582375 0z" fill-rule="evenodd"/><path fill="#7b7b7b" fill-opacity="0.4438" d="m139.82043 103.59367l24.040115 -24.040108l0 72.12032l-24.040115 24.040115z" fill-rule="evenodd"/><path fill="#afafaf" fill-opacity="0.4438" d="m67.23806 103.59367l24.040108 -24.040108l72.58238 0l-24.040115 24.040108z" fill-rule="evenodd"/><path fill="#000000" fill-opacity="0.0" d="m67.23806 103.59367l24.040108 -24.040108l72.58238 0l0 72.12032l-24.040115 24.040115l-72.582375 0zm0 0l72.582375 0l24.040115 -24.040108m-24.040115 24.040108l0 72.12033" fill-rule="evenodd"/><path stroke="#000000" stroke-width="1.0" stroke-linejoin="round" stroke-linecap="butt" stroke-dasharray="1.0,3.0" d="m67.23806 103.59367l24.040108 -24.040108l72.58238 0l0 72.12032l-24.040115 24.040115l-72.582375 0zm0 0l72.582375 0l24.040115 -24.040108m-24.040115 24.040108l0 72.12033" fill-rule="evenodd"/><path fill="#6fa8dc" d="m42.86564 127.582l72.58238 0l0 72.12033l-72.58238 0z" fill-rule="evenodd"/><path fill="#5886af" d="m115.44802 127.582l24.040108 -24.040108l0 72.12032l-24.040108 24.040115z" fill-rule="evenodd"/><path fill="#8bb9e3" d="m42.86564 127.582l24.040108 -24.040108l72.58238 0l-24.040108 24.040108z" fill-rule="evenodd"/><path fill="#000000" fill-opacity="0.0" d="m42.86564 127.582l24.040108 -24.040108l72.58238 0l0 72.12032l-24.040108 24.040115l-72.58238 0zm0 0l72.58238 0l24.040108 -24.040108m-24.040108 24.040108l0 72.12033" fill-rule="evenodd"/><path stroke="#000000" stroke-width="1.0" stroke-linejoin="round" stroke-linecap="butt" stroke-dasharray="1.0,3.0" d="m42.86564 127.582l24.040108 -24.040108l72.58238 0l0 72.12032l-24.040108 24.040115l-72.58238 0zm0 0l72.58238 0l24.040108 -24.040108m-24.040108 24.040108l0 72.12033" fill-rule="evenodd"/><path fill="#9b9b9b" fill-opacity="0.4438" d="m186.77316 56.083073l72.5824 0l0 72.12033l-72.5824 0z" fill-rule="evenodd"/><path fill="#7b7b7b" fill-opacity="0.4438" d="m259.35556 56.083073l24.0401 -24.040108l0 72.120316l-24.0401 24.040115z" fill-rule="evenodd"/><path fill="#afafaf" fill-opacity="0.4438" d="m186.77316 56.083073l24.040115 -24.040108l72.58238 0l-24.0401 24.040108z" fill-rule="evenodd"/><path fill="#000000" fill-opacity="0.0" d="m186.77316 56.083073l24.040115 -24.040108l72.58238 0l0 72.120316l-24.0401 24.040115l-72.5824 0zm0 0l72.5824 0l24.0401 -24.040108m-24.0401 24.040108l0 72.12033" fill-rule="evenodd"/><path stroke="#000000" stroke-width="1.0" stroke-linejoin="round" stroke-linecap="butt" stroke-dasharray="1.0,3.0" d="m186.77316 56.083073l24.040115 -24.040108l72.58238 0l0 72.120316l-24.0401 24.040115l-72.5824 0zm0 0l72.5824 0l24.0401 -24.040108m-24.0401 24.040108l0 72.12033" fill-rule="evenodd"/><path fill="#9b9b9b" fill-opacity="0.4438" d="m162.6739 80.06708l72.58238 0l0 72.12033l-72.58238 0z" fill-rule="evenodd"/><path fill="#7b7b7b" fill-opacity="0.4438" d="m235.25629 80.06708l24.0401 -24.040104l0 72.120316l-24.0401 24.040115z" fill-rule="evenodd"/><path fill="#afafaf" fill-opacity="0.4438" d="m162.6739 80.06708l24.040115 -24.040104l72.58237 0l-24.0401 24.040104z" fill-rule="evenodd"/><path fill="#000000" fill-opacity="0.0" d="m162.6739 80.06708l24.040115 -24.040104l72.58237 0l0 72.120316l-24.0401 24.040115l-72.58238 0zm0 0l72.58238 0l24.0401 -24.040104m-24.0401 24.040104l0 72.12033" fill-rule="evenodd"/><path stroke="#000000" stroke-width="1.0" stroke-linejoin="round" stroke-linecap="butt" stroke-dasharray="1.0,3.0" d="m162.6739 80.06708l24.040115 -24.040104l72.58237 0l0 72.120316l-24.0401 24.040115l-72.58238 0zm0 0l72.58238 0l24.0401 -24.040104m-24.0401 24.040104l0 72.12033" fill-rule="evenodd"/><path fill="#9b9b9b" fill-opacity="0.4438" d="m139.23805 103.59367l72.58238 0l0 72.12033l-72.58238 0z" fill-rule="evenodd"/><path fill="#7b7b7b" fill-opacity="0.4438" d="m211.82043 103.59367l24.040115 -24.040108l0 72.12032l-24.040115 24.040115z" fill-rule="evenodd"/><path fill="#afafaf" fill-opacity="0.4438" d="m139.23805 103.59367l24.040115 -24.040108l72.58238 0l-24.040115 24.040108z" fill-rule="evenodd"/><path fill="#000000" fill-opacity="0.0" d="m139.23805 103.59367l24.040115 -24.040108l72.58238 0l0 72.12032l-24.040115 24.040115l-72.58238 0zm0 0l72.58238 0l24.040115 -24.040108m-24.040115 24.040108l0 72.12033" fill-rule="evenodd"/><path stroke="#000000" stroke-width="1.0" stroke-linejoin="round" stroke-linecap="butt" stroke-dasharray="1.0,3.0" d="m139.23805 103.59367l24.040115 -24.040108l72.58238 0l0 72.12032l-24.040115 24.040115l-72.58238 0zm0 0l72.58238 0l24.040115 -24.040108m-24.040115 24.040108l0 72.12033" fill-rule="evenodd"/><path fill="#9b9b9b" fill-opacity="0.4438" d="m114.86564 127.582l72.582375 0l0 72.12033l-72.582375 0z" fill-rule="evenodd"/><path fill="#7b7b7b" fill-opacity="0.4438" d="m187.44801 127.582l24.040115 -24.040108l0 72.12032l-24.040115 24.040115z" fill-rule="evenodd"/><path fill="#afafaf" fill-opacity="0.4438" d="m114.86564 127.582l24.040108 -24.040108l72.58238 0l-24.040115 24.040108z" fill-rule="evenodd"/><path fill="#000000" fill-opacity="0.0" d="m114.86564 127.582l24.040108 -24.040108l72.58238 0l0 72.12032l-24.040115 24.040115l-72.582375 0zm0 0l72.582375 0l24.040115 -24.040108m-24.040115 24.040108l0 72.12033" fill-rule="evenodd"/><path stroke="#000000" stroke-width="1.0" stroke-linejoin="round" stroke-linecap="butt" stroke-dasharray="1.0,3.0" d="m114.86564 127.582l24.040108 -24.040108l72.58238 0l0 72.12032l-24.040115 24.040115l-72.582375 0zm0 0l72.582375 0l24.040115 -24.040108m-24.040115 24.040108l0 72.12033" fill-rule="evenodd"/><path fill="#9b9b9b" fill-opacity="0.4438" d="m258.77316 56.083073l72.5824 0l0 72.12033l-72.5824 0z" fill-rule="evenodd"/><path fill="#7b7b7b" fill-opacity="0.4438" d="m331.35556 56.083073l24.0401 -24.040108l0 72.120316l-24.0401 24.040115z" fill-rule="evenodd"/><path fill="#afafaf" fill-opacity="0.4438" d="m258.77316 56.083073l24.0401 -24.040108l72.5824 0l-24.0401 24.040108z" fill-rule="evenodd"/><path fill="#000000" fill-opacity="0.0" d="m258.77316 56.083073l24.0401 -24.040108l72.5824 0l0 72.120316l-24.0401 24.040115l-72.5824 0zm0 0l72.5824 0l24.0401 -24.040108m-24.0401 24.040108l0 72.12033" fill-rule="evenodd"/><path stroke="#000000" stroke-width="1.0" stroke-linejoin="round" stroke-linecap="butt" stroke-dasharray="1.0,3.0" d="m258.77316 56.083073l24.0401 -24.040108l72.5824 0l0 72.120316l-24.0401 24.040115l-72.5824 0zm0 0l72.5824 0l24.0401 -24.040108m-24.0401 24.040108l0 72.12033" fill-rule="evenodd"/><path fill="#9b9b9b" fill-opacity="0.4438" d="m234.6739 80.06708l72.58238 0l0 72.12033l-72.58238 0z" fill-rule="evenodd"/><path fill="#7b7b7b" fill-opacity="0.4438" d="m307.2563 80.06708l24.0401 -24.040104l0 72.120316l-24.0401 24.040115z" fill-rule="evenodd"/><path fill="#afafaf" fill-opacity="0.4438" d="m234.6739 80.06708l24.040115 -24.040104l72.58237 0l-24.0401 24.040104z" fill-rule="evenodd"/><path fill="#000000" fill-opacity="0.0" d="m234.6739 80.06708l24.040115 -24.040104l72.58237 0l0 72.120316l-24.0401 24.040115l-72.58238 0zm0 0l72.58238 0l24.0401 -24.040104m-24.0401 24.040104l0 72.12033" fill-rule="evenodd"/><path stroke="#000000" stroke-width="1.0" stroke-linejoin="round" stroke-linecap="butt" stroke-dasharray="1.0,3.0" d="m234.6739 80.06708l24.040115 -24.040104l72.58237 0l0 72.120316l-24.0401 24.040115l-72.58238 0zm0 0l72.58238 0l24.0401 -24.040104m-24.0401 24.040104l0 72.12033" fill-rule="evenodd"/><path fill="#9b9b9b" fill-opacity="0.4438" d="m211.23805 103.59367l72.58238 0l0 72.12033l-72.58238 0z" fill-rule="evenodd"/><path fill="#7b7b7b" fill-opacity="0.4438" d="m283.82043 103.59367l24.0401 -24.040108l0 72.12032l-24.0401 24.040115z" fill-rule="evenodd"/><path fill="#afafaf" fill-opacity="0.4438" d="m211.23805 103.59367l24.040115 -24.040108l72.58237 0l-24.0401 24.040108z" fill-rule="evenodd"/><path fill="#000000" fill-opacity="0.0" d="m211.23805 103.59367l24.040115 -24.040108l72.58237 0l0 72.12032l-24.0401 24.040115l-72.58238 0zm0 0l72.58238 0l24.0401 -24.040108m-24.0401 24.040108l0 72.12033" fill-rule="evenodd"/><path stroke="#000000" stroke-width="1.0" stroke-linejoin="round" stroke-linecap="butt" stroke-dasharray="1.0,3.0" d="m211.23805 103.59367l24.040115 -24.040108l72.58237 0l0 72.12032l-24.0401 24.040115l-72.58238 0zm0 0l72.58238 0l24.0401 -24.040108m-24.0401 24.040108l0 72.12033" fill-rule="evenodd"/><path fill="#9b9b9b" fill-opacity="0.4438" d="m186.86563 127.582l72.5824 0l0 72.12033l-72.5824 0z" fill-rule="evenodd"/><path fill="#7b7b7b" fill-opacity="0.4438" d="m259.44803 127.582l24.0401 -24.040108l0 72.12032l-24.0401 24.040115z" fill-rule="evenodd"/><path fill="#afafaf" fill-opacity="0.4438" d="m186.86563 127.582l24.040115 -24.040108l72.58238 0l-24.0401 24.040108z" fill-rule="evenodd"/><path fill="#000000" fill-opacity="0.0" d="m186.86563 127.582l24.040115 -24.040108l72.58238 0l0 72.12032l-24.0401 24.040115l-72.5824 0zm0 0l72.5824 0l24.0401 -24.040108m-24.0401 24.040108l0 72.12033" fill-rule="evenodd"/><path stroke="#000000" stroke-width="1.0" stroke-linejoin="round" stroke-linecap="butt" stroke-dasharray="1.0,3.0" d="m186.86563 127.582l24.040115 -24.040108l72.58238 0l0 72.12032l-24.0401 24.040115l-72.5824 0zm0 0l72.5824 0l24.0401 -24.040108m-24.0401 24.040108l0 72.12033" fill-rule="evenodd"/><path fill="#9b9b9b" fill-opacity="0.4438" d="m330.77316 56.083073l72.5824 0l0 72.12033l-72.5824 0z" fill-rule="evenodd"/><path fill="#7b7b7b" fill-opacity="0.4438" d="m403.35556 56.083073l24.0401 -24.040108l0 72.120316l-24.0401 24.040115z" fill-rule="evenodd"/><path fill="#afafaf" fill-opacity="0.4438" d="m330.77316 56.083073l24.0401 -24.040108l72.5824 0l-24.0401 24.040108z" fill-rule="evenodd"/><path fill="#000000" fill-opacity="0.0" d="m330.77316 56.083073l24.0401 -24.040108l72.5824 0l0 72.120316l-24.0401 24.040115l-72.5824 0zm0 0l72.5824 0l24.0401 -24.040108m-24.0401 24.040108l0 72.12033" fill-rule="evenodd"/><path stroke="#000000" stroke-width="1.0" stroke-linejoin="round" stroke-linecap="butt" stroke-dasharray="1.0,3.0" d="m330.77316 56.083073l24.0401 -24.040108l72.5824 0l0 72.120316l-24.0401 24.040115l-72.5824 0zm0 0l72.5824 0l24.0401 -24.040108m-24.0401 24.040108l0 72.12033" fill-rule="evenodd"/><path fill="#9b9b9b" fill-opacity="0.4438" d="m306.67392 80.06708l72.58237 0l0 72.12033l-72.58237 0z" fill-rule="evenodd"/><path fill="#7b7b7b" fill-opacity="0.4438" d="m379.2563 80.06708l24.0401 -24.040104l0 72.120316l-24.0401 24.040115z" fill-rule="evenodd"/><path fill="#afafaf" fill-opacity="0.4438" d="m306.67392 80.06708l24.0401 -24.040104l72.58237 0l-24.0401 24.040104z" fill-rule="evenodd"/><path fill="#000000" fill-opacity="0.0" d="m306.67392 80.06708l24.0401 -24.040104l72.58237 0l0 72.120316l-24.0401 24.040115l-72.58237 0zm0 0l72.58237 0l24.0401 -24.040104m-24.0401 24.040104l0 72.12033" fill-rule="evenodd"/><path stroke="#000000" stroke-width="1.0" stroke-linejoin="round" stroke-linecap="butt" stroke-dasharray="1.0,3.0" d="m306.67392 80.06708l24.0401 -24.040104l72.58237 0l0 72.120316l-24.0401 24.040115l-72.58237 0zm0 0l72.58237 0l24.0401 -24.040104m-24.0401 24.040104l0 72.12033" fill-rule="evenodd"/><path fill="#9b9b9b" fill-opacity="0.4438" d="m283.23807 103.59367l72.58237 0l0 72.12033l-72.58237 0z" fill-rule="evenodd"/><path fill="#7b7b7b" fill-opacity="0.4438" d="m355.82043 103.59367l24.0401 -24.040108l0 72.12032l-24.0401 24.040115z" fill-rule="evenodd"/><path fill="#afafaf" fill-opacity="0.4438" d="m283.23807 103.59367l24.0401 -24.040108l72.58237 0l-24.0401 24.040108z" fill-rule="evenodd"/><path fill="#000000" fill-opacity="0.0" d="m283.23807 103.59367l24.0401 -24.040108l72.58237 0l0 72.12032l-24.0401 24.040115l-72.58237 0zm0 0l72.58237 0l24.0401 -24.040108m-24.0401 24.040108l0 72.12033" fill-rule="evenodd"/><path stroke="#000000" stroke-width="1.0" stroke-linejoin="round" stroke-linecap="butt" stroke-dasharray="1.0,3.0" d="m283.23807 103.59367l24.0401 -24.040108l72.58237 0l0 72.12032l-24.0401 24.040115l-72.58237 0zm0 0l72.58237 0l24.0401 -24.040108m-24.0401 24.040108l0 72.12033" fill-rule="evenodd"/><path fill="#9b9b9b" fill-opacity="0.4438" d="m258.86563 127.582l72.5824 0l0 72.12033l-72.5824 0z" fill-rule="evenodd"/><path fill="#7b7b7b" fill-opacity="0.4438" d="m331.44803 127.582l24.0401 -24.040108l0 72.12032l-24.0401 24.040115z" fill-rule="evenodd"/><path fill="#afafaf" fill-opacity="0.4438" d="m258.86563 127.582l24.0401 -24.040108l72.5824 0l-24.0401 24.040108z" fill-rule="evenodd"/><path fill="#000000" fill-opacity="0.0" d="m258.86563 127.582l24.0401 -24.040108l72.5824 0l0 72.12032l-24.0401 24.040115l-72.5824 0zm0 0l72.5824 0l24.0401 -24.040108m-24.0401 24.040108l0 72.12033" fill-rule="evenodd"/><path stroke="#000000" stroke-width="1.0" stroke-linejoin="round" stroke-linecap="butt" stroke-dasharray="1.0,3.0" d="m258.86563 127.582l24.0401 -24.040108l72.5824 0l0 72.12032l-24.0401 24.040115l-72.5824 0zm0 0l72.5824 0l24.0401 -24.040108m-24.0401 24.040108l0 72.12033" fill-rule="evenodd"/><path fill="#000000" fill-opacity="0.0" d="m20.496063 135.09088l321.73227 0" fill-rule="evenodd"/><path stroke="#000000" stroke-width="1.0" stroke-linejoin="round" stroke-linecap="butt" d="m20.496063 135.09088l315.73227 0" fill-rule="evenodd"/><path fill="#000000" stroke="#000000" stroke-width="1.0" stroke-linecap="butt" d="m336.22833 136.74261l4.5381165 -1.6517334l-4.5381165 -1.6517334z" fill-rule="evenodd"/><path fill="#000000" fill-opacity="0.0" d="m20.496063 135.09055l0 268.6299" fill-rule="evenodd"/><path stroke="#000000" stroke-width="1.0" stroke-linejoin="round" stroke-linecap="butt" d="m20.496063 135.09055l0 262.6299" fill-rule="evenodd"/><path fill="#000000" stroke="#000000" stroke-width="1.0" stroke-linecap="butt" d="m18.84433 397.72046l1.6517334 4.5381165l1.6517315 -4.5381165z" fill-rule="evenodd"/><path fill="#000000" fill-opacity="0.0" d="m20.76903 135.09186l94.64567 -94.64566" fill-rule="evenodd"/><path stroke="#000000" stroke-width="1.0" stroke-linejoin="round" stroke-linecap="butt" d="m20.76903 135.09186l90.40303 -90.40303" fill-rule="evenodd"/><path fill="#000000" stroke="#000000" stroke-width="1.0" stroke-linecap="butt" d="m112.34001 45.856785l2.0409622 -4.376869l-4.376869 2.040966z" fill-rule="evenodd"/><path fill="#000000" fill-opacity="0.0" d="m9.362205 394.1916l22.267715 0l0 36.81891l-22.267715 0z" fill-rule="evenodd"/><path fill="#000000" d="m19.59658 409.64285l0 -1.890625l1.640625 0l0 1.890625l-1.640625 0zm0 11.46875l0 -9.671875l1.640625 0l0 9.671875l-1.640625 0z" fill-rule="nonzero"/><path fill="#000000" fill-opacity="0.0" d="m337.9449 112.39895l22.2677 0l0 36.8189l-22.2677 0z" fill-rule="evenodd"/><path fill="#000000" d="m348.16364 127.86582l0 -1.90625l1.640625 0l0 1.90625l-1.640625 0zm-2.078125 15.203133l0.3125 -1.390625q0.5 0.125 0.78125 0.125q0.5 0 0.734375 -0.328125q0.25 -0.328125 0.25 -1.671875l0 -10.15625l1.640625 0l0 10.203125q0 1.78125 -0.46875 2.484375q-0.59375 0.90625 -1.96875 0.90625q-0.65625 0 -1.28125 -0.171875z" fill-rule="nonzero"/><path fill="#000000" fill-opacity="0.0" d="m108.08137 10.052493l22.267708 0l0 36.818897l-22.267708 0z" fill-rule="evenodd"/><path fill="#000000" d="m118.31574 36.972492l0 -13.359375l1.640625 0l0 7.625l3.890625 -3.9375l2.109375 0l-3.6875 3.59375l4.0625 6.078125l-2.015625 0l-3.203125 -4.953125l-1.15625 1.125l0 3.828125l-1.640625 0z" fill-rule="nonzero"/></g></svg>