<svg version="1.1" viewBox="0.0 0.0 515.4461942257218 460.3307086614173" fill="none" stroke="none" stroke-linecap="square" stroke-miterlimit="10" xmlns:xlink="http://www.w3.org/1999/xlink" xmlns="http://www.w3.org/2000/svg"><clipPath id="p.0"><path d="m0 0l515.44617 0l0 460.33072l-515.44617 0l0 -460.33072z" clip-rule="nonzero"/></clipPath><g clip-path="url(#p.0)"><path fill="#000000" fill-opacity="0.0" d="m0 0l515.44617 0l0 460.33072l-515.44617 0z" fill-rule="evenodd"/><path fill="#9b9b9b" fill-opacity="0.4438" d="m184.38734 298.18805l72.58238 0l0 72.12033l-72.58238 0z" fill-rule="evenodd"/><path fill="#7b7b7b" fill-opacity="0.4438" d="m256.96973 298.18805l24.0401 -24.0401l0 72.12033l-24.0401 24.0401z" fill-rule="evenodd"/><path fill="#afafaf" fill-opacity="0.4438" d="m184.38734 298.18805l24.0401 -24.0401l72.58238 0l-24.0401 24.0401z" fill-rule="evenodd"/><path fill="#000000" fill-opacity="0.0" d="m184.38734 298.18805l24.0401 -24.0401l72.58238 0l0 72.12033l-24.0401 24.0401l-72.58238 0zm0 0l72.58238 0l24.0401 -24.0401m-24.0401 24.0401l0 72.12033" fill-rule="evenodd"/><path stroke="#000000" stroke-width="1.0" stroke-linejoin="round" stroke-linecap="butt" stroke-dasharray="1.0,3.0" d="m184.38734 298.18805l24.0401 -24.0401l72.58238 0l0 72.12033l-24.0401 24.0401l-72.58238 0zm0 0l72.58238 0l24.0401 -24.0401m-24.0401 24.0401l0 72.12033" fill-rule="evenodd"/><path fill="#9b9b9b" fill-opacity="0.4438" d="m160.28809 322.17206l72.58238 0l0 72.12033l-72.58238 0z" fill-rule="evenodd"/><path fill="#7b7b7b" fill-opacity="0.4438" d="m232.87047 322.17206l24.040115 -24.0401l0 72.12033l-24.040115 24.0401z" fill-rule="evenodd"/><path fill="#afafaf" fill-opacity="0.4438" d="m160.28809 322.17206l24.0401 -24.0401l72.5824 0l-24.040115 24.0401z" fill-rule="evenodd"/><path fill="#000000" fill-opacity="0.0" d="m160.28809 322.17206l24.0401 -24.0401l72.5824 0l0 72.12033l-24.040115 24.0401l-72.58238 0zm0 0l72.58238 0l24.040115 -24.0401m-24.040115 24.0401l0 72.12033" fill-rule="evenodd"/><path stroke="#000000" stroke-width="1.0" stroke-linejoin="round" stroke-linecap="butt" stroke-dasharray="1.0,3.0" d="m160.28809 322.17206l24.0401 -24.0401l72.5824 0l0 72.12033l-24.040115 24.0401l-72.58238 0zm0 0l72.58238 0l24.040115 -24.0401m-24.040115 24.0401l0 72.12033" fill-rule="evenodd"/><path fill="#9b9b9b" fill-opacity="0.4438" d="m136.85223 345.69867l72.58238 0l0 72.12033l-72.58238 0z" fill-rule="evenodd"/><path fill="#7b7b7b" fill-opacity="0.4438" d="m209.43462 345.69867l24.0401 -24.0401l0 72.1203l-24.0401 24.04013z" fill-rule="evenodd"/><path fill="#afafaf" fill-opacity="0.4438" d="m136.85223 345.69867l24.0401 -24.0401l72.58238 0l-24.0401 24.0401z" fill-rule="evenodd"/><path fill="#000000" fill-opacity="0.0" d="m136.85223 345.69867l24.0401 -24.0401l72.58238 0l0 72.1203l-24.0401 24.04013l-72.58238 0zm0 0l72.58238 0l24.0401 -24.0401m-24.0401 24.0401l0 72.12033" fill-rule="evenodd"/><path stroke="#000000" stroke-width="1.0" stroke-linejoin="round" stroke-linecap="butt" stroke-dasharray="1.0,3.0" d="m136.85223 345.69867l24.0401 -24.0401l72.58238 0l0 72.1203l-24.0401 24.04013l-72.58238 0zm0 0l72.58238 0l24.0401 -24.0401m-24.0401 24.0401l0 72.12033" fill-rule="evenodd"/><path fill="#9b9b9b" fill-opacity="0.4438" d="m112.47981 369.68698l72.58238 0l0 72.12033l-72.58238 0z" fill-rule="evenodd"/><path fill="#7b7b7b" fill-opacity="0.4438" d="m185.0622 369.68698l24.0401 -24.0401l0 72.12033l-24.0401 24.0401z" fill-rule="evenodd"/><path fill="#afafaf" fill-opacity="0.4438" d="m112.47981 369.68698l24.0401 -24.0401l72.58238 0l-24.0401 24.0401z" fill-rule="evenodd"/><path fill="#000000" fill-opacity="0.0" d="m112.47981 369.68698l24.0401 -24.0401l72.58238 0l0 72.12033l-24.0401 24.0401l-72.58238 0zm0 0l72.58238 0l24.0401 -24.0401m-24.0401 24.0401l0 72.12033" fill-rule="evenodd"/><path stroke="#000000" stroke-width="1.0" stroke-linejoin="round" stroke-linecap="butt" stroke-dasharray="1.0,3.0" d="m112.47981 369.68698l24.0401 -24.0401l72.58238 0l0 72.12033l-24.0401 24.0401l-72.58238 0zm0 0l72.58238 0l24.0401 -24.0401m-24.0401 24.0401l0 72.12033" fill-rule="evenodd"/><path fill="#9b9b9b" fill-opacity="0.4438" d="m256.38733 298.18805l72.5824 0l0 72.12033l-72.5824 0z" fill-rule="evenodd"/><path fill="#7b7b7b" fill-opacity="0.4438" d="m328.96973 298.18805l24.0401 -24.0401l0 72.12033l-24.0401 24.0401z" fill-rule="evenodd"/><path fill="#afafaf" fill-opacity="0.4438" d="m256.38733 298.18805l24.04013 -24.0401l72.58237 0l-24.0401 24.0401z" fill-rule="evenodd"/><path fill="#000000" fill-opacity="0.0" d="m256.38733 298.18805l24.04013 -24.0401l72.58237 0l0 72.12033l-24.0401 24.0401l-72.5824 0zm0 0l72.5824 0l24.0401 -24.0401m-24.0401 24.0401l0 72.12033" fill-rule="evenodd"/><path stroke="#000000" stroke-width="1.0" stroke-linejoin="round" stroke-linecap="butt" stroke-dasharray="1.0,3.0" d="m256.38733 298.18805l24.04013 -24.0401l72.58237 0l0 72.12033l-24.0401 24.0401l-72.5824 0zm0 0l72.5824 0l24.0401 -24.0401m-24.0401 24.0401l0 72.12033" fill-rule="evenodd"/><path fill="#9b9b9b" fill-opacity="0.4438" d="m232.28809 322.17206l72.58237 0l0 72.12033l-72.58237 0z" fill-rule="evenodd"/><path fill="#7b7b7b" fill-opacity="0.4438" d="m304.87045 322.17206l24.04013 -24.0401l0 72.12033l-24.04013 24.0401z" fill-rule="evenodd"/><path fill="#afafaf" fill-opacity="0.4438" d="m232.28809 322.17206l24.0401 -24.0401l72.5824 0l-24.04013 24.0401z" fill-rule="evenodd"/><path fill="#000000" fill-opacity="0.0" d="m232.28809 322.17206l24.0401 -24.0401l72.5824 0l0 72.12033l-24.04013 24.0401l-72.58237 0zm0 0l72.58237 0l24.04013 -24.0401m-24.04013 24.0401l0 72.12033" fill-rule="evenodd"/><path stroke="#000000" stroke-width="1.0" stroke-linejoin="round" stroke-linecap="butt" stroke-dasharray="1.0,3.0" d="m232.28809 322.17206l24.0401 -24.0401l72.5824 0l0 72.12033l-24.04013 24.0401l-72.58237 0zm0 0l72.58237 0l24.04013 -24.0401m-24.04013 24.0401l0 72.12033" fill-rule="evenodd"/><path fill="#9b9b9b" fill-opacity="0.4438" d="m208.85223 345.69867l72.58237 0l0 72.12033l-72.58237 0z" fill-rule="evenodd"/><path fill="#7b7b7b" fill-opacity="0.4438" d="m281.4346 345.69867l24.04013 -24.0401l0 72.1203l-24.04013 24.04013z" fill-rule="evenodd"/><path fill="#afafaf" fill-opacity="0.4438" d="m208.85223 345.69867l24.0401 -24.0401l72.5824 0l-24.04013 24.0401z" fill-rule="evenodd"/><path fill="#000000" fill-opacity="0.0" d="m208.85223 345.69867l24.0401 -24.0401l72.5824 0l0 72.1203l-24.04013 24.04013l-72.58237 0zm0 0l72.58237 0l24.04013 -24.0401m-24.04013 24.0401l0 72.12033" fill-rule="evenodd"/><path stroke="#000000" stroke-width="1.0" stroke-linejoin="round" stroke-linecap="butt" stroke-dasharray="1.0,3.0" d="m208.85223 345.69867l24.0401 -24.0401l72.5824 0l0 72.1203l-24.04013 24.04013l-72.58237 0zm0 0l72.58237 0l24.04013 -24.0401m-24.04013 24.0401l0 72.12033" fill-rule="evenodd"/><path fill="#9b9b9b" fill-opacity="0.4438" d="m184.47981 369.68698l72.58238 0l0 72.12033l-72.58238 0z" fill-rule="evenodd"/><path fill="#7b7b7b" fill-opacity="0.4438" d="m257.0622 369.68698l24.0401 -24.0401l0 72.12033l-24.0401 24.0401z" fill-rule="evenodd"/><path fill="#afafaf" fill-opacity="0.4438" d="m184.47981 369.68698l24.0401 -24.0401l72.58238 0l-24.0401 24.0401z" fill-rule="evenodd"/><path fill="#000000" fill-opacity="0.0" d="m184.47981 369.68698l24.0401 -24.0401l72.58238 0l0 72.12033l-24.0401 24.0401l-72.58238 0zm0 0l72.58238 0l24.0401 -24.0401m-24.0401 24.0401l0 72.12033" fill-rule="evenodd"/><path stroke="#000000" stroke-width="1.0" stroke-linejoin="round" stroke-linecap="butt" stroke-dasharray="1.0,3.0" d="m184.47981 369.68698l24.0401 -24.0401l72.58238 0l0 72.12033l-24.0401 24.0401l-72.58238 0zm0 0l72.58238 0l24.0401 -24.0401m-24.0401 24.0401l0 72.12033" fill-rule="evenodd"/><path fill="#9b9b9b" fill-opacity="0.4438" d="m328.38733 298.18805l72.5824 0l0 72.12033l-72.5824 0z" fill-rule="evenodd"/><path fill="#7b7b7b" fill-opacity="0.4438" d="m400.96973 298.18805l24.0401 -24.0401l0 72.12033l-24.0401 24.0401z" fill-rule="evenodd"/><path fill="#afafaf" fill-opacity="0.4438" d="m328.38733 298.18805l24.04013 -24.0401l72.58237 0l-24.0401 24.0401z" fill-rule="evenodd"/><path fill="#000000" fill-opacity="0.0" d="m328.38733 298.18805l24.04013 -24.0401l72.58237 0l0 72.12033l-24.0401 24.0401l-72.5824 0zm0 0l72.5824 0l24.0401 -24.0401m-24.0401 24.0401l0 72.12033" fill-rule="evenodd"/><path stroke="#000000" stroke-width="1.0" stroke-linejoin="round" stroke-linecap="butt" stroke-dasharray="1.0,3.0" d="m328.38733 298.18805l24.04013 -24.0401l72.58237 0l0 72.12033l-24.0401 24.0401l-72.5824 0zm0 0l72.5824 0l24.0401 -24.0401m-24.0401 24.0401l0 72.12033" fill-rule="evenodd"/><path fill="#9b9b9b" fill-opacity="0.4438" d="m304.2881 322.17206l72.58237 0l0 72.12033l-72.58237 0z" fill-rule="evenodd"/><path fill="#7b7b7b" fill-opacity="0.4438" d="m376.87045 322.17206l24.04013 -24.0401l0 72.12033l-24.04013 24.0401z" fill-rule="evenodd"/><path fill="#afafaf" fill-opacity="0.4438" d="m304.2881 322.17206l24.0401 -24.0401l72.5824 0l-24.04013 24.0401z" fill-rule="evenodd"/><path fill="#000000" fill-opacity="0.0" d="m304.2881 322.17206l24.0401 -24.0401l72.5824 0l0 72.12033l-24.04013 24.0401l-72.58237 0zm0 0l72.58237 0l24.04013 -24.0401m-24.04013 24.0401l0 72.12033" fill-rule="evenodd"/><path stroke="#000000" stroke-width="1.0" stroke-linejoin="round" stroke-linecap="butt" stroke-dasharray="1.0,3.0" d="m304.2881 322.17206l24.0401 -24.0401l72.5824 0l0 72.12033l-24.04013 24.0401l-72.58237 0zm0 0l72.58237 0l24.04013 -24.0401m-24.04013 24.0401l0 72.12033" fill-rule="evenodd"/><path fill="#9b9b9b" fill-opacity="0.4438" d="m280.85223 345.69867l72.58237 0l0 72.12033l-72.58237 0z" fill-rule="evenodd"/><path fill="#7b7b7b" fill-opacity="0.4438" d="m353.4346 345.69867l24.04013 -24.0401l0 72.1203l-24.04013 24.04013z" fill-rule="evenodd"/><path fill="#afafaf" fill-opacity="0.4438" d="m280.85223 345.69867l24.0401 -24.0401l72.5824 0l-24.04013 24.0401z" fill-rule="evenodd"/><path fill="#000000" fill-opacity="0.0" d="m280.85223 345.69867l24.0401 -24.0401l72.5824 0l0 72.1203l-24.04013 24.04013l-72.58237 0zm0 0l72.58237 0l24.04013 -24.0401m-24.04013 24.0401l0 72.12033" fill-rule="evenodd"/><path stroke="#000000" stroke-width="1.0" stroke-linejoin="round" stroke-linecap="butt" stroke-dasharray="1.0,3.0" d="m280.85223 345.69867l24.0401 -24.0401l72.5824 0l0 72.1203l-24.04013 24.04013l-72.58237 0zm0 0l72.58237 0l24.04013 -24.0401m-24.04013 24.0401l0 72.12033" fill-rule="evenodd"/><path fill="#9b9b9b" fill-opacity="0.4438" d="m256.4798 369.68698l72.5824 0l0 72.12033l-72.5824 0z" fill-rule="evenodd"/><path fill="#7b7b7b" fill-opacity="0.4438" d="m329.0622 369.68698l24.0401 -24.0401l0 72.12033l-24.0401 24.0401z" fill-rule="evenodd"/><path fill="#afafaf" fill-opacity="0.4438" d="m256.4798 369.68698l24.04013 -24.0401l72.58237 0l-24.0401 24.0401z" fill-rule="evenodd"/><path fill="#000000" fill-opacity="0.0" d="m256.4798 369.68698l24.04013 -24.0401l72.58237 0l0 72.12033l-24.0401 24.0401l-72.5824 0zm0 0l72.5824 0l24.0401 -24.0401m-24.0401 24.0401l0 72.12033" fill-rule="evenodd"/><path stroke="#000000" stroke-width="1.0" stroke-linejoin="round" stroke-linecap="butt" stroke-dasharray="1.0,3.0" d="m256.4798 369.68698l24.04013 -24.0401l72.58237 0l0 72.12033l-24.0401 24.0401l-72.5824 0zm0 0l72.5824 0l24.0401 -24.0401m-24.0401 24.0401l0 72.12033" fill-rule="evenodd"/><path fill="#9b9b9b" fill-opacity="0.4438" d="m400.38733 298.18805l72.5824 0l0 72.12033l-72.5824 0z" fill-rule="evenodd"/><path fill="#7b7b7b" fill-opacity="0.4438" d="m472.96973 298.18805l24.0401 -24.0401l0 72.12033l-24.0401 24.0401z" fill-rule="evenodd"/><path fill="#afafaf" fill-opacity="0.4438" d="m400.38733 298.18805l24.04013 -24.0401l72.58237 0l-24.0401 24.0401z" fill-rule="evenodd"/><path fill="#000000" fill-opacity="0.0" d="m400.38733 298.18805l24.04013 -24.0401l72.58237 0l0 72.12033l-24.0401 24.0401l-72.5824 0zm0 0l72.5824 0l24.0401 -24.0401m-24.0401 24.0401l0 72.12033" fill-rule="evenodd"/><path stroke="#000000" stroke-width="1.0" stroke-linejoin="round" stroke-linecap="butt" stroke-dasharray="1.0,3.0" d="m400.38733 298.18805l24.04013 -24.0401l72.58237 0l0 72.12033l-24.0401 24.0401l-72.5824 0zm0 0l72.5824 0l24.0401 -24.0401m-24.0401 24.0401l0 72.12033" fill-rule="evenodd"/><path fill="#9b9b9b" fill-opacity="0.4438" d="m376.2881 322.17206l72.58237 0l0 72.12033l-72.58237 0z" fill-rule="evenodd"/><path fill="#7b7b7b" fill-opacity="0.4438" d="m448.87045 322.17206l24.04013 -24.0401l0 72.12033l-24.04013 24.0401z" fill-rule="evenodd"/><path fill="#afafaf" fill-opacity="0.4438" d="m376.2881 322.17206l24.0401 -24.0401l72.5824 0l-24.04013 24.0401z" fill-rule="evenodd"/><path fill="#000000" fill-opacity="0.0" d="m376.2881 322.17206l24.0401 -24.0401l72.5824 0l0 72.12033l-24.04013 24.0401l-72.58237 0zm0 0l72.58237 0l24.04013 -24.0401m-24.04013 24.0401l0 72.12033" fill-rule="evenodd"/><path stroke="#000000" stroke-width="1.0" stroke-linejoin="round" stroke-linecap="butt" stroke-dasharray="1.0,3.0" d="m376.2881 322.17206l24.0401 -24.0401l72.5824 0l0 72.12033l-24.04013 24.0401l-72.58237 0zm0 0l72.58237 0l24.04013 -24.0401m-24.04013 24.0401l0 72.12033" fill-rule="evenodd"/><path fill="#9b9b9b" fill-opacity="0.4438" d="m352.85223 345.69867l72.58237 0l0 72.12033l-72.58237 0z" fill-rule="evenodd"/><path fill="#7b7b7b" fill-opacity="0.4438" d="m425.4346 345.69867l24.04013 -24.0401l0 72.1203l-24.04013 24.04013z" fill-rule="evenodd"/><path fill="#afafaf" fill-opacity="0.4438" d="m352.85223 345.69867l24.0401 -24.0401l72.5824 0l-24.04013 24.0401z" fill-rule="evenodd"/><path fill="#000000" fill-opacity="0.0" d="m352.85223 345.69867l24.0401 -24.0401l72.5824 0l0 72.1203l-24.04013 24.04013l-72.58237 0zm0 0l72.58237 0l24.04013 -24.0401m-24.04013 24.0401l0 72.12033" fill-rule="evenodd"/><path stroke="#000000" stroke-width="1.0" stroke-linejoin="round" stroke-linecap="butt" stroke-dasharray="1.0,3.0" d="m352.85223 345.69867l24.0401 -24.0401l72.5824 0l0 72.1203l-24.04013 24.04013l-72.58237 0zm0 0l72.58237 0l24.04013 -24.0401m-24.04013 24.0401l0 72.12033" fill-rule="evenodd"/><path fill="#9b9b9b" fill-opacity="0.4438" d="m328.4798 369.68698l72.5824 0l0 72.12033l-72.5824 0z" fill-rule="evenodd"/><path fill="#7b7b7b" fill-opacity="0.4438" d="m401.0622 369.68698l24.0401 -24.0401l0 72.12033l-24.0401 24.0401z" fill-rule="evenodd"/><path fill="#afafaf" fill-opacity="0.4438" d="m328.4798 369.68698l24.04013 -24.0401l72.58237 0l-24.0401 24.0401z" fill-rule="evenodd"/><path fill="#000000" fill-opacity="0.0" d="m328.4798 369.68698l24.04013 -24.0401l72.58237 0l0 72.12033l-24.0401 24.0401l-72.5824 0zm0 0l72.5824 0l24.0401 -24.0401m-24.0401 24.0401l0 72.12033" fill-rule="evenodd"/><path stroke="#000000" stroke-width="1.0" stroke-linejoin="round" stroke-linecap="butt" stroke-dasharray="1.0,3.0" d="m328.4798 369.68698l24.04013 -24.0401l72.58237 0l0 72.12033l-24.0401 24.0401l-72.5824 0zm0 0l72.5824 0l24.0401 -24.0401m-24.0401 24.0401l0 72.12033" fill-rule="evenodd"/><path fill="#9b9b9b" fill-opacity="0.4438" d="m184.38734 226.18806l72.58238 0l0 72.120316l-72.58238 0z" fill-rule="evenodd"/><path fill="#7b7b7b" fill-opacity="0.4438" d="m256.96973 226.18806l24.0401 -24.040115l0 72.12033l-24.0401 24.0401z" fill-rule="evenodd"/><path fill="#afafaf" fill-opacity="0.4438" d="m184.38734 226.18806l24.0401 -24.040115l72.58238 0l-24.0401 24.040115z" fill-rule="evenodd"/><path fill="#000000" fill-opacity="0.0" d="m184.38734 226.18806l24.0401 -24.040115l72.58238 0l0 72.12033l-24.0401 24.0401l-72.58238 0zm0 0l72.58238 0l24.0401 -24.040115m-24.0401 24.040115l0 72.120316" fill-rule="evenodd"/><path stroke="#000000" stroke-width="1.0" stroke-linejoin="round" stroke-linecap="butt" stroke-dasharray="1.0,3.0" d="m184.38734 226.18806l24.0401 -24.040115l72.58238 0l0 72.12033l-24.0401 24.0401l-72.58238 0zm0 0l72.58238 0l24.0401 -24.040115m-24.0401 24.040115l0 72.120316" fill-rule="evenodd"/><path fill="#9b9b9b" fill-opacity="0.4438" d="m160.28809 250.17207l72.58238 0l0 72.120316l-72.58238 0z" fill-rule="evenodd"/><path fill="#7b7b7b" fill-opacity="0.4438" d="m232.87047 250.17207l24.040115 -24.040115l0 72.12033l-24.040115 24.0401z" fill-rule="evenodd"/><path fill="#afafaf" fill-opacity="0.4438" d="m160.28809 250.17207l24.0401 -24.040115l72.5824 0l-24.040115 24.040115z" fill-rule="evenodd"/><path fill="#000000" fill-opacity="0.0" d="m160.28809 250.17207l24.0401 -24.040115l72.5824 0l0 72.12033l-24.040115 24.0401l-72.58238 0zm0 0l72.58238 0l24.040115 -24.040115m-24.040115 24.040115l0 72.120316" fill-rule="evenodd"/><path stroke="#000000" stroke-width="1.0" stroke-linejoin="round" stroke-linecap="butt" stroke-dasharray="1.0,3.0" d="m160.28809 250.17207l24.0401 -24.040115l72.5824 0l0 72.12033l-24.040115 24.0401l-72.58238 0zm0 0l72.58238 0l24.040115 -24.040115m-24.040115 24.040115l0 72.120316" fill-rule="evenodd"/><path fill="#9b9b9b" fill-opacity="0.4438" d="m136.85223 273.69867l72.58238 0l0 72.12033l-72.58238 0z" fill-rule="evenodd"/><path fill="#7b7b7b" fill-opacity="0.4438" d="m209.43462 273.69867l24.0401 -24.040115l0 72.120316l-24.0401 24.04013z" fill-rule="evenodd"/><path fill="#afafaf" fill-opacity="0.4438" d="m136.85223 273.69867l24.0401 -24.040115l72.58238 0l-24.0401 24.040115z" fill-rule="evenodd"/><path fill="#000000" fill-opacity="0.0" d="m136.85223 273.69867l24.0401 -24.040115l72.58238 0l0 72.120316l-24.0401 24.04013l-72.58238 0zm0 0l72.58238 0l24.0401 -24.040115m-24.0401 24.040115l0 72.12033" fill-rule="evenodd"/><path stroke="#000000" stroke-width="1.0" stroke-linejoin="round" stroke-linecap="butt" stroke-dasharray="1.0,3.0" d="m136.85223 273.69867l24.0401 -24.040115l72.58238 0l0 72.120316l-24.0401 24.04013l-72.58238 0zm0 0l72.58238 0l24.0401 -24.040115m-24.0401 24.040115l0 72.12033" fill-rule="evenodd"/><path fill="#9b9b9b" fill-opacity="0.4438" d="m112.47981 297.68698l72.58238 0l0 72.12033l-72.58238 0z" fill-rule="evenodd"/><path fill="#7b7b7b" fill-opacity="0.4438" d="m185.0622 297.68698l24.0401 -24.0401l0 72.12033l-24.0401 24.0401z" fill-rule="evenodd"/><path fill="#afafaf" fill-opacity="0.4438" d="m112.47981 297.68698l24.0401 -24.0401l72.58238 0l-24.0401 24.0401z" fill-rule="evenodd"/><path fill="#000000" fill-opacity="0.0" d="m112.47981 297.68698l24.0401 -24.0401l72.58238 0l0 72.12033l-24.0401 24.0401l-72.58238 0zm0 0l72.58238 0l24.0401 -24.0401m-24.0401 24.0401l0 72.12033" fill-rule="evenodd"/><path stroke="#000000" stroke-width="1.0" stroke-linejoin="round" stroke-linecap="butt" stroke-dasharray="1.0,3.0" d="m112.47981 297.68698l24.0401 -24.0401l72.58238 0l0 72.12033l-24.0401 24.0401l-72.58238 0zm0 0l72.58238 0l24.0401 -24.0401m-24.0401 24.0401l0 72.12033" fill-rule="evenodd"/><path fill="#9b9b9b" fill-opacity="0.4438" d="m256.38733 226.18806l72.5824 0l0 72.120316l-72.5824 0z" fill-rule="evenodd"/><path fill="#7b7b7b" fill-opacity="0.4438" d="m328.96973 226.18806l24.0401 -24.040115l0 72.12033l-24.0401 24.0401z" fill-rule="evenodd"/><path fill="#afafaf" fill-opacity="0.4438" d="m256.38733 226.18806l24.04013 -24.040115l72.58237 0l-24.0401 24.040115z" fill-rule="evenodd"/><path fill="#000000" fill-opacity="0.0" d="m256.38733 226.18806l24.04013 -24.040115l72.58237 0l0 72.12033l-24.0401 24.0401l-72.5824 0zm0 0l72.5824 0l24.0401 -24.040115m-24.0401 24.040115l0 72.120316" fill-rule="evenodd"/><path stroke="#000000" stroke-width="1.0" stroke-linejoin="round" stroke-linecap="butt" stroke-dasharray="1.0,3.0" d="m256.38733 226.18806l24.04013 -24.040115l72.58237 0l0 72.12033l-24.0401 24.0401l-72.5824 0zm0 0l72.5824 0l24.0401 -24.040115m-24.0401 24.040115l0 72.120316" fill-rule="evenodd"/><path fill="#9b9b9b" fill-opacity="0.4438" d="m232.28809 250.17207l72.58237 0l0 72.120316l-72.58237 0z" fill-rule="evenodd"/><path fill="#7b7b7b" fill-opacity="0.4438" d="m304.87045 250.17207l24.04013 -24.040115l0 72.12033l-24.04013 24.0401z" fill-rule="evenodd"/><path fill="#afafaf" fill-opacity="0.4438" d="m232.28809 250.17207l24.0401 -24.040115l72.5824 0l-24.04013 24.040115z" fill-rule="evenodd"/><path fill="#000000" fill-opacity="0.0" d="m232.28809 250.17207l24.0401 -24.040115l72.5824 0l0 72.12033l-24.04013 24.0401l-72.58237 0zm0 0l72.58237 0l24.04013 -24.040115m-24.04013 24.040115l0 72.120316" fill-rule="evenodd"/><path stroke="#000000" stroke-width="1.0" stroke-linejoin="round" stroke-linecap="butt" stroke-dasharray="1.0,3.0" d="m232.28809 250.17207l24.0401 -24.040115l72.5824 0l0 72.12033l-24.04013 24.0401l-72.58237 0zm0 0l72.58237 0l24.04013 -24.040115m-24.04013 24.040115l0 72.120316" fill-rule="evenodd"/><path fill="#9b9b9b" fill-opacity="0.4438" d="m208.85223 273.69867l72.58237 0l0 72.12033l-72.58237 0z" fill-rule="evenodd"/><path fill="#7b7b7b" fill-opacity="0.4438" d="m281.4346 273.69867l24.04013 -24.040115l0 72.120316l-24.04013 24.04013z" fill-rule="evenodd"/><path fill="#afafaf" fill-opacity="0.4438" d="m208.85223 273.69867l24.0401 -24.040115l72.5824 0l-24.04013 24.040115z" fill-rule="evenodd"/><path fill="#000000" fill-opacity="0.0" d="m208.85223 273.69867l24.0401 -24.040115l72.5824 0l0 72.120316l-24.04013 24.04013l-72.58237 0zm0 0l72.58237 0l24.04013 -24.040115m-24.04013 24.040115l0 72.12033" fill-rule="evenodd"/><path stroke="#000000" stroke-width="1.0" stroke-linejoin="round" stroke-linecap="butt" stroke-dasharray="1.0,3.0" d="m208.85223 273.69867l24.0401 -24.040115l72.5824 0l0 72.120316l-24.04013 24.04013l-72.58237 0zm0 0l72.58237 0l24.04013 -24.040115m-24.04013 24.040115l0 72.12033" fill-rule="evenodd"/><path fill="#9b9b9b" fill-opacity="0.4438" d="m184.47981 297.68698l72.58238 0l0 72.12033l-72.58238 0z" fill-rule="evenodd"/><path fill="#7b7b7b" fill-opacity="0.4438" d="m257.0622 297.68698l24.0401 -24.0401l0 72.12033l-24.0401 24.0401z" fill-rule="evenodd"/><path fill="#afafaf" fill-opacity="0.4438" d="m184.47981 297.68698l24.0401 -24.0401l72.58238 0l-24.0401 24.0401z" fill-rule="evenodd"/><path fill="#000000" fill-opacity="0.0" d="m184.47981 297.68698l24.0401 -24.0401l72.58238 0l0 72.12033l-24.0401 24.0401l-72.58238 0zm0 0l72.58238 0l24.0401 -24.0401m-24.0401 24.0401l0 72.12033" fill-rule="evenodd"/><path stroke="#000000" stroke-width="1.0" stroke-linejoin="round" stroke-linecap="butt" stroke-dasharray="1.0,3.0" d="m184.47981 297.68698l24.0401 -24.0401l72.58238 0l0 72.12033l-24.0401 24.0401l-72.58238 0zm0 0l72.58238 0l24.0401 -24.0401m-24.0401 24.0401l0 72.12033" fill-rule="evenodd"/><path fill="#9b9b9b" fill-opacity="0.4438" d="m328.38733 226.18806l72.5824 0l0 72.120316l-72.5824 0z" fill-rule="evenodd"/><path fill="#7b7b7b" fill-opacity="0.4438" d="m400.96973 226.18806l24.0401 -24.040115l0 72.12033l-24.0401 24.0401z" fill-rule="evenodd"/><path fill="#afafaf" fill-opacity="0.4438" d="m328.38733 226.18806l24.04013 -24.040115l72.58237 0l-24.0401 24.040115z" fill-rule="evenodd"/><path fill="#000000" fill-opacity="0.0" d="m328.38733 226.18806l24.04013 -24.040115l72.58237 0l0 72.12033l-24.0401 24.0401l-72.5824 0zm0 0l72.5824 0l24.0401 -24.040115m-24.0401 24.040115l0 72.120316" fill-rule="evenodd"/><path stroke="#000000" stroke-width="1.0" stroke-linejoin="round" stroke-linecap="butt" stroke-dasharray="1.0,3.0" d="m328.38733 226.18806l24.04013 -24.040115l72.58237 0l0 72.12033l-24.0401 24.0401l-72.5824 0zm0 0l72.5824 0l24.0401 -24.040115m-24.0401 24.040115l0 72.120316" fill-rule="evenodd"/><path fill="#9b9b9b" fill-opacity="0.4438" d="m304.2881 250.17207l72.58237 0l0 72.120316l-72.58237 0z" fill-rule="evenodd"/><path fill="#7b7b7b" fill-opacity="0.4438" d="m376.87045 250.17207l24.04013 -24.040115l0 72.12033l-24.04013 24.0401z" fill-rule="evenodd"/><path fill="#afafaf" fill-opacity="0.4438" d="m304.2881 250.17207l24.0401 -24.040115l72.5824 0l-24.04013 24.040115z" fill-rule="evenodd"/><path fill="#000000" fill-opacity="0.0" d="m304.2881 250.17207l24.0401 -24.040115l72.5824 0l0 72.12033l-24.04013 24.0401l-72.58237 0zm0 0l72.58237 0l24.04013 -24.040115m-24.04013 24.040115l0 72.120316" fill-rule="evenodd"/><path stroke="#000000" stroke-width="1.0" stroke-linejoin="round" stroke-linecap="butt" stroke-dasharray="1.0,3.0" d="m304.2881 250.17207l24.0401 -24.040115l72.5824 0l0 72.12033l-24.04013 24.0401l-72.58237 0zm0 0l72.58237 0l24.04013 -24.040115m-24.04013 24.040115l0 72.120316" fill-rule="evenodd"/><path fill="#9b9b9b" fill-opacity="0.4438" d="m280.85223 273.69867l72.58237 0l0 72.12033l-72.58237 0z" fill-rule="evenodd"/><path fill="#7b7b7b" fill-opacity="0.4438" d="m353.4346 273.69867l24.04013 -24.040115l0 72.120316l-24.04013 24.04013z" fill-rule="evenodd"/><path fill="#afafaf" fill-opacity="0.4438" d="m280.85223 273.69867l24.0401 -24.040115l72.5824 0l-24.04013 24.040115z" fill-rule="evenodd"/><path fill="#000000" fill-opacity="0.0" d="m280.85223 273.69867l24.0401 -24.040115l72.5824 0l0 72.120316l-24.04013 24.04013l-72.58237 0zm0 0l72.58237 0l24.04013 -24.040115m-24.04013 24.040115l0 72.12033" fill-rule="evenodd"/><path stroke="#000000" stroke-width="1.0" stroke-linejoin="round" stroke-linecap="butt" stroke-dasharray="1.0,3.0" d="m280.85223 273.69867l24.0401 -24.040115l72.5824 0l0 72.120316l-24.04013 24.04013l-72.58237 0zm0 0l72.58237 0l24.04013 -24.040115m-24.04013 24.040115l0 72.12033" fill-rule="evenodd"/><path fill="#9b9b9b" fill-opacity="0.4438" d="m256.4798 297.68698l72.5824 0l0 72.12033l-72.5824 0z" fill-rule="evenodd"/><path fill="#7b7b7b" fill-opacity="0.4438" d="m329.0622 297.68698l24.0401 -24.0401l0 72.12033l-24.0401 24.0401z" fill-rule="evenodd"/><path fill="#afafaf" fill-opacity="0.4438" d="m256.4798 297.68698l24.04013 -24.0401l72.58237 0l-24.0401 24.0401z" fill-rule="evenodd"/><path fill="#000000" fill-opacity="0.0" d="m256.4798 297.68698l24.04013 -24.0401l72.58237 0l0 72.12033l-24.0401 24.0401l-72.5824 0zm0 0l72.5824 0l24.0401 -24.0401m-24.0401 24.0401l0 72.12033" fill-rule="evenodd"/><path stroke="#000000" stroke-width="1.0" stroke-linejoin="round" stroke-linecap="butt" stroke-dasharray="1.0,3.0" d="m256.4798 297.68698l24.04013 -24.0401l72.58237 0l0 72.12033l-24.0401 24.0401l-72.5824 0zm0 0l72.5824 0l24.0401 -24.0401m-24.0401 24.0401l0 72.12033" fill-rule="evenodd"/><path fill="#9b9b9b" fill-opacity="0.4438" d="m400.38733 226.18806l72.5824 0l0 72.120316l-72.5824 0z" fill-rule="evenodd"/><path fill="#7b7b7b" fill-opacity="0.4438" d="m472.96973 226.18806l24.0401 -24.040115l0 72.12033l-24.0401 24.0401z" fill-rule="evenodd"/><path fill="#afafaf" fill-opacity="0.4438" d="m400.38733 226.18806l24.04013 -24.040115l72.58237 0l-24.0401 24.040115z" fill-rule="evenodd"/><path fill="#000000" fill-opacity="0.0" d="m400.38733 226.18806l24.04013 -24.040115l72.58237 0l0 72.12033l-24.0401 24.0401l-72.5824 0zm0 0l72.5824 0l24.0401 -24.040115m-24.0401 24.040115l0 72.120316" fill-rule="evenodd"/><path stroke="#000000" stroke-width="1.0" stroke-linejoin="round" stroke-linecap="butt" stroke-dasharray="1.0,3.0" d="m400.38733 226.18806l24.04013 -24.040115l72.58237 0l0 72.12033l-24.0401 24.0401l-72.5824 0zm0 0l72.5824 0l24.0401 -24.040115m-24.0401 24.040115l0 72.120316" fill-rule="evenodd"/><path fill="#9b9b9b" fill-opacity="0.4438" d="m376.2881 250.17207l72.58237 0l0 72.120316l-72.58237 0z" fill-rule="evenodd"/><path fill="#7b7b7b" fill-opacity="0.4438" d="m448.87045 250.17207l24.04013 -24.040115l0 72.12033l-24.04013 24.0401z" fill-rule="evenodd"/><path fill="#afafaf" fill-opacity="0.4438" d="m376.2881 250.17207l24.0401 -24.040115l72.5824 0l-24.04013 24.040115z" fill-rule="evenodd"/><path fill="#000000" fill-opacity="0.0" d="m376.2881 250.17207l24.0401 -24.040115l72.5824 0l0 72.12033l-24.04013 24.0401l-72.58237 0zm0 0l72.58237 0l24.04013 -24.040115m-24.04013 24.040115l0 72.120316" fill-rule="evenodd"/><path stroke="#000000" stroke-width="1.0" stroke-linejoin="round" stroke-linecap="butt" stroke-dasharray="1.0,3.0" d="m376.2881 250.17207l24.0401 -24.040115l72.5824 0l0 72.12033l-24.04013 24.0401l-72.58237 0zm0 0l72.58237 0l24.04013 -24.040115m-24.04013 24.040115l0 72.120316" fill-rule="evenodd"/><path fill="#9b9b9b" fill-opacity="0.4438" d="m352.85223 273.69867l72.58237 0l0 72.12033l-72.58237 0z" fill-rule="evenodd"/><path fill="#7b7b7b" fill-opacity="0.4438" d="m425.4346 273.69867l24.04013 -24.040115l0 72.120316l-24.04013 24.04013z" fill-rule="evenodd"/><path fill="#afafaf" fill-opacity="0.4438" d="m352.85223 273.69867l24.0401 -24.040115l72.5824 0l-24.04013 24.040115z" fill-rule="evenodd"/><path fill="#000000" fill-opacity="0.0" d="m352.85223 273.69867l24.0401 -24.040115l72.5824 0l0 72.120316l-24.04013 24.04013l-72.58237 0zm0 0l72.58237 0l24.04013 -24.040115m-24.04013 24.040115l0 72.12033" fill-rule="evenodd"/><path stroke="#000000" stroke-width="1.0" stroke-linejoin="round" stroke-linecap="butt" stroke-dasharray="1.0,3.0" d="m352.85223 273.69867l24.0401 -24.040115l72.5824 0l0 72.120316l-24.04013 24.04013l-72.58237 0zm0 0l72.58237 0l24.04013 -24.040115m-24.04013 24.040115l0 72.12033" fill-rule="evenodd"/><path fill="#9b9b9b" fill-opacity="0.4438" d="m328.4798 297.68698l72.5824 0l0 72.12033l-72.5824 0z" fill-rule="evenodd"/><path fill="#7b7b7b" fill-opacity="0.4438" d="m401.0622 297.68698l24.0401 -24.0401l0 72.12033l-24.0401 24.0401z" fill-rule="evenodd"/><path fill="#afafaf" fill-opacity="0.4438" d="m328.4798 297.68698l24.04013 -24.0401l72.58237 0l-24.0401 24.0401z" fill-rule="evenodd"/><path fill="#000000" fill-opacity="0.0" d="m328.4798 297.68698l24.04013 -24.0401l72.58237 0l0 72.12033l-24.0401 24.0401l-72.5824 0zm0 0l72.5824 0l24.0401 -24.0401m-24.0401 24.0401l0 72.12033" fill-rule="evenodd"/><path stroke="#000000" stroke-width="1.0" stroke-linejoin="round" stroke-linecap="butt" stroke-dasharray="1.0,3.0" d="m328.4798 297.68698l24.04013 -24.0401l72.58237 0l0 72.12033l-24.0401 24.0401l-72.5824 0zm0 0l72.5824 0l24.0401 -24.0401m-24.0401 24.0401l0 72.12033" fill-rule="evenodd"/><path fill="#9b9b9b" fill-opacity="0.4438" d="m184.38734 154.18806l72.58238 0l0 72.120316l-72.58238 0z" fill-rule="evenodd"/><path fill="#7b7b7b" fill-opacity="0.4438" d="m256.96973 154.18806l24.0401 -24.040115l0 72.12033l-24.0401 24.0401z" fill-rule="evenodd"/><path fill="#afafaf" fill-opacity="0.4438" d="m184.38734 154.18806l24.0401 -24.040115l72.58238 0l-24.0401 24.040115z" fill-rule="evenodd"/><path fill="#000000" fill-opacity="0.0" d="m184.38734 154.18806l24.0401 -24.040115l72.58238 0l0 72.12033l-24.0401 24.0401l-72.58238 0zm0 0l72.58238 0l24.0401 -24.040115m-24.0401 24.040115l0 72.120316" fill-rule="evenodd"/><path stroke="#000000" stroke-width="1.0" stroke-linejoin="round" stroke-linecap="butt" stroke-dasharray="1.0,3.0" d="m184.38734 154.18806l24.0401 -24.040115l72.58238 0l0 72.12033l-24.0401 24.0401l-72.58238 0zm0 0l72.58238 0l24.0401 -24.040115m-24.0401 24.040115l0 72.120316" fill-rule="evenodd"/><path fill="#9b9b9b" fill-opacity="0.4438" d="m160.28809 178.17207l72.58238 0l0 72.120316l-72.58238 0z" fill-rule="evenodd"/><path fill="#7b7b7b" fill-opacity="0.4438" d="m232.87047 178.17207l24.040115 -24.040115l0 72.12033l-24.040115 24.0401z" fill-rule="evenodd"/><path fill="#afafaf" fill-opacity="0.4438" d="m160.28809 178.17207l24.0401 -24.040115l72.5824 0l-24.040115 24.040115z" fill-rule="evenodd"/><path fill="#000000" fill-opacity="0.0" d="m160.28809 178.17207l24.0401 -24.040115l72.5824 0l0 72.12033l-24.040115 24.0401l-72.58238 0zm0 0l72.58238 0l24.040115 -24.040115m-24.040115 24.040115l0 72.120316" fill-rule="evenodd"/><path stroke="#000000" stroke-width="1.0" stroke-linejoin="round" stroke-linecap="butt" stroke-dasharray="1.0,3.0" d="m160.28809 178.17207l24.0401 -24.040115l72.5824 0l0 72.12033l-24.040115 24.0401l-72.58238 0zm0 0l72.58238 0l24.040115 -24.040115m-24.040115 24.040115l0 72.120316" fill-rule="evenodd"/><path fill="#9b9b9b" fill-opacity="0.4438" d="m136.85223 201.69867l72.58238 0l0 72.12033l-72.58238 0z" fill-rule="evenodd"/><path fill="#7b7b7b" fill-opacity="0.4438" d="m209.43462 201.69867l24.0401 -24.040115l0 72.12033l-24.0401 24.040115z" fill-rule="evenodd"/><path fill="#afafaf" fill-opacity="0.4438" d="m136.85223 201.69867l24.0401 -24.040115l72.58238 0l-24.0401 24.040115z" fill-rule="evenodd"/><path fill="#000000" fill-opacity="0.0" d="m136.85223 201.69867l24.0401 -24.040115l72.58238 0l0 72.12033l-24.0401 24.040115l-72.58238 0zm0 0l72.58238 0l24.0401 -24.040115m-24.0401 24.040115l0 72.12033" fill-rule="evenodd"/><path stroke="#000000" stroke-width="1.0" stroke-linejoin="round" stroke-linecap="butt" stroke-dasharray="1.0,3.0" d="m136.85223 201.69867l24.0401 -24.040115l72.58238 0l0 72.12033l-24.0401 24.040115l-72.58238 0zm0 0l72.58238 0l24.0401 -24.040115m-24.0401 24.040115l0 72.12033" fill-rule="evenodd"/><path fill="#9b9b9b" fill-opacity="0.4438" d="m112.47981 225.687l72.58238 0l0 72.120316l-72.58238 0z" fill-rule="evenodd"/><path fill="#7b7b7b" fill-opacity="0.4438" d="m185.0622 225.687l24.0401 -24.040115l0 72.12033l-24.0401 24.0401z" fill-rule="evenodd"/><path fill="#afafaf" fill-opacity="0.4438" d="m112.47981 225.687l24.0401 -24.040115l72.58238 0l-24.0401 24.040115z" fill-rule="evenodd"/><path fill="#000000" fill-opacity="0.0" d="m112.47981 225.687l24.0401 -24.040115l72.58238 0l0 72.12033l-24.0401 24.0401l-72.58238 0zm0 0l72.58238 0l24.0401 -24.040115m-24.0401 24.040115l0 72.120316" fill-rule="evenodd"/><path stroke="#000000" stroke-width="1.0" stroke-linejoin="round" stroke-linecap="butt" stroke-dasharray="1.0,3.0" d="m112.47981 225.687l24.0401 -24.040115l72.58238 0l0 72.12033l-24.0401 24.0401l-72.58238 0zm0 0l72.58238 0l24.0401 -24.040115m-24.0401 24.040115l0 72.120316" fill-rule="evenodd"/><path fill="#9b9b9b" fill-opacity="0.4438" d="m256.38733 154.18806l72.5824 0l0 72.120316l-72.5824 0z" fill-rule="evenodd"/><path fill="#7b7b7b" fill-opacity="0.4438" d="m328.96973 154.18806l24.0401 -24.040115l0 72.12033l-24.0401 24.0401z" fill-rule="evenodd"/><path fill="#afafaf" fill-opacity="0.4438" d="m256.38733 154.18806l24.04013 -24.040115l72.58237 0l-24.0401 24.040115z" fill-rule="evenodd"/><path fill="#000000" fill-opacity="0.0" d="m256.38733 154.18806l24.04013 -24.040115l72.58237 0l0 72.12033l-24.0401 24.0401l-72.5824 0zm0 0l72.5824 0l24.0401 -24.040115m-24.0401 24.040115l0 72.120316" fill-rule="evenodd"/><path stroke="#000000" stroke-width="1.0" stroke-linejoin="round" stroke-linecap="butt" stroke-dasharray="1.0,3.0" d="m256.38733 154.18806l24.04013 -24.040115l72.58237 0l0 72.12033l-24.0401 24.0401l-72.5824 0zm0 0l72.5824 0l24.0401 -24.040115m-24.0401 24.040115l0 72.120316" fill-rule="evenodd"/><path fill="#9b9b9b" fill-opacity="0.4438" d="m232.28809 178.17207l72.58237 0l0 72.120316l-72.58237 0z" fill-rule="evenodd"/><path fill="#7b7b7b" fill-opacity="0.4438" d="m304.87045 178.17207l24.04013 -24.040115l0 72.12033l-24.04013 24.0401z" fill-rule="evenodd"/><path fill="#afafaf" fill-opacity="0.4438" d="m232.28809 178.17207l24.0401 -24.040115l72.5824 0l-24.04013 24.040115z" fill-rule="evenodd"/><path fill="#000000" fill-opacity="0.0" d="m232.28809 178.17207l24.0401 -24.040115l72.5824 0l0 72.12033l-24.04013 24.0401l-72.58237 0zm0 0l72.58237 0l24.04013 -24.040115m-24.04013 24.040115l0 72.120316" fill-rule="evenodd"/><path stroke="#000000" stroke-width="1.0" stroke-linejoin="round" stroke-linecap="butt" stroke-dasharray="1.0,3.0" d="m232.28809 178.17207l24.0401 -24.040115l72.5824 0l0 72.12033l-24.04013 24.0401l-72.58237 0zm0 0l72.58237 0l24.04013 -24.040115m-24.04013 24.040115l0 72.120316" fill-rule="evenodd"/><path fill="#9b9b9b" fill-opacity="0.4438" d="m208.85223 201.69867l72.58237 0l0 72.12033l-72.58237 0z" fill-rule="evenodd"/><path fill="#7b7b7b" fill-opacity="0.4438" d="m281.4346 201.69867l24.04013 -24.040115l0 72.12033l-24.04013 24.040115z" fill-rule="evenodd"/><path fill="#afafaf" fill-opacity="0.4438" d="m208.85223 201.69867l24.0401 -24.040115l72.5824 0l-24.04013 24.040115z" fill-rule="evenodd"/><path fill="#000000" fill-opacity="0.0" d="m208.85223 201.69867l24.0401 -24.040115l72.5824 0l0 72.12033l-24.04013 24.040115l-72.58237 0zm0 0l72.58237 0l24.04013 -24.040115m-24.04013 24.040115l0 72.12033" fill-rule="evenodd"/><path stroke="#000000" stroke-width="1.0" stroke-linejoin="round" stroke-linecap="butt" stroke-dasharray="1.0,3.0" d="m208.85223 201.69867l24.0401 -24.040115l72.5824 0l0 72.12033l-24.04013 24.040115l-72.58237 0zm0 0l72.58237 0l24.04013 -24.040115m-24.04013 24.040115l0 72.12033" fill-rule="evenodd"/><path fill="#9b9b9b" fill-opacity="0.4438" d="m184.47981 225.687l72.58238 0l0 72.120316l-72.58238 0z" fill-rule="evenodd"/><path fill="#7b7b7b" fill-opacity="0.4438" d="m257.0622 225.687l24.0401 -24.040115l0 72.12033l-24.0401 24.0401z" fill-rule="evenodd"/><path fill="#afafaf" fill-opacity="0.4438" d="m184.47981 225.687l24.0401 -24.040115l72.58238 0l-24.0401 24.040115z" fill-rule="evenodd"/><path fill="#000000" fill-opacity="0.0" d="m184.47981 225.687l24.0401 -24.040115l72.58238 0l0 72.12033l-24.0401 24.0401l-72.58238 0zm0 0l72.58238 0l24.0401 -24.040115m-24.0401 24.040115l0 72.120316" fill-rule="evenodd"/><path stroke="#000000" stroke-width="1.0" stroke-linejoin="round" stroke-linecap="butt" stroke-dasharray="1.0,3.0" d="m184.47981 225.687l24.0401 -24.040115l72.58238 0l0 72.12033l-24.0401 24.0401l-72.58238 0zm0 0l72.58238 0l24.0401 -24.040115m-24.0401 24.040115l0 72.120316" fill-rule="evenodd"/><path fill="#9b9b9b" fill-opacity="0.4438" d="m328.38733 154.18806l72.5824 0l0 72.120316l-72.5824 0z" fill-rule="evenodd"/><path fill="#7b7b7b" fill-opacity="0.4438" d="m400.96973 154.18806l24.0401 -24.040115l0 72.12033l-24.0401 24.0401z" fill-rule="evenodd"/><path fill="#afafaf" fill-opacity="0.4438" d="m328.38733 154.18806l24.04013 -24.040115l72.58237 0l-24.0401 24.040115z" fill-rule="evenodd"/><path fill="#000000" fill-opacity="0.0" d="m328.38733 154.18806l24.04013 -24.040115l72.58237 0l0 72.12033l-24.0401 24.0401l-72.5824 0zm0 0l72.5824 0l24.0401 -24.040115m-24.0401 24.040115l0 72.120316" fill-rule="evenodd"/><path stroke="#000000" stroke-width="1.0" stroke-linejoin="round" stroke-linecap="butt" stroke-dasharray="1.0,3.0" d="m328.38733 154.18806l24.04013 -24.040115l72.58237 0l0 72.12033l-24.0401 24.0401l-72.5824 0zm0 0l72.5824 0l24.0401 -24.040115m-24.0401 24.040115l0 72.120316" fill-rule="evenodd"/><path fill="#9b9b9b" fill-opacity="0.4438" d="m304.2881 178.17207l72.58237 0l0 72.120316l-72.58237 0z" fill-rule="evenodd"/><path fill="#7b7b7b" fill-opacity="0.4438" d="m376.87045 178.17207l24.04013 -24.040115l0 72.12033l-24.04013 24.0401z" fill-rule="evenodd"/><path fill="#afafaf" fill-opacity="0.4438" d="m304.2881 178.17207l24.0401 -24.040115l72.5824 0l-24.04013 24.040115z" fill-rule="evenodd"/><path fill="#000000" fill-opacity="0.0" d="m304.2881 178.17207l24.0401 -24.040115l72.5824 0l0 72.12033l-24.04013 24.0401l-72.58237 0zm0 0l72.58237 0l24.04013 -24.040115m-24.04013 24.040115l0 72.120316" fill-rule="evenodd"/><path stroke="#000000" stroke-width="1.0" stroke-linejoin="round" stroke-linecap="butt" stroke-dasharray="1.0,3.0" d="m304.2881 178.17207l24.0401 -24.040115l72.5824 0l0 72.12033l-24.04013 24.0401l-72.58237 0zm0 0l72.58237 0l24.04013 -24.040115m-24.04013 24.040115l0 72.120316" fill-rule="evenodd"/><path fill="#9b9b9b" fill-opacity="0.4438" d="m280.85223 201.69867l72.58237 0l0 72.12033l-72.58237 0z" fill-rule="evenodd"/><path fill="#7b7b7b" fill-opacity="0.4438" d="m353.4346 201.69867l24.04013 -24.040115l0 72.12033l-24.04013 24.040115z" fill-rule="evenodd"/><path fill="#afafaf" fill-opacity="0.4438" d="m280.85223 201.69867l24.0401 -24.040115l72.5824 0l-24.04013 24.040115z" fill-rule="evenodd"/><path fill="#000000" fill-opacity="0.0" d="m280.85223 201.69867l24.0401 -24.040115l72.5824 0l0 72.12033l-24.04013 24.040115l-72.58237 0zm0 0l72.58237 0l24.04013 -24.040115m-24.04013 24.040115l0 72.12033" fill-rule="evenodd"/><path stroke="#000000" stroke-width="1.0" stroke-linejoin="round" stroke-linecap="butt" stroke-dasharray="1.0,3.0" d="m280.85223 201.69867l24.0401 -24.040115l72.5824 0l0 72.12033l-24.04013 24.040115l-72.58237 0zm0 0l72.58237 0l24.04013 -24.040115m-24.04013 24.040115l0 72.12033" fill-rule="evenodd"/><path fill="#9b9b9b" fill-opacity="0.4438" d="m256.4798 225.687l72.5824 0l0 72.120316l-72.5824 0z" fill-rule="evenodd"/><path fill="#7b7b7b" fill-opacity="0.4438" d="m329.0622 225.687l24.0401 -24.040115l0 72.12033l-24.0401 24.0401z" fill-rule="evenodd"/><path fill="#afafaf" fill-opacity="0.4438" d="m256.4798 225.687l24.04013 -24.040115l72.58237 0l-24.0401 24.040115z" fill-rule="evenodd"/><path fill="#000000" fill-opacity="0.0" d="m256.4798 225.687l24.04013 -24.040115l72.58237 0l0 72.12033l-24.0401 24.0401l-72.5824 0zm0 0l72.5824 0l24.0401 -24.040115m-24.0401 24.040115l0 72.120316" fill-rule="evenodd"/><path stroke="#000000" stroke-width="1.0" stroke-linejoin="round" stroke-linecap="butt" stroke-dasharray="1.0,3.0" d="m256.4798 225.687l24.04013 -24.040115l72.58237 0l0 72.12033l-24.0401 24.0401l-72.5824 0zm0 0l72.5824 0l24.0401 -24.040115m-24.0401 24.040115l0 72.120316" fill-rule="evenodd"/><path fill="#9b9b9b" fill-opacity="0.4438" d="m400.38733 154.18806l72.5824 0l0 72.120316l-72.5824 0z" fill-rule="evenodd"/><path fill="#7b7b7b" fill-opacity="0.4438" d="m472.96973 154.18806l24.0401 -24.040115l0 72.12033l-24.0401 24.0401z" fill-rule="evenodd"/><path fill="#afafaf" fill-opacity="0.4438" d="m400.38733 154.18806l24.04013 -24.040115l72.58237 0l-24.0401 24.040115z" fill-rule="evenodd"/><path fill="#000000" fill-opacity="0.0" d="m400.38733 154.18806l24.04013 -24.040115l72.58237 0l0 72.12033l-24.0401 24.0401l-72.5824 0zm0 0l72.5824 0l24.0401 -24.040115m-24.0401 24.040115l0 72.120316" fill-rule="evenodd"/><path stroke="#000000" stroke-width="1.0" stroke-linejoin="round" stroke-linecap="butt" stroke-dasharray="1.0,3.0" d="m400.38733 154.18806l24.04013 -24.040115l72.58237 0l0 72.12033l-24.0401 24.0401l-72.5824 0zm0 0l72.5824 0l24.0401 -24.040115m-24.0401 24.040115l0 72.120316" fill-rule="evenodd"/><path fill="#9b9b9b" fill-opacity="0.4438" d="m376.2881 178.17207l72.58237 0l0 72.120316l-72.58237 0z" fill-rule="evenodd"/><path fill="#7b7b7b" fill-opacity="0.4438" d="m448.87045 178.17207l24.04013 -24.040115l0 72.12033l-24.04013 24.0401z" fill-rule="evenodd"/><path fill="#afafaf" fill-opacity="0.4438" d="m376.2881 178.17207l24.0401 -24.040115l72.5824 0l-24.04013 24.040115z" fill-rule="evenodd"/><path fill="#000000" fill-opacity="0.0" d="m376.2881 178.17207l24.0401 -24.040115l72.5824 0l0 72.12033l-24.04013 24.0401l-72.58237 0zm0 0l72.58237 0l24.04013 -24.040115m-24.04013 24.040115l0 72.120316" fill-rule="evenodd"/><path stroke="#000000" stroke-width="1.0" stroke-linejoin="round" stroke-linecap="butt" stroke-dasharray="1.0,3.0" d="m376.2881 178.17207l24.0401 -24.040115l72.5824 0l0 72.12033l-24.04013 24.0401l-72.58237 0zm0 0l72.58237 0l24.04013 -24.040115m-24.04013 24.040115l0 72.120316" fill-rule="evenodd"/><path fill="#9b9b9b" fill-opacity="0.4438" d="m352.85223 201.69867l72.58237 0l0 72.12033l-72.58237 0z" fill-rule="evenodd"/><path fill="#7b7b7b" fill-opacity="0.4438" d="m425.4346 201.69867l24.04013 -24.040115l0 72.12033l-24.04013 24.040115z" fill-rule="evenodd"/><path fill="#afafaf" fill-opacity="0.4438" d="m352.85223 201.69867l24.0401 -24.040115l72.5824 0l-24.04013 24.040115z" fill-rule="evenodd"/><path fill="#000000" fill-opacity="0.0" d="m352.85223 201.69867l24.0401 -24.040115l72.5824 0l0 72.12033l-24.04013 24.040115l-72.58237 0zm0 0l72.58237 0l24.04013 -24.040115m-24.04013 24.040115l0 72.12033" fill-rule="evenodd"/><path stroke="#000000" stroke-width="1.0" stroke-linejoin="round" stroke-linecap="butt" stroke-dasharray="1.0,3.0" d="m352.85223 201.69867l24.0401 -24.040115l72.5824 0l0 72.12033l-24.04013 24.040115l-72.58237 0zm0 0l72.58237 0l24.04013 -24.040115m-24.04013 24.040115l0 72.12033" fill-rule="evenodd"/><path fill="#9b9b9b" fill-opacity="0.4438" d="m328.4798 225.687l72.5824 0l0 72.120316l-72.5824 0z" fill-rule="evenodd"/><path fill="#7b7b7b" fill-opacity="0.4438" d="m401.0622 225.687l24.0401 -24.040115l0 72.12033l-24.0401 24.0401z" fill-rule="evenodd"/><path fill="#afafaf" fill-opacity="0.4438" d="m328.4798 225.687l24.04013 -24.040115l72.58237 0l-24.0401 24.040115z" fill-rule="evenodd"/><path fill="#000000" fill-opacity="0.0" d="m328.4798 225.687l24.04013 -24.040115l72.58237 0l0 72.12033l-24.0401 24.0401l-72.5824 0zm0 0l72.5824 0l24.0401 -24.040115m-24.0401 24.040115l0 72.120316" fill-rule="evenodd"/><path stroke="#000000" stroke-width="1.0" stroke-linejoin="round" stroke-linecap="butt" stroke-dasharray="1.0,3.0" d="m328.4798 225.687l24.04013 -24.040115l72.58237 0l0 72.12033l-24.0401 24.0401l-72.5824 0zm0 0l72.5824 0l24.0401 -24.040115m-24.0401 24.040115l0 72.120316" fill-rule="evenodd"/><path fill="#9b9b9b" fill-opacity="0.4438" d="m184.38734 82.18806l72.58238 0l0 72.12032l-72.58238 0z" fill-rule="evenodd"/><path fill="#7b7b7b" fill-opacity="0.4438" d="m256.96973 82.18806l24.0401 -24.040108l0 72.12033l-24.0401 24.0401z" fill-rule="evenodd"/><path fill="#afafaf" fill-opacity="0.4438" d="m184.38734 82.18806l24.0401 -24.040108l72.58238 0l-24.0401 24.040108z" fill-rule="evenodd"/><path fill="#000000" fill-opacity="0.0" d="m184.38734 82.18806l24.0401 -24.040108l72.58238 0l0 72.12033l-24.0401 24.0401l-72.58238 0zm0 0l72.58238 0l24.0401 -24.040108m-24.0401 24.040108l0 72.12032" fill-rule="evenodd"/><path stroke="#000000" stroke-width="1.0" stroke-linejoin="round" stroke-linecap="butt" stroke-dasharray="1.0,3.0" d="m184.38734 82.18806l24.0401 -24.040108l72.58238 0l0 72.12033l-24.0401 24.0401l-72.58238 0zm0 0l72.58238 0l24.0401 -24.040108m-24.0401 24.040108l0 72.12032" fill-rule="evenodd"/><path fill="#9b9b9b" fill-opacity="0.4438" d="m160.28809 106.172066l72.58238 0l0 72.12032l-72.58238 0z" fill-rule="evenodd"/><path fill="#7b7b7b" fill-opacity="0.4438" d="m232.87047 106.172066l24.040115 -24.040108l0 72.12033l-24.040115 24.0401z" fill-rule="evenodd"/><path fill="#afafaf" fill-opacity="0.4438" d="m160.28809 106.172066l24.0401 -24.040108l72.5824 0l-24.040115 24.040108z" fill-rule="evenodd"/><path fill="#000000" fill-opacity="0.0" d="m160.28809 106.172066l24.0401 -24.040108l72.5824 0l0 72.12033l-24.040115 24.0401l-72.58238 0zm0 0l72.58238 0l24.040115 -24.040108m-24.040115 24.040108l0 72.12032" fill-rule="evenodd"/><path stroke="#000000" stroke-width="1.0" stroke-linejoin="round" stroke-linecap="butt" stroke-dasharray="1.0,3.0" d="m160.28809 106.172066l24.0401 -24.040108l72.5824 0l0 72.12033l-24.040115 24.0401l-72.58238 0zm0 0l72.58238 0l24.040115 -24.040108m-24.040115 24.040108l0 72.12032" fill-rule="evenodd"/><path fill="#9b9b9b" fill-opacity="0.4438" d="m136.85223 129.69867l72.58238 0l0 72.120316l-72.58238 0z" fill-rule="evenodd"/><path fill="#7b7b7b" fill-opacity="0.4438" d="m209.43462 129.69867l24.0401 -24.040115l0 72.12033l-24.0401 24.0401z" fill-rule="evenodd"/><path fill="#afafaf" fill-opacity="0.4438" d="m136.85223 129.69867l24.0401 -24.040115l72.58238 0l-24.0401 24.040115z" fill-rule="evenodd"/><path fill="#000000" fill-opacity="0.0" d="m136.85223 129.69867l24.0401 -24.040115l72.58238 0l0 72.12033l-24.0401 24.0401l-72.58238 0zm0 0l72.58238 0l24.0401 -24.040115m-24.0401 24.040115l0 72.120316" fill-rule="evenodd"/><path stroke="#000000" stroke-width="1.0" stroke-linejoin="round" stroke-linecap="butt" stroke-dasharray="1.0,3.0" d="m136.85223 129.69867l24.0401 -24.040115l72.58238 0l0 72.12033l-24.0401 24.0401l-72.58238 0zm0 0l72.58238 0l24.0401 -24.040115m-24.0401 24.040115l0 72.120316" fill-rule="evenodd"/><path fill="#9b9b9b" fill-opacity="0.4438" d="m112.47981 153.687l72.58238 0l0 72.120316l-72.58238 0z" fill-rule="evenodd"/><path fill="#7b7b7b" fill-opacity="0.4438" d="m185.0622 153.687l24.0401 -24.040115l0 72.12033l-24.0401 24.0401z" fill-rule="evenodd"/><path fill="#afafaf" fill-opacity="0.4438" d="m112.47981 153.687l24.0401 -24.040115l72.58238 0l-24.0401 24.040115z" fill-rule="evenodd"/><path fill="#000000" fill-opacity="0.0" d="m112.47981 153.687l24.0401 -24.040115l72.58238 0l0 72.12033l-24.0401 24.0401l-72.58238 0zm0 0l72.58238 0l24.0401 -24.040115m-24.0401 24.040115l0 72.120316" fill-rule="evenodd"/><path stroke="#000000" stroke-width="1.0" stroke-linejoin="round" stroke-linecap="butt" stroke-dasharray="1.0,3.0" d="m112.47981 153.687l24.0401 -24.040115l72.58238 0l0 72.12033l-24.0401 24.0401l-72.58238 0zm0 0l72.58238 0l24.0401 -24.040115m-24.0401 24.040115l0 72.120316" fill-rule="evenodd"/><path fill="#9b9b9b" fill-opacity="0.4438" d="m256.38733 82.18806l72.5824 0l0 72.12032l-72.5824 0z" fill-rule="evenodd"/><path fill="#7b7b7b" fill-opacity="0.4438" d="m328.96973 82.18806l24.0401 -24.040108l0 72.12033l-24.0401 24.0401z" fill-rule="evenodd"/><path fill="#afafaf" fill-opacity="0.4438" d="m256.38733 82.18806l24.04013 -24.040108l72.58237 0l-24.0401 24.040108z" fill-rule="evenodd"/><path fill="#000000" fill-opacity="0.0" d="m256.38733 82.18806l24.04013 -24.040108l72.58237 0l0 72.12033l-24.0401 24.0401l-72.5824 0zm0 0l72.5824 0l24.0401 -24.040108m-24.0401 24.040108l0 72.12032" fill-rule="evenodd"/><path stroke="#000000" stroke-width="1.0" stroke-linejoin="round" stroke-linecap="butt" stroke-dasharray="1.0,3.0" d="m256.38733 82.18806l24.04013 -24.040108l72.58237 0l0 72.12033l-24.0401 24.0401l-72.5824 0zm0 0l72.5824 0l24.0401 -24.040108m-24.0401 24.040108l0 72.12032" fill-rule="evenodd"/><path fill="#9b9b9b" fill-opacity="0.4438" d="m232.28809 106.172066l72.58237 0l0 72.12032l-72.58237 0z" fill-rule="evenodd"/><path fill="#7b7b7b" fill-opacity="0.4438" d="m304.87045 106.172066l24.04013 -24.040108l0 72.12033l-24.04013 24.0401z" fill-rule="evenodd"/><path fill="#afafaf" fill-opacity="0.4438" d="m232.28809 106.172066l24.0401 -24.040108l72.5824 0l-24.04013 24.040108z" fill-rule="evenodd"/><path fill="#000000" fill-opacity="0.0" d="m232.28809 106.172066l24.0401 -24.040108l72.5824 0l0 72.12033l-24.04013 24.0401l-72.58237 0zm0 0l72.58237 0l24.04013 -24.040108m-24.04013 24.040108l0 72.12032" fill-rule="evenodd"/><path stroke="#000000" stroke-width="1.0" stroke-linejoin="round" stroke-linecap="butt" stroke-dasharray="1.0,3.0" d="m232.28809 106.172066l24.0401 -24.040108l72.5824 0l0 72.12033l-24.04013 24.0401l-72.58237 0zm0 0l72.58237 0l24.04013 -24.040108m-24.04013 24.040108l0 72.12032" fill-rule="evenodd"/><path fill="#9b9b9b" fill-opacity="0.4438" d="m208.85223 129.69867l72.58237 0l0 72.120316l-72.58237 0z" fill-rule="evenodd"/><path fill="#7b7b7b" fill-opacity="0.4438" d="m281.4346 129.69867l24.04013 -24.040115l0 72.12033l-24.04013 24.0401z" fill-rule="evenodd"/><path fill="#afafaf" fill-opacity="0.4438" d="m208.85223 129.69867l24.0401 -24.040115l72.5824 0l-24.04013 24.040115z" fill-rule="evenodd"/><path fill="#000000" fill-opacity="0.0" d="m208.85223 129.69867l24.0401 -24.040115l72.5824 0l0 72.12033l-24.04013 24.0401l-72.58237 0zm0 0l72.58237 0l24.04013 -24.040115m-24.04013 24.040115l0 72.120316" fill-rule="evenodd"/><path stroke="#000000" stroke-width="1.0" stroke-linejoin="round" stroke-linecap="butt" stroke-dasharray="1.0,3.0" d="m208.85223 129.69867l24.0401 -24.040115l72.5824 0l0 72.12033l-24.04013 24.0401l-72.58237 0zm0 0l72.58237 0l24.04013 -24.040115m-24.04013 24.040115l0 72.120316" fill-rule="evenodd"/><path fill="#9b9b9b" fill-opacity="0.4438" d="m184.47981 153.687l72.58238 0l0 72.120316l-72.58238 0z" fill-rule="evenodd"/><path fill="#7b7b7b" fill-opacity="0.4438" d="m257.0622 153.687l24.0401 -24.040115l0 72.12033l-24.0401 24.0401z" fill-rule="evenodd"/><path fill="#afafaf" fill-opacity="0.4438" d="m184.47981 153.687l24.0401 -24.040115l72.58238 0l-24.0401 24.040115z" fill-rule="evenodd"/><path fill="#000000" fill-opacity="0.0" d="m184.47981 153.687l24.0401 -24.040115l72.58238 0l0 72.12033l-24.0401 24.0401l-72.58238 0zm0 0l72.58238 0l24.0401 -24.040115m-24.0401 24.040115l0 72.120316" fill-rule="evenodd"/><path stroke="#000000" stroke-width="1.0" stroke-linejoin="round" stroke-linecap="butt" stroke-dasharray="1.0,3.0" d="m184.47981 153.687l24.0401 -24.040115l72.58238 0l0 72.12033l-24.0401 24.0401l-72.58238 0zm0 0l72.58238 0l24.0401 -24.040115m-24.0401 24.040115l0 72.120316" fill-rule="evenodd"/><path fill="#9b9b9b" fill-opacity="0.4438" d="m328.38733 82.18806l72.5824 0l0 72.12032l-72.5824 0z" fill-rule="evenodd"/><path fill="#7b7b7b" fill-opacity="0.4438" d="m400.96973 82.18806l24.0401 -24.040108l0 72.12033l-24.0401 24.0401z" fill-rule="evenodd"/><path fill="#afafaf" fill-opacity="0.4438" d="m328.38733 82.18806l24.04013 -24.040108l72.58237 0l-24.0401 24.040108z" fill-rule="evenodd"/><path fill="#000000" fill-opacity="0.0" d="m328.38733 82.18806l24.04013 -24.040108l72.58237 0l0 72.12033l-24.0401 24.0401l-72.5824 0zm0 0l72.5824 0l24.0401 -24.040108m-24.0401 24.040108l0 72.12032" fill-rule="evenodd"/><path stroke="#000000" stroke-width="1.0" stroke-linejoin="round" stroke-linecap="butt" stroke-dasharray="1.0,3.0" d="m328.38733 82.18806l24.04013 -24.040108l72.58237 0l0 72.12033l-24.0401 24.0401l-72.5824 0zm0 0l72.5824 0l24.0401 -24.040108m-24.0401 24.040108l0 72.12032" fill-rule="evenodd"/><path fill="#9b9b9b" fill-opacity="0.4438" d="m304.2881 106.172066l72.58237 0l0 72.12032l-72.58237 0z" fill-rule="evenodd"/><path fill="#7b7b7b" fill-opacity="0.4438" d="m376.87045 106.172066l24.04013 -24.040108l0 72.12033l-24.04013 24.0401z" fill-rule="evenodd"/><path fill="#afafaf" fill-opacity="0.4438" d="m304.2881 106.172066l24.0401 -24.040108l72.5824 0l-24.04013 24.040108z" fill-rule="evenodd"/><path fill="#000000" fill-opacity="0.0" d="m304.2881 106.172066l24.0401 -24.040108l72.5824 0l0 72.12033l-24.04013 24.0401l-72.58237 0zm0 0l72.58237 0l24.04013 -24.040108m-24.04013 24.040108l0 72.12032" fill-rule="evenodd"/><path stroke="#000000" stroke-width="1.0" stroke-linejoin="round" stroke-linecap="butt" stroke-dasharray="1.0,3.0" d="m304.2881 106.172066l24.0401 -24.040108l72.5824 0l0 72.12033l-24.04013 24.0401l-72.58237 0zm0 0l72.58237 0l24.04013 -24.040108m-24.04013 24.040108l0 72.12032" fill-rule="evenodd"/><path fill="#9b9b9b" fill-opacity="0.4438" d="m280.85223 129.69867l72.58237 0l0 72.120316l-72.58237 0z" fill-rule="evenodd"/><path fill="#7b7b7b" fill-opacity="0.4438" d="m353.4346 129.69867l24.04013 -24.040115l0 72.12033l-24.04013 24.0401z" fill-rule="evenodd"/><path fill="#afafaf" fill-opacity="0.4438" d="m280.85223 129.69867l24.0401 -24.040115l72.5824 0l-24.04013 24.040115z" fill-rule="evenodd"/><path fill="#000000" fill-opacity="0.0" d="m280.85223 129.69867l24.0401 -24.040115l72.5824 0l0 72.12033l-24.04013 24.0401l-72.58237 0zm0 0l72.58237 0l24.04013 -24.040115m-24.04013 24.040115l0 72.120316" fill-rule="evenodd"/><path stroke="#000000" stroke-width="1.0" stroke-linejoin="round" stroke-linecap="butt" stroke-dasharray="1.0,3.0" d="m280.85223 129.69867l24.0401 -24.040115l72.5824 0l0 72.12033l-24.04013 24.0401l-72.58237 0zm0 0l72.58237 0l24.04013 -24.040115m-24.04013 24.040115l0 72.120316" fill-rule="evenodd"/><path fill="#9b9b9b" fill-opacity="0.4438" d="m256.4798 153.687l72.5824 0l0 72.120316l-72.5824 0z" fill-rule="evenodd"/><path fill="#7b7b7b" fill-opacity="0.4438" d="m329.0622 153.687l24.0401 -24.040115l0 72.12033l-24.0401 24.0401z" fill-rule="evenodd"/><path fill="#afafaf" fill-opacity="0.4438" d="m256.4798 153.687l24.04013 -24.040115l72.58237 0l-24.0401 24.040115z" fill-rule="evenodd"/><path fill="#000000" fill-opacity="0.0" d="m256.4798 153.687l24.04013 -24.040115l72.58237 0l0 72.12033l-24.0401 24.0401l-72.5824 0zm0 0l72.5824 0l24.0401 -24.040115m-24.0401 24.040115l0 72.120316" fill-rule="evenodd"/><path stroke="#000000" stroke-width="1.0" stroke-linejoin="round" stroke-linecap="butt" stroke-dasharray="1.0,3.0" d="m256.4798 153.687l24.04013 -24.040115l72.58237 0l0 72.12033l-24.0401 24.0401l-72.5824 0zm0 0l72.5824 0l24.0401 -24.040115m-24.0401 24.040115l0 72.120316" fill-rule="evenodd"/><path fill="#9b9b9b" fill-opacity="0.4438" d="m400.38733 82.18806l72.5824 0l0 72.12032l-72.5824 0z" fill-rule="evenodd"/><path fill="#7b7b7b" fill-opacity="0.4438" d="m472.96973 82.18806l24.0401 -24.040108l0 72.12033l-24.0401 24.0401z" fill-rule="evenodd"/><path fill="#afafaf" fill-opacity="0.4438" d="m400.38733 82.18806l24.04013 -24.040108l72.58237 0l-24.0401 24.040108z" fill-rule="evenodd"/><path fill="#000000" fill-opacity="0.0" d="m400.38733 82.18806l24.04013 -24.040108l72.58237 0l0 72.12033l-24.0401 24.0401l-72.5824 0zm0 0l72.5824 0l24.0401 -24.040108m-24.0401 24.040108l0 72.12032" fill-rule="evenodd"/><path stroke="#000000" stroke-width="1.0" stroke-linejoin="round" stroke-linecap="butt" stroke-dasharray="1.0,3.0" d="m400.38733 82.18806l24.04013 -24.040108l72.58237 0l0 72.12033l-24.0401 24.0401l-72.5824 0zm0 0l72.5824 0l24.0401 -24.040108m-24.0401 24.040108l0 72.12032" fill-rule="evenodd"/><path fill="#9b9b9b" fill-opacity="0.4438" d="m376.2881 106.172066l72.58237 0l0 72.12032l-72.58237 0z" fill-rule="evenodd"/><path fill="#7b7b7b" fill-opacity="0.4438" d="m448.87045 106.172066l24.04013 -24.040108l0 72.12033l-24.04013 24.0401z" fill-rule="evenodd"/><path fill="#afafaf" fill-opacity="0.4438" d="m376.2881 106.172066l24.0401 -24.040108l72.5824 0l-24.04013 24.040108z" fill-rule="evenodd"/><path fill="#000000" fill-opacity="0.0" d="m376.2881 106.172066l24.0401 -24.040108l72.5824 0l0 72.12033l-24.04013 24.0401l-72.58237 0zm0 0l72.58237 0l24.04013 -24.040108m-24.04013 24.040108l0 72.12032" fill-rule="evenodd"/><path stroke="#000000" stroke-width="1.0" stroke-linejoin="round" stroke-linecap="butt" stroke-dasharray="1.0,3.0" d="m376.2881 106.172066l24.0401 -24.040108l72.5824 0l0 72.12033l-24.04013 24.0401l-72.58237 0zm0 0l72.58237 0l24.04013 -24.040108m-24.04013 24.040108l0 72.12032" fill-rule="evenodd"/><path fill="#9b9b9b" fill-opacity="0.4438" d="m352.85223 129.69867l72.58237 0l0 72.120316l-72.58237 0z" fill-rule="evenodd"/><path fill="#7b7b7b" fill-opacity="0.4438" d="m425.4346 129.69867l24.04013 -24.040115l0 72.12033l-24.04013 24.0401z" fill-rule="evenodd"/><path fill="#afafaf" fill-opacity="0.4438" d="m352.85223 129.69867l24.0401 -24.040115l72.5824 0l-24.04013 24.040115z" fill-rule="evenodd"/><path fill="#000000" fill-opacity="0.0" d="m352.85223 129.69867l24.0401 -24.040115l72.5824 0l0 72.12033l-24.04013 24.0401l-72.58237 0zm0 0l72.58237 0l24.04013 -24.040115m-24.04013 24.040115l0 72.120316" fill-rule="evenodd"/><path stroke="#000000" stroke-width="1.0" stroke-linejoin="round" stroke-linecap="butt" stroke-dasharray="1.0,3.0" d="m352.85223 129.69867l24.0401 -24.040115l72.5824 0l0 72.12033l-24.04013 24.0401l-72.58237 0zm0 0l72.58237 0l24.04013 -24.040115m-24.04013 24.040115l0 72.120316" fill-rule="evenodd"/><path fill="#9b9b9b" fill-opacity="0.4438" d="m328.4798 153.687l72.5824 0l0 72.120316l-72.5824 0z" fill-rule="evenodd"/><path fill="#7b7b7b" fill-opacity="0.4438" d="m401.0622 153.687l24.0401 -24.040115l0 72.12033l-24.0401 24.0401z" fill-rule="evenodd"/><path fill="#afafaf" fill-opacity="0.4438" d="m328.4798 153.687l24.04013 -24.040115l72.58237 0l-24.0401 24.040115z" fill-rule="evenodd"/><path fill="#000000" fill-opacity="0.0" d="m328.4798 153.687l24.04013 -24.040115l72.58237 0l0 72.12033l-24.0401 24.0401l-72.5824 0zm0 0l72.5824 0l24.0401 -24.040115m-24.0401 24.040115l0 72.120316" fill-rule="evenodd"/><path stroke="#000000" stroke-width="1.0" stroke-linejoin="round" stroke-linecap="butt" stroke-dasharray="1.0,3.0" d="m328.4798 153.687l24.04013 -24.040115l72.58237 0l0 72.12033l-24.0401 24.0401l-72.5824 0zm0 0l72.5824 0l24.0401 -24.040115m-24.0401 24.040115l0 72.120316" fill-rule="evenodd"/><path fill="#000000" fill-opacity="0.0" d="m94.94751 156.19029l0 283.0866" fill-rule="evenodd"/><path stroke="#000000" stroke-width="1.0" stroke-linejoin="round" stroke-linecap="butt" d="m94.94751 159.61737l0 276.23245" fill-rule="evenodd"/><path fill="#000000" stroke="#000000" stroke-width="1.0" stroke-linecap="butt" d="m94.94751 159.61737l1.1245804 1.124588l-1.1245804 -3.0897675l-1.124588 3.0897675z" fill-rule="evenodd"/><path fill="#000000" stroke="#000000" stroke-width="1.0" stroke-linecap="butt" d="m94.94751 435.84982l-1.124588 -1.1246033l1.124588 3.0897827l1.1245804 -3.0897827z" fill-rule="evenodd"/><path fill="#000000" fill-opacity="0.0" d="m310.08136 13.253281l124.0 0l0 26.960629l-124.0 0z" fill-rule="evenodd"/><path fill="#000000" d="m320.1126 35.05328l0 -9.546875l3.28125 0q1.109375 0 1.703125 0.140625q0.8125 0.1875 1.390625 0.6875q0.765625 0.640625 1.140625 1.640625q0.375 0.984375 0.375 2.25q0 1.09375 -0.265625 1.9375q-0.25 0.828125 -0.65625 1.390625q-0.390625 0.546875 -0.859375 0.859375q-0.46875 0.3125 -1.140625 0.484375q-0.65625 0.15625 -1.53125 0.15625l-3.4375 0zm1.265625 -1.125l2.03125 0q0.9375 0 1.46875 -0.171875q0.546875 -0.1875 0.875 -0.5q0.4375 -0.453125 0.6875 -1.203125q0.25 -0.765625 0.25 -1.84375q0 -1.5 -0.5 -2.296875q-0.484375 -0.8125 -1.1875 -1.078125q-0.5 -0.203125 -1.625 -0.203125l-2.0 0l0 7.296875zm14.375153 -4.484375l-6.3125 0l0 -1.09375l6.3125 0l0 1.09375zm0 2.890625l-6.3125 0l0 -1.09375l6.3125 0l0 1.09375z" fill-rule="nonzero"/><path fill="#000000" d="m336.86493 28.381405l0.78125 -0.109375q0.125 0.65625 0.453125 0.953125q0.328125 0.296875 0.78125 0.296875q0.5625 0 0.9375 -0.375q0.375 -0.390625 0.375 -0.953125q0 -0.53125 -0.359375 -0.875q-0.34375 -0.359375 -0.875 -0.359375q-0.234375 0 -0.5625 0.09375l0.09375 -0.6875q0.078125 0 0.125 0q0.5 0 0.890625 -0.25q0.40625 -0.265625 0.40625 -0.8125q0 -0.421875 -0.296875 -0.703125q-0.28125 -0.28125 -0.75 -0.28125q-0.453125 0 -0.765625 0.28125q-0.296875 0.28125 -0.375 0.859375l-0.78125 -0.140625q0.140625 -0.78125 0.640625 -1.203125q0.515625 -0.4375 1.265625 -0.4375q0.515625 0 0.953125 0.21875q0.4375 0.21875 0.671875 0.609375q0.234375 0.390625 0.234375 0.8125q0 0.421875 -0.21875 0.765625q-0.21875 0.328125 -0.65625 0.53125q0.5625 0.125 0.875 0.546875q0.3125 0.40625 0.3125 1.015625q0 0.828125 -0.609375 1.40625q-0.609375 0.578125 -1.53125 0.578125q-0.828125 0 -1.390625 -0.5q-0.546875 -0.5 -0.625 -1.28125z" fill-rule="nonzero"/><path fill="#000000" d="m348.25385 22.89703l0.484375 0l-2.03125 12.65625l-3.21875 -6.640625l-1.296875 0.59375l-0.21875 -0.421875l1.953125 -0.96875l2.640625 5.34375l1.6875 -10.5625zm1.5335999 12.15625l0 -9.546875l4.234375 0q1.265625 0 1.921875 0.265625q0.671875 0.25 1.0625 0.90625q0.40625 0.65625 0.40625 1.4375q0 1.015625 -0.65625 1.71875q-0.65625 0.6875 -2.03125 0.875q0.5 0.25 0.765625 0.484375q0.546875 0.5 1.046875 1.265625l1.65625 2.59375l-1.578125 0l-1.265625 -1.984375q-0.5625 -0.859375 -0.921875 -1.3125q-0.34375 -0.453125 -0.640625 -0.640625q-0.28125 -0.1875 -0.5625 -0.25q-0.21875 -0.046875 -0.703125 -0.046875l-1.46875 0l0 4.234375l-1.265625 0zm1.265625 -5.328125l2.71875 0q0.859375 0 1.34375 -0.171875q0.484375 -0.1875 0.734375 -0.578125q0.265625 -0.390625 0.265625 -0.859375q0 -0.671875 -0.5 -1.109375q-0.484375 -0.4375 -1.546875 -0.4375l-3.015625 0l0 3.15625zm13.8125 5.328125l-2.625 -6.90625l1.234375 0l1.484375 4.140625q0.234375 0.65625 0.4375 1.390625q0.15625 -0.546875 0.4375 -1.3125l1.53125 -4.21875l1.21875 0l-2.625 6.90625l-1.09375 0zm4.3046875 -3.453125q0 -1.921875 1.078125 -2.84375q0.890625 -0.765625 2.171875 -0.765625q1.421875 0 2.328125 0.9375q0.90625 0.921875 0.90625 2.578125q0 1.328125 -0.40625 2.09375q-0.390625 0.765625 -1.15625 1.1875q-0.765625 0.421875 -1.671875 0.421875q-1.453125 0 -2.359375 -0.921875q-0.890625 -0.9375 -0.890625 -2.6875zm1.203125 0q0 1.328125 0.578125 1.984375q0.59375 0.65625 1.46875 0.65625q0.875 0 1.453125 -0.65625q0.578125 -0.671875 0.578125 -2.03125q0 -1.28125 -0.59375 -1.9375q-0.578125 -0.65625 -1.4375 -0.65625q-0.875 0 -1.46875 0.65625q-0.578125 0.65625 -0.578125 1.984375zm5.8656006 3.453125l2.53125 -3.59375l-2.34375 -3.3125l1.46875 0l1.0625 1.609375q0.296875 0.46875 0.484375 0.78125q0.28125 -0.4375 0.515625 -0.765625l1.171875 -1.625l1.40625 0l-2.390625 3.25l2.5625 3.65625l-1.4375 0l-1.421875 -2.140625l-0.375 -0.59375l-1.8125 2.734375l-1.421875 0zm12.1796875 -2.21875l1.203125 0.140625q-0.28125 1.0625 -1.0625 1.65625q-0.765625 0.578125 -1.96875 0.578125q-1.515625 0 -2.40625 -0.9375q-0.890625 -0.9375 -0.890625 -2.609375q0 -1.75 0.890625 -2.703125q0.90625 -0.96875 2.34375 -0.96875q1.390625 0 2.265625 0.9375q0.875 0.9375 0.875 2.65625q0 0.109375 0 0.3125l-5.15625 0q0.0625 1.140625 0.640625 1.75q0.578125 0.59375 1.4375 0.59375q0.65625 0 1.109375 -0.328125q0.453125 -0.34375 0.71875 -1.078125zm-3.84375 -1.90625l3.859375 0q-0.078125 -0.859375 -0.4375 -1.296875q-0.5625 -0.6875 -1.453125 -0.6875q-0.8125 0 -1.359375 0.546875q-0.546875 0.53125 -0.609375 1.4375zm6.5062256 4.125l0 -9.546875l1.171875 0l0 9.546875l-1.171875 0zm2.507965 -2.0625l1.15625 -0.1875q0.109375 0.703125 0.546875 1.078125q0.453125 0.359375 1.25 0.359375q0.8125 0 1.203125 -0.328125q0.390625 -0.328125 0.390625 -0.765625q0 -0.390625 -0.359375 -0.625q-0.234375 -0.15625 -1.1875 -0.390625q-1.296875 -0.328125 -1.796875 -0.5625q-0.484375 -0.25 -0.75 -0.65625q-0.25 -0.421875 -0.25 -0.9375q0 -0.453125 0.203125 -0.84375q0.21875 -0.40625 0.578125 -0.671875q0.28125 -0.1875 0.75 -0.328125q0.46875 -0.140625 1.015625 -0.140625q0.8125 0 1.421875 0.234375q0.609375 0.234375 0.90625 0.640625q0.296875 0.390625 0.40625 1.0625l-1.140625 0.15625q-0.078125 -0.53125 -0.453125 -0.828125q-0.375 -0.3125 -1.0625 -0.3125q-0.8125 0 -1.15625 0.265625q-0.34375 0.265625 -0.34375 0.625q0 0.234375 0.140625 0.421875q0.15625 0.1875 0.453125 0.3125q0.171875 0.0625 1.03125 0.296875q1.25 0.328125 1.734375 0.546875q0.5 0.203125 0.78125 0.609375q0.28125 0.40625 0.28125 1.0q0 0.59375 -0.34375 1.109375q-0.34375 0.515625 -1.0 0.796875q-0.640625 0.28125 -1.453125 0.28125q-1.34375 0 -2.046875 -0.5625q-0.703125 -0.5625 -0.90625 -1.65625z" fill-rule="nonzero"/><path fill="#000000" fill-opacity="0.0" d="m189.21523 58.148293l-88.69292 88.69291" fill-rule="evenodd"/><path stroke="#000000" stroke-width="1.0" stroke-linejoin="round" stroke-linecap="butt" d="m186.79192 60.57161l-83.84628 83.84628" fill-rule="evenodd"/><path fill="#000000" stroke="#000000" stroke-width="1.0" stroke-linecap="butt" d="m186.7919 60.57161l0 1.5904007l1.3896027 -2.9799957l-2.9799957 1.389595z" fill-rule="evenodd"/><path fill="#000000" stroke="#000000" stroke-width="1.0" stroke-linecap="butt" d="m102.945625 144.4179l0 -1.5904083l-1.389595 2.9799957l2.9799957 -1.3895874z" fill-rule="evenodd"/><path fill="#000000" fill-opacity="0.0" d="m69.333336 70.57612l81.07087 0l0 26.960625l-81.07087 0z" fill-rule="evenodd"/><path fill="#000000" d="m78.708336 85.70424l0.78125 -0.109375q0.125 0.65625 0.453125 0.953125q0.328125 0.296875 0.78125 0.296875q0.5625 0 0.9375 -0.375q0.375 -0.390625 0.375 -0.953125q0 -0.53125 -0.359375 -0.875q-0.34375 -0.359375 -0.875 -0.359375q-0.234375 0 -0.5625 0.09375l0.09375 -0.6875q0.078125 0 0.125 0q0.5 0 0.890625 -0.25q0.40625 -0.265625 0.40625 -0.8125q0 -0.421875 -0.296875 -0.703125q-0.28125 -0.28125 -0.75 -0.28125q-0.453125 0 -0.765625 0.28125q-0.296875 0.28125 -0.375 0.859375l-0.78125 -0.140625q0.140625 -0.78125 0.640625 -1.203125q0.515625 -0.4375 1.265625 -0.4375q0.515625 0 0.953125 0.21875q0.4375 0.21875 0.671875 0.609375q0.234375 0.390625 0.234375 0.8125q0 0.421875 -0.21875 0.765625q-0.21875 0.328125 -0.65625 0.53125q0.5625 0.125 0.875 0.546875q0.3125 0.40625 0.3125 1.015625q0 0.828125 -0.609375 1.40625q-0.609375 0.578125 -1.53125 0.578125q-0.828125 0 -1.390625 -0.5q-0.546875 -0.5 -0.625 -1.28125z" fill-rule="nonzero"/><path fill="#000000" d="m90.09724 80.219864l0.484375 0l-2.03125 12.65625l-3.21875 -6.640625l-1.296875 0.59375l-0.21875 -0.421875l1.953125 -0.96875l2.640625 5.34375l1.6875 -10.5625zm1.3617249 12.15625l0 -6.90625l1.0625 0l0 0.984375q0.75 -1.140625 2.1875 -1.140625q0.625 0 1.15625 0.21875q0.53125 0.21875 0.78125 0.59375q0.265625 0.359375 0.375 0.859375q0.0625 0.328125 0.0625 1.140625l0 4.25l-1.171875 0l0 -4.203125q0 -0.71875 -0.140625 -1.0625q-0.140625 -0.359375 -0.484375 -0.5625q-0.34375 -0.21875 -0.8125 -0.21875q-0.75 0 -1.296875 0.46875q-0.546875 0.46875 -0.546875 1.796875l0 3.78125l-1.171875 0zm12.193588 0l-1.078125 0l0 -9.546875l1.171875 0l0 3.40625q0.734375 -0.921875 1.890625 -0.921875q0.640625 0 1.203125 0.265625q0.578125 0.25 0.9375 0.71875q0.375 0.453125 0.578125 1.109375q0.203125 0.65625 0.203125 1.40625q0 1.78125 -0.875 2.75q-0.875 0.96875 -2.109375 0.96875q-1.21875 0 -1.921875 -1.015625l0 0.859375zm0 -3.5q0 1.234375 0.328125 1.78125q0.5625 0.90625 1.5 0.90625q0.765625 0 1.328125 -0.65625q0.5625 -0.671875 0.5625 -2.0q0 -1.34375 -0.546875 -1.984375q-0.53125 -0.65625 -1.296875 -0.65625q-0.765625 0 -1.328125 0.671875q-0.546875 0.671875 -0.546875 1.9375zm6.3187256 3.5l0 -9.546875l1.171875 0l0 9.546875l-1.171875 0zm2.539215 -3.453125q0 -1.921875 1.078125 -2.84375q0.890625 -0.765625 2.171875 -0.765625q1.421875 0 2.328125 0.9375q0.90625 0.921875 0.90625 2.578125q0 1.328125 -0.40625 2.09375q-0.390625 0.765625 -1.15625 1.1875q-0.765625 0.421875 -1.671875 0.421875q-1.453125 0 -2.359375 -0.921875q-0.890625 -0.9375 -0.890625 -2.6875zm1.203125 0q0 1.328125 0.578125 1.984375q0.59375 0.65625 1.46875 0.65625q0.875 0 1.453125 -0.65625q0.578125 -0.671875 0.578125 -2.03125q0 -1.28125 -0.59375 -1.9375q-0.578125 -0.65625 -1.4375 -0.65625q-0.875 0 -1.46875 0.65625q-0.578125 0.65625 -0.578125 1.984375zm11.162476 0.921875l1.15625 0.15625q-0.1875 1.1875 -0.96875 1.859375q-0.78125 0.671875 -1.921875 0.671875q-1.40625 0 -2.28125 -0.921875q-0.859375 -0.9375 -0.859375 -2.65625q0 -1.125 0.375 -1.96875q0.375 -0.84375 1.125 -1.25q0.765625 -0.421875 1.65625 -0.421875q1.125 0 1.84375 0.578125q0.71875 0.5625 0.921875 1.609375l-1.140625 0.171875q-0.171875 -0.703125 -0.59375 -1.046875q-0.40625 -0.359375 -0.984375 -0.359375q-0.890625 0 -1.453125 0.640625q-0.546875 0.640625 -0.546875 2.0q0 1.40625 0.53125 2.03125q0.546875 0.625 1.40625 0.625q0.6875 0 1.140625 -0.421875q0.46875 -0.421875 0.59375 -1.296875zm2.1640625 2.53125l0 -9.546875l1.1718674 0l0 5.453125l2.765625 -2.8125l1.515625 0l-2.640625 2.5625l2.90625 4.34375l-1.4375 0l-2.28125 -3.53125l-0.828125 0.796875l0 2.734375l-1.1718674 0zm6.17968 -2.0625l1.15625 -0.1875q0.109375 0.703125 0.546875 1.078125q0.453125 0.359375 1.25 0.359375q0.8125 0 1.203125 -0.328125q0.390625 -0.328125 0.390625 -0.765625q0 -0.390625 -0.359375 -0.625q-0.234375 -0.15625 -1.1875 -0.390625q-1.296875 -0.328125 -1.796875 -0.5625q-0.484375 -0.25 -0.75 -0.65625q-0.25 -0.421875 -0.25 -0.9375q0 -0.453125 0.203125 -0.84375q0.21875 -0.40625 0.578125 -0.671875q0.28125 -0.1875 0.75 -0.328125q0.46875 -0.140625 1.015625 -0.140625q0.8125 0 1.421875 0.234375q0.609375 0.234375 0.90625 0.640625q0.296875 0.390625 0.40625 1.0625l-1.140625 0.15625q-0.078125 -0.53125 -0.453125 -0.828125q-0.375 -0.3125 -1.0625 -0.3125q-0.8125 0 -1.15625 0.265625q-0.34375 0.265625 -0.34375 0.625q0 0.234375 0.140625 0.421875q0.15625 0.1875 0.453125 0.3125q0.171875 0.0625 1.03125 0.296875q1.25 0.328125 1.734375 0.546875q0.5 0.203125 0.78125 0.609375q0.28125 0.40625 0.28125 1.0q0 0.59375 -0.34375 1.109375q-0.34375 0.515625 -1.0 0.796875q-0.640625 0.28125 -1.453125 0.28125q-1.34375 0 -2.046875 -0.5625q-0.703125 -0.5625 -0.90625 -1.65625z" fill-rule="nonzero"/><path fill="#000000" fill-opacity="0.0" d="m217.0433 49.17979l278.58267 0" fill-rule="evenodd"/><path stroke="#000000" stroke-width="1.0" stroke-linejoin="round" stroke-linecap="butt" d="m220.4704 49.17979l271.72852 0" fill-rule="evenodd"/><path fill="#000000" stroke="#000000" stroke-width="1.0" stroke-linecap="butt" d="m220.4704 49.17979l1.1245728 -1.1245842l-3.0897675 1.1245842l3.0897675 1.1245842z" fill-rule="evenodd"/><path fill="#000000" stroke="#000000" stroke-width="1.0" stroke-linecap="butt" d="m492.19888 49.17979l-1.1245728 1.1245842l3.0897827 -1.1245842l-3.0897827 -1.1245842z" fill-rule="evenodd"/><path fill="#000000" fill-opacity="0.0" d="m13.87664 272.49738l81.07087 0l0 26.960632l-81.07087 0z" fill-rule="evenodd"/><path fill="#000000" d="m28.236015 294.29736l0 -0.875q-0.65625 1.03125 -1.9375 1.03125q-0.8125 0 -1.515625 -0.453125q-0.6875 -0.453125 -1.078125 -1.265625q-0.375 -0.828125 -0.375 -1.890625q0 -1.03125 0.34375 -1.875q0.34375 -0.84375 1.03125 -1.28125q0.703125 -0.453125 1.546875 -0.453125q0.625 0 1.109375 0.265625q0.5 0.25 0.796875 0.671875l0 -3.421875l1.171875 0l0 9.546875l-1.09375 0zm-3.703125 -3.453125q0 1.328125 0.5625 1.984375q0.5625 0.65625 1.328125 0.65625q0.765625 0 1.296875 -0.625q0.53125 -0.625 0.53125 -1.90625q0 -1.421875 -0.546875 -2.078125q-0.546875 -0.671875 -1.34375 -0.671875q-0.78125 0 -1.3125 0.640625q-0.515625 0.625 -0.515625 2.0zm12.803101 -2.15625l-6.3125 0l0 -1.09375l6.3125 0l0 1.09375zm0 2.890625l-6.3125 0l0 -1.09375l6.3125 0l0 1.09375z" fill-rule="nonzero"/><path fill="#000000" d="m38.447533 287.6255l0.78125 -0.109375q0.125 0.65625 0.453125 0.953125q0.328125 0.296875 0.78125 0.296875q0.5625 0 0.9375 -0.375q0.375 -0.390625 0.375 -0.953125q0 -0.53125 -0.359375 -0.875q-0.34375 -0.359375 -0.875 -0.359375q-0.234375 0 -0.5625 0.09375l0.09375 -0.6875q0.078125 0 0.125 0q0.5 0 0.890625 -0.25q0.40625 -0.265625 0.40625 -0.8125q0 -0.421875 -0.296875 -0.703125q-0.28125 -0.28125 -0.75 -0.28125q-0.453125 0 -0.765625 0.28125q-0.296875 0.28125 -0.375 0.859375l-0.78125 -0.140625q0.140625 -0.78125 0.640625 -1.203125q0.515625 -0.4375 1.265625 -0.4375q0.515625 0 0.953125 0.21875q0.4375 0.21875 0.671875 0.609375q0.234375 0.390625 0.234375 0.8125q0 0.421875 -0.21875 0.765625q-0.21875 0.328125 -0.65625 0.53125q0.5625 0.125 0.875 0.546875q0.3125 0.40625 0.3125 1.015625q0 0.828125 -0.609375 1.40625q-0.609375 0.578125 -1.53125 0.578125q-0.828125 0 -1.390625 -0.5q-0.546875 -0.5 -0.625 -1.28125z" fill-rule="nonzero"/><path fill="#000000" d="m49.836433 282.1411l0.484375 0l-2.03125 12.65625l-3.21875 -6.640625l-1.296875 0.59375l-0.21875 -0.421875l1.953125 -0.96875l2.640625 5.34375l1.6875 -10.5625zm3.6117249 14.96875q-0.984375 -1.234375 -1.65625 -2.875q-0.65625 -1.640625 -0.65625 -3.390625q0 -1.546875 0.5 -2.96875q0.578125 -1.640625 1.8125 -3.28125l0.828125 0q-0.78125 1.359375 -1.03125 1.9375q-0.40625 0.890625 -0.625 1.875q-0.28125 1.21875 -0.28125 2.4375q0 3.140625 1.9375 6.265625l-0.828125 0zm2.3602448 -2.8125l0 -9.546875l4.234375 0q1.265625 0 1.921875 0.265625q0.671875 0.25 1.0625 0.90625q0.40625 0.65625 0.40625 1.4375q0 1.015625 -0.65625 1.71875q-0.65625 0.6875 -2.03125 0.875q0.5 0.25 0.765625 0.484375q0.546875 0.5 1.046875 1.265625l1.65625 2.59375l-1.578125 0l-1.265625 -1.984375q-0.5625 -0.859375 -0.921875 -1.3125q-0.34375 -0.453125 -0.640625 -0.640625q-0.28125 -0.1875 -0.5625 -0.25q-0.21875 -0.046875 -0.703125 -0.046875l-1.46875 0l0 4.234375l-1.265625 0zm1.265625 -5.328125l2.71875 0q0.859375 0 1.34375 -0.171875q0.484375 -0.1875 0.734375 -0.578125q0.265625 -0.390625 0.265625 -0.859375q0 -0.671875 -0.5 -1.109375q-0.484375 -0.4375 -1.546875 -0.4375l-3.015625 0l0 3.15625zm7.3126526 5.484375l2.765625 -9.859375l0.9375 0l-2.765625 9.859375l-0.9375 0zm4.5779877 -0.15625l0 -6.90625l1.0625 0l0 0.984375q0.75 -1.140625 2.1875 -1.140625q0.625 0 1.15625 0.21875q0.53125 0.21875 0.78125 0.59375q0.265625 0.359375 0.375 0.859375q0.0625 0.328125 0.0625 1.140625l0 4.25l-1.171875 0l0 -4.203125q0 -0.71875 -0.140625 -1.0625q-0.140625 -0.359375 -0.484375 -0.5625q-0.34375 -0.21875 -0.8125 -0.21875q-0.75 0 -1.296875 0.46875q-0.546875 0.46875 -0.546875 1.796875l0 3.78125l-1.171875 0zm8.178101 2.8125l-0.828125 0q1.9375 -3.125 1.9375 -6.265625q0 -1.21875 -0.28125 -2.421875q-0.21875 -0.984375 -0.609375 -1.875q-0.265625 -0.59375 -1.046875 -1.953125l0.828125 0q1.234375 1.640625 1.8125 3.28125q0.5 1.421875 0.5 2.96875q0 1.75 -0.671875 3.390625q-0.671875 1.640625 -1.640625 2.875z" fill-rule="nonzero"/></g></svg>