<svg version="1.1" viewBox="0.0 0.0 740.4803149606299 540.5721784776903" fill="none" stroke="none" stroke-linecap="square" stroke-miterlimit="10" xmlns:xlink="http://www.w3.org/1999/xlink" xmlns="http://www.w3.org/2000/svg"><clipPath id="p.0"><path d="m0 0l740.4803 0l0 540.5722l-740.4803 0l0 -540.5722z" clip-rule="nonzero"/></clipPath><g clip-path="url(#p.0)"><path fill="#000000" fill-opacity="0.0" d="m0 0l740.4803 0l0 540.5722l-740.4803 0z" fill-rule="evenodd"/><path fill="#a64d79" fill-opacity="0.882" d="m139.34796 319.0765l72.58238 0l0 72.12033l-72.58238 0z" fill-rule="evenodd"/><path fill="#843d60" fill-opacity="0.882" d="m211.93034 319.0765l24.040115 -24.0401l0 72.12033l-24.040115 24.0401z" fill-rule="evenodd"/><path fill="#b77093" fill-opacity="0.882" d="m139.34796 319.0765l24.040115 -24.0401l72.58238 0l-24.040115 24.0401z" fill-rule="evenodd"/><path fill="#000000" fill-opacity="0.0" d="m139.34796 319.0765l24.040115 -24.0401l72.58238 0l0 72.12033l-24.040115 24.0401l-72.58238 0zm0 0l72.58238 0l24.040115 -24.0401m-24.040115 24.0401l0 72.12033" fill-rule="evenodd"/><path stroke="#000000" stroke-width="1.0" stroke-linejoin="round" stroke-linecap="butt" stroke-dasharray="1.0,3.0" d="m139.34796 319.0765l24.040115 -24.0401l72.58238 0l0 72.12033l-24.040115 24.0401l-72.58238 0zm0 0l72.58238 0l24.040115 -24.0401m-24.040115 24.0401l0 72.12033" fill-rule="evenodd"/><path fill="#a64d79" fill-opacity="0.882" d="m115.24871 343.06052l72.58239 0l0 72.12033l-72.58239 0z" fill-rule="evenodd"/><path fill="#843d60" fill-opacity="0.882" d="m187.8311 343.06052l24.0401 -24.0401l0 72.12033l-24.0401 24.0401z" fill-rule="evenodd"/><path fill="#b77093" fill-opacity="0.882" d="m115.24871 343.06052l24.040108 -24.0401l72.58238 0l-24.0401 24.0401z" fill-rule="evenodd"/><path fill="#000000" fill-opacity="0.0" d="m115.24871 343.06052l24.040108 -24.0401l72.58238 0l0 72.12033l-24.0401 24.0401l-72.58239 0zm0 0l72.58239 0l24.0401 -24.0401m-24.0401 24.0401l0 72.12033" fill-rule="evenodd"/><path stroke="#000000" stroke-width="1.0" stroke-linejoin="round" stroke-linecap="butt" stroke-dasharray="1.0,3.0" d="m115.24871 343.06052l24.040108 -24.0401l72.58238 0l0 72.12033l-24.0401 24.0401l-72.58239 0zm0 0l72.58239 0l24.0401 -24.0401m-24.0401 24.0401l0 72.12033" fill-rule="evenodd"/><path fill="#a64d79" fill-opacity="0.882" d="m91.81286 366.58713l72.58239 0l0 72.1203l-72.58239 0z" fill-rule="evenodd"/><path fill="#843d60" fill-opacity="0.882" d="m164.39525 366.58713l24.0401 -24.04013l0 72.12033l-24.0401 24.0401z" fill-rule="evenodd"/><path fill="#b77093" fill-opacity="0.882" d="m91.81286 366.58713l24.040108 -24.04013l72.58238 0l-24.0401 24.04013z" fill-rule="evenodd"/><path fill="#000000" fill-opacity="0.0" d="m91.81286 366.58713l24.040108 -24.04013l72.58238 0l0 72.12033l-24.0401 24.0401l-72.58239 0zm0 0l72.58239 0l24.0401 -24.04013m-24.0401 24.04013l0 72.1203" fill-rule="evenodd"/><path stroke="#000000" stroke-width="1.0" stroke-linejoin="round" stroke-linecap="butt" stroke-dasharray="1.0,3.0" d="m91.81286 366.58713l24.040108 -24.04013l72.58238 0l0 72.12033l-24.0401 24.0401l-72.58239 0zm0 0l72.58239 0l24.0401 -24.04013m-24.0401 24.04013l0 72.1203" fill-rule="evenodd"/><path fill="#a64d79" fill-opacity="0.882" d="m67.440445 390.57544l72.58238 0l0 72.12033l-72.58238 0z" fill-rule="evenodd"/><path fill="#843d60" fill-opacity="0.882" d="m140.02283 390.57544l24.0401 -24.0401l0 72.12033l-24.0401 24.0401z" fill-rule="evenodd"/><path fill="#b77093" fill-opacity="0.882" d="m67.440445 390.57544l24.040108 -24.0401l72.582375 0l-24.0401 24.0401z" fill-rule="evenodd"/><path fill="#000000" fill-opacity="0.0" d="m67.440445 390.57544l24.040108 -24.0401l72.582375 0l0 72.12033l-24.0401 24.0401l-72.58238 0zm0 0l72.58238 0l24.0401 -24.0401m-24.0401 24.0401l0 72.12033" fill-rule="evenodd"/><path stroke="#000000" stroke-width="1.0" stroke-linejoin="round" stroke-linecap="butt" stroke-dasharray="1.0,3.0" d="m67.440445 390.57544l24.040108 -24.0401l72.582375 0l0 72.12033l-24.0401 24.0401l-72.58238 0zm0 0l72.58238 0l24.0401 -24.0401m-24.0401 24.0401l0 72.12033" fill-rule="evenodd"/><path fill="#a64d79" fill-opacity="0.882" d="m211.34796 319.0765l72.5824 0l0 72.12033l-72.5824 0z" fill-rule="evenodd"/><path fill="#843d60" fill-opacity="0.882" d="m283.93036 319.0765l24.0401 -24.0401l0 72.12033l-24.0401 24.0401z" fill-rule="evenodd"/><path fill="#b77093" fill-opacity="0.882" d="m211.34796 319.0765l24.040115 -24.0401l72.58238 0l-24.0401 24.0401z" fill-rule="evenodd"/><path fill="#000000" fill-opacity="0.0" d="m211.34796 319.0765l24.040115 -24.0401l72.58238 0l0 72.12033l-24.0401 24.0401l-72.5824 0zm0 0l72.5824 0l24.0401 -24.0401m-24.0401 24.0401l0 72.12033" fill-rule="evenodd"/><path stroke="#000000" stroke-width="1.0" stroke-linejoin="round" stroke-linecap="butt" stroke-dasharray="1.0,3.0" d="m211.34796 319.0765l24.040115 -24.0401l72.58238 0l0 72.12033l-24.0401 24.0401l-72.5824 0zm0 0l72.5824 0l24.0401 -24.0401m-24.0401 24.0401l0 72.12033" fill-rule="evenodd"/><path fill="#a64d79" fill-opacity="0.882" d="m187.24872 343.06052l72.58237 0l0 72.12033l-72.58237 0z" fill-rule="evenodd"/><path fill="#843d60" fill-opacity="0.882" d="m259.8311 343.06052l24.04013 -24.0401l0 72.12033l-24.04013 24.0401z" fill-rule="evenodd"/><path fill="#b77093" fill-opacity="0.882" d="m187.24872 343.06052l24.0401 -24.0401l72.5824 0l-24.04013 24.0401z" fill-rule="evenodd"/><path fill="#000000" fill-opacity="0.0" d="m187.24872 343.06052l24.0401 -24.0401l72.5824 0l0 72.12033l-24.04013 24.0401l-72.58237 0zm0 0l72.58237 0l24.04013 -24.0401m-24.04013 24.0401l0 72.12033" fill-rule="evenodd"/><path stroke="#000000" stroke-width="1.0" stroke-linejoin="round" stroke-linecap="butt" stroke-dasharray="1.0,3.0" d="m187.24872 343.06052l24.0401 -24.0401l72.5824 0l0 72.12033l-24.04013 24.0401l-72.58237 0zm0 0l72.58237 0l24.04013 -24.0401m-24.04013 24.0401l0 72.12033" fill-rule="evenodd"/><path fill="#a64d79" fill-opacity="0.882" d="m163.81287 366.58713l72.58238 0l0 72.1203l-72.58238 0z" fill-rule="evenodd"/><path fill="#843d60" fill-opacity="0.882" d="m236.39525 366.58713l24.040115 -24.04013l0 72.12033l-24.040115 24.0401z" fill-rule="evenodd"/><path fill="#b77093" fill-opacity="0.882" d="m163.81287 366.58713l24.0401 -24.04013l72.5824 0l-24.040115 24.04013z" fill-rule="evenodd"/><path fill="#000000" fill-opacity="0.0" d="m163.81287 366.58713l24.0401 -24.04013l72.5824 0l0 72.12033l-24.040115 24.0401l-72.58238 0zm0 0l72.58238 0l24.040115 -24.04013m-24.040115 24.04013l0 72.1203" fill-rule="evenodd"/><path stroke="#000000" stroke-width="1.0" stroke-linejoin="round" stroke-linecap="butt" stroke-dasharray="1.0,3.0" d="m163.81287 366.58713l24.0401 -24.04013l72.5824 0l0 72.12033l-24.040115 24.0401l-72.58238 0zm0 0l72.58238 0l24.040115 -24.04013m-24.040115 24.04013l0 72.1203" fill-rule="evenodd"/><path fill="#a64d79" fill-opacity="0.882" d="m139.44044 390.57544l72.58238 0l0 72.12033l-72.58238 0z" fill-rule="evenodd"/><path fill="#843d60" fill-opacity="0.882" d="m212.02283 390.57544l24.0401 -24.0401l0 72.12033l-24.0401 24.0401z" fill-rule="evenodd"/><path fill="#b77093" fill-opacity="0.882" d="m139.44044 390.57544l24.0401 -24.0401l72.58238 0l-24.0401 24.0401z" fill-rule="evenodd"/><path fill="#000000" fill-opacity="0.0" d="m139.44044 390.57544l24.0401 -24.0401l72.58238 0l0 72.12033l-24.0401 24.0401l-72.58238 0zm0 0l72.58238 0l24.0401 -24.0401m-24.0401 24.0401l0 72.12033" fill-rule="evenodd"/><path stroke="#000000" stroke-width="1.0" stroke-linejoin="round" stroke-linecap="butt" stroke-dasharray="1.0,3.0" d="m139.44044 390.57544l24.0401 -24.0401l72.58238 0l0 72.12033l-24.0401 24.0401l-72.58238 0zm0 0l72.58238 0l24.0401 -24.0401m-24.0401 24.0401l0 72.12033" fill-rule="evenodd"/><path fill="#a64d79" fill-opacity="0.882" d="m283.34796 319.0765l72.5824 0l0 72.12033l-72.5824 0z" fill-rule="evenodd"/><path fill="#843d60" fill-opacity="0.882" d="m355.93036 319.0765l24.0401 -24.0401l0 72.12033l-24.0401 24.0401z" fill-rule="evenodd"/><path fill="#b77093" fill-opacity="0.882" d="m283.34796 319.0765l24.04013 -24.0401l72.58237 0l-24.0401 24.0401z" fill-rule="evenodd"/><path fill="#000000" fill-opacity="0.0" d="m283.34796 319.0765l24.04013 -24.0401l72.58237 0l0 72.12033l-24.0401 24.0401l-72.5824 0zm0 0l72.5824 0l24.0401 -24.0401m-24.0401 24.0401l0 72.12033" fill-rule="evenodd"/><path stroke="#000000" stroke-width="1.0" stroke-linejoin="round" stroke-linecap="butt" stroke-dasharray="1.0,3.0" d="m283.34796 319.0765l24.04013 -24.0401l72.58237 0l0 72.12033l-24.0401 24.0401l-72.5824 0zm0 0l72.5824 0l24.0401 -24.0401m-24.0401 24.0401l0 72.12033" fill-rule="evenodd"/><path fill="#a64d79" fill-opacity="0.882" d="m259.24872 343.06052l72.58237 0l0 72.12033l-72.58237 0z" fill-rule="evenodd"/><path fill="#843d60" fill-opacity="0.882" d="m331.8311 343.06052l24.04013 -24.0401l0 72.12033l-24.04013 24.0401z" fill-rule="evenodd"/><path fill="#b77093" fill-opacity="0.882" d="m259.24872 343.06052l24.0401 -24.0401l72.5824 0l-24.04013 24.0401z" fill-rule="evenodd"/><path fill="#000000" fill-opacity="0.0" d="m259.24872 343.06052l24.0401 -24.0401l72.5824 0l0 72.12033l-24.04013 24.0401l-72.58237 0zm0 0l72.58237 0l24.04013 -24.0401m-24.04013 24.0401l0 72.12033" fill-rule="evenodd"/><path stroke="#000000" stroke-width="1.0" stroke-linejoin="round" stroke-linecap="butt" stroke-dasharray="1.0,3.0" d="m259.24872 343.06052l24.0401 -24.0401l72.5824 0l0 72.12033l-24.04013 24.0401l-72.58237 0zm0 0l72.58237 0l24.04013 -24.0401m-24.04013 24.0401l0 72.12033" fill-rule="evenodd"/><path fill="#a64d79" fill-opacity="0.882" d="m235.81287 366.58713l72.58237 0l0 72.1203l-72.58237 0z" fill-rule="evenodd"/><path fill="#843d60" fill-opacity="0.882" d="m308.39523 366.58713l24.04013 -24.04013l0 72.12033l-24.04013 24.0401z" fill-rule="evenodd"/><path fill="#b77093" fill-opacity="0.882" d="m235.81287 366.58713l24.0401 -24.04013l72.5824 0l-24.04013 24.04013z" fill-rule="evenodd"/><path fill="#000000" fill-opacity="0.0" d="m235.81287 366.58713l24.0401 -24.04013l72.5824 0l0 72.12033l-24.04013 24.0401l-72.58237 0zm0 0l72.58237 0l24.04013 -24.04013m-24.04013 24.04013l0 72.1203" fill-rule="evenodd"/><path stroke="#000000" stroke-width="1.0" stroke-linejoin="round" stroke-linecap="butt" stroke-dasharray="1.0,3.0" d="m235.81287 366.58713l24.0401 -24.04013l72.5824 0l0 72.12033l-24.04013 24.0401l-72.58237 0zm0 0l72.58237 0l24.04013 -24.04013m-24.04013 24.04013l0 72.1203" fill-rule="evenodd"/><path fill="#a64d79" fill-opacity="0.882" d="m211.44044 390.57544l72.58238 0l0 72.12033l-72.58238 0z" fill-rule="evenodd"/><path fill="#843d60" fill-opacity="0.882" d="m284.02283 390.57544l24.0401 -24.0401l0 72.12033l-24.0401 24.0401z" fill-rule="evenodd"/><path fill="#b77093" fill-opacity="0.882" d="m211.44044 390.57544l24.0401 -24.0401l72.58238 0l-24.0401 24.0401z" fill-rule="evenodd"/><path fill="#000000" fill-opacity="0.0" d="m211.44044 390.57544l24.0401 -24.0401l72.58238 0l0 72.12033l-24.0401 24.0401l-72.58238 0zm0 0l72.58238 0l24.0401 -24.0401m-24.0401 24.0401l0 72.12033" fill-rule="evenodd"/><path stroke="#000000" stroke-width="1.0" stroke-linejoin="round" stroke-linecap="butt" stroke-dasharray="1.0,3.0" d="m211.44044 390.57544l24.0401 -24.0401l72.58238 0l0 72.12033l-24.0401 24.0401l-72.58238 0zm0 0l72.58238 0l24.0401 -24.0401m-24.0401 24.0401l0 72.12033" fill-rule="evenodd"/><path fill="#a64d79" fill-opacity="0.882" d="m355.34796 319.0765l72.5824 0l0 72.12033l-72.5824 0z" fill-rule="evenodd"/><path fill="#843d60" fill-opacity="0.882" d="m427.93036 319.0765l24.0401 -24.0401l0 72.12033l-24.0401 24.0401z" fill-rule="evenodd"/><path fill="#b77093" fill-opacity="0.882" d="m355.34796 319.0765l24.04013 -24.0401l72.58237 0l-24.0401 24.0401z" fill-rule="evenodd"/><path fill="#000000" fill-opacity="0.0" d="m355.34796 319.0765l24.04013 -24.0401l72.58237 0l0 72.12033l-24.0401 24.0401l-72.5824 0zm0 0l72.5824 0l24.0401 -24.0401m-24.0401 24.0401l0 72.12033" fill-rule="evenodd"/><path stroke="#000000" stroke-width="1.0" stroke-linejoin="round" stroke-linecap="butt" stroke-dasharray="1.0,3.0" d="m355.34796 319.0765l24.04013 -24.0401l72.58237 0l0 72.12033l-24.0401 24.0401l-72.5824 0zm0 0l72.5824 0l24.0401 -24.0401m-24.0401 24.0401l0 72.12033" fill-rule="evenodd"/><path fill="#a64d79" fill-opacity="0.882" d="m331.24872 343.06052l72.58237 0l0 72.12033l-72.58237 0z" fill-rule="evenodd"/><path fill="#843d60" fill-opacity="0.882" d="m403.8311 343.06052l24.04013 -24.0401l0 72.12033l-24.04013 24.0401z" fill-rule="evenodd"/><path fill="#b77093" fill-opacity="0.882" d="m331.24872 343.06052l24.0401 -24.0401l72.5824 0l-24.04013 24.0401z" fill-rule="evenodd"/><path fill="#000000" fill-opacity="0.0" d="m331.24872 343.06052l24.0401 -24.0401l72.5824 0l0 72.12033l-24.04013 24.0401l-72.58237 0zm0 0l72.58237 0l24.04013 -24.0401m-24.04013 24.0401l0 72.12033" fill-rule="evenodd"/><path stroke="#000000" stroke-width="1.0" stroke-linejoin="round" stroke-linecap="butt" stroke-dasharray="1.0,3.0" d="m331.24872 343.06052l24.0401 -24.0401l72.5824 0l0 72.12033l-24.04013 24.0401l-72.58237 0zm0 0l72.58237 0l24.04013 -24.0401m-24.04013 24.0401l0 72.12033" fill-rule="evenodd"/><path fill="#a64d79" fill-opacity="0.882" d="m307.81287 366.58713l72.58237 0l0 72.1203l-72.58237 0z" fill-rule="evenodd"/><path fill="#843d60" fill-opacity="0.882" d="m380.39523 366.58713l24.04013 -24.04013l0 72.12033l-24.04013 24.0401z" fill-rule="evenodd"/><path fill="#b77093" fill-opacity="0.882" d="m307.81287 366.58713l24.0401 -24.04013l72.5824 0l-24.04013 24.04013z" fill-rule="evenodd"/><path fill="#000000" fill-opacity="0.0" d="m307.81287 366.58713l24.0401 -24.04013l72.5824 0l0 72.12033l-24.04013 24.0401l-72.58237 0zm0 0l72.58237 0l24.04013 -24.04013m-24.04013 24.04013l0 72.1203" fill-rule="evenodd"/><path stroke="#000000" stroke-width="1.0" stroke-linejoin="round" stroke-linecap="butt" stroke-dasharray="1.0,3.0" d="m307.81287 366.58713l24.0401 -24.04013l72.5824 0l0 72.12033l-24.04013 24.0401l-72.58237 0zm0 0l72.58237 0l24.04013 -24.04013m-24.04013 24.04013l0 72.1203" fill-rule="evenodd"/><path fill="#a64d79" fill-opacity="0.882" d="m283.44043 390.57544l72.5824 0l0 72.12033l-72.5824 0z" fill-rule="evenodd"/><path fill="#843d60" fill-opacity="0.882" d="m356.02283 390.57544l24.0401 -24.0401l0 72.12033l-24.0401 24.0401z" fill-rule="evenodd"/><path fill="#b77093" fill-opacity="0.882" d="m283.44043 390.57544l24.04013 -24.0401l72.58237 0l-24.0401 24.0401z" fill-rule="evenodd"/><path fill="#000000" fill-opacity="0.0" d="m283.44043 390.57544l24.04013 -24.0401l72.58237 0l0 72.12033l-24.0401 24.0401l-72.5824 0zm0 0l72.5824 0l24.0401 -24.0401m-24.0401 24.0401l0 72.12033" fill-rule="evenodd"/><path stroke="#000000" stroke-width="1.0" stroke-linejoin="round" stroke-linecap="butt" stroke-dasharray="1.0,3.0" d="m283.44043 390.57544l24.04013 -24.0401l72.58237 0l0 72.12033l-24.0401 24.0401l-72.5824 0zm0 0l72.5824 0l24.0401 -24.0401m-24.0401 24.0401l0 72.12033" fill-rule="evenodd"/><path fill="#000000" fill-opacity="0.0" d="m45.070866 182.08398l0 268.6299" fill-rule="evenodd"/><path stroke="#000000" stroke-width="3.0" stroke-linejoin="round" stroke-linecap="butt" d="m45.070866 182.08398l0 250.62991" fill-rule="evenodd"/><path fill="#000000" stroke="#000000" stroke-width="3.0" stroke-linecap="butt" d="m40.11567 432.7139l4.9551964 13.614319l4.9551964 -13.614319z" fill-rule="evenodd"/><path fill="#000000" fill-opacity="0.0" d="m45.343834 182.0853l94.64567 -94.64566" fill-rule="evenodd"/><path stroke="#000000" stroke-width="3.0" stroke-linejoin="round" stroke-linecap="butt" d="m45.343834 182.0853l81.91774 -81.91774" fill-rule="evenodd"/><path fill="#000000" stroke="#000000" stroke-width="3.0" stroke-linecap="butt" d="m130.76543 103.67141l6.1229095 -13.130615l-13.130608 6.1229095z" fill-rule="evenodd"/><path fill="#000000" fill-opacity="0.0" d="m362.51968 159.3924l22.26773 0l0 36.818893l-22.26773 0z" fill-rule="evenodd"/><path fill="#000000" d="m372.73843 174.85927l0 -1.90625l1.640625 0l0 1.90625l-1.640625 0zm-2.078125 15.203125l0.3125 -1.390625q0.5 0.125 0.78125 0.125q0.5 0 0.734375 -0.328125q0.25 -0.328125 0.25 -1.671875l0 -10.15625l1.640625 0l0 10.203125q0 1.78125 -0.46875 2.484375q-0.59375 0.90625 -1.96875 0.90625q-0.65625 0 -1.28125 -0.171875z" fill-rule="nonzero"/><path fill="#6d9eeb" fill-opacity="0.8427" d="m139.34796 247.07578l72.59056 0l0 72.1181l-72.59056 0z" fill-rule="evenodd"/><path fill="#577ebb" fill-opacity="0.8427" d="m211.93852 247.07578l24.039368 -24.039368l0 72.1181l-24.039368 24.039368z" fill-rule="evenodd"/><path fill="#8ab1ef" fill-opacity="0.8427" d="m139.34796 247.07578l24.039383 -24.039368l72.590546 0l-24.039368 24.039368z" fill-rule="evenodd"/><path fill="#000000" fill-opacity="0.0" d="m139.34796 247.07578l24.039383 -24.039368l72.590546 0l0 72.1181l-24.039368 24.039368l-72.59056 0zm0 0l72.59056 0l24.039368 -24.039368m-24.039368 24.039368l0 72.1181" fill-rule="evenodd"/><path stroke="#000000" stroke-width="1.0" stroke-linejoin="round" stroke-linecap="butt" stroke-dasharray="1.0,3.0" d="m139.34796 247.07578l24.039383 -24.039368l72.590546 0l0 72.1181l-24.039368 24.039368l-72.59056 0zm0 0l72.59056 0l24.039368 -24.039368m-24.039368 24.039368l0 72.1181" fill-rule="evenodd"/><path fill="#6d9eeb" fill-opacity="0.8427" d="m211.34796 247.07578l72.590546 0l0 72.1181l-72.590546 0z" fill-rule="evenodd"/><path fill="#577ebb" fill-opacity="0.8427" d="m283.9385 247.07578l24.039398 -24.039368l0 72.1181l-24.039398 24.039368z" fill-rule="evenodd"/><path fill="#8ab1ef" fill-opacity="0.8427" d="m211.34796 247.07578l24.039383 -24.039368l72.59056 0l-24.039398 24.039368z" fill-rule="evenodd"/><path fill="#000000" fill-opacity="0.0" d="m211.34796 247.07578l24.039383 -24.039368l72.59056 0l0 72.1181l-24.039398 24.039368l-72.590546 0zm0 0l72.590546 0l24.039398 -24.039368m-24.039398 24.039368l0 72.1181" fill-rule="evenodd"/><path stroke="#000000" stroke-width="1.0" stroke-linejoin="round" stroke-linecap="butt" stroke-dasharray="1.0,3.0" d="m211.34796 247.07578l24.039383 -24.039368l72.59056 0l0 72.1181l-24.039398 24.039368l-72.590546 0zm0 0l72.590546 0l24.039398 -24.039368m-24.039398 24.039368l0 72.1181" fill-rule="evenodd"/><path fill="#6d9eeb" fill-opacity="0.8427" d="m283.34796 247.07578l72.590546 0l0 72.1181l-72.590546 0z" fill-rule="evenodd"/><path fill="#577ebb" fill-opacity="0.8427" d="m355.9385 247.07578l24.039398 -24.039368l0 72.1181l-24.039398 24.039368z" fill-rule="evenodd"/><path fill="#8ab1ef" fill-opacity="0.8427" d="m283.34796 247.07578l24.039368 -24.039368l72.590576 0l-24.039398 24.039368z" fill-rule="evenodd"/><path fill="#000000" fill-opacity="0.0" d="m283.34796 247.07578l24.039368 -24.039368l72.590576 0l0 72.1181l-24.039398 24.039368l-72.590546 0zm0 0l72.590546 0l24.039398 -24.039368m-24.039398 24.039368l0 72.1181" fill-rule="evenodd"/><path stroke="#000000" stroke-width="1.0" stroke-linejoin="round" stroke-linecap="butt" stroke-dasharray="1.0,3.0" d="m283.34796 247.07578l24.039368 -24.039368l72.590576 0l0 72.1181l-24.039398 24.039368l-72.590546 0zm0 0l72.590546 0l24.039398 -24.039368m-24.039398 24.039368l0 72.1181" fill-rule="evenodd"/><path fill="#6d9eeb" fill-opacity="0.8427" d="m355.34796 247.07578l72.590546 0l0 72.1181l-72.590546 0z" fill-rule="evenodd"/><path fill="#577ebb" fill-opacity="0.8427" d="m427.9385 247.07578l24.039398 -24.039368l0 72.1181l-24.039398 24.039368z" fill-rule="evenodd"/><path fill="#8ab1ef" fill-opacity="0.8427" d="m355.34796 247.07578l24.039368 -24.039368l72.590576 0l-24.039398 24.039368z" fill-rule="evenodd"/><path fill="#000000" fill-opacity="0.0" d="m355.34796 247.07578l24.039368 -24.039368l72.590576 0l0 72.1181l-24.039398 24.039368l-72.590546 0zm0 0l72.590546 0l24.039398 -24.039368m-24.039398 24.039368l0 72.1181" fill-rule="evenodd"/><path stroke="#000000" stroke-width="1.0" stroke-linejoin="round" stroke-linecap="butt" stroke-dasharray="1.0,3.0" d="m355.34796 247.07578l24.039368 -24.039368l72.590576 0l0 72.1181l-24.039398 24.039368l-72.590546 0zm0 0l72.590546 0l24.039398 -24.039368m-24.039398 24.039368l0 72.1181" fill-rule="evenodd"/><path fill="#6d9eeb" fill-opacity="0.8427" d="m139.34796 175.07578l72.59056 0l0 72.1181l-72.59056 0z" fill-rule="evenodd"/><path fill="#577ebb" fill-opacity="0.8427" d="m211.93852 175.07578l24.039368 -24.039368l0 72.1181l-24.039368 24.039368z" fill-rule="evenodd"/><path fill="#8ab1ef" fill-opacity="0.8427" d="m139.34796 175.07578l24.039383 -24.039368l72.590546 0l-24.039368 24.039368z" fill-rule="evenodd"/><path fill="#000000" fill-opacity="0.0" d="m139.34796 175.07578l24.039383 -24.039368l72.590546 0l0 72.1181l-24.039368 24.039368l-72.59056 0zm0 0l72.59056 0l24.039368 -24.039368m-24.039368 24.039368l0 72.1181" fill-rule="evenodd"/><path stroke="#000000" stroke-width="1.0" stroke-linejoin="round" stroke-linecap="butt" stroke-dasharray="1.0,3.0" d="m139.34796 175.07578l24.039383 -24.039368l72.590546 0l0 72.1181l-24.039368 24.039368l-72.59056 0zm0 0l72.59056 0l24.039368 -24.039368m-24.039368 24.039368l0 72.1181" fill-rule="evenodd"/><path fill="#6d9eeb" fill-opacity="0.8427" d="m211.34796 175.07578l72.590546 0l0 72.1181l-72.590546 0z" fill-rule="evenodd"/><path fill="#577ebb" fill-opacity="0.8427" d="m283.9385 175.07578l24.039398 -24.039368l0 72.1181l-24.039398 24.039368z" fill-rule="evenodd"/><path fill="#8ab1ef" fill-opacity="0.8427" d="m211.34796 175.07578l24.039383 -24.039368l72.59056 0l-24.039398 24.039368z" fill-rule="evenodd"/><path fill="#000000" fill-opacity="0.0" d="m211.34796 175.07578l24.039383 -24.039368l72.59056 0l0 72.1181l-24.039398 24.039368l-72.590546 0zm0 0l72.590546 0l24.039398 -24.039368m-24.039398 24.039368l0 72.1181" fill-rule="evenodd"/><path stroke="#000000" stroke-width="1.0" stroke-linejoin="round" stroke-linecap="butt" stroke-dasharray="1.0,3.0" d="m211.34796 175.07578l24.039383 -24.039368l72.59056 0l0 72.1181l-24.039398 24.039368l-72.590546 0zm0 0l72.590546 0l24.039398 -24.039368m-24.039398 24.039368l0 72.1181" fill-rule="evenodd"/><path fill="#6d9eeb" fill-opacity="0.8427" d="m283.34796 175.07578l72.590546 0l0 72.1181l-72.590546 0z" fill-rule="evenodd"/><path fill="#577ebb" fill-opacity="0.8427" d="m355.9385 175.07578l24.039398 -24.039368l0 72.1181l-24.039398 24.039368z" fill-rule="evenodd"/><path fill="#8ab1ef" fill-opacity="0.8427" d="m283.34796 175.07578l24.039368 -24.039368l72.590576 0l-24.039398 24.039368z" fill-rule="evenodd"/><path fill="#000000" fill-opacity="0.0" d="m283.34796 175.07578l24.039368 -24.039368l72.590576 0l0 72.1181l-24.039398 24.039368l-72.590546 0zm0 0l72.590546 0l24.039398 -24.039368m-24.039398 24.039368l0 72.1181" fill-rule="evenodd"/><path stroke="#000000" stroke-width="1.0" stroke-linejoin="round" stroke-linecap="butt" stroke-dasharray="1.0,3.0" d="m283.34796 175.07578l24.039368 -24.039368l72.590576 0l0 72.1181l-24.039398 24.039368l-72.590546 0zm0 0l72.590546 0l24.039398 -24.039368m-24.039398 24.039368l0 72.1181" fill-rule="evenodd"/><path fill="#6d9eeb" fill-opacity="0.8427" d="m355.34796 175.07578l72.590546 0l0 72.1181l-72.590546 0z" fill-rule="evenodd"/><path fill="#577ebb" fill-opacity="0.8427" d="m427.9385 175.07578l24.039398 -24.039368l0 72.1181l-24.039398 24.039368z" fill-rule="evenodd"/><path fill="#8ab1ef" fill-opacity="0.8427" d="m355.34796 175.07578l24.039368 -24.039368l72.590576 0l-24.039398 24.039368z" fill-rule="evenodd"/><path fill="#000000" fill-opacity="0.0" d="m355.34796 175.07578l24.039368 -24.039368l72.590576 0l0 72.1181l-24.039398 24.039368l-72.590546 0zm0 0l72.590546 0l24.039398 -24.039368m-24.039398 24.039368l0 72.1181" fill-rule="evenodd"/><path stroke="#000000" stroke-width="1.0" stroke-linejoin="round" stroke-linecap="butt" stroke-dasharray="1.0,3.0" d="m355.34796 175.07578l24.039368 -24.039368l72.590576 0l0 72.1181l-24.039398 24.039368l-72.590546 0zm0 0l72.590546 0l24.039398 -24.039368m-24.039398 24.039368l0 72.1181" fill-rule="evenodd"/><path fill="#6d9eeb" fill-opacity="0.8427" d="m139.34796 103.075775l72.59056 0l0 72.1181l-72.59056 0z" fill-rule="evenodd"/><path fill="#577ebb" fill-opacity="0.8427" d="m211.93852 103.075775l24.039368 -24.039375l0 72.11811l-24.039368 24.039368z" fill-rule="evenodd"/><path fill="#8ab1ef" fill-opacity="0.8427" d="m139.34796 103.075775l24.039383 -24.039375l72.590546 0l-24.039368 24.039375z" fill-rule="evenodd"/><path fill="#000000" fill-opacity="0.0" d="m139.34796 103.075775l24.039383 -24.039375l72.590546 0l0 72.11811l-24.039368 24.039368l-72.59056 0zm0 0l72.59056 0l24.039368 -24.039375m-24.039368 24.039375l0 72.1181" fill-rule="evenodd"/><path stroke="#000000" stroke-width="1.0" stroke-linejoin="round" stroke-linecap="butt" stroke-dasharray="1.0,3.0" d="m139.34796 103.075775l24.039383 -24.039375l72.590546 0l0 72.11811l-24.039368 24.039368l-72.59056 0zm0 0l72.59056 0l24.039368 -24.039375m-24.039368 24.039375l0 72.1181" fill-rule="evenodd"/><path fill="#6d9eeb" fill-opacity="0.8427" d="m211.34796 103.075775l72.590546 0l0 72.1181l-72.590546 0z" fill-rule="evenodd"/><path fill="#577ebb" fill-opacity="0.8427" d="m283.9385 103.075775l24.039398 -24.039375l0 72.11811l-24.039398 24.039368z" fill-rule="evenodd"/><path fill="#8ab1ef" fill-opacity="0.8427" d="m211.34796 103.075775l24.039383 -24.039375l72.59056 0l-24.039398 24.039375z" fill-rule="evenodd"/><path fill="#000000" fill-opacity="0.0" d="m211.34796 103.075775l24.039383 -24.039375l72.59056 0l0 72.11811l-24.039398 24.039368l-72.590546 0zm0 0l72.590546 0l24.039398 -24.039375m-24.039398 24.039375l0 72.1181" fill-rule="evenodd"/><path stroke="#000000" stroke-width="1.0" stroke-linejoin="round" stroke-linecap="butt" stroke-dasharray="1.0,3.0" d="m211.34796 103.075775l24.039383 -24.039375l72.59056 0l0 72.11811l-24.039398 24.039368l-72.590546 0zm0 0l72.590546 0l24.039398 -24.039375m-24.039398 24.039375l0 72.1181" fill-rule="evenodd"/><path fill="#6d9eeb" fill-opacity="0.8427" d="m283.34796 103.075775l72.590546 0l0 72.1181l-72.590546 0z" fill-rule="evenodd"/><path fill="#577ebb" fill-opacity="0.8427" d="m355.9385 103.075775l24.039398 -24.039375l0 72.11811l-24.039398 24.039368z" fill-rule="evenodd"/><path fill="#8ab1ef" fill-opacity="0.8427" d="m283.34796 103.075775l24.039368 -24.039375l72.590576 0l-24.039398 24.039375z" fill-rule="evenodd"/><path fill="#000000" fill-opacity="0.0" d="m283.34796 103.075775l24.039368 -24.039375l72.590576 0l0 72.11811l-24.039398 24.039368l-72.590546 0zm0 0l72.590546 0l24.039398 -24.039375m-24.039398 24.039375l0 72.1181" fill-rule="evenodd"/><path stroke="#000000" stroke-width="1.0" stroke-linejoin="round" stroke-linecap="butt" stroke-dasharray="1.0,3.0" d="m283.34796 103.075775l24.039368 -24.039375l72.590576 0l0 72.11811l-24.039398 24.039368l-72.590546 0zm0 0l72.590546 0l24.039398 -24.039375m-24.039398 24.039375l0 72.1181" fill-rule="evenodd"/><path fill="#6d9eeb" fill-opacity="0.8427" d="m355.34796 103.075775l72.590546 0l0 72.1181l-72.590546 0z" fill-rule="evenodd"/><path fill="#577ebb" fill-opacity="0.8427" d="m427.9385 103.075775l24.039398 -24.039375l0 72.11811l-24.039398 24.039368z" fill-rule="evenodd"/><path fill="#8ab1ef" fill-opacity="0.8427" d="m355.34796 103.075775l24.039368 -24.039375l72.590576 0l-24.039398 24.039375z" fill-rule="evenodd"/><path fill="#000000" fill-opacity="0.0" d="m355.34796 103.075775l24.039368 -24.039375l72.590576 0l0 72.11811l-24.039398 24.039368l-72.590546 0zm0 0l72.590546 0l24.039398 -24.039375m-24.039398 24.039375l0 72.1181" fill-rule="evenodd"/><path stroke="#000000" stroke-width="1.0" stroke-linejoin="round" stroke-linecap="butt" stroke-dasharray="1.0,3.0" d="m355.34796 103.075775l24.039368 -24.039375l72.590576 0l0 72.11811l-24.039398 24.039368l-72.590546 0zm0 0l72.590546 0l24.039398 -24.039375m-24.039398 24.039375l0 72.1181" fill-rule="evenodd"/><path fill="#ffffff" fill-opacity="0.7135" d="m116.03612 272.5802l72.58238 0l0 72.12033l-72.58238 0z" fill-rule="evenodd"/><path fill="#cbcbcb" fill-opacity="0.7135" d="m188.6185 272.5802l24.0401 -24.0401l0 72.12033l-24.0401 24.0401z" fill-rule="evenodd"/><path fill="#ffffff" fill-opacity="0.7135" d="m116.03612 272.5802l24.0401 -24.0401l72.58238 0l-24.0401 24.0401z" fill-rule="evenodd"/><path fill="#000000" fill-opacity="0.0" d="m116.03612 272.5802l24.0401 -24.0401l72.58238 0l0 72.12033l-24.0401 24.0401l-72.58238 0zm0 0l72.58238 0l24.0401 -24.0401m-24.0401 24.0401l0 72.12033" fill-rule="evenodd"/><path stroke="#000000" stroke-width="1.0" stroke-linejoin="round" stroke-linecap="butt" stroke-dasharray="1.0,3.0" d="m116.03612 272.5802l24.0401 -24.0401l72.58238 0l0 72.12033l-24.0401 24.0401l-72.58238 0zm0 0l72.58238 0l24.0401 -24.0401m-24.0401 24.0401l0 72.12033" fill-rule="evenodd"/><path fill="#ffffff" fill-opacity="0.7135" d="m92.600266 296.1068l72.58238 0l0 72.1203l-72.58238 0z" fill-rule="evenodd"/><path fill="#cbcbcb" fill-opacity="0.7135" d="m165.18265 296.1068l24.0401 -24.04013l0 72.12033l-24.0401 24.0401z" fill-rule="evenodd"/><path fill="#ffffff" fill-opacity="0.7135" d="m92.600266 296.1068l24.040108 -24.04013l72.582375 0l-24.0401 24.04013z" fill-rule="evenodd"/><path fill="#000000" fill-opacity="0.0" d="m92.600266 296.1068l24.040108 -24.04013l72.582375 0l0 72.12033l-24.0401 24.0401l-72.58238 0zm0 0l72.58238 0l24.0401 -24.04013m-24.0401 24.04013l0 72.1203" fill-rule="evenodd"/><path stroke="#000000" stroke-width="1.0" stroke-linejoin="round" stroke-linecap="butt" stroke-dasharray="1.0,3.0" d="m92.600266 296.1068l24.040108 -24.04013l72.582375 0l0 72.12033l-24.0401 24.0401l-72.58238 0zm0 0l72.58238 0l24.0401 -24.04013m-24.0401 24.04013l0 72.1203" fill-rule="evenodd"/><path fill="#ffffff" fill-opacity="0.7135" d="m68.227844 320.09512l72.58238 0l0 72.12033l-72.58238 0z" fill-rule="evenodd"/><path fill="#cbcbcb" fill-opacity="0.7135" d="m140.81023 320.09512l24.0401 -24.0401l0 72.12033l-24.0401 24.0401z" fill-rule="evenodd"/><path fill="#ffffff" fill-opacity="0.7135" d="m68.227844 320.09512l24.040108 -24.0401l72.582375 0l-24.0401 24.0401z" fill-rule="evenodd"/><path fill="#000000" fill-opacity="0.0" d="m68.227844 320.09512l24.040108 -24.0401l72.582375 0l0 72.12033l-24.0401 24.0401l-72.58238 0zm0 0l72.58238 0l24.0401 -24.0401m-24.0401 24.0401l0 72.12033" fill-rule="evenodd"/><path stroke="#000000" stroke-width="1.0" stroke-linejoin="round" stroke-linecap="butt" stroke-dasharray="1.0,3.0" d="m68.227844 320.09512l24.040108 -24.0401l72.582375 0l0 72.12033l-24.0401 24.0401l-72.58238 0zm0 0l72.58238 0l24.0401 -24.0401m-24.0401 24.0401l0 72.12033" fill-rule="evenodd"/><path fill="#ffffff" fill-opacity="0.7135" d="m188.03612 272.5802l72.58238 0l0 72.12033l-72.58238 0z" fill-rule="evenodd"/><path fill="#cbcbcb" fill-opacity="0.7135" d="m260.6185 272.5802l24.0401 -24.0401l0 72.12033l-24.0401 24.0401z" fill-rule="evenodd"/><path fill="#ffffff" fill-opacity="0.7135" d="m188.03612 272.5802l24.0401 -24.0401l72.58238 0l-24.0401 24.0401z" fill-rule="evenodd"/><path fill="#000000" fill-opacity="0.0" d="m188.03612 272.5802l24.0401 -24.0401l72.58238 0l0 72.12033l-24.0401 24.0401l-72.58238 0zm0 0l72.58238 0l24.0401 -24.0401m-24.0401 24.0401l0 72.12033" fill-rule="evenodd"/><path stroke="#000000" stroke-width="1.0" stroke-linejoin="round" stroke-linecap="butt" stroke-dasharray="1.0,3.0" d="m188.03612 272.5802l24.0401 -24.0401l72.58238 0l0 72.12033l-24.0401 24.0401l-72.58238 0zm0 0l72.58238 0l24.0401 -24.0401m-24.0401 24.0401l0 72.12033" fill-rule="evenodd"/><path fill="#ffffff" fill-opacity="0.7135" d="m164.60027 296.1068l72.58238 0l0 72.1203l-72.58238 0z" fill-rule="evenodd"/><path fill="#cbcbcb" fill-opacity="0.7135" d="m237.18265 296.1068l24.0401 -24.04013l0 72.12033l-24.0401 24.0401z" fill-rule="evenodd"/><path fill="#ffffff" fill-opacity="0.7135" d="m164.60027 296.1068l24.0401 -24.04013l72.58238 0l-24.0401 24.04013z" fill-rule="evenodd"/><path fill="#000000" fill-opacity="0.0" d="m164.60027 296.1068l24.0401 -24.04013l72.58238 0l0 72.12033l-24.0401 24.0401l-72.58238 0zm0 0l72.58238 0l24.0401 -24.04013m-24.0401 24.04013l0 72.1203" fill-rule="evenodd"/><path stroke="#000000" stroke-width="1.0" stroke-linejoin="round" stroke-linecap="butt" stroke-dasharray="1.0,3.0" d="m164.60027 296.1068l24.0401 -24.04013l72.58238 0l0 72.12033l-24.0401 24.0401l-72.58238 0zm0 0l72.58238 0l24.0401 -24.04013m-24.0401 24.04013l0 72.1203" fill-rule="evenodd"/><path fill="#ffffff" fill-opacity="0.7135" d="m140.22784 320.09512l72.58238 0l0 72.12033l-72.58238 0z" fill-rule="evenodd"/><path fill="#cbcbcb" fill-opacity="0.7135" d="m212.81023 320.09512l24.0401 -24.0401l0 72.12033l-24.0401 24.0401z" fill-rule="evenodd"/><path fill="#ffffff" fill-opacity="0.7135" d="m140.22784 320.09512l24.0401 -24.0401l72.58238 0l-24.0401 24.0401z" fill-rule="evenodd"/><path fill="#000000" fill-opacity="0.0" d="m140.22784 320.09512l24.0401 -24.0401l72.58238 0l0 72.12033l-24.0401 24.0401l-72.58238 0zm0 0l72.58238 0l24.0401 -24.0401m-24.0401 24.0401l0 72.12033" fill-rule="evenodd"/><path stroke="#000000" stroke-width="1.0" stroke-linejoin="round" stroke-linecap="butt" stroke-dasharray="1.0,3.0" d="m140.22784 320.09512l24.0401 -24.0401l72.58238 0l0 72.12033l-24.0401 24.0401l-72.58238 0zm0 0l72.58238 0l24.0401 -24.0401m-24.0401 24.0401l0 72.12033" fill-rule="evenodd"/><path fill="#ffffff" fill-opacity="0.7135" d="m260.0361 272.5802l72.5824 0l0 72.12033l-72.5824 0z" fill-rule="evenodd"/><path fill="#cbcbcb" fill-opacity="0.7135" d="m332.6185 272.5802l24.0401 -24.0401l0 72.12033l-24.0401 24.0401z" fill-rule="evenodd"/><path fill="#ffffff" fill-opacity="0.7135" d="m260.0361 272.5802l24.04013 -24.0401l72.58237 0l-24.0401 24.0401z" fill-rule="evenodd"/><path fill="#000000" fill-opacity="0.0" d="m260.0361 272.5802l24.04013 -24.0401l72.58237 0l0 72.12033l-24.0401 24.0401l-72.5824 0zm0 0l72.5824 0l24.0401 -24.0401m-24.0401 24.0401l0 72.12033" fill-rule="evenodd"/><path stroke="#000000" stroke-width="1.0" stroke-linejoin="round" stroke-linecap="butt" stroke-dasharray="1.0,3.0" d="m260.0361 272.5802l24.04013 -24.0401l72.58237 0l0 72.12033l-24.0401 24.0401l-72.5824 0zm0 0l72.5824 0l24.0401 -24.0401m-24.0401 24.0401l0 72.12033" fill-rule="evenodd"/><path fill="#ffffff" fill-opacity="0.7135" d="m236.60027 296.1068l72.58238 0l0 72.1203l-72.58238 0z" fill-rule="evenodd"/><path fill="#cbcbcb" fill-opacity="0.7135" d="m309.18265 296.1068l24.0401 -24.04013l0 72.12033l-24.0401 24.0401z" fill-rule="evenodd"/><path fill="#ffffff" fill-opacity="0.7135" d="m236.60027 296.1068l24.040115 -24.04013l72.58237 0l-24.0401 24.04013z" fill-rule="evenodd"/><path fill="#000000" fill-opacity="0.0" d="m236.60027 296.1068l24.040115 -24.04013l72.58237 0l0 72.12033l-24.0401 24.0401l-72.58238 0zm0 0l72.58238 0l24.0401 -24.04013m-24.0401 24.04013l0 72.1203" fill-rule="evenodd"/><path stroke="#000000" stroke-width="1.0" stroke-linejoin="round" stroke-linecap="butt" stroke-dasharray="1.0,3.0" d="m236.60027 296.1068l24.040115 -24.04013l72.58237 0l0 72.12033l-24.0401 24.0401l-72.58238 0zm0 0l72.58238 0l24.0401 -24.04013m-24.0401 24.04013l0 72.1203" fill-rule="evenodd"/><path fill="#ffffff" fill-opacity="0.7135" d="m212.22784 320.09512l72.58237 0l0 72.12033l-72.58237 0z" fill-rule="evenodd"/><path fill="#cbcbcb" fill-opacity="0.7135" d="m284.8102 320.09512l24.04013 -24.0401l0 72.12033l-24.04013 24.0401z" fill-rule="evenodd"/><path fill="#ffffff" fill-opacity="0.7135" d="m212.22784 320.09512l24.0401 -24.0401l72.5824 0l-24.04013 24.0401z" fill-rule="evenodd"/><path fill="#000000" fill-opacity="0.0" d="m212.22784 320.09512l24.0401 -24.0401l72.5824 0l0 72.12033l-24.04013 24.0401l-72.58237 0zm0 0l72.58237 0l24.04013 -24.0401m-24.04013 24.0401l0 72.12033" fill-rule="evenodd"/><path stroke="#000000" stroke-width="1.0" stroke-linejoin="round" stroke-linecap="butt" stroke-dasharray="1.0,3.0" d="m212.22784 320.09512l24.0401 -24.0401l72.5824 0l0 72.12033l-24.04013 24.0401l-72.58237 0zm0 0l72.58237 0l24.04013 -24.0401m-24.04013 24.0401l0 72.12033" fill-rule="evenodd"/><path fill="#ffffff" fill-opacity="0.7135" d="m116.03612 200.5802l72.58238 0l0 72.12033l-72.58238 0z" fill-rule="evenodd"/><path fill="#cbcbcb" fill-opacity="0.7135" d="m188.6185 200.5802l24.0401 -24.0401l0 72.120316l-24.0401 24.040115z" fill-rule="evenodd"/><path fill="#ffffff" fill-opacity="0.7135" d="m116.03612 200.5802l24.0401 -24.0401l72.58238 0l-24.0401 24.0401z" fill-rule="evenodd"/><path fill="#000000" fill-opacity="0.0" d="m116.03612 200.5802l24.0401 -24.0401l72.58238 0l0 72.120316l-24.0401 24.040115l-72.58238 0zm0 0l72.58238 0l24.0401 -24.0401m-24.0401 24.0401l0 72.12033" fill-rule="evenodd"/><path stroke="#000000" stroke-width="1.0" stroke-linejoin="round" stroke-linecap="butt" stroke-dasharray="1.0,3.0" d="m116.03612 200.5802l24.0401 -24.0401l72.58238 0l0 72.120316l-24.0401 24.040115l-72.58238 0zm0 0l72.58238 0l24.0401 -24.0401m-24.0401 24.0401l0 72.12033" fill-rule="evenodd"/><path fill="#ffffff" fill-opacity="0.7135" d="m92.600266 224.1068l72.58238 0l0 72.120316l-72.58238 0z" fill-rule="evenodd"/><path fill="#cbcbcb" fill-opacity="0.7135" d="m165.18265 224.1068l24.0401 -24.0401l0 72.120316l-24.0401 24.0401z" fill-rule="evenodd"/><path fill="#ffffff" fill-opacity="0.7135" d="m92.600266 224.1068l24.040108 -24.0401l72.582375 0l-24.0401 24.0401z" fill-rule="evenodd"/><path fill="#000000" fill-opacity="0.0" d="m92.600266 224.1068l24.040108 -24.0401l72.582375 0l0 72.120316l-24.0401 24.0401l-72.58238 0zm0 0l72.58238 0l24.0401 -24.0401m-24.0401 24.0401l0 72.120316" fill-rule="evenodd"/><path stroke="#000000" stroke-width="1.0" stroke-linejoin="round" stroke-linecap="butt" stroke-dasharray="1.0,3.0" d="m92.600266 224.1068l24.040108 -24.0401l72.582375 0l0 72.120316l-24.0401 24.0401l-72.58238 0zm0 0l72.58238 0l24.0401 -24.0401m-24.0401 24.0401l0 72.120316" fill-rule="evenodd"/><path fill="#ffffff" fill-opacity="0.7135" d="m68.227844 248.09512l72.58238 0l0 72.12033l-72.58238 0z" fill-rule="evenodd"/><path fill="#cbcbcb" fill-opacity="0.7135" d="m140.81023 248.09512l24.0401 -24.0401l0 72.12033l-24.0401 24.0401z" fill-rule="evenodd"/><path fill="#ffffff" fill-opacity="0.7135" d="m68.227844 248.09512l24.040108 -24.0401l72.582375 0l-24.0401 24.0401z" fill-rule="evenodd"/><path fill="#000000" fill-opacity="0.0" d="m68.227844 248.09512l24.040108 -24.0401l72.582375 0l0 72.12033l-24.0401 24.0401l-72.58238 0zm0 0l72.58238 0l24.0401 -24.0401m-24.0401 24.0401l0 72.12033" fill-rule="evenodd"/><path stroke="#000000" stroke-width="1.0" stroke-linejoin="round" stroke-linecap="butt" stroke-dasharray="1.0,3.0" d="m68.227844 248.09512l24.040108 -24.0401l72.582375 0l0 72.12033l-24.0401 24.0401l-72.58238 0zm0 0l72.58238 0l24.0401 -24.0401m-24.0401 24.0401l0 72.12033" fill-rule="evenodd"/><path fill="#ffffff" fill-opacity="0.7135" d="m188.03612 200.5802l72.58238 0l0 72.12033l-72.58238 0z" fill-rule="evenodd"/><path fill="#cbcbcb" fill-opacity="0.7135" d="m260.6185 200.5802l24.0401 -24.0401l0 72.120316l-24.0401 24.040115z" fill-rule="evenodd"/><path fill="#ffffff" fill-opacity="0.7135" d="m188.03612 200.5802l24.0401 -24.0401l72.58238 0l-24.0401 24.0401z" fill-rule="evenodd"/><path fill="#000000" fill-opacity="0.0" d="m188.03612 200.5802l24.0401 -24.0401l72.58238 0l0 72.120316l-24.0401 24.040115l-72.58238 0zm0 0l72.58238 0l24.0401 -24.0401m-24.0401 24.0401l0 72.12033" fill-rule="evenodd"/><path stroke="#000000" stroke-width="1.0" stroke-linejoin="round" stroke-linecap="butt" stroke-dasharray="1.0,3.0" d="m188.03612 200.5802l24.0401 -24.0401l72.58238 0l0 72.120316l-24.0401 24.040115l-72.58238 0zm0 0l72.58238 0l24.0401 -24.0401m-24.0401 24.0401l0 72.12033" fill-rule="evenodd"/><path fill="#ffffff" fill-opacity="0.7135" d="m164.60027 224.1068l72.58238 0l0 72.120316l-72.58238 0z" fill-rule="evenodd"/><path fill="#cbcbcb" fill-opacity="0.7135" d="m237.18265 224.1068l24.0401 -24.0401l0 72.120316l-24.0401 24.0401z" fill-rule="evenodd"/><path fill="#ffffff" fill-opacity="0.7135" d="m164.60027 224.1068l24.0401 -24.0401l72.58238 0l-24.0401 24.0401z" fill-rule="evenodd"/><path fill="#000000" fill-opacity="0.0" d="m164.60027 224.1068l24.0401 -24.0401l72.58238 0l0 72.120316l-24.0401 24.0401l-72.58238 0zm0 0l72.58238 0l24.0401 -24.0401m-24.0401 24.0401l0 72.120316" fill-rule="evenodd"/><path stroke="#000000" stroke-width="1.0" stroke-linejoin="round" stroke-linecap="butt" stroke-dasharray="1.0,3.0" d="m164.60027 224.1068l24.0401 -24.0401l72.58238 0l0 72.120316l-24.0401 24.0401l-72.58238 0zm0 0l72.58238 0l24.0401 -24.0401m-24.0401 24.0401l0 72.120316" fill-rule="evenodd"/><path fill="#ffffff" fill-opacity="0.7135" d="m140.22784 248.09512l72.58238 0l0 72.12033l-72.58238 0z" fill-rule="evenodd"/><path fill="#cbcbcb" fill-opacity="0.7135" d="m212.81023 248.09512l24.0401 -24.0401l0 72.12033l-24.0401 24.0401z" fill-rule="evenodd"/><path fill="#ffffff" fill-opacity="0.7135" d="m140.22784 248.09512l24.0401 -24.0401l72.58238 0l-24.0401 24.0401z" fill-rule="evenodd"/><path fill="#000000" fill-opacity="0.0" d="m140.22784 248.09512l24.0401 -24.0401l72.58238 0l0 72.12033l-24.0401 24.0401l-72.58238 0zm0 0l72.58238 0l24.0401 -24.0401m-24.0401 24.0401l0 72.12033" fill-rule="evenodd"/><path stroke="#000000" stroke-width="1.0" stroke-linejoin="round" stroke-linecap="butt" stroke-dasharray="1.0,3.0" d="m140.22784 248.09512l24.0401 -24.0401l72.58238 0l0 72.12033l-24.0401 24.0401l-72.58238 0zm0 0l72.58238 0l24.0401 -24.0401m-24.0401 24.0401l0 72.12033" fill-rule="evenodd"/><path fill="#ffffff" fill-opacity="0.7135" d="m260.0361 200.5802l72.5824 0l0 72.12033l-72.5824 0z" fill-rule="evenodd"/><path fill="#cbcbcb" fill-opacity="0.7135" d="m332.6185 200.5802l24.0401 -24.0401l0 72.120316l-24.0401 24.040115z" fill-rule="evenodd"/><path fill="#ffffff" fill-opacity="0.7135" d="m260.0361 200.5802l24.04013 -24.0401l72.58237 0l-24.0401 24.0401z" fill-rule="evenodd"/><path fill="#000000" fill-opacity="0.0" d="m260.0361 200.5802l24.04013 -24.0401l72.58237 0l0 72.120316l-24.0401 24.040115l-72.5824 0zm0 0l72.5824 0l24.0401 -24.0401m-24.0401 24.0401l0 72.12033" fill-rule="evenodd"/><path stroke="#000000" stroke-width="1.0" stroke-linejoin="round" stroke-linecap="butt" stroke-dasharray="1.0,3.0" d="m260.0361 200.5802l24.04013 -24.0401l72.58237 0l0 72.120316l-24.0401 24.040115l-72.5824 0zm0 0l72.5824 0l24.0401 -24.0401m-24.0401 24.0401l0 72.12033" fill-rule="evenodd"/><path fill="#ffffff" fill-opacity="0.7135" d="m236.60027 224.1068l72.58238 0l0 72.120316l-72.58238 0z" fill-rule="evenodd"/><path fill="#cbcbcb" fill-opacity="0.7135" d="m309.18265 224.1068l24.0401 -24.0401l0 72.120316l-24.0401 24.0401z" fill-rule="evenodd"/><path fill="#ffffff" fill-opacity="0.7135" d="m236.60027 224.1068l24.040115 -24.0401l72.58237 0l-24.0401 24.0401z" fill-rule="evenodd"/><path fill="#000000" fill-opacity="0.0" d="m236.60027 224.1068l24.040115 -24.0401l72.58237 0l0 72.120316l-24.0401 24.0401l-72.58238 0zm0 0l72.58238 0l24.0401 -24.0401m-24.0401 24.0401l0 72.120316" fill-rule="evenodd"/><path stroke="#000000" stroke-width="1.0" stroke-linejoin="round" stroke-linecap="butt" stroke-dasharray="1.0,3.0" d="m236.60027 224.1068l24.040115 -24.0401l72.58237 0l0 72.120316l-24.0401 24.0401l-72.58238 0zm0 0l72.58238 0l24.0401 -24.0401m-24.0401 24.0401l0 72.120316" fill-rule="evenodd"/><path fill="#ffffff" fill-opacity="0.7135" d="m212.22784 248.09512l72.58237 0l0 72.12033l-72.58237 0z" fill-rule="evenodd"/><path fill="#cbcbcb" fill-opacity="0.7135" d="m284.8102 248.09512l24.04013 -24.0401l0 72.12033l-24.04013 24.0401z" fill-rule="evenodd"/><path fill="#ffffff" fill-opacity="0.7135" d="m212.22784 248.09512l24.0401 -24.0401l72.5824 0l-24.04013 24.0401z" fill-rule="evenodd"/><path fill="#000000" fill-opacity="0.0" d="m212.22784 248.09512l24.0401 -24.0401l72.5824 0l0 72.12033l-24.04013 24.0401l-72.58237 0zm0 0l72.58237 0l24.04013 -24.0401m-24.04013 24.0401l0 72.12033" fill-rule="evenodd"/><path stroke="#000000" stroke-width="1.0" stroke-linejoin="round" stroke-linecap="butt" stroke-dasharray="1.0,3.0" d="m212.22784 248.09512l24.0401 -24.0401l72.5824 0l0 72.12033l-24.04013 24.0401l-72.58237 0zm0 0l72.58237 0l24.04013 -24.0401m-24.04013 24.0401l0 72.12033" fill-rule="evenodd"/><path fill="#ffffff" fill-opacity="0.7135" d="m116.03612 128.5802l72.58238 0l0 72.12033l-72.58238 0z" fill-rule="evenodd"/><path fill="#cbcbcb" fill-opacity="0.7135" d="m188.6185 128.5802l24.0401 -24.0401l0 72.120316l-24.0401 24.040115z" fill-rule="evenodd"/><path fill="#ffffff" fill-opacity="0.7135" d="m116.03612 128.5802l24.0401 -24.0401l72.58238 0l-24.0401 24.0401z" fill-rule="evenodd"/><path fill="#000000" fill-opacity="0.0" d="m116.03612 128.5802l24.0401 -24.0401l72.58238 0l0 72.120316l-24.0401 24.040115l-72.58238 0zm0 0l72.58238 0l24.0401 -24.0401m-24.0401 24.0401l0 72.12033" fill-rule="evenodd"/><path stroke="#000000" stroke-width="1.0" stroke-linejoin="round" stroke-linecap="butt" stroke-dasharray="1.0,3.0" d="m116.03612 128.5802l24.0401 -24.0401l72.58238 0l0 72.120316l-24.0401 24.040115l-72.58238 0zm0 0l72.58238 0l24.0401 -24.0401m-24.0401 24.0401l0 72.12033" fill-rule="evenodd"/><path fill="#ffffff" fill-opacity="0.7135" d="m92.600266 152.1068l72.58238 0l0 72.12033l-72.58238 0z" fill-rule="evenodd"/><path fill="#cbcbcb" fill-opacity="0.7135" d="m165.18265 152.1068l24.0401 -24.0401l0 72.120316l-24.0401 24.040115z" fill-rule="evenodd"/><path fill="#ffffff" fill-opacity="0.7135" d="m92.600266 152.1068l24.040108 -24.0401l72.582375 0l-24.0401 24.0401z" fill-rule="evenodd"/><path fill="#000000" fill-opacity="0.0" d="m92.600266 152.1068l24.040108 -24.0401l72.582375 0l0 72.120316l-24.0401 24.040115l-72.58238 0zm0 0l72.58238 0l24.0401 -24.0401m-24.0401 24.0401l0 72.12033" fill-rule="evenodd"/><path stroke="#000000" stroke-width="1.0" stroke-linejoin="round" stroke-linecap="butt" stroke-dasharray="1.0,3.0" d="m92.600266 152.1068l24.040108 -24.0401l72.582375 0l0 72.120316l-24.0401 24.040115l-72.58238 0zm0 0l72.58238 0l24.0401 -24.0401m-24.0401 24.0401l0 72.12033" fill-rule="evenodd"/><path fill="#ffffff" fill-opacity="0.7135" d="m68.227844 176.09512l72.58238 0l0 72.12033l-72.58238 0z" fill-rule="evenodd"/><path fill="#cbcbcb" fill-opacity="0.7135" d="m140.81023 176.09512l24.0401 -24.0401l0 72.120316l-24.0401 24.040115z" fill-rule="evenodd"/><path fill="#ffffff" fill-opacity="0.7135" d="m68.227844 176.09512l24.040108 -24.0401l72.582375 0l-24.0401 24.0401z" fill-rule="evenodd"/><path fill="#000000" fill-opacity="0.0" d="m68.227844 176.09512l24.040108 -24.0401l72.582375 0l0 72.120316l-24.0401 24.040115l-72.58238 0zm0 0l72.58238 0l24.0401 -24.0401m-24.0401 24.0401l0 72.12033" fill-rule="evenodd"/><path stroke="#000000" stroke-width="1.0" stroke-linejoin="round" stroke-linecap="butt" stroke-dasharray="1.0,3.0" d="m68.227844 176.09512l24.040108 -24.0401l72.582375 0l0 72.120316l-24.0401 24.040115l-72.58238 0zm0 0l72.58238 0l24.0401 -24.0401m-24.0401 24.0401l0 72.12033" fill-rule="evenodd"/><path fill="#ffffff" fill-opacity="0.7135" d="m188.03612 128.5802l72.58238 0l0 72.12033l-72.58238 0z" fill-rule="evenodd"/><path fill="#cbcbcb" fill-opacity="0.7135" d="m260.6185 128.5802l24.0401 -24.0401l0 72.120316l-24.0401 24.040115z" fill-rule="evenodd"/><path fill="#ffffff" fill-opacity="0.7135" d="m188.03612 128.5802l24.0401 -24.0401l72.58238 0l-24.0401 24.0401z" fill-rule="evenodd"/><path fill="#000000" fill-opacity="0.0" d="m188.03612 128.5802l24.0401 -24.0401l72.58238 0l0 72.120316l-24.0401 24.040115l-72.58238 0zm0 0l72.58238 0l24.0401 -24.0401m-24.0401 24.0401l0 72.12033" fill-rule="evenodd"/><path stroke="#000000" stroke-width="1.0" stroke-linejoin="round" stroke-linecap="butt" stroke-dasharray="1.0,3.0" d="m188.03612 128.5802l24.0401 -24.0401l72.58238 0l0 72.120316l-24.0401 24.040115l-72.58238 0zm0 0l72.58238 0l24.0401 -24.0401m-24.0401 24.0401l0 72.12033" fill-rule="evenodd"/><path fill="#ffffff" fill-opacity="0.7135" d="m164.60027 152.1068l72.58238 0l0 72.12033l-72.58238 0z" fill-rule="evenodd"/><path fill="#cbcbcb" fill-opacity="0.7135" d="m237.18265 152.1068l24.0401 -24.0401l0 72.120316l-24.0401 24.040115z" fill-rule="evenodd"/><path fill="#ffffff" fill-opacity="0.7135" d="m164.60027 152.1068l24.0401 -24.0401l72.58238 0l-24.0401 24.0401z" fill-rule="evenodd"/><path fill="#000000" fill-opacity="0.0" d="m164.60027 152.1068l24.0401 -24.0401l72.58238 0l0 72.120316l-24.0401 24.040115l-72.58238 0zm0 0l72.58238 0l24.0401 -24.0401m-24.0401 24.0401l0 72.12033" fill-rule="evenodd"/><path stroke="#000000" stroke-width="1.0" stroke-linejoin="round" stroke-linecap="butt" stroke-dasharray="1.0,3.0" d="m164.60027 152.1068l24.0401 -24.0401l72.58238 0l0 72.120316l-24.0401 24.040115l-72.58238 0zm0 0l72.58238 0l24.0401 -24.0401m-24.0401 24.0401l0 72.12033" fill-rule="evenodd"/><path fill="#ffffff" fill-opacity="0.7135" d="m140.22784 176.09512l72.58238 0l0 72.12033l-72.58238 0z" fill-rule="evenodd"/><path fill="#cbcbcb" fill-opacity="0.7135" d="m212.81023 176.09512l24.0401 -24.0401l0 72.120316l-24.0401 24.040115z" fill-rule="evenodd"/><path fill="#ffffff" fill-opacity="0.7135" d="m140.22784 176.09512l24.0401 -24.0401l72.58238 0l-24.0401 24.0401z" fill-rule="evenodd"/><path fill="#000000" fill-opacity="0.0" d="m140.22784 176.09512l24.0401 -24.0401l72.58238 0l0 72.120316l-24.0401 24.040115l-72.58238 0zm0 0l72.58238 0l24.0401 -24.0401m-24.0401 24.0401l0 72.12033" fill-rule="evenodd"/><path stroke="#000000" stroke-width="1.0" stroke-linejoin="round" stroke-linecap="butt" stroke-dasharray="1.0,3.0" d="m140.22784 176.09512l24.0401 -24.0401l72.58238 0l0 72.120316l-24.0401 24.040115l-72.58238 0zm0 0l72.58238 0l24.0401 -24.0401m-24.0401 24.0401l0 72.12033" fill-rule="evenodd"/><path fill="#ffffff" fill-opacity="0.7135" d="m260.0361 128.5802l72.5824 0l0 72.12033l-72.5824 0z" fill-rule="evenodd"/><path fill="#cbcbcb" fill-opacity="0.7135" d="m332.6185 128.5802l24.0401 -24.0401l0 72.120316l-24.0401 24.040115z" fill-rule="evenodd"/><path fill="#ffffff" fill-opacity="0.7135" d="m260.0361 128.5802l24.04013 -24.0401l72.58237 0l-24.0401 24.0401z" fill-rule="evenodd"/><path fill="#000000" fill-opacity="0.0" d="m260.0361 128.5802l24.04013 -24.0401l72.58237 0l0 72.120316l-24.0401 24.040115l-72.5824 0zm0 0l72.5824 0l24.0401 -24.0401m-24.0401 24.0401l0 72.12033" fill-rule="evenodd"/><path stroke="#000000" stroke-width="1.0" stroke-linejoin="round" stroke-linecap="butt" stroke-dasharray="1.0,3.0" d="m260.0361 128.5802l24.04013 -24.0401l72.58237 0l0 72.120316l-24.0401 24.040115l-72.5824 0zm0 0l72.5824 0l24.0401 -24.0401m-24.0401 24.0401l0 72.12033" fill-rule="evenodd"/><path fill="#ffffff" fill-opacity="0.7135" d="m236.60027 152.1068l72.58238 0l0 72.12033l-72.58238 0z" fill-rule="evenodd"/><path fill="#cbcbcb" fill-opacity="0.7135" d="m309.18265 152.1068l24.0401 -24.0401l0 72.120316l-24.0401 24.040115z" fill-rule="evenodd"/><path fill="#ffffff" fill-opacity="0.7135" d="m236.60027 152.1068l24.040115 -24.0401l72.58237 0l-24.0401 24.0401z" fill-rule="evenodd"/><path fill="#000000" fill-opacity="0.0" d="m236.60027 152.1068l24.040115 -24.0401l72.58237 0l0 72.120316l-24.0401 24.040115l-72.58238 0zm0 0l72.58238 0l24.0401 -24.0401m-24.0401 24.0401l0 72.12033" fill-rule="evenodd"/><path stroke="#000000" stroke-width="1.0" stroke-linejoin="round" stroke-linecap="butt" stroke-dasharray="1.0,3.0" d="m236.60027 152.1068l24.040115 -24.0401l72.58237 0l0 72.120316l-24.0401 24.040115l-72.58238 0zm0 0l72.58238 0l24.0401 -24.0401m-24.0401 24.0401l0 72.12033" fill-rule="evenodd"/><path fill="#ffffff" fill-opacity="0.7135" d="m212.22784 176.09512l72.58237 0l0 72.12033l-72.58237 0z" fill-rule="evenodd"/><path fill="#cbcbcb" fill-opacity="0.7135" d="m284.8102 176.09512l24.04013 -24.0401l0 72.120316l-24.04013 24.040115z" fill-rule="evenodd"/><path fill="#ffffff" fill-opacity="0.7135" d="m212.22784 176.09512l24.0401 -24.0401l72.5824 0l-24.04013 24.0401z" fill-rule="evenodd"/><path fill="#000000" fill-opacity="0.0" d="m212.22784 176.09512l24.0401 -24.0401l72.5824 0l0 72.120316l-24.04013 24.040115l-72.58237 0zm0 0l72.58237 0l24.04013 -24.0401m-24.04013 24.0401l0 72.12033" fill-rule="evenodd"/><path stroke="#000000" stroke-width="1.0" stroke-linejoin="round" stroke-linecap="butt" stroke-dasharray="1.0,3.0" d="m212.22784 176.09512l24.0401 -24.0401l72.5824 0l0 72.120316l-24.04013 24.040115l-72.58237 0zm0 0l72.58237 0l24.04013 -24.0401m-24.04013 24.0401l0 72.12033" fill-rule="evenodd"/><path fill="#cc0000" fill-opacity="0.8315" d="m355.34796 247.0765l72.5824 0l0 72.12033l-72.5824 0z" fill-rule="evenodd"/><path fill="#a30000" fill-opacity="0.8315" d="m427.93036 247.0765l24.0401 -24.0401l0 72.12033l-24.0401 24.0401z" fill-rule="evenodd"/><path fill="#d63333" fill-opacity="0.8315" d="m355.34796 247.0765l24.04013 -24.0401l72.58237 0l-24.0401 24.0401z" fill-rule="evenodd"/><path fill="#000000" fill-opacity="0.0" d="m355.34796 247.0765l24.04013 -24.0401l72.58237 0l0 72.12033l-24.0401 24.0401l-72.5824 0zm0 0l72.5824 0l24.0401 -24.0401m-24.0401 24.0401l0 72.12033" fill-rule="evenodd"/><path stroke="#000000" stroke-width="1.0" stroke-linejoin="round" stroke-linecap="butt" stroke-dasharray="1.0,3.0" d="m355.34796 247.0765l24.04013 -24.0401l72.58237 0l0 72.12033l-24.0401 24.0401l-72.5824 0zm0 0l72.5824 0l24.0401 -24.0401m-24.0401 24.0401l0 72.12033" fill-rule="evenodd"/><path fill="#6aa84f" fill-opacity="0.7865" d="m331.24872 271.06052l72.58237 0l0 72.12033l-72.58237 0z" fill-rule="evenodd"/><path fill="#54863f" fill-opacity="0.7865" d="m403.8311 271.06052l24.04013 -24.0401l0 72.12033l-24.04013 24.0401z" fill-rule="evenodd"/><path fill="#87b972" fill-opacity="0.7865" d="m331.24872 271.06052l24.0401 -24.0401l72.5824 0l-24.04013 24.0401z" fill-rule="evenodd"/><path fill="#000000" fill-opacity="0.0" d="m331.24872 271.06052l24.0401 -24.0401l72.5824 0l0 72.12033l-24.04013 24.0401l-72.58237 0zm0 0l72.58237 0l24.04013 -24.0401m-24.04013 24.0401l0 72.12033" fill-rule="evenodd"/><path stroke="#000000" stroke-width="1.0" stroke-linejoin="round" stroke-linecap="butt" stroke-dasharray="1.0,3.0" d="m331.24872 271.06052l24.0401 -24.0401l72.5824 0l0 72.12033l-24.04013 24.0401l-72.58237 0zm0 0l72.58237 0l24.04013 -24.0401m-24.04013 24.0401l0 72.12033" fill-rule="evenodd"/><path fill="#6aa84f" fill-opacity="0.7865" d="m307.81287 294.58713l72.58237 0l0 72.1203l-72.58237 0z" fill-rule="evenodd"/><path fill="#54863f" fill-opacity="0.7865" d="m380.39523 294.58713l24.04013 -24.04013l0 72.12033l-24.04013 24.0401z" fill-rule="evenodd"/><path fill="#87b972" fill-opacity="0.7865" d="m307.81287 294.58713l24.0401 -24.04013l72.5824 0l-24.04013 24.04013z" fill-rule="evenodd"/><path fill="#000000" fill-opacity="0.0" d="m307.81287 294.58713l24.0401 -24.04013l72.5824 0l0 72.12033l-24.04013 24.0401l-72.58237 0zm0 0l72.58237 0l24.04013 -24.04013m-24.04013 24.04013l0 72.1203" fill-rule="evenodd"/><path stroke="#000000" stroke-width="1.0" stroke-linejoin="round" stroke-linecap="butt" stroke-dasharray="1.0,3.0" d="m307.81287 294.58713l24.0401 -24.04013l72.5824 0l0 72.12033l-24.04013 24.0401l-72.58237 0zm0 0l72.58237 0l24.04013 -24.04013m-24.04013 24.04013l0 72.1203" fill-rule="evenodd"/><path fill="#6aa84f" fill-opacity="0.7865" d="m283.44043 318.57544l72.5824 0l0 72.12033l-72.5824 0z" fill-rule="evenodd"/><path fill="#54863f" fill-opacity="0.7865" d="m356.02283 318.57544l24.0401 -24.0401l0 72.12033l-24.0401 24.0401z" fill-rule="evenodd"/><path fill="#87b972" fill-opacity="0.7865" d="m283.44043 318.57544l24.04013 -24.0401l72.58237 0l-24.0401 24.0401z" fill-rule="evenodd"/><path fill="#000000" fill-opacity="0.0" d="m283.44043 318.57544l24.04013 -24.0401l72.58237 0l0 72.12033l-24.0401 24.0401l-72.5824 0zm0 0l72.5824 0l24.0401 -24.0401m-24.0401 24.0401l0 72.12033" fill-rule="evenodd"/><path stroke="#000000" stroke-width="1.0" stroke-linejoin="round" stroke-linecap="butt" stroke-dasharray="1.0,3.0" d="m283.44043 318.57544l24.04013 -24.0401l72.58237 0l0 72.12033l-24.0401 24.0401l-72.5824 0zm0 0l72.5824 0l24.0401 -24.0401m-24.0401 24.0401l0 72.12033" fill-rule="evenodd"/><path fill="#cc0000" fill-opacity="0.8315" d="m355.34796 175.0765l72.5824 0l0 72.12033l-72.5824 0z" fill-rule="evenodd"/><path fill="#a30000" fill-opacity="0.8315" d="m427.93036 175.0765l24.0401 -24.0401l0 72.120316l-24.0401 24.040115z" fill-rule="evenodd"/><path fill="#d63333" fill-opacity="0.8315" d="m355.34796 175.0765l24.04013 -24.0401l72.58237 0l-24.0401 24.0401z" fill-rule="evenodd"/><path fill="#000000" fill-opacity="0.0" d="m355.34796 175.0765l24.04013 -24.0401l72.58237 0l0 72.120316l-24.0401 24.040115l-72.5824 0zm0 0l72.5824 0l24.0401 -24.0401m-24.0401 24.0401l0 72.12033" fill-rule="evenodd"/><path stroke="#000000" stroke-width="1.0" stroke-linejoin="round" stroke-linecap="butt" stroke-dasharray="1.0,3.0" d="m355.34796 175.0765l24.04013 -24.0401l72.58237 0l0 72.120316l-24.0401 24.040115l-72.5824 0zm0 0l72.5824 0l24.0401 -24.0401m-24.0401 24.0401l0 72.12033" fill-rule="evenodd"/><path fill="#6aa84f" fill-opacity="0.7865" d="m331.24872 199.06052l72.58237 0l0 72.12033l-72.58237 0z" fill-rule="evenodd"/><path fill="#54863f" fill-opacity="0.7865" d="m403.8311 199.06052l24.04013 -24.0401l0 72.120316l-24.04013 24.040115z" fill-rule="evenodd"/><path fill="#87b972" fill-opacity="0.7865" d="m331.24872 199.06052l24.0401 -24.0401l72.5824 0l-24.04013 24.0401z" fill-rule="evenodd"/><path fill="#000000" fill-opacity="0.0" d="m331.24872 199.06052l24.0401 -24.0401l72.5824 0l0 72.120316l-24.04013 24.040115l-72.58237 0zm0 0l72.58237 0l24.04013 -24.0401m-24.04013 24.0401l0 72.12033" fill-rule="evenodd"/><path stroke="#000000" stroke-width="1.0" stroke-linejoin="round" stroke-linecap="butt" stroke-dasharray="1.0,3.0" d="m331.24872 199.06052l24.0401 -24.0401l72.5824 0l0 72.120316l-24.04013 24.040115l-72.58237 0zm0 0l72.58237 0l24.04013 -24.0401m-24.04013 24.0401l0 72.12033" fill-rule="evenodd"/><path fill="#6aa84f" fill-opacity="0.7865" d="m307.81287 222.58711l72.58237 0l0 72.120316l-72.58237 0z" fill-rule="evenodd"/><path fill="#54863f" fill-opacity="0.7865" d="m380.39523 222.58711l24.04013 -24.0401l0 72.120316l-24.04013 24.0401z" fill-rule="evenodd"/><path fill="#87b972" fill-opacity="0.7865" d="m307.81287 222.58711l24.0401 -24.0401l72.5824 0l-24.04013 24.0401z" fill-rule="evenodd"/><path fill="#000000" fill-opacity="0.0" d="m307.81287 222.58711l24.0401 -24.0401l72.5824 0l0 72.120316l-24.04013 24.0401l-72.58237 0zm0 0l72.58237 0l24.04013 -24.0401m-24.04013 24.0401l0 72.120316" fill-rule="evenodd"/><path stroke="#000000" stroke-width="1.0" stroke-linejoin="round" stroke-linecap="butt" stroke-dasharray="1.0,3.0" d="m307.81287 222.58711l24.0401 -24.0401l72.5824 0l0 72.120316l-24.04013 24.0401l-72.58237 0zm0 0l72.58237 0l24.04013 -24.0401m-24.04013 24.0401l0 72.120316" fill-rule="evenodd"/><path fill="#6aa84f" fill-opacity="0.7865" d="m283.44043 246.57544l72.5824 0l0 72.12033l-72.5824 0z" fill-rule="evenodd"/><path fill="#54863f" fill-opacity="0.7865" d="m356.02283 246.57544l24.0401 -24.0401l0 72.12033l-24.0401 24.0401z" fill-rule="evenodd"/><path fill="#87b972" fill-opacity="0.7865" d="m283.44043 246.57544l24.04013 -24.0401l72.58237 0l-24.0401 24.0401z" fill-rule="evenodd"/><path fill="#000000" fill-opacity="0.0" d="m283.44043 246.57544l24.04013 -24.0401l72.58237 0l0 72.12033l-24.0401 24.0401l-72.5824 0zm0 0l72.5824 0l24.0401 -24.0401m-24.0401 24.0401l0 72.12033" fill-rule="evenodd"/><path stroke="#000000" stroke-width="1.0" stroke-linejoin="round" stroke-linecap="butt" stroke-dasharray="1.0,3.0" d="m283.44043 246.57544l24.04013 -24.0401l72.58237 0l0 72.12033l-24.0401 24.0401l-72.5824 0zm0 0l72.5824 0l24.0401 -24.0401m-24.0401 24.0401l0 72.12033" fill-rule="evenodd"/><path fill="#cc0000" fill-opacity="0.8315" d="m355.34796 103.07651l72.5824 0l0 72.12033l-72.5824 0z" fill-rule="evenodd"/><path fill="#a30000" fill-opacity="0.8315" d="m427.93036 103.07651l24.0401 -24.040108l0 72.12032l-24.0401 24.040115z" fill-rule="evenodd"/><path fill="#d63333" fill-opacity="0.8315" d="m355.34796 103.07651l24.04013 -24.040108l72.58237 0l-24.0401 24.040108z" fill-rule="evenodd"/><path fill="#000000" fill-opacity="0.0" d="m355.34796 103.07651l24.04013 -24.040108l72.58237 0l0 72.12032l-24.0401 24.040115l-72.5824 0zm0 0l72.5824 0l24.0401 -24.040108m-24.0401 24.040108l0 72.12033" fill-rule="evenodd"/><path stroke="#000000" stroke-width="1.0" stroke-linejoin="round" stroke-linecap="butt" stroke-dasharray="1.0,3.0" d="m355.34796 103.07651l24.04013 -24.040108l72.58237 0l0 72.12032l-24.0401 24.040115l-72.5824 0zm0 0l72.5824 0l24.0401 -24.040108m-24.0401 24.040108l0 72.12033" fill-rule="evenodd"/><path fill="#6aa84f" fill-opacity="0.7865" d="m331.24872 127.06052l72.58237 0l0 72.12033l-72.58237 0z" fill-rule="evenodd"/><path fill="#54863f" fill-opacity="0.7865" d="m403.8311 127.06052l24.04013 -24.040108l0 72.12032l-24.04013 24.040115z" fill-rule="evenodd"/><path fill="#87b972" fill-opacity="0.7865" d="m331.24872 127.06052l24.0401 -24.040108l72.5824 0l-24.04013 24.040108z" fill-rule="evenodd"/><path fill="#000000" fill-opacity="0.0" d="m331.24872 127.06052l24.0401 -24.040108l72.5824 0l0 72.12032l-24.04013 24.040115l-72.58237 0zm0 0l72.58237 0l24.04013 -24.040108m-24.04013 24.040108l0 72.12033" fill-rule="evenodd"/><path stroke="#000000" stroke-width="1.0" stroke-linejoin="round" stroke-linecap="butt" stroke-dasharray="1.0,3.0" d="m331.24872 127.06052l24.0401 -24.040108l72.5824 0l0 72.12032l-24.04013 24.040115l-72.58237 0zm0 0l72.58237 0l24.04013 -24.040108m-24.04013 24.040108l0 72.12033" fill-rule="evenodd"/><path fill="#6aa84f" fill-opacity="0.7865" d="m307.81287 150.58711l72.58237 0l0 72.12033l-72.58237 0z" fill-rule="evenodd"/><path fill="#54863f" fill-opacity="0.7865" d="m380.39523 150.58711l24.04013 -24.040108l0 72.12032l-24.04013 24.040115z" fill-rule="evenodd"/><path fill="#87b972" fill-opacity="0.7865" d="m307.81287 150.58711l24.0401 -24.040108l72.5824 0l-24.04013 24.040108z" fill-rule="evenodd"/><path fill="#000000" fill-opacity="0.0" d="m307.81287 150.58711l24.0401 -24.040108l72.5824 0l0 72.12032l-24.04013 24.040115l-72.58237 0zm0 0l72.58237 0l24.04013 -24.040108m-24.04013 24.040108l0 72.12033" fill-rule="evenodd"/><path stroke="#000000" stroke-width="1.0" stroke-linejoin="round" stroke-linecap="butt" stroke-dasharray="1.0,3.0" d="m307.81287 150.58711l24.0401 -24.040108l72.5824 0l0 72.12032l-24.04013 24.040115l-72.58237 0zm0 0l72.58237 0l24.04013 -24.040108m-24.04013 24.040108l0 72.12033" fill-rule="evenodd"/><path fill="#6aa84f" fill-opacity="0.7865" d="m283.44043 174.57544l72.5824 0l0 72.12033l-72.5824 0z" fill-rule="evenodd"/><path fill="#54863f" fill-opacity="0.7865" d="m356.02283 174.57544l24.0401 -24.0401l0 72.120316l-24.0401 24.040115z" fill-rule="evenodd"/><path fill="#87b972" fill-opacity="0.7865" d="m283.44043 174.57544l24.04013 -24.0401l72.58237 0l-24.0401 24.0401z" fill-rule="evenodd"/><path fill="#000000" fill-opacity="0.0" d="m283.44043 174.57544l24.04013 -24.0401l72.58237 0l0 72.120316l-24.0401 24.040115l-72.5824 0zm0 0l72.5824 0l24.0401 -24.0401m-24.0401 24.0401l0 72.12033" fill-rule="evenodd"/><path stroke="#000000" stroke-width="1.0" stroke-linejoin="round" stroke-linecap="butt" stroke-dasharray="1.0,3.0" d="m283.44043 174.57544l24.04013 -24.0401l72.58237 0l0 72.120316l-24.0401 24.040115l-72.5824 0zm0 0l72.5824 0l24.0401 -24.0401m-24.0401 24.0401l0 72.12033" fill-rule="evenodd"/><path fill="#000000" fill-opacity="0.0" d="m45.070866 182.08432l321.7323 0" fill-rule="evenodd"/><path stroke="#000000" stroke-width="3.0" stroke-linejoin="round" stroke-linecap="butt" d="m45.070866 182.08432l303.7323 0" fill-rule="evenodd"/><path fill="#000000" stroke="#000000" stroke-width="3.0" stroke-linecap="butt" d="m348.80316 187.03952l13.614288 -4.9552l-13.614288 -4.9552z" fill-rule="evenodd"/><path fill="#000000" fill-opacity="0.0" d="m368.56955 148.3307l51.748047 0l0 36.81891l-51.748047 0z" fill-rule="evenodd"/><path fill="#000000" d="m379.77267 169.20695l0 -4.0625l4.390625 0l0 4.0625l-4.390625 0zm4.390625 2.25l0 16.078125q0 3.171875 -0.421875 4.46875q-0.40625 1.3125 -1.59375 2.046875q-1.171875 0.734375 -3.0 0.734375q-0.65625 0 -1.421875 -0.125q-0.75 -0.109375 -1.625 -0.34375l0.765625 -3.75q0.3125 0.0625 0.59375 0.09375q0.265625 0.046875 0.5 0.046875q0.671875 0 1.09375 -0.296875q0.4375 -0.28125 0.578125 -0.6875q0.140625 -0.40625 0.140625 -2.4375l0 -15.828125l4.390625 0z" fill-rule="nonzero"/><path fill="#000000" fill-opacity="0.0" d="m136.56955 36.330708l51.74803 0l0 36.818897l-51.74803 0z" fill-rule="evenodd"/><path fill="#000000" d="m147.71017 76.05071l0 -22.906254l4.390625 0l0 12.156254l5.140625 -5.843754l5.40625 0l-5.671875 6.062504l6.078125 10.53125l-4.734375 0l-4.171875 -7.453125l-2.046875 2.140625l0 5.3125l-4.390625 0z" fill-rule="nonzero"/><path fill="#000000" fill-opacity="0.0" d="m32.569553 444.33072l51.748035 0l0 36.81888l-51.748035 0z" fill-rule="evenodd"/><path fill="#000000" d="m43.86643 465.20697l0 -4.0625l4.390625 0l0 4.0625l-4.390625 0zm0 18.84375l0 -16.59375l4.390625 0l0 16.59375l-4.390625 0z" fill-rule="nonzero"/><path fill="#000000" fill-opacity="0.0" d="m520.9974 163.12862l-74.36221 0" fill-rule="evenodd"/><path stroke="#000000" stroke-width="3.0" stroke-linejoin="round" stroke-linecap="butt" d="m520.9974 163.12862l-56.362213 0" fill-rule="evenodd"/><path fill="#000000" stroke="#000000" stroke-width="3.0" stroke-linecap="butt" d="m464.63516 158.17342l-13.614288 4.9552l13.614288 4.955185z" fill-rule="evenodd"/><path fill="#000000" fill-opacity="0.0" d="m520.9974 132.70604l184.25195 0l0 36.818893l-184.25195 0z" fill-rule="evenodd"/><path fill="#000000" d="m539.013 172.42604l-8.875 -22.90625l3.28125 0l5.953125 16.640625q0.71875 2.0 1.203125 3.75q0.53125 -1.875 1.234375 -3.75l6.1875 -16.640625l3.09375 0l-8.96875 22.90625l-3.109375 0zm11.625 -8.296875q0 -4.609375 2.5625 -6.828125q2.140625 -1.84375 5.21875 -1.84375q3.421875 0 5.59375 2.25q2.171875 2.234375 2.171875 6.1875q0 3.203125 -0.96875 5.046875q-0.953125 1.828125 -2.796875 2.84375q-1.828125 1.015625 -4.0 1.015625q-3.484375 0 -5.640625 -2.234375q-2.140625 -2.234375 -2.140625 -6.4375zm2.890625 0q0 3.1875 1.390625 4.78125q1.390625 1.578125 3.5 1.578125q2.09375 0 3.484375 -1.59375q1.390625 -1.59375 1.390625 -4.859375q0 -3.078125 -1.40625 -4.65625q-1.390625 -1.59375 -3.46875 -1.59375q-2.109375 0 -3.5 1.578125q-1.390625 1.578125 -1.390625 4.765625zm15.890625 8.296875l0 -22.90625l2.8125 0l0 22.90625l-2.8125 0zm18.046875 0l0 -2.4375q-1.9375 2.8125 -5.265625 2.8125q-1.46875 0 -2.75 -0.5625q-1.265625 -0.5625 -1.890625 -1.40625q-0.609375 -0.859375 -0.859375 -2.09375q-0.171875 -0.828125 -0.171875 -2.625l0 -10.28125l2.8125 0l0 9.203125q0 2.203125 0.171875 2.96875q0.265625 1.109375 1.125 1.75q0.859375 0.625 2.125 0.625q1.265625 0 2.375 -0.640625q1.109375 -0.65625 1.5625 -1.765625q0.46875 -1.125 0.46875 -3.25l0 -8.890625l2.8125 0l0 16.59375l-2.515625 0zm6.921875 0l0 -16.59375l2.515625 0l0 2.328125q0.78125 -1.21875 2.078125 -1.953125q1.296875 -0.75 2.953125 -0.75q1.84375 0 3.015625 0.765625q1.1875 0.765625 1.671875 2.140625q1.96875 -2.90625 5.125 -2.90625q2.46875 0 3.796875 1.375q1.328125 1.359375 1.328125 4.203125l0 11.390625l-2.796875 0l0 -10.453125q0 -1.6875 -0.28125 -2.421875q-0.265625 -0.75 -0.984375 -1.203125q-0.71875 -0.453125 -1.6875 -0.453125q-1.75 0 -2.90625 1.171875q-1.15625 1.15625 -1.15625 3.71875l0 9.640625l-2.8125 0l0 -10.78125q0 -1.875 -0.6875 -2.8125q-0.6875 -0.9375 -2.25 -0.9375q-1.1875 0 -2.203125 0.625q-1.0 0.625 -1.453125 1.828125q-0.453125 1.203125 -0.453125 3.46875l0 8.609375l-2.8125 0zm38.015625 -5.34375l2.90625 0.359375q-0.6875 2.546875 -2.546875 3.953125q-1.859375 1.40625 -4.75 1.40625q-3.640625 0 -5.78125 -2.234375q-2.125 -2.25 -2.125 -6.296875q0 -4.1875 2.15625 -6.5q2.15625 -2.3125 5.59375 -2.3125q3.328125 0 5.4375 2.265625q2.109375 2.265625 2.109375 6.375q0 0.25 -0.015625 0.75l-12.375 0q0.15625 2.734375 1.546875 4.1875q1.390625 1.453125 3.46875 1.453125q1.546875 0 2.640625 -0.8125q1.09375 -0.8125 1.734375 -2.59375zm-9.234375 -4.546875l9.265625 0q-0.1875 -2.09375 -1.0625 -3.140625q-1.34375 -1.625 -3.484375 -1.625q-1.9375 0 -3.265625 1.296875q-1.3125 1.296875 -1.453125 3.46875zm26.765625 -9.171875l0 3.265625l-3.015625 0l0 -2.578125q0 -2.09375 0.5 -3.03125q0.65625 -1.25 2.078125 -1.890625l0.6875 1.09375q-0.859375 0.359375 -1.265625 1.078125q-0.40625 0.703125 -0.453125 2.0625l1.46875 0zm4.84375 0l0 3.265625l-3.015625 0l0 -2.578125q0 -2.09375 0.5 -3.03125q0.65625 -1.25 2.078125 -1.890625l0.6875 1.09375q-0.859375 0.359375 -1.265625 1.078125q-0.40625 0.703125 -0.453125 2.0625l1.46875 0zm6.203125 19.0625l-2.609375 0l0 -22.90625l2.8125 0l0 8.171875q1.78125 -2.234375 4.546875 -2.234375q1.53125 0 2.890625 0.625q1.375 0.609375 2.25 1.734375q0.890625 1.109375 1.390625 2.6875q0.5 1.578125 0.5 3.375q0 4.265625 -2.109375 6.59375q-2.109375 2.328125 -5.0625 2.328125q-2.9375 0 -4.609375 -2.453125l0 2.078125zm-0.03125 -8.421875q0 2.984375 0.8125 4.3125q1.328125 2.171875 3.59375 2.171875q1.84375 0 3.1875 -1.59375q1.34375 -1.609375 1.34375 -4.78125q0 -3.25 -1.296875 -4.796875q-1.28125 -1.546875 -3.109375 -1.546875q-1.84375 0 -3.1875 1.609375q-1.34375 1.59375 -1.34375 4.625zm14.484375 -11.453125l0 -3.265625l3.015625 0l0 2.578125q0 2.09375 -0.484375 3.015625q-0.671875 1.265625 -2.09375 1.90625l-0.6875 -1.109375q0.84375 -0.34375 1.25 -1.078125q0.421875 -0.75 0.46875 -2.046875l-1.46875 0zm4.84375 0l0 -3.265625l3.015625 0l0 2.578125q0 2.09375 -0.484375 3.015625q-0.671875 1.265625 -2.09375 1.90625l-0.6875 -1.109375q0.84375 -0.34375 1.25 -1.078125q0.421875 -0.75 0.46875 -2.046875l-1.46875 0z" fill-rule="nonzero"/><path fill="#000000" fill-opacity="0.0" d="m520.9974 91.12861l-253.5433 0" fill-rule="evenodd"/><path stroke="#000000" stroke-width="3.0" stroke-linejoin="round" stroke-linecap="butt" d="m520.9974 91.12861l-235.5433 0" fill-rule="evenodd"/><path fill="#000000" stroke="#000000" stroke-width="3.0" stroke-linecap="butt" d="m285.45407 86.17341l-13.614288 4.9552l13.614288 4.9552z" fill-rule="evenodd"/><path fill="#000000" fill-opacity="0.0" d="m520.9974 60.706036l184.25195 0l0 36.818897l-184.25195 0z" fill-rule="evenodd"/><path fill="#000000" d="m539.013 100.42604l-8.875 -22.90625l3.28125 0l5.953125 16.640625q0.71875 2.0 1.203125 3.75q0.53125 -1.875 1.234375 -3.75l6.1875 -16.640625l3.09375 0l-8.96875 22.90625l-3.109375 0zm11.625 -8.296875q0 -4.609375 2.5625 -6.828125q2.140625 -1.84375 5.21875 -1.84375q3.421875 0 5.59375 2.25q2.171875 2.234375 2.171875 6.1875q0 3.203125 -0.96875 5.046875q-0.953125 1.828125 -2.796875 2.84375q-1.828125 1.015625 -4.0 1.015625q-3.484375 0 -5.640625 -2.234375q-2.140625 -2.234375 -2.140625 -6.4375zm2.890625 0q0 3.1875 1.390625 4.78125q1.390625 1.578125 3.5 1.578125q2.09375 0 3.484375 -1.59375q1.390625 -1.59375 1.390625 -4.859375q0 -3.078125 -1.40625 -4.65625q-1.390625 -1.59375 -3.46875 -1.59375q-2.109375 0 -3.5 1.578125q-1.390625 1.578125 -1.390625 4.765625zm15.890625 8.296875l0 -22.90625l2.8125 0l0 22.90625l-2.8125 0zm18.046875 0l0 -2.4375q-1.9375 2.8125 -5.265625 2.8125q-1.46875 0 -2.75 -0.5625q-1.265625 -0.5625 -1.890625 -1.40625q-0.609375 -0.859375 -0.859375 -2.09375q-0.171875 -0.828125 -0.171875 -2.625l0 -10.28125l2.8125 0l0 9.203125q0 2.203125 0.171875 2.96875q0.265625 1.109375 1.125 1.75q0.859375 0.625 2.125 0.625q1.265625 0 2.375 -0.640625q1.109375 -0.65625 1.5625 -1.765625q0.46875 -1.125 0.46875 -3.25l0 -8.890625l2.8125 0l0 16.59375l-2.515625 0zm6.921875 0l0 -16.59375l2.515625 0l0 2.328125q0.78125 -1.21875 2.078125 -1.953125q1.296875 -0.75 2.953125 -0.75q1.84375 0 3.015625 0.765625q1.1875 0.765625 1.671875 2.140625q1.96875 -2.90625 5.125 -2.90625q2.46875 0 3.796875 1.375q1.328125 1.359375 1.328125 4.203125l0 11.390625l-2.796875 0l0 -10.453125q0 -1.6875 -0.28125 -2.421875q-0.265625 -0.75 -0.984375 -1.203125q-0.71875 -0.453125 -1.6875 -0.453125q-1.75 0 -2.90625 1.171875q-1.15625 1.15625 -1.15625 3.71875l0 9.640625l-2.8125 0l0 -10.78125q0 -1.875 -0.6875 -2.8125q-0.6875 -0.9375 -2.25 -0.9375q-1.1875 0 -2.203125 0.625q-1.0 0.625 -1.453125 1.828125q-0.453125 1.203125 -0.453125 3.46875l0 8.609375l-2.8125 0zm38.015625 -5.34375l2.90625 0.359375q-0.6875 2.546875 -2.546875 3.953125q-1.859375 1.40625 -4.75 1.40625q-3.640625 0 -5.78125 -2.234375q-2.125 -2.25 -2.125 -6.296875q0 -4.1875 2.15625 -6.5q2.15625 -2.3125 5.59375 -2.3125q3.328125 0 5.4375 2.265625q2.109375 2.265625 2.109375 6.375q0 0.25 -0.015625 0.75l-12.375 0q0.15625 2.734375 1.546875 4.1875q1.390625 1.453125 3.46875 1.453125q1.546875 0 2.640625 -0.8125q1.09375 -0.8125 1.734375 -2.59375zm-9.234375 -4.546875l9.265625 0q-0.1875 -2.09375 -1.0625 -3.140625q-1.34375 -1.625 -3.484375 -1.625q-1.9375 0 -3.265625 1.296875q-1.3125 1.296875 -1.453125 3.46875zm26.765625 -9.171875l0 3.265625l-3.015625 0l0 -2.578125q0 -2.09375 0.5 -3.03125q0.65625 -1.25 2.078125 -1.890625l0.6875 1.09375q-0.859375 0.359375 -1.265625 1.078125q-0.40625 0.703125 -0.453125 2.0625l1.46875 0zm4.84375 0l0 3.265625l-3.015625 0l0 -2.578125q0 -2.09375 0.5 -3.03125q0.65625 -1.25 2.078125 -1.890625l0.6875 1.09375q-0.859375 0.359375 -1.265625 1.078125q-0.40625 0.703125 -0.453125 2.0625l1.46875 0zm14.4375 17.015625q-1.5625 1.328125 -3.015625 1.875q-1.4375 0.546875 -3.09375 0.546875q-2.734375 0 -4.203125 -1.328125q-1.46875 -1.34375 -1.46875 -3.421875q0 -1.21875 0.546875 -2.21875q0.5625 -1.015625 1.453125 -1.625q0.90625 -0.609375 2.03125 -0.921875q0.828125 -0.21875 2.5 -0.421875q3.40625 -0.40625 5.015625 -0.96875q0.015625 -0.578125 0.015625 -0.734375q0 -1.71875 -0.796875 -2.421875q-1.078125 -0.953125 -3.203125 -0.953125q-1.984375 0 -2.9375 0.703125q-0.9375 0.6875 -1.390625 2.453125l-2.75 -0.375q0.375 -1.765625 1.234375 -2.84375q0.859375 -1.09375 2.484375 -1.671875q1.625 -0.59375 3.765625 -0.59375q2.125 0 3.453125 0.5q1.328125 0.5 1.953125 1.265625q0.625 0.75 0.875 1.90625q0.140625 0.71875 0.140625 2.59375l0 3.75q0 3.921875 0.171875 4.96875q0.1875 1.03125 0.71875 1.984375l-2.9375 0q-0.4375 -0.875 -0.5625 -2.046875zm-0.234375 -6.28125q-1.53125 0.625 -4.59375 1.0625q-1.734375 0.25 -2.453125 0.5625q-0.71875 0.3125 -1.109375 0.921875q-0.390625 0.59375 -0.390625 1.328125q0 1.125 0.84375 1.875q0.859375 0.75 2.5 0.75q1.625 0 2.890625 -0.703125q1.265625 -0.71875 1.859375 -1.953125q0.453125 -0.953125 0.453125 -2.8125l0 -1.03125zm6.453125 -11.546875l0 -3.265625l3.015625 0l0 2.578125q0 2.09375 -0.484375 3.015625q-0.671875 1.265625 -2.09375 1.90625l-0.6875 -1.109375q0.84375 -0.34375 1.25 -1.078125q0.421875 -0.75 0.46875 -2.046875l-1.46875 0zm4.84375 0l0 -3.265625l3.015625 0l0 2.578125q0 2.09375 -0.484375 3.015625q-0.671875 1.265625 -2.09375 1.90625l-0.6875 -1.109375q0.84375 -0.34375 1.25 -1.078125q0.421875 -0.75 0.46875 -2.046875l-1.46875 0z" fill-rule="nonzero"/><path fill="#000000" fill-opacity="0.0" d="m520.9974 267.1286l-118.834656 0" fill-rule="evenodd"/><path stroke="#000000" stroke-width="3.0" stroke-linejoin="round" stroke-linecap="butt" d="m520.9974 267.1286l-100.834656 0" fill-rule="evenodd"/><path fill="#000000" stroke="#000000" stroke-width="3.0" stroke-linecap="butt" d="m420.16272 262.1734l-13.614288 4.9552l13.614288 4.9552z" fill-rule="evenodd"/><path fill="#000000" fill-opacity="0.0" d="m520.9974 236.70604l184.25195 0l0 36.818893l-184.25195 0z" fill-rule="evenodd"/><path fill="#000000" d="m539.013 276.42603l-8.875 -22.906235l3.28125 0l5.953125 16.64061q0.71875 2.0 1.203125 3.75q0.53125 -1.875 1.234375 -3.75l6.1875 -16.64061l3.09375 0l-8.96875 22.906235l-3.109375 0zm11.625 -8.296875q0 -4.609375 2.5625 -6.828125q2.140625 -1.84375 5.21875 -1.84375q3.421875 0 5.59375 2.25q2.171875 2.234375 2.171875 6.1875q0 3.203125 -0.96875 5.046875q-0.953125 1.828125 -2.796875 2.84375q-1.828125 1.015625 -4.0 1.015625q-3.484375 0 -5.640625 -2.234375q-2.140625 -2.234375 -2.140625 -6.4375zm2.890625 0q0 3.1875 1.390625 4.78125q1.390625 1.578125 3.5 1.578125q2.09375 0 3.484375 -1.59375q1.390625 -1.59375 1.390625 -4.859375q0 -3.078125 -1.40625 -4.65625q-1.390625 -1.59375 -3.46875 -1.59375q-2.109375 0 -3.5 1.578125q-1.390625 1.578125 -1.390625 4.765625zm15.890625 8.296875l0 -22.906235l2.8125 0l0 22.906235l-2.8125 0zm18.046875 0l0 -2.4375q-1.9375 2.8125 -5.265625 2.8125q-1.46875 0 -2.75 -0.5625q-1.265625 -0.5625 -1.890625 -1.40625q-0.609375 -0.859375 -0.859375 -2.09375q-0.171875 -0.828125 -0.171875 -2.625l0 -10.28125l2.8125 0l0 9.203125q0 2.203125 0.171875 2.96875q0.265625 1.109375 1.125 1.75q0.859375 0.625 2.125 0.625q1.265625 0 2.375 -0.640625q1.109375 -0.65625 1.5625 -1.765625q0.46875 -1.125 0.46875 -3.25l0 -8.890625l2.8125 0l0 16.59375l-2.515625 0zm6.921875 0l0 -16.59375l2.515625 0l0 2.328125q0.78125 -1.21875 2.078125 -1.953125q1.296875 -0.75 2.953125 -0.75q1.84375 0 3.015625 0.765625q1.1875 0.765625 1.671875 2.140625q1.96875 -2.90625 5.125 -2.90625q2.46875 0 3.796875 1.375q1.328125 1.359375 1.328125 4.203125l0 11.390625l-2.796875 0l0 -10.453125q0 -1.6875 -0.28125 -2.421875q-0.265625 -0.75 -0.984375 -1.203125q-0.71875 -0.453125 -1.6875 -0.453125q-1.75 0 -2.90625 1.171875q-1.15625 1.15625 -1.15625 3.71875l0 9.640625l-2.8125 0l0 -10.78125q0 -1.875 -0.6875 -2.8125q-0.6875 -0.9375 -2.25 -0.9375q-1.1875 0 -2.203125 0.625q-1.0 0.625 -1.453125 1.828125q-0.453125 1.203125 -0.453125 3.46875l0 8.609375l-2.8125 0zm38.015625 -5.34375l2.90625 0.359375q-0.6875 2.546875 -2.546875 3.953125q-1.859375 1.40625 -4.75 1.40625q-3.640625 0 -5.78125 -2.234375q-2.125 -2.25 -2.125 -6.296875q0 -4.1875 2.15625 -6.5q2.15625 -2.3125 5.59375 -2.3125q3.328125 0 5.4375 2.265625q2.109375 2.265625 2.109375 6.375q0 0.25 -0.015625 0.75l-12.375 0q0.15625 2.734375 1.546875 4.1875q1.390625 1.453125 3.46875 1.453125q1.546875 0 2.640625 -0.8125q1.09375 -0.8125 1.734375 -2.59375zm-9.234375 -4.546875l9.265625 0q-0.1875 -2.09375 -1.0625 -3.140625q-1.34375 -1.625 -3.484375 -1.625q-1.9375 0 -3.265625 1.296875q-1.3125 1.296875 -1.453125 3.46875zm26.765625 -9.171875l0 3.265625l-3.015625 0l0 -2.578125q0 -2.0937347 0.5 -3.0312347q0.65625 -1.25 2.078125 -1.890625l0.6875 1.09375q-0.859375 0.359375 -1.265625 1.078125q-0.40625 0.70310974 -0.453125 2.0624847l1.46875 0zm4.84375 0l0 3.265625l-3.015625 0l0 -2.578125q0 -2.0937347 0.5 -3.0312347q0.65625 -1.25 2.078125 -1.890625l0.6875 1.09375q-0.859375 0.359375 -1.265625 1.078125q-0.40625 0.70310974 -0.453125 2.0624847l1.46875 0zm14.4375 12.984375l2.765625 0.359375q-0.453125 2.859375 -2.328125 4.484375q-1.859375 1.609375 -4.578125 1.609375q-3.40625 0 -5.484375 -2.21875q-2.0625 -2.234375 -2.0625 -6.390625q0 -2.6875 0.890625 -4.703125q0.890625 -2.015625 2.703125 -3.015625q1.828125 -1.015625 3.96875 -1.015625q2.703125 0 4.421875 1.375q1.71875 1.359375 2.203125 3.875l-2.734375 0.421875q-0.390625 -1.671875 -1.390625 -2.515625q-0.984375 -0.84375 -2.390625 -0.84375q-2.125 0 -3.453125 1.53125q-1.328125 1.515625 -1.328125 4.8125q0 3.34375 1.28125 4.859375q1.28125 1.515625 3.34375 1.515625q1.65625 0 2.765625 -1.015625q1.109375 -1.015625 1.40625 -3.125zm4.421875 -13.796875l0 -3.2656097l3.015625 0l0 2.578125q0 2.0937347 -0.484375 3.0156097q-0.671875 1.265625 -2.09375 1.90625l-0.6875 -1.109375q0.84375 -0.34375 1.25 -1.078125q0.421875 -0.75 0.46875 -2.046875l-1.46875 0zm4.84375 0l0 -3.2656097l3.015625 0l0 2.578125q0 2.0937347 -0.484375 3.0156097q-0.671875 1.265625 -2.09375 1.90625l-0.6875 -1.109375q0.84375 -0.34375 1.25 -1.078125q0.421875 -0.75 0.46875 -2.046875l-1.46875 0z" fill-rule="nonzero"/><path fill="#000000" fill-opacity="0.0" d="m520.9974 379.1286l-118.834656 0" fill-rule="evenodd"/><path stroke="#000000" stroke-width="3.0" stroke-linejoin="round" stroke-linecap="butt" d="m520.9974 379.1286l-100.834656 0" fill-rule="evenodd"/><path fill="#000000" stroke="#000000" stroke-width="3.0" stroke-linecap="butt" d="m420.16272 374.1734l-13.614288 4.9552l13.614288 4.9552z" fill-rule="evenodd"/><path fill="#000000" fill-opacity="0.0" d="m520.9974 348.70602l184.25195 0l0 36.81891l-184.25195 0z" fill-rule="evenodd"/><path fill="#000000" d="m539.013 388.42603l-8.875 -22.90625l3.28125 0l5.953125 16.640625q0.71875 2.0 1.203125 3.75q0.53125 -1.875 1.234375 -3.75l6.1875 -16.640625l3.09375 0l-8.96875 22.90625l-3.109375 0zm11.625 -8.296875q0 -4.609375 2.5625 -6.828125q2.140625 -1.84375 5.21875 -1.84375q3.421875 0 5.59375 2.25q2.171875 2.234375 2.171875 6.1875q0 3.203125 -0.96875 5.046875q-0.953125 1.828125 -2.796875 2.84375q-1.828125 1.015625 -4.0 1.015625q-3.484375 0 -5.640625 -2.234375q-2.140625 -2.234375 -2.140625 -6.4375zm2.890625 0q0 3.1875 1.390625 4.78125q1.390625 1.578125 3.5 1.578125q2.09375 0 3.484375 -1.59375q1.390625 -1.59375 1.390625 -4.859375q0 -3.078125 -1.40625 -4.65625q-1.390625 -1.59375 -3.46875 -1.59375q-2.109375 0 -3.5 1.578125q-1.390625 1.578125 -1.390625 4.765625zm15.890625 8.296875l0 -22.90625l2.8125 0l0 22.90625l-2.8125 0zm18.046875 0l0 -2.4375q-1.9375 2.8125 -5.265625 2.8125q-1.46875 0 -2.75 -0.5625q-1.265625 -0.5625 -1.890625 -1.40625q-0.609375 -0.859375 -0.859375 -2.09375q-0.171875 -0.828125 -0.171875 -2.625l0 -10.28125l2.8125 0l0 9.203125q0 2.203125 0.171875 2.96875q0.265625 1.109375 1.125 1.75q0.859375 0.625 2.125 0.625q1.265625 0 2.375 -0.640625q1.109375 -0.65625 1.5625 -1.765625q0.46875 -1.125 0.46875 -3.25l0 -8.890625l2.8125 0l0 16.59375l-2.515625 0zm6.921875 0l0 -16.59375l2.515625 0l0 2.328125q0.78125 -1.21875 2.078125 -1.953125q1.296875 -0.75 2.953125 -0.75q1.84375 0 3.015625 0.765625q1.1875 0.765625 1.671875 2.140625q1.96875 -2.90625 5.125 -2.90625q2.46875 0 3.796875 1.375q1.328125 1.359375 1.328125 4.203125l0 11.390625l-2.796875 0l0 -10.453125q0 -1.6875 -0.28125 -2.421875q-0.265625 -0.75 -0.984375 -1.203125q-0.71875 -0.453125 -1.6875 -0.453125q-1.75 0 -2.90625 1.171875q-1.15625 1.15625 -1.15625 3.71875l0 9.640625l-2.8125 0l0 -10.78125q0 -1.875 -0.6875 -2.8125q-0.6875 -0.9375 -2.25 -0.9375q-1.1875 0 -2.203125 0.625q-1.0 0.625 -1.453125 1.828125q-0.453125 1.203125 -0.453125 3.46875l0 8.609375l-2.8125 0zm38.015625 -5.34375l2.90625 0.359375q-0.6875 2.546875 -2.546875 3.953125q-1.859375 1.40625 -4.75 1.40625q-3.640625 0 -5.78125 -2.234375q-2.125 -2.25 -2.125 -6.296875q0 -4.1875 2.15625 -6.5q2.15625 -2.3125 5.59375 -2.3125q3.328125 0 5.4375 2.265625q2.109375 2.265625 2.109375 6.375q0 0.25 -0.015625 0.75l-12.375 0q0.15625 2.734375 1.546875 4.1875q1.390625 1.453125 3.46875 1.453125q1.546875 0 2.640625 -0.8125q1.09375 -0.8125 1.734375 -2.59375zm-9.234375 -4.546875l9.265625 0q-0.1875 -2.09375 -1.0625 -3.140625q-1.34375 -1.625 -3.484375 -1.625q-1.9375 0 -3.265625 1.296875q-1.3125 1.296875 -1.453125 3.46875zm26.765625 -9.171875l0 3.265625l-3.015625 0l0 -2.578125q0 -2.09375 0.5 -3.03125q0.65625 -1.25 2.078125 -1.890625l0.6875 1.09375q-0.859375 0.359375 -1.265625 1.078125q-0.40625 0.703125 -0.453125 2.0625l1.46875 0zm4.84375 0l0 3.265625l-3.015625 0l0 -2.578125q0 -2.09375 0.5 -3.03125q0.65625 -1.25 2.078125 -1.890625l0.6875 1.09375q-0.859375 0.359375 -1.265625 1.078125q-0.40625 0.703125 -0.453125 2.0625l1.46875 0zm14.375 19.0625l0 -2.09375q-1.578125 2.46875 -4.640625 2.46875q-1.984375 0 -3.65625 -1.09375q-1.65625 -1.09375 -2.578125 -3.046875q-0.90625 -1.96875 -0.90625 -4.515625q0 -2.484375 0.828125 -4.5q0.828125 -2.03125 2.484375 -3.109375q1.65625 -1.078125 3.703125 -1.078125q1.5 0 2.671875 0.640625q1.171875 0.625 1.90625 1.640625l0 -8.21875l2.796875 0l0 22.90625l-2.609375 0zm-8.890625 -8.28125q0 3.1875 1.34375 4.765625q1.34375 1.578125 3.171875 1.578125q1.84375 0 3.125 -1.5q1.296875 -1.515625 1.296875 -4.609375q0 -3.40625 -1.3125 -5.0q-1.3125 -1.59375 -3.234375 -1.59375q-1.875 0 -3.140625 1.53125q-1.25 1.53125 -1.25 4.828125zm15.171875 -11.59375l0 -3.265625l3.015625 0l0 2.578125q0 2.09375 -0.484375 3.015625q-0.671875 1.265625 -2.09375 1.90625l-0.6875 -1.109375q0.84375 -0.34375 1.25 -1.078125q0.421875 -0.75 0.46875 -2.046875l-1.46875 0zm4.84375 0l0 -3.265625l3.015625 0l0 2.578125q0 2.09375 -0.484375 3.015625q-0.671875 1.265625 -2.09375 1.90625l-0.6875 -1.109375q0.84375 -0.34375 1.25 -1.078125q0.421875 -0.75 0.46875 -2.046875l-1.46875 0z" fill-rule="nonzero"/></g></svg>