<svg version="1.1" viewBox="0.0 0.0 1226.1469816272966 582.7244094488188" fill="none" stroke="none" stroke-linecap="square" stroke-miterlimit="10" xmlns:xlink="http://www.w3.org/1999/xlink" xmlns="http://www.w3.org/2000/svg"><clipPath id="p.0"><path d="m0 0l1226.147 0l0 582.7244l-1226.147 0l0 -582.7244z" clip-rule="nonzero"/></clipPath><g clip-path="url(#p.0)"><path fill="#000000" fill-opacity="0.0" d="m0 0l1226.147 0l0 582.7244l-1226.147 0z" fill-rule="evenodd"/><path fill="#cfe2f3" fill-opacity="0.8431" d="m26.165354 20.54593l185.82677 0l0 179.30708l-185.82677 0z" fill-rule="evenodd"/><path stroke="#000000" stroke-width="1.0" stroke-linejoin="round" stroke-linecap="butt" d="m26.165354 20.54593l185.82677 0l0 179.30708l-185.82677 0z" fill-rule="evenodd"/><path fill="#cfe2f3" fill-opacity="0.8431" d="m211.99213 20.54593l185.82678 0l0 179.30708l-185.82678 0z" fill-rule="evenodd"/><path stroke="#000000" stroke-width="1.0" stroke-linejoin="round" stroke-linecap="butt" d="m211.99213 20.54593l185.82678 0l0 179.30708l-185.82678 0z" fill-rule="evenodd"/><path fill="#cfe2f3" fill-opacity="0.8431" d="m397.8189 20.54593l185.82678 0l0 179.30708l-185.82678 0z" fill-rule="evenodd"/><path stroke="#000000" stroke-width="1.0" stroke-linejoin="round" stroke-linecap="butt" d="m397.8189 20.54593l185.82678 0l0 179.30708l-185.82678 0z" fill-rule="evenodd"/><path fill="#cfe2f3" d="m26.165354 199.85301l185.82677 0l0 179.30708l-185.82677 0z" fill-rule="evenodd"/><path stroke="#000000" stroke-width="1.0" stroke-linejoin="round" stroke-linecap="butt" d="m26.165354 199.85301l185.82677 0l0 179.30708l-185.82677 0z" fill-rule="evenodd"/><path fill="#cfe2f3" fill-opacity="0.8431" d="m211.99213 199.85301l185.82678 0l0 179.30708l-185.82678 0z" fill-rule="evenodd"/><path stroke="#000000" stroke-width="1.0" stroke-linejoin="round" stroke-linecap="butt" d="m211.99213 199.85301l185.82678 0l0 179.30708l-185.82678 0z" fill-rule="evenodd"/><path fill="#cfe2f3" fill-opacity="0.8431" d="m397.8189 199.85301l185.82678 0l0 179.30708l-185.82678 0z" fill-rule="evenodd"/><path stroke="#000000" stroke-width="1.0" stroke-linejoin="round" stroke-linecap="butt" d="m397.8189 199.85301l185.82678 0l0 179.30708l-185.82678 0z" fill-rule="evenodd"/><path fill="#cfe2f3" fill-opacity="0.8431" d="m26.165354 379.1601l185.82677 0l0 179.30707l-185.82677 0z" fill-rule="evenodd"/><path stroke="#000000" stroke-width="1.0" stroke-linejoin="round" stroke-linecap="butt" d="m26.165354 379.1601l185.82677 0l0 179.30707l-185.82677 0z" fill-rule="evenodd"/><path fill="#cfe2f3" d="m211.99213 379.1601l185.82678 0l0 179.30707l-185.82678 0z" fill-rule="evenodd"/><path stroke="#000000" stroke-width="1.0" stroke-linejoin="round" stroke-linecap="butt" d="m211.99213 379.1601l185.82678 0l0 179.30707l-185.82678 0z" fill-rule="evenodd"/><path fill="#cfe2f3" d="m397.8189 379.1601l185.82678 0l0 179.30707l-185.82678 0z" fill-rule="evenodd"/><path stroke="#000000" stroke-width="1.0" stroke-linejoin="round" stroke-linecap="butt" d="m397.8189 379.1601l185.82678 0l0 179.30707l-185.82678 0z" fill-rule="evenodd"/><path fill="#efefef" fill-opacity="0.7255" d="m26.622047 21.47769l280.1575 0l0 270.83466l-280.1575 0z" fill-rule="evenodd"/><path stroke="#000000" stroke-width="1.0" stroke-linejoin="round" stroke-linecap="butt" d="m26.622047 21.47769l280.1575 0l0 270.83466l-280.1575 0z" fill-rule="evenodd"/><path fill="#efefef" fill-opacity="0.7255" d="m26.622047 292.31235l280.1575 0l0 266.1417l-280.1575 0z" fill-rule="evenodd"/><path stroke="#000000" stroke-width="1.0" stroke-linejoin="round" stroke-linecap="butt" d="m26.622047 292.31235l280.1575 0l0 266.1417l-280.1575 0z" fill-rule="evenodd"/><path fill="#efefef" fill-opacity="0.7255" d="m307.23883 292.31235l276.4095 0l0 266.1417l-276.4095 0z" fill-rule="evenodd"/><path stroke="#000000" stroke-width="1.0" stroke-linejoin="round" stroke-linecap="butt" d="m307.23883 292.31235l276.4095 0l0 266.1417l-276.4095 0z" fill-rule="evenodd"/><path fill="#efefef" fill-opacity="0.7255" d="m307.23883 21.47769l276.4095 0l0 270.83466l-276.4095 0z" fill-rule="evenodd"/><path stroke="#000000" stroke-width="1.0" stroke-linejoin="round" stroke-linecap="butt" d="m307.23883 21.47769l276.4095 0l0 270.83466l-276.4095 0z" fill-rule="evenodd"/><path fill="#cc0000" fill-opacity="0.4078" d="m627.08136 199.84514l370.74017 0l0 358.61414l-370.74017 0z" fill-rule="evenodd"/><path stroke="#000000" stroke-width="1.0" stroke-linejoin="round" stroke-linecap="butt" d="m627.08136 199.84514l370.74017 0l0 358.61414l-370.74017 0z" fill-rule="evenodd"/><path fill="#cfe2f3" fill-opacity="0.8431" d="m624.8898 20.54593l185.82678 0l0 179.30708l-185.82678 0z" fill-rule="evenodd"/><path stroke="#000000" stroke-width="1.0" stroke-linejoin="round" stroke-linecap="butt" d="m624.8898 20.54593l185.82678 0l0 179.30708l-185.82678 0z" fill-rule="evenodd"/><path fill="#cfe2f3" fill-opacity="0.8431" d="m810.71655 20.54593l185.82678 0l0 179.30708l-185.82678 0z" fill-rule="evenodd"/><path stroke="#000000" stroke-width="1.0" stroke-linejoin="round" stroke-linecap="butt" d="m810.71655 20.54593l185.82678 0l0 179.30708l-185.82678 0z" fill-rule="evenodd"/><path fill="#cfe2f3" fill-opacity="0.8431" d="m996.54333 20.54593l185.82678 0l0 179.30708l-185.82678 0z" fill-rule="evenodd"/><path stroke="#000000" stroke-width="1.0" stroke-linejoin="round" stroke-linecap="butt" d="m996.54333 20.54593l185.82678 0l0 179.30708l-185.82678 0z" fill-rule="evenodd"/><path fill="#cfe2f3" d="m624.8898 199.85301l185.82678 0l0 179.30708l-185.82678 0z" fill-rule="evenodd"/><path stroke="#000000" stroke-width="1.0" stroke-linejoin="round" stroke-linecap="butt" d="m624.8898 199.85301l185.82678 0l0 179.30708l-185.82678 0z" fill-rule="evenodd"/><path fill="#cfe2f3" fill-opacity="0.8431" d="m810.71655 199.85301l185.82678 0l0 179.30708l-185.82678 0z" fill-rule="evenodd"/><path stroke="#000000" stroke-width="1.0" stroke-linejoin="round" stroke-linecap="butt" d="m810.71655 199.85301l185.82678 0l0 179.30708l-185.82678 0z" fill-rule="evenodd"/><path fill="#cfe2f3" fill-opacity="0.8431" d="m996.54333 199.85301l185.82678 0l0 179.30708l-185.82678 0z" fill-rule="evenodd"/><path stroke="#000000" stroke-width="1.0" stroke-linejoin="round" stroke-linecap="butt" d="m996.54333 199.85301l185.82678 0l0 179.30708l-185.82678 0z" fill-rule="evenodd"/><path fill="#cfe2f3" fill-opacity="0.8431" d="m624.8898 379.1601l185.82678 0l0 179.30707l-185.82678 0z" fill-rule="evenodd"/><path stroke="#000000" stroke-width="1.0" stroke-linejoin="round" stroke-linecap="butt" d="m624.8898 379.1601l185.82678 0l0 179.30707l-185.82678 0z" fill-rule="evenodd"/><path fill="#cfe2f3" d="m810.71655 379.1601l185.82678 0l0 179.30707l-185.82678 0z" fill-rule="evenodd"/><path stroke="#000000" stroke-width="1.0" stroke-linejoin="round" stroke-linecap="butt" d="m810.71655 379.1601l185.82678 0l0 179.30707l-185.82678 0z" fill-rule="evenodd"/><path fill="#cfe2f3" d="m996.54333 379.1601l185.82678 0l0 179.30707l-185.82678 0z" fill-rule="evenodd"/><path stroke="#000000" stroke-width="1.0" stroke-linejoin="round" stroke-linecap="butt" d="m996.54333 379.1601l185.82678 0l0 179.30707l-185.82678 0z" fill-rule="evenodd"/><path fill="#efefef" fill-opacity="0.7255" d="m625.34644 21.47769l280.15753 0l0 270.83466l-280.15753 0z" fill-rule="evenodd"/><path stroke="#000000" stroke-width="1.0" stroke-linejoin="round" stroke-linecap="butt" d="m625.34644 21.47769l280.15753 0l0 270.83466l-280.15753 0z" fill-rule="evenodd"/><path fill="#efefef" fill-opacity="0.7255" d="m625.34644 292.31235l280.15753 0l0 266.1417l-280.15753 0z" fill-rule="evenodd"/><path stroke="#000000" stroke-width="1.0" stroke-linejoin="round" stroke-linecap="butt" d="m625.34644 292.31235l280.15753 0l0 266.1417l-280.15753 0z" fill-rule="evenodd"/><path fill="#efefef" fill-opacity="0.7255" d="m905.96326 292.31235l276.40942 0l0 266.1417l-276.40942 0z" fill-rule="evenodd"/><path stroke="#000000" stroke-width="1.0" stroke-linejoin="round" stroke-linecap="butt" d="m905.96326 292.31235l276.40942 0l0 266.1417l-276.40942 0z" fill-rule="evenodd"/><path fill="#efefef" fill-opacity="0.7255" d="m905.96326 21.47769l276.40942 0l0 270.83466l-276.40942 0z" fill-rule="evenodd"/><path stroke="#000000" stroke-width="1.0" stroke-linejoin="round" stroke-linecap="butt" d="m905.96326 21.47769l276.40942 0l0 270.83466l-276.40942 0z" fill-rule="evenodd"/><path fill="#cc0000" fill-opacity="0.4078" d="m624.8898 199.84514l370.74017 0l0 358.61414l-370.74017 0z" fill-rule="evenodd"/><path stroke="#000000" stroke-width="1.0" stroke-linejoin="round" stroke-linecap="butt" d="m624.8898 199.84514l370.74017 0l0 358.61414l-370.74017 0z" fill-rule="evenodd"/></g></svg>