<svg version="1.1" viewBox="0.0 0.0 1178.1679790026246 607.6981627296587" fill="none" stroke="none" stroke-linecap="square" stroke-miterlimit="10" xmlns:xlink="http://www.w3.org/1999/xlink" xmlns="http://www.w3.org/2000/svg"><clipPath id="p.0"><path d="m0 0l1178.168 0l0 607.6982l-1178.168 0l0 -607.6982z" clip-rule="nonzero"/></clipPath><g clip-path="url(#p.0)"><path fill="#000000" fill-opacity="0.0" d="m0 0l1178.168 0l0 607.6982l-1178.168 0z" fill-rule="evenodd"/><path fill="#3d85c6" d="m355.6813 373.77393l72.590546 0l0 72.11813l-72.590546 0z" fill-rule="evenodd"/><path fill="#306a9e" d="m428.27185 373.77393l24.039368 -24.039368l0 72.1181l-24.039368 24.039398z" fill-rule="evenodd"/><path fill="#639dd1" d="m355.6813 373.77393l24.039368 -24.039368l72.590546 0l-24.039368 24.039368z" fill-rule="evenodd"/><path fill="#000000" fill-opacity="0.0" d="m355.6813 373.77393l24.039368 -24.039368l72.590546 0l0 72.1181l-24.039368 24.039398l-72.590546 0zm0 0l72.590546 0l24.039368 -24.039368m-24.039368 24.039368l0 72.11813" fill-rule="evenodd"/><path stroke="#000000" stroke-width="1.0" stroke-linejoin="round" stroke-linecap="butt" stroke-dasharray="1.0,3.0" d="m355.6813 373.77393l24.039368 -24.039368l72.590546 0l0 72.1181l-24.039368 24.039398l-72.590546 0zm0 0l72.590546 0l24.039368 -24.039368m-24.039368 24.039368l0 72.11813" fill-rule="evenodd"/><path fill="#3d85c6" d="m427.6813 373.77393l72.590546 0l0 72.11813l-72.590546 0z" fill-rule="evenodd"/><path fill="#306a9e" d="m500.27185 373.77393l24.039368 -24.039368l0 72.1181l-24.039368 24.039398z" fill-rule="evenodd"/><path fill="#639dd1" d="m427.6813 373.77393l24.039368 -24.039368l72.590546 0l-24.039368 24.039368z" fill-rule="evenodd"/><path fill="#000000" fill-opacity="0.0" d="m427.6813 373.77393l24.039368 -24.039368l72.590546 0l0 72.1181l-24.039368 24.039398l-72.590546 0zm0 0l72.590546 0l24.039368 -24.039368m-24.039368 24.039368l0 72.11813" fill-rule="evenodd"/><path stroke="#000000" stroke-width="1.0" stroke-linejoin="round" stroke-linecap="butt" stroke-dasharray="1.0,3.0" d="m427.6813 373.77393l24.039368 -24.039368l72.590546 0l0 72.1181l-24.039368 24.039398l-72.590546 0zm0 0l72.590546 0l24.039368 -24.039368m-24.039368 24.039368l0 72.11813" fill-rule="evenodd"/><path fill="#00ffff" fill-opacity="0.3911" d="m499.6813 373.77393l72.590546 0l0 72.11813l-72.590546 0z" fill-rule="evenodd"/><path fill="#00cbcb" fill-opacity="0.3911" d="m572.27185 373.77393l24.039368 -24.039368l0 72.1181l-24.039368 24.039398z" fill-rule="evenodd"/><path fill="#33ffff" fill-opacity="0.3911" d="m499.6813 373.77393l24.039337 -24.039368l72.590576 0l-24.039368 24.039368z" fill-rule="evenodd"/><path fill="#000000" fill-opacity="0.0" d="m499.6813 373.77393l24.039337 -24.039368l72.590576 0l0 72.1181l-24.039368 24.039398l-72.590546 0zm0 0l72.590546 0l24.039368 -24.039368m-24.039368 24.039368l0 72.11813" fill-rule="evenodd"/><path stroke="#000000" stroke-width="1.0" stroke-linejoin="round" stroke-linecap="butt" stroke-dasharray="1.0,3.0" d="m499.6813 373.77393l24.039337 -24.039368l72.590576 0l0 72.1181l-24.039368 24.039398l-72.590546 0zm0 0l72.590546 0l24.039368 -24.039368m-24.039368 24.039368l0 72.11813" fill-rule="evenodd"/><path fill="#3d85c6" d="m355.6813 301.77393l72.590546 0l0 72.11813l-72.590546 0z" fill-rule="evenodd"/><path fill="#306a9e" d="m428.27185 301.77393l24.039368 -24.039368l0 72.1181l-24.039368 24.039398z" fill-rule="evenodd"/><path fill="#639dd1" d="m355.6813 301.77393l24.039368 -24.039368l72.590546 0l-24.039368 24.039368z" fill-rule="evenodd"/><path fill="#000000" fill-opacity="0.0" d="m355.6813 301.77393l24.039368 -24.039368l72.590546 0l0 72.1181l-24.039368 24.039398l-72.590546 0zm0 0l72.590546 0l24.039368 -24.039368m-24.039368 24.039368l0 72.11813" fill-rule="evenodd"/><path stroke="#000000" stroke-width="1.0" stroke-linejoin="round" stroke-linecap="butt" stroke-dasharray="1.0,3.0" d="m355.6813 301.77393l24.039368 -24.039368l72.590546 0l0 72.1181l-24.039368 24.039398l-72.590546 0zm0 0l72.590546 0l24.039368 -24.039368m-24.039368 24.039368l0 72.11813" fill-rule="evenodd"/><path fill="#3d85c6" d="m427.6813 301.77393l72.590546 0l0 72.11813l-72.590546 0z" fill-rule="evenodd"/><path fill="#306a9e" d="m500.27185 301.77393l24.039368 -24.039368l0 72.1181l-24.039368 24.039398z" fill-rule="evenodd"/><path fill="#639dd1" d="m427.6813 301.77393l24.039368 -24.039368l72.590546 0l-24.039368 24.039368z" fill-rule="evenodd"/><path fill="#000000" fill-opacity="0.0" d="m427.6813 301.77393l24.039368 -24.039368l72.590546 0l0 72.1181l-24.039368 24.039398l-72.590546 0zm0 0l72.590546 0l24.039368 -24.039368m-24.039368 24.039368l0 72.11813" fill-rule="evenodd"/><path stroke="#000000" stroke-width="1.0" stroke-linejoin="round" stroke-linecap="butt" stroke-dasharray="1.0,3.0" d="m427.6813 301.77393l24.039368 -24.039368l72.590546 0l0 72.1181l-24.039368 24.039398l-72.590546 0zm0 0l72.590546 0l24.039368 -24.039368m-24.039368 24.039368l0 72.11813" fill-rule="evenodd"/><path fill="#00ffff" fill-opacity="0.3911" d="m499.6813 301.77393l72.590546 0l0 72.11813l-72.590546 0z" fill-rule="evenodd"/><path fill="#00cbcb" fill-opacity="0.3911" d="m572.27185 301.77393l24.039368 -24.039368l0 72.1181l-24.039368 24.039398z" fill-rule="evenodd"/><path fill="#33ffff" fill-opacity="0.3911" d="m499.6813 301.77393l24.039337 -24.039368l72.590576 0l-24.039368 24.039368z" fill-rule="evenodd"/><path fill="#000000" fill-opacity="0.0" d="m499.6813 301.77393l24.039337 -24.039368l72.590576 0l0 72.1181l-24.039368 24.039398l-72.590546 0zm0 0l72.590546 0l24.039368 -24.039368m-24.039368 24.039368l0 72.11813" fill-rule="evenodd"/><path stroke="#000000" stroke-width="1.0" stroke-linejoin="round" stroke-linecap="butt" stroke-dasharray="1.0,3.0" d="m499.6813 301.77393l24.039337 -24.039368l72.590576 0l0 72.1181l-24.039368 24.039398l-72.590546 0zm0 0l72.590546 0l24.039368 -24.039368m-24.039368 24.039368l0 72.11813" fill-rule="evenodd"/><path fill="#6aa84f" d="m229.05249 292.81104l96.0 0l0 179.30707l-96.0 0z" fill-rule="evenodd"/><path stroke="#000000" stroke-width="1.0" stroke-linejoin="round" stroke-linecap="butt" d="m229.05249 292.81104l96.0 0l0 179.30707l-96.0 0z" fill-rule="evenodd"/><path fill="#990000" fill-opacity="0.736" d="m573.0525 37.48819l96.0 0l0 86.83465l-96.0 0z" fill-rule="evenodd"/><path stroke="#000000" stroke-width="1.0" stroke-linejoin="round" stroke-linecap="butt" d="m573.0525 37.48819l96.0 0l0 86.83465l-96.0 0z" fill-rule="evenodd"/><path fill="#3d85c6" d="m387.6824 37.48819l185.82681 0l0 86.83465l-185.82681 0z" fill-rule="evenodd"/><path stroke="#000000" stroke-width="1.0" stroke-linejoin="round" stroke-linecap="butt" d="m387.6824 37.48819l185.82681 0l0 86.83465l-185.82681 0z" fill-rule="evenodd"/><path fill="#3d85c6" d="m43.682415 37.48819l185.82677 0l0 86.83465l-185.82677 0z" fill-rule="evenodd"/><path stroke="#000000" stroke-width="1.0" stroke-linejoin="round" stroke-linecap="butt" d="m43.682415 37.48819l185.82677 0l0 86.83465l-185.82677 0z" fill-rule="evenodd"/><path fill="#990000" fill-opacity="0.736" d="m229.05249 205.97638l96.0 0l0 86.834656l-96.0 0z" fill-rule="evenodd"/><path stroke="#000000" stroke-width="1.0" stroke-linejoin="round" stroke-linecap="butt" d="m229.05249 205.97638l96.0 0l0 86.834656l-96.0 0z" fill-rule="evenodd"/><path fill="#3d85c6" d="m43.682415 205.97638l185.82677 0l0 86.834656l-185.82677 0z" fill-rule="evenodd"/><path stroke="#000000" stroke-width="1.0" stroke-linejoin="round" stroke-linecap="butt" d="m43.682415 205.97638l185.82677 0l0 86.834656l-185.82677 0z" fill-rule="evenodd"/><path fill="#a64d79" fill-opacity="0.882" d="m819.23773 332.00565l72.5824 0l0 72.12033l-72.5824 0z" fill-rule="evenodd"/><path fill="#843d60" fill-opacity="0.882" d="m891.8201 332.00565l24.0401 -24.0401l0 72.1203l-24.0401 24.04013z" fill-rule="evenodd"/><path fill="#b77093" fill-opacity="0.882" d="m819.23773 332.00565l24.0401 -24.0401l72.5824 0l-24.0401 24.0401z" fill-rule="evenodd"/><path fill="#000000" fill-opacity="0.0" d="m819.23773 332.00565l24.0401 -24.0401l72.5824 0l0 72.1203l-24.0401 24.04013l-72.5824 0zm0 0l72.5824 0l24.0401 -24.0401m-24.0401 24.0401l0 72.12033" fill-rule="evenodd"/><path stroke="#000000" stroke-width="1.0" stroke-linejoin="round" stroke-linecap="butt" stroke-dasharray="1.0,3.0" d="m819.23773 332.00565l24.0401 -24.0401l72.5824 0l0 72.1203l-24.0401 24.04013l-72.5824 0zm0 0l72.5824 0l24.0401 -24.0401m-24.0401 24.0401l0 72.12033" fill-rule="evenodd"/><path fill="#a64d79" fill-opacity="0.882" d="m795.1385 355.98965l72.5824 0l0 72.12033l-72.5824 0z" fill-rule="evenodd"/><path fill="#843d60" fill-opacity="0.882" d="m867.7209 355.98965l24.0401 -24.0401l0 72.1203l-24.0401 24.04013z" fill-rule="evenodd"/><path fill="#b77093" fill-opacity="0.882" d="m795.1385 355.98965l24.0401 -24.0401l72.5824 0l-24.0401 24.0401z" fill-rule="evenodd"/><path fill="#000000" fill-opacity="0.0" d="m795.1385 355.98965l24.0401 -24.0401l72.5824 0l0 72.1203l-24.0401 24.04013l-72.5824 0zm0 0l72.5824 0l24.0401 -24.0401m-24.0401 24.0401l0 72.12033" fill-rule="evenodd"/><path stroke="#000000" stroke-width="1.0" stroke-linejoin="round" stroke-linecap="butt" stroke-dasharray="1.0,3.0" d="m795.1385 355.98965l24.0401 -24.0401l72.5824 0l0 72.1203l-24.0401 24.04013l-72.5824 0zm0 0l72.5824 0l24.0401 -24.0401m-24.0401 24.0401l0 72.12033" fill-rule="evenodd"/><path fill="#a64d79" fill-opacity="0.882" d="m771.70264 379.51624l72.5824 0l0 72.12033l-72.5824 0z" fill-rule="evenodd"/><path fill="#843d60" fill-opacity="0.882" d="m844.28503 379.51624l24.0401 -24.0401l0 72.12033l-24.0401 24.0401z" fill-rule="evenodd"/><path fill="#b77093" fill-opacity="0.882" d="m771.70264 379.51624l24.0401 -24.0401l72.5824 0l-24.0401 24.0401z" fill-rule="evenodd"/><path fill="#000000" fill-opacity="0.0" d="m771.70264 379.51624l24.0401 -24.0401l72.5824 0l0 72.12033l-24.0401 24.0401l-72.5824 0zm0 0l72.5824 0l24.0401 -24.0401m-24.0401 24.0401l0 72.12033" fill-rule="evenodd"/><path stroke="#000000" stroke-width="1.0" stroke-linejoin="round" stroke-linecap="butt" stroke-dasharray="1.0,3.0" d="m771.70264 379.51624l24.0401 -24.0401l72.5824 0l0 72.12033l-24.0401 24.0401l-72.5824 0zm0 0l72.5824 0l24.0401 -24.0401m-24.0401 24.0401l0 72.12033" fill-rule="evenodd"/><path fill="#a64d79" fill-opacity="0.882" d="m747.3302 403.50458l72.5824 0l0 72.12033l-72.5824 0z" fill-rule="evenodd"/><path fill="#843d60" fill-opacity="0.882" d="m819.9126 403.50458l24.0401 -24.0401l0 72.1203l-24.0401 24.04013z" fill-rule="evenodd"/><path fill="#b77093" fill-opacity="0.882" d="m747.3302 403.50458l24.0401 -24.0401l72.5824 0l-24.0401 24.0401z" fill-rule="evenodd"/><path fill="#000000" fill-opacity="0.0" d="m747.3302 403.50458l24.0401 -24.0401l72.5824 0l0 72.1203l-24.0401 24.04013l-72.5824 0zm0 0l72.5824 0l24.0401 -24.0401m-24.0401 24.0401l0 72.12033" fill-rule="evenodd"/><path stroke="#000000" stroke-width="1.0" stroke-linejoin="round" stroke-linecap="butt" stroke-dasharray="1.0,3.0" d="m747.3302 403.50458l24.0401 -24.0401l72.5824 0l0 72.1203l-24.0401 24.04013l-72.5824 0zm0 0l72.5824 0l24.0401 -24.0401m-24.0401 24.0401l0 72.12033" fill-rule="evenodd"/><path fill="#a64d79" fill-opacity="0.882" d="m891.23773 332.00565l72.5824 0l0 72.12033l-72.5824 0z" fill-rule="evenodd"/><path fill="#843d60" fill-opacity="0.882" d="m963.8201 332.00565l24.0401 -24.0401l0 72.1203l-24.0401 24.04013z" fill-rule="evenodd"/><path fill="#b77093" fill-opacity="0.882" d="m891.23773 332.00565l24.0401 -24.0401l72.5824 0l-24.0401 24.0401z" fill-rule="evenodd"/><path fill="#000000" fill-opacity="0.0" d="m891.23773 332.00565l24.0401 -24.0401l72.5824 0l0 72.1203l-24.0401 24.04013l-72.5824 0zm0 0l72.5824 0l24.0401 -24.0401m-24.0401 24.0401l0 72.12033" fill-rule="evenodd"/><path stroke="#000000" stroke-width="1.0" stroke-linejoin="round" stroke-linecap="butt" stroke-dasharray="1.0,3.0" d="m891.23773 332.00565l24.0401 -24.0401l72.5824 0l0 72.1203l-24.0401 24.04013l-72.5824 0zm0 0l72.5824 0l24.0401 -24.0401m-24.0401 24.0401l0 72.12033" fill-rule="evenodd"/><path fill="#a64d79" fill-opacity="0.882" d="m867.1385 355.98965l72.5824 0l0 72.12033l-72.5824 0z" fill-rule="evenodd"/><path fill="#843d60" fill-opacity="0.882" d="m939.7209 355.98965l24.0401 -24.0401l0 72.1203l-24.0401 24.04013z" fill-rule="evenodd"/><path fill="#b77093" fill-opacity="0.882" d="m867.1385 355.98965l24.0401 -24.0401l72.5824 0l-24.0401 24.0401z" fill-rule="evenodd"/><path fill="#000000" fill-opacity="0.0" d="m867.1385 355.98965l24.0401 -24.0401l72.5824 0l0 72.1203l-24.0401 24.04013l-72.5824 0zm0 0l72.5824 0l24.0401 -24.0401m-24.0401 24.0401l0 72.12033" fill-rule="evenodd"/><path stroke="#000000" stroke-width="1.0" stroke-linejoin="round" stroke-linecap="butt" stroke-dasharray="1.0,3.0" d="m867.1385 355.98965l24.0401 -24.0401l72.5824 0l0 72.1203l-24.0401 24.04013l-72.5824 0zm0 0l72.5824 0l24.0401 -24.0401m-24.0401 24.0401l0 72.12033" fill-rule="evenodd"/><path fill="#a64d79" fill-opacity="0.882" d="m843.70264 379.51624l72.5824 0l0 72.12033l-72.5824 0z" fill-rule="evenodd"/><path fill="#843d60" fill-opacity="0.882" d="m916.28503 379.51624l24.0401 -24.0401l0 72.12033l-24.0401 24.0401z" fill-rule="evenodd"/><path fill="#b77093" fill-opacity="0.882" d="m843.70264 379.51624l24.0401 -24.0401l72.5824 0l-24.0401 24.0401z" fill-rule="evenodd"/><path fill="#000000" fill-opacity="0.0" d="m843.70264 379.51624l24.0401 -24.0401l72.5824 0l0 72.12033l-24.0401 24.0401l-72.5824 0zm0 0l72.5824 0l24.0401 -24.0401m-24.0401 24.0401l0 72.12033" fill-rule="evenodd"/><path stroke="#000000" stroke-width="1.0" stroke-linejoin="round" stroke-linecap="butt" stroke-dasharray="1.0,3.0" d="m843.70264 379.51624l24.0401 -24.0401l72.5824 0l0 72.12033l-24.0401 24.0401l-72.5824 0zm0 0l72.5824 0l24.0401 -24.0401m-24.0401 24.0401l0 72.12033" fill-rule="evenodd"/><path fill="#a64d79" fill-opacity="0.882" d="m819.3302 403.50458l72.5824 0l0 72.12033l-72.5824 0z" fill-rule="evenodd"/><path fill="#843d60" fill-opacity="0.882" d="m891.9126 403.50458l24.0401 -24.0401l0 72.1203l-24.0401 24.04013z" fill-rule="evenodd"/><path fill="#b77093" fill-opacity="0.882" d="m819.3302 403.50458l24.0401 -24.0401l72.5824 0l-24.0401 24.0401z" fill-rule="evenodd"/><path fill="#000000" fill-opacity="0.0" d="m819.3302 403.50458l24.0401 -24.0401l72.5824 0l0 72.1203l-24.0401 24.04013l-72.5824 0zm0 0l72.5824 0l24.0401 -24.0401m-24.0401 24.0401l0 72.12033" fill-rule="evenodd"/><path stroke="#000000" stroke-width="1.0" stroke-linejoin="round" stroke-linecap="butt" stroke-dasharray="1.0,3.0" d="m819.3302 403.50458l24.0401 -24.0401l72.5824 0l0 72.1203l-24.0401 24.04013l-72.5824 0zm0 0l72.5824 0l24.0401 -24.0401m-24.0401 24.0401l0 72.12033" fill-rule="evenodd"/><path fill="#a64d79" fill-opacity="0.882" d="m963.23773 332.00565l72.58234 0l0 72.12033l-72.58234 0z" fill-rule="evenodd"/><path fill="#843d60" fill-opacity="0.882" d="m1035.8201 332.00565l24.040161 -24.0401l0 72.1203l-24.040161 24.04013z" fill-rule="evenodd"/><path fill="#b77093" fill-opacity="0.882" d="m963.23773 332.00565l24.0401 -24.0401l72.5824 0l-24.040161 24.0401z" fill-rule="evenodd"/><path fill="#000000" fill-opacity="0.0" d="m963.23773 332.00565l24.0401 -24.0401l72.5824 0l0 72.1203l-24.040161 24.04013l-72.58234 0zm0 0l72.58234 0l24.040161 -24.0401m-24.040161 24.0401l0 72.12033" fill-rule="evenodd"/><path stroke="#000000" stroke-width="1.0" stroke-linejoin="round" stroke-linecap="butt" stroke-dasharray="1.0,3.0" d="m963.23773 332.00565l24.0401 -24.0401l72.5824 0l0 72.1203l-24.040161 24.04013l-72.58234 0zm0 0l72.58234 0l24.040161 -24.0401m-24.040161 24.0401l0 72.12033" fill-rule="evenodd"/><path fill="#a64d79" fill-opacity="0.882" d="m939.1385 355.98965l72.5824 0l0 72.12033l-72.5824 0z" fill-rule="evenodd"/><path fill="#843d60" fill-opacity="0.882" d="m1011.7209 355.98965l24.0401 -24.0401l0 72.1203l-24.0401 24.04013z" fill-rule="evenodd"/><path fill="#b77093" fill-opacity="0.882" d="m939.1385 355.98965l24.0401 -24.0401l72.5824 0l-24.0401 24.0401z" fill-rule="evenodd"/><path fill="#000000" fill-opacity="0.0" d="m939.1385 355.98965l24.0401 -24.0401l72.5824 0l0 72.1203l-24.0401 24.04013l-72.5824 0zm0 0l72.5824 0l24.0401 -24.0401m-24.0401 24.0401l0 72.12033" fill-rule="evenodd"/><path stroke="#000000" stroke-width="1.0" stroke-linejoin="round" stroke-linecap="butt" stroke-dasharray="1.0,3.0" d="m939.1385 355.98965l24.0401 -24.0401l72.5824 0l0 72.1203l-24.0401 24.04013l-72.5824 0zm0 0l72.5824 0l24.0401 -24.0401m-24.0401 24.0401l0 72.12033" fill-rule="evenodd"/><path fill="#a64d79" fill-opacity="0.882" d="m915.70264 379.51624l72.5824 0l0 72.12033l-72.5824 0z" fill-rule="evenodd"/><path fill="#843d60" fill-opacity="0.882" d="m988.28503 379.51624l24.0401 -24.0401l0 72.12033l-24.0401 24.0401z" fill-rule="evenodd"/><path fill="#b77093" fill-opacity="0.882" d="m915.70264 379.51624l24.0401 -24.0401l72.5824 0l-24.0401 24.0401z" fill-rule="evenodd"/><path fill="#000000" fill-opacity="0.0" d="m915.70264 379.51624l24.0401 -24.0401l72.5824 0l0 72.12033l-24.0401 24.0401l-72.5824 0zm0 0l72.5824 0l24.0401 -24.0401m-24.0401 24.0401l0 72.12033" fill-rule="evenodd"/><path stroke="#000000" stroke-width="1.0" stroke-linejoin="round" stroke-linecap="butt" stroke-dasharray="1.0,3.0" d="m915.70264 379.51624l24.0401 -24.0401l72.5824 0l0 72.12033l-24.0401 24.0401l-72.5824 0zm0 0l72.5824 0l24.0401 -24.0401m-24.0401 24.0401l0 72.12033" fill-rule="evenodd"/><path fill="#a64d79" fill-opacity="0.882" d="m891.3302 403.50458l72.5824 0l0 72.12033l-72.5824 0z" fill-rule="evenodd"/><path fill="#843d60" fill-opacity="0.882" d="m963.9126 403.50458l24.0401 -24.0401l0 72.1203l-24.0401 24.04013z" fill-rule="evenodd"/><path fill="#b77093" fill-opacity="0.882" d="m891.3302 403.50458l24.0401 -24.0401l72.5824 0l-24.0401 24.0401z" fill-rule="evenodd"/><path fill="#000000" fill-opacity="0.0" d="m891.3302 403.50458l24.0401 -24.0401l72.5824 0l0 72.1203l-24.0401 24.04013l-72.5824 0zm0 0l72.5824 0l24.0401 -24.0401m-24.0401 24.0401l0 72.12033" fill-rule="evenodd"/><path stroke="#000000" stroke-width="1.0" stroke-linejoin="round" stroke-linecap="butt" stroke-dasharray="1.0,3.0" d="m891.3302 403.50458l24.0401 -24.0401l72.5824 0l0 72.1203l-24.0401 24.04013l-72.5824 0zm0 0l72.5824 0l24.0401 -24.0401m-24.0401 24.0401l0 72.12033" fill-rule="evenodd"/><path fill="#a64d79" fill-opacity="0.882" d="m1035.2378 332.00565l72.582275 0l0 72.12033l-72.582275 0z" fill-rule="evenodd"/><path fill="#843d60" fill-opacity="0.882" d="m1107.8201 332.00565l24.040161 -24.0401l0 72.1203l-24.040161 24.04013z" fill-rule="evenodd"/><path fill="#b77093" fill-opacity="0.882" d="m1035.2378 332.00565l24.04004 -24.0401l72.5824 0l-24.040161 24.0401z" fill-rule="evenodd"/><path fill="#000000" fill-opacity="0.0" d="m1035.2378 332.00565l24.04004 -24.0401l72.5824 0l0 72.1203l-24.040161 24.04013l-72.582275 0zm0 0l72.582275 0l24.040161 -24.0401m-24.040161 24.0401l0 72.12033" fill-rule="evenodd"/><path stroke="#000000" stroke-width="1.0" stroke-linejoin="round" stroke-linecap="butt" stroke-dasharray="1.0,3.0" d="m1035.2378 332.00565l24.04004 -24.0401l72.5824 0l0 72.1203l-24.040161 24.04013l-72.582275 0zm0 0l72.582275 0l24.040161 -24.0401m-24.040161 24.0401l0 72.12033" fill-rule="evenodd"/><path fill="#a64d79" fill-opacity="0.882" d="m1011.1385 355.98965l72.58234 0l0 72.12033l-72.58234 0z" fill-rule="evenodd"/><path fill="#843d60" fill-opacity="0.882" d="m1083.7208 355.98965l24.040161 -24.0401l0 72.1203l-24.040161 24.04013z" fill-rule="evenodd"/><path fill="#b77093" fill-opacity="0.882" d="m1011.1385 355.98965l24.0401 -24.0401l72.5824 0l-24.040161 24.0401z" fill-rule="evenodd"/><path fill="#000000" fill-opacity="0.0" d="m1011.1385 355.98965l24.0401 -24.0401l72.5824 0l0 72.1203l-24.040161 24.04013l-72.58234 0zm0 0l72.58234 0l24.040161 -24.0401m-24.040161 24.0401l0 72.12033" fill-rule="evenodd"/><path stroke="#000000" stroke-width="1.0" stroke-linejoin="round" stroke-linecap="butt" stroke-dasharray="1.0,3.0" d="m1011.1385 355.98965l24.0401 -24.0401l72.5824 0l0 72.1203l-24.040161 24.04013l-72.58234 0zm0 0l72.58234 0l24.040161 -24.0401m-24.040161 24.0401l0 72.12033" fill-rule="evenodd"/><path fill="#a64d79" fill-opacity="0.882" d="m987.70264 379.51624l72.5824 0l0 72.12033l-72.5824 0z" fill-rule="evenodd"/><path fill="#843d60" fill-opacity="0.882" d="m1060.285 379.51624l24.04004 -24.0401l0 72.12033l-24.04004 24.0401z" fill-rule="evenodd"/><path fill="#b77093" fill-opacity="0.882" d="m987.70264 379.51624l24.0401 -24.0401l72.58234 0l-24.04004 24.0401z" fill-rule="evenodd"/><path fill="#000000" fill-opacity="0.0" d="m987.70264 379.51624l24.0401 -24.0401l72.58234 0l0 72.12033l-24.04004 24.0401l-72.5824 0zm0 0l72.5824 0l24.04004 -24.0401m-24.04004 24.0401l0 72.12033" fill-rule="evenodd"/><path stroke="#000000" stroke-width="1.0" stroke-linejoin="round" stroke-linecap="butt" stroke-dasharray="1.0,3.0" d="m987.70264 379.51624l24.0401 -24.0401l72.58234 0l0 72.12033l-24.04004 24.0401l-72.5824 0zm0 0l72.5824 0l24.04004 -24.0401m-24.04004 24.0401l0 72.12033" fill-rule="evenodd"/><path fill="#a64d79" fill-opacity="0.882" d="m963.3302 403.50458l72.5824 0l0 72.12033l-72.5824 0z" fill-rule="evenodd"/><path fill="#843d60" fill-opacity="0.882" d="m1035.9126 403.50458l24.04004 -24.0401l0 72.1203l-24.04004 24.04013z" fill-rule="evenodd"/><path fill="#b77093" fill-opacity="0.882" d="m963.3302 403.50458l24.0401 -24.0401l72.58234 0l-24.04004 24.0401z" fill-rule="evenodd"/><path fill="#000000" fill-opacity="0.0" d="m963.3302 403.50458l24.0401 -24.0401l72.58234 0l0 72.1203l-24.04004 24.04013l-72.5824 0zm0 0l72.5824 0l24.04004 -24.0401m-24.04004 24.0401l0 72.12033" fill-rule="evenodd"/><path stroke="#000000" stroke-width="1.0" stroke-linejoin="round" stroke-linecap="butt" stroke-dasharray="1.0,3.0" d="m963.3302 403.50458l24.0401 -24.0401l72.58234 0l0 72.1203l-24.04004 24.04013l-72.5824 0zm0 0l72.5824 0l24.04004 -24.0401m-24.04004 24.0401l0 72.12033" fill-rule="evenodd"/><path fill="#000000" fill-opacity="0.0" d="m724.96063 195.01312l0 268.6299" fill-rule="evenodd"/><path stroke="#000000" stroke-width="3.0" stroke-linejoin="round" stroke-linecap="butt" d="m724.96063 195.01312l0 250.62991" fill-rule="evenodd"/><path fill="#000000" stroke="#000000" stroke-width="3.0" stroke-linecap="butt" d="m720.00543 445.64304l4.9552 13.614288l4.9552 -13.614288z" fill-rule="evenodd"/><path fill="#000000" fill-opacity="0.0" d="m725.2336 195.01443l94.64569 -94.64567" fill-rule="evenodd"/><path stroke="#000000" stroke-width="3.0" stroke-linejoin="round" stroke-linecap="butt" d="m725.2336 195.01443l81.917725 -81.91774" fill-rule="evenodd"/><path fill="#000000" stroke="#000000" stroke-width="3.0" stroke-linecap="butt" d="m810.6552 116.60054l6.122864 -13.130608l-13.130615 6.122902z" fill-rule="evenodd"/><path fill="#000000" fill-opacity="0.0" d="m1042.4094 172.32152l22.2677 0l0 36.81891l-22.2677 0z" fill-rule="evenodd"/><path fill="#000000" d="m1052.6282 187.78839l0 -1.90625l1.640625 0l0 1.90625l-1.640625 0zm-2.078125 15.203125l0.3125 -1.390625q0.5 0.125 0.78125 0.125q0.5 0 0.734375 -0.328125q0.25 -0.328125 0.25 -1.671875l0 -10.15625l1.640625 0l0 10.203125q0 1.78125 -0.46875 2.484375q-0.59375 0.90625 -1.96875 0.90625q-0.65625 0 -1.28125 -0.171875z" fill-rule="nonzero"/><path fill="#3d85c6" d="m355.6813 229.77394l72.590546 0l0 72.11812l-72.590546 0z" fill-rule="evenodd"/><path fill="#306a9e" d="m428.27185 229.77394l24.039368 -24.039383l0 72.1181l-24.039368 24.039398z" fill-rule="evenodd"/><path fill="#639dd1" d="m355.6813 229.77394l24.039368 -24.039383l72.590546 0l-24.039368 24.039383z" fill-rule="evenodd"/><path fill="#000000" fill-opacity="0.0" d="m355.6813 229.77394l24.039368 -24.039383l72.590546 0l0 72.1181l-24.039368 24.039398l-72.590546 0zm0 0l72.590546 0l24.039368 -24.039383m-24.039368 24.039383l0 72.11812" fill-rule="evenodd"/><path stroke="#000000" stroke-width="1.0" stroke-linejoin="round" stroke-linecap="butt" stroke-dasharray="1.0,3.0" d="m355.6813 229.77394l24.039368 -24.039383l72.590546 0l0 72.1181l-24.039368 24.039398l-72.590546 0zm0 0l72.590546 0l24.039368 -24.039383m-24.039368 24.039383l0 72.11812" fill-rule="evenodd"/><path fill="#3d85c6" d="m427.6813 229.77394l72.590546 0l0 72.11812l-72.590546 0z" fill-rule="evenodd"/><path fill="#306a9e" d="m500.27185 229.77394l24.039368 -24.039383l0 72.1181l-24.039368 24.039398z" fill-rule="evenodd"/><path fill="#639dd1" d="m427.6813 229.77394l24.039368 -24.039383l72.590546 0l-24.039368 24.039383z" fill-rule="evenodd"/><path fill="#000000" fill-opacity="0.0" d="m427.6813 229.77394l24.039368 -24.039383l72.590546 0l0 72.1181l-24.039368 24.039398l-72.590546 0zm0 0l72.590546 0l24.039368 -24.039383m-24.039368 24.039383l0 72.11812" fill-rule="evenodd"/><path stroke="#000000" stroke-width="1.0" stroke-linejoin="round" stroke-linecap="butt" stroke-dasharray="1.0,3.0" d="m427.6813 229.77394l24.039368 -24.039383l72.590546 0l0 72.1181l-24.039368 24.039398l-72.590546 0zm0 0l72.590546 0l24.039368 -24.039383m-24.039368 24.039383l0 72.11812" fill-rule="evenodd"/><path fill="#3d85c6" d="m499.6813 229.77394l72.590546 0l0 72.11812l-72.590546 0z" fill-rule="evenodd"/><path fill="#306a9e" d="m572.27185 229.77394l24.039368 -24.039383l0 72.1181l-24.039368 24.039398z" fill-rule="evenodd"/><path fill="#639dd1" d="m499.6813 229.77394l24.039337 -24.039383l72.590576 0l-24.039368 24.039383z" fill-rule="evenodd"/><path fill="#000000" fill-opacity="0.0" d="m499.6813 229.77394l24.039337 -24.039383l72.590576 0l0 72.1181l-24.039368 24.039398l-72.590546 0zm0 0l72.590546 0l24.039368 -24.039383m-24.039368 24.039383l0 72.11812" fill-rule="evenodd"/><path stroke="#000000" stroke-width="1.0" stroke-linejoin="round" stroke-linecap="butt" stroke-dasharray="1.0,3.0" d="m499.6813 229.77394l24.039337 -24.039383l72.590576 0l0 72.1181l-24.039368 24.039398l-72.590546 0zm0 0l72.590546 0l24.039368 -24.039383m-24.039368 24.039383l0 72.11812" fill-rule="evenodd"/><path fill="#cc0000" d="m571.6813 373.77466l72.5824 0l0 72.12033l-72.5824 0z" fill-rule="evenodd"/><path fill="#a30000" d="m644.2637 373.77466l24.0401 -24.0401l0 72.12033l-24.0401 24.0401z" fill-rule="evenodd"/><path fill="#d63333" d="m571.6813 373.77466l24.040161 -24.0401l72.58234 0l-24.0401 24.0401z" fill-rule="evenodd"/><path fill="#000000" fill-opacity="0.0" d="m571.6813 373.77466l24.040161 -24.0401l72.58234 0l0 72.12033l-24.0401 24.0401l-72.5824 0zm0 0l72.5824 0l24.0401 -24.0401m-24.0401 24.0401l0 72.12033" fill-rule="evenodd"/><path stroke="#000000" stroke-width="1.0" stroke-linejoin="round" stroke-linecap="butt" stroke-dasharray="1.0,3.0" d="m571.6813 373.77466l24.040161 -24.0401l72.58234 0l0 72.12033l-24.0401 24.0401l-72.5824 0zm0 0l72.5824 0l24.0401 -24.0401m-24.0401 24.0401l0 72.12033" fill-rule="evenodd"/><path fill="#6aa84f" d="m547.58203 397.75867l72.5824 0l0 72.12033l-72.5824 0z" fill-rule="evenodd"/><path fill="#54863f" d="m620.1644 397.75867l24.0401 -24.0401l0 72.12033l-24.0401 24.0401z" fill-rule="evenodd"/><path fill="#87b972" d="m547.58203 397.75867l24.0401 -24.0401l72.5824 0l-24.0401 24.0401z" fill-rule="evenodd"/><path fill="#000000" fill-opacity="0.0" d="m547.58203 397.75867l24.0401 -24.0401l72.5824 0l0 72.12033l-24.0401 24.0401l-72.5824 0zm0 0l72.5824 0l24.0401 -24.0401m-24.0401 24.0401l0 72.12033" fill-rule="evenodd"/><path stroke="#000000" stroke-width="1.0" stroke-linejoin="round" stroke-linecap="butt" stroke-dasharray="1.0,3.0" d="m547.58203 397.75867l24.0401 -24.0401l72.5824 0l0 72.12033l-24.0401 24.0401l-72.5824 0zm0 0l72.5824 0l24.0401 -24.0401m-24.0401 24.0401l0 72.12033" fill-rule="evenodd"/><path fill="#6aa84f" d="m524.1462 421.28528l72.5824 0l0 72.12033l-72.5824 0z" fill-rule="evenodd"/><path fill="#54863f" d="m596.7286 421.28528l24.0401 -24.0401l0 72.12033l-24.0401 24.0401z" fill-rule="evenodd"/><path fill="#87b972" d="m524.1462 421.28528l24.0401 -24.0401l72.5824 0l-24.0401 24.0401z" fill-rule="evenodd"/><path fill="#000000" fill-opacity="0.0" d="m524.1462 421.28528l24.0401 -24.0401l72.5824 0l0 72.12033l-24.0401 24.0401l-72.5824 0zm0 0l72.5824 0l24.0401 -24.0401m-24.0401 24.0401l0 72.12033" fill-rule="evenodd"/><path stroke="#000000" stroke-width="1.0" stroke-linejoin="round" stroke-linecap="butt" stroke-dasharray="1.0,3.0" d="m524.1462 421.28528l24.0401 -24.0401l72.5824 0l0 72.12033l-24.0401 24.0401l-72.5824 0zm0 0l72.5824 0l24.0401 -24.0401m-24.0401 24.0401l0 72.12033" fill-rule="evenodd"/><path fill="#6aa84f" d="m499.77377 445.2736l72.58237 0l0 72.12033l-72.58237 0z" fill-rule="evenodd"/><path fill="#54863f" d="m572.35614 445.2736l24.0401 -24.0401l0 72.12033l-24.0401 24.0401z" fill-rule="evenodd"/><path fill="#87b972" d="m499.77377 445.2736l24.04013 -24.0401l72.58234 0l-24.0401 24.0401z" fill-rule="evenodd"/><path fill="#000000" fill-opacity="0.0" d="m499.77377 445.2736l24.04013 -24.0401l72.58234 0l0 72.12033l-24.0401 24.0401l-72.58237 0zm0 0l72.58237 0l24.0401 -24.0401m-24.0401 24.0401l0 72.12033" fill-rule="evenodd"/><path stroke="#000000" stroke-width="1.0" stroke-linejoin="round" stroke-linecap="butt" stroke-dasharray="1.0,3.0" d="m499.77377 445.2736l24.04013 -24.0401l72.58234 0l0 72.12033l-24.0401 24.0401l-72.58237 0zm0 0l72.58237 0l24.0401 -24.0401m-24.0401 24.0401l0 72.12033" fill-rule="evenodd"/><path fill="#cc0000" d="m571.6813 301.77466l72.5824 0l0 72.12033l-72.5824 0z" fill-rule="evenodd"/><path fill="#a30000" d="m644.2637 301.77466l24.0401 -24.0401l0 72.12033l-24.0401 24.0401z" fill-rule="evenodd"/><path fill="#d63333" d="m571.6813 301.77466l24.040161 -24.0401l72.58234 0l-24.0401 24.0401z" fill-rule="evenodd"/><path fill="#000000" fill-opacity="0.0" d="m571.6813 301.77466l24.040161 -24.0401l72.58234 0l0 72.12033l-24.0401 24.0401l-72.5824 0zm0 0l72.5824 0l24.0401 -24.0401m-24.0401 24.0401l0 72.12033" fill-rule="evenodd"/><path stroke="#000000" stroke-width="1.0" stroke-linejoin="round" stroke-linecap="butt" stroke-dasharray="1.0,3.0" d="m571.6813 301.77466l24.040161 -24.0401l72.58234 0l0 72.12033l-24.0401 24.0401l-72.5824 0zm0 0l72.5824 0l24.0401 -24.0401m-24.0401 24.0401l0 72.12033" fill-rule="evenodd"/><path fill="#6aa84f" d="m547.58203 325.75867l72.5824 0l0 72.12033l-72.5824 0z" fill-rule="evenodd"/><path fill="#54863f" d="m620.1644 325.75867l24.0401 -24.0401l0 72.12033l-24.0401 24.0401z" fill-rule="evenodd"/><path fill="#87b972" d="m547.58203 325.75867l24.0401 -24.0401l72.5824 0l-24.0401 24.0401z" fill-rule="evenodd"/><path fill="#000000" fill-opacity="0.0" d="m547.58203 325.75867l24.0401 -24.0401l72.5824 0l0 72.12033l-24.0401 24.0401l-72.5824 0zm0 0l72.5824 0l24.0401 -24.0401m-24.0401 24.0401l0 72.12033" fill-rule="evenodd"/><path stroke="#000000" stroke-width="1.0" stroke-linejoin="round" stroke-linecap="butt" stroke-dasharray="1.0,3.0" d="m547.58203 325.75867l24.0401 -24.0401l72.5824 0l0 72.12033l-24.0401 24.0401l-72.5824 0zm0 0l72.5824 0l24.0401 -24.0401m-24.0401 24.0401l0 72.12033" fill-rule="evenodd"/><path fill="#6aa84f" d="m524.1462 349.28528l72.5824 0l0 72.12033l-72.5824 0z" fill-rule="evenodd"/><path fill="#54863f" d="m596.7286 349.28528l24.0401 -24.0401l0 72.12033l-24.0401 24.0401z" fill-rule="evenodd"/><path fill="#87b972" d="m524.1462 349.28528l24.0401 -24.0401l72.5824 0l-24.0401 24.0401z" fill-rule="evenodd"/><path fill="#000000" fill-opacity="0.0" d="m524.1462 349.28528l24.0401 -24.0401l72.5824 0l0 72.12033l-24.0401 24.0401l-72.5824 0zm0 0l72.5824 0l24.0401 -24.0401m-24.0401 24.0401l0 72.12033" fill-rule="evenodd"/><path stroke="#000000" stroke-width="1.0" stroke-linejoin="round" stroke-linecap="butt" stroke-dasharray="1.0,3.0" d="m524.1462 349.28528l24.0401 -24.0401l72.5824 0l0 72.12033l-24.0401 24.0401l-72.5824 0zm0 0l72.5824 0l24.0401 -24.0401m-24.0401 24.0401l0 72.12033" fill-rule="evenodd"/><path fill="#6aa84f" d="m499.77377 373.2736l72.58237 0l0 72.12033l-72.58237 0z" fill-rule="evenodd"/><path fill="#54863f" d="m572.35614 373.2736l24.0401 -24.0401l0 72.12033l-24.0401 24.0401z" fill-rule="evenodd"/><path fill="#87b972" d="m499.77377 373.2736l24.04013 -24.0401l72.58234 0l-24.0401 24.0401z" fill-rule="evenodd"/><path fill="#000000" fill-opacity="0.0" d="m499.77377 373.2736l24.04013 -24.0401l72.58234 0l0 72.12033l-24.0401 24.0401l-72.58237 0zm0 0l72.58237 0l24.0401 -24.0401m-24.0401 24.0401l0 72.12033" fill-rule="evenodd"/><path stroke="#000000" stroke-width="1.0" stroke-linejoin="round" stroke-linecap="butt" stroke-dasharray="1.0,3.0" d="m499.77377 373.2736l24.04013 -24.0401l72.58234 0l0 72.12033l-24.0401 24.0401l-72.58237 0zm0 0l72.58237 0l24.0401 -24.0401m-24.0401 24.0401l0 72.12033" fill-rule="evenodd"/><path fill="#cc0000" d="m571.6813 229.77467l72.5824 0l0 72.120316l-72.5824 0z" fill-rule="evenodd"/><path fill="#a30000" d="m644.2637 229.77467l24.0401 -24.040115l0 72.12033l-24.0401 24.0401z" fill-rule="evenodd"/><path fill="#d63333" d="m571.6813 229.77467l24.040161 -24.040115l72.58234 0l-24.0401 24.040115z" fill-rule="evenodd"/><path fill="#000000" fill-opacity="0.0" d="m571.6813 229.77467l24.040161 -24.040115l72.58234 0l0 72.12033l-24.0401 24.0401l-72.5824 0zm0 0l72.5824 0l24.0401 -24.040115m-24.0401 24.040115l0 72.120316" fill-rule="evenodd"/><path stroke="#000000" stroke-width="1.0" stroke-linejoin="round" stroke-linecap="butt" stroke-dasharray="1.0,3.0" d="m571.6813 229.77467l24.040161 -24.040115l72.58234 0l0 72.12033l-24.0401 24.0401l-72.5824 0zm0 0l72.5824 0l24.0401 -24.040115m-24.0401 24.040115l0 72.120316" fill-rule="evenodd"/><path fill="#6aa84f" d="m547.58203 253.75868l72.5824 0l0 72.120316l-72.5824 0z" fill-rule="evenodd"/><path fill="#54863f" d="m620.1644 253.75868l24.0401 -24.040115l0 72.12033l-24.0401 24.0401z" fill-rule="evenodd"/><path fill="#87b972" d="m547.58203 253.75868l24.0401 -24.040115l72.5824 0l-24.0401 24.040115z" fill-rule="evenodd"/><path fill="#000000" fill-opacity="0.0" d="m547.58203 253.75868l24.0401 -24.040115l72.5824 0l0 72.12033l-24.0401 24.0401l-72.5824 0zm0 0l72.5824 0l24.0401 -24.040115m-24.0401 24.040115l0 72.120316" fill-rule="evenodd"/><path stroke="#000000" stroke-width="1.0" stroke-linejoin="round" stroke-linecap="butt" stroke-dasharray="1.0,3.0" d="m547.58203 253.75868l24.0401 -24.040115l72.5824 0l0 72.12033l-24.0401 24.0401l-72.5824 0zm0 0l72.5824 0l24.0401 -24.040115m-24.0401 24.040115l0 72.120316" fill-rule="evenodd"/><path fill="#6aa84f" d="m524.1462 277.28528l72.5824 0l0 72.12033l-72.5824 0z" fill-rule="evenodd"/><path fill="#54863f" d="m596.7286 277.28528l24.0401 -24.0401l0 72.12033l-24.0401 24.0401z" fill-rule="evenodd"/><path fill="#87b972" d="m524.1462 277.28528l24.0401 -24.0401l72.5824 0l-24.0401 24.0401z" fill-rule="evenodd"/><path fill="#000000" fill-opacity="0.0" d="m524.1462 277.28528l24.0401 -24.0401l72.5824 0l0 72.12033l-24.0401 24.0401l-72.5824 0zm0 0l72.5824 0l24.0401 -24.0401m-24.0401 24.0401l0 72.12033" fill-rule="evenodd"/><path stroke="#000000" stroke-width="1.0" stroke-linejoin="round" stroke-linecap="butt" stroke-dasharray="1.0,3.0" d="m524.1462 277.28528l24.0401 -24.0401l72.5824 0l0 72.12033l-24.0401 24.0401l-72.5824 0zm0 0l72.5824 0l24.0401 -24.0401m-24.0401 24.0401l0 72.12033" fill-rule="evenodd"/><path fill="#6aa84f" d="m499.77377 301.2736l72.58237 0l0 72.12033l-72.58237 0z" fill-rule="evenodd"/><path fill="#54863f" d="m572.35614 301.2736l24.0401 -24.0401l0 72.12033l-24.0401 24.0401z" fill-rule="evenodd"/><path fill="#87b972" d="m499.77377 301.2736l24.04013 -24.0401l72.58234 0l-24.0401 24.0401z" fill-rule="evenodd"/><path fill="#000000" fill-opacity="0.0" d="m499.77377 301.2736l24.04013 -24.0401l72.58234 0l0 72.12033l-24.0401 24.0401l-72.58237 0zm0 0l72.58237 0l24.0401 -24.0401m-24.0401 24.0401l0 72.12033" fill-rule="evenodd"/><path stroke="#000000" stroke-width="1.0" stroke-linejoin="round" stroke-linecap="butt" stroke-dasharray="1.0,3.0" d="m499.77377 301.2736l24.04013 -24.0401l72.58234 0l0 72.12033l-24.0401 24.0401l-72.58237 0zm0 0l72.58237 0l24.0401 -24.0401m-24.0401 24.0401l0 72.12033" fill-rule="evenodd"/><path fill="#6d9eeb" fill-opacity="0.8427" d="m819.23773 260.0049l72.590576 0l0 72.1181l-72.590576 0z" fill-rule="evenodd"/><path fill="#577ebb" fill-opacity="0.8427" d="m891.8283 260.0049l24.039368 -24.039383l0 72.11812l-24.039368 24.039368z" fill-rule="evenodd"/><path fill="#8ab1ef" fill-opacity="0.8427" d="m819.23773 260.0049l24.039368 -24.039383l72.590576 0l-24.039368 24.039383z" fill-rule="evenodd"/><path fill="#000000" fill-opacity="0.0" d="m819.23773 260.0049l24.039368 -24.039383l72.590576 0l0 72.11812l-24.039368 24.039368l-72.590576 0zm0 0l72.590576 0l24.039368 -24.039383m-24.039368 24.039383l0 72.1181" fill-rule="evenodd"/><path stroke="#000000" stroke-width="1.0" stroke-linejoin="round" stroke-linecap="butt" stroke-dasharray="1.0,3.0" d="m819.23773 260.0049l24.039368 -24.039383l72.590576 0l0 72.11812l-24.039368 24.039368l-72.590576 0zm0 0l72.590576 0l24.039368 -24.039383m-24.039368 24.039383l0 72.1181" fill-rule="evenodd"/><path fill="#6d9eeb" fill-opacity="0.8427" d="m891.23773 260.0049l72.590576 0l0 72.1181l-72.590576 0z" fill-rule="evenodd"/><path fill="#577ebb" fill-opacity="0.8427" d="m963.8283 260.0049l24.039368 -24.039383l0 72.11812l-24.039368 24.039368z" fill-rule="evenodd"/><path fill="#8ab1ef" fill-opacity="0.8427" d="m891.23773 260.0049l24.039368 -24.039383l72.590576 0l-24.039368 24.039383z" fill-rule="evenodd"/><path fill="#000000" fill-opacity="0.0" d="m891.23773 260.0049l24.039368 -24.039383l72.590576 0l0 72.11812l-24.039368 24.039368l-72.590576 0zm0 0l72.590576 0l24.039368 -24.039383m-24.039368 24.039383l0 72.1181" fill-rule="evenodd"/><path stroke="#000000" stroke-width="1.0" stroke-linejoin="round" stroke-linecap="butt" stroke-dasharray="1.0,3.0" d="m891.23773 260.0049l24.039368 -24.039383l72.590576 0l0 72.11812l-24.039368 24.039368l-72.590576 0zm0 0l72.590576 0l24.039368 -24.039383m-24.039368 24.039383l0 72.1181" fill-rule="evenodd"/><path fill="#6d9eeb" fill-opacity="0.8427" d="m963.23773 260.0049l72.590515 0l0 72.1181l-72.590515 0z" fill-rule="evenodd"/><path fill="#577ebb" fill-opacity="0.8427" d="m1035.8282 260.0049l24.039429 -24.039383l0 72.11812l-24.039429 24.039368z" fill-rule="evenodd"/><path fill="#8ab1ef" fill-opacity="0.8427" d="m963.23773 260.0049l24.039368 -24.039383l72.590576 0l-24.039429 24.039383z" fill-rule="evenodd"/><path fill="#000000" fill-opacity="0.0" d="m963.23773 260.0049l24.039368 -24.039383l72.590576 0l0 72.11812l-24.039429 24.039368l-72.590515 0zm0 0l72.590515 0l24.039429 -24.039383m-24.039429 24.039383l0 72.1181" fill-rule="evenodd"/><path stroke="#000000" stroke-width="1.0" stroke-linejoin="round" stroke-linecap="butt" stroke-dasharray="1.0,3.0" d="m963.23773 260.0049l24.039368 -24.039383l72.590576 0l0 72.11812l-24.039429 24.039368l-72.590515 0zm0 0l72.590515 0l24.039429 -24.039383m-24.039429 24.039383l0 72.1181" fill-rule="evenodd"/><path fill="#6d9eeb" fill-opacity="0.8427" d="m1035.2378 260.0049l72.590454 0l0 72.1181l-72.590454 0z" fill-rule="evenodd"/><path fill="#577ebb" fill-opacity="0.8427" d="m1107.8282 260.0049l24.039429 -24.039383l0 72.11812l-24.039429 24.039368z" fill-rule="evenodd"/><path fill="#8ab1ef" fill-opacity="0.8427" d="m1035.2378 260.0049l24.039307 -24.039383l72.590576 0l-24.039429 24.039383z" fill-rule="evenodd"/><path fill="#000000" fill-opacity="0.0" d="m1035.2378 260.0049l24.039307 -24.039383l72.590576 0l0 72.11812l-24.039429 24.039368l-72.590454 0zm0 0l72.590454 0l24.039429 -24.039383m-24.039429 24.039383l0 72.1181" fill-rule="evenodd"/><path stroke="#000000" stroke-width="1.0" stroke-linejoin="round" stroke-linecap="butt" stroke-dasharray="1.0,3.0" d="m1035.2378 260.0049l24.039307 -24.039383l72.590576 0l0 72.11812l-24.039429 24.039368l-72.590454 0zm0 0l72.590454 0l24.039429 -24.039383m-24.039429 24.039383l0 72.1181" fill-rule="evenodd"/><path fill="#6d9eeb" fill-opacity="0.8427" d="m819.23773 188.0049l72.590576 0l0 72.11812l-72.590576 0z" fill-rule="evenodd"/><path fill="#577ebb" fill-opacity="0.8427" d="m891.8283 188.0049l24.039368 -24.039368l0 72.11812l-24.039368 24.039368z" fill-rule="evenodd"/><path fill="#8ab1ef" fill-opacity="0.8427" d="m819.23773 188.0049l24.039368 -24.039368l72.590576 0l-24.039368 24.039368z" fill-rule="evenodd"/><path fill="#000000" fill-opacity="0.0" d="m819.23773 188.0049l24.039368 -24.039368l72.590576 0l0 72.11812l-24.039368 24.039368l-72.590576 0zm0 0l72.590576 0l24.039368 -24.039368m-24.039368 24.039368l0 72.11812" fill-rule="evenodd"/><path stroke="#000000" stroke-width="1.0" stroke-linejoin="round" stroke-linecap="butt" stroke-dasharray="1.0,3.0" d="m819.23773 188.0049l24.039368 -24.039368l72.590576 0l0 72.11812l-24.039368 24.039368l-72.590576 0zm0 0l72.590576 0l24.039368 -24.039368m-24.039368 24.039368l0 72.11812" fill-rule="evenodd"/><path fill="#6d9eeb" fill-opacity="0.8427" d="m891.23773 188.0049l72.590576 0l0 72.11812l-72.590576 0z" fill-rule="evenodd"/><path fill="#577ebb" fill-opacity="0.8427" d="m963.8283 188.0049l24.039368 -24.039368l0 72.11812l-24.039368 24.039368z" fill-rule="evenodd"/><path fill="#8ab1ef" fill-opacity="0.8427" d="m891.23773 188.0049l24.039368 -24.039368l72.590576 0l-24.039368 24.039368z" fill-rule="evenodd"/><path fill="#000000" fill-opacity="0.0" d="m891.23773 188.0049l24.039368 -24.039368l72.590576 0l0 72.11812l-24.039368 24.039368l-72.590576 0zm0 0l72.590576 0l24.039368 -24.039368m-24.039368 24.039368l0 72.11812" fill-rule="evenodd"/><path stroke="#000000" stroke-width="1.0" stroke-linejoin="round" stroke-linecap="butt" stroke-dasharray="1.0,3.0" d="m891.23773 188.0049l24.039368 -24.039368l72.590576 0l0 72.11812l-24.039368 24.039368l-72.590576 0zm0 0l72.590576 0l24.039368 -24.039368m-24.039368 24.039368l0 72.11812" fill-rule="evenodd"/><path fill="#6d9eeb" fill-opacity="0.8427" d="m963.23773 188.0049l72.590515 0l0 72.11812l-72.590515 0z" fill-rule="evenodd"/><path fill="#577ebb" fill-opacity="0.8427" d="m1035.8282 188.0049l24.039429 -24.039368l0 72.11812l-24.039429 24.039368z" fill-rule="evenodd"/><path fill="#8ab1ef" fill-opacity="0.8427" d="m963.23773 188.0049l24.039368 -24.039368l72.590576 0l-24.039429 24.039368z" fill-rule="evenodd"/><path fill="#000000" fill-opacity="0.0" d="m963.23773 188.0049l24.039368 -24.039368l72.590576 0l0 72.11812l-24.039429 24.039368l-72.590515 0zm0 0l72.590515 0l24.039429 -24.039368m-24.039429 24.039368l0 72.11812" fill-rule="evenodd"/><path stroke="#000000" stroke-width="1.0" stroke-linejoin="round" stroke-linecap="butt" stroke-dasharray="1.0,3.0" d="m963.23773 188.0049l24.039368 -24.039368l72.590576 0l0 72.11812l-24.039429 24.039368l-72.590515 0zm0 0l72.590515 0l24.039429 -24.039368m-24.039429 24.039368l0 72.11812" fill-rule="evenodd"/><path fill="#6d9eeb" fill-opacity="0.8427" d="m1035.2378 188.0049l72.590454 0l0 72.11812l-72.590454 0z" fill-rule="evenodd"/><path fill="#577ebb" fill-opacity="0.8427" d="m1107.8282 188.0049l24.039429 -24.039368l0 72.11812l-24.039429 24.039368z" fill-rule="evenodd"/><path fill="#8ab1ef" fill-opacity="0.8427" d="m1035.2378 188.0049l24.039307 -24.039368l72.590576 0l-24.039429 24.039368z" fill-rule="evenodd"/><path fill="#000000" fill-opacity="0.0" d="m1035.2378 188.0049l24.039307 -24.039368l72.590576 0l0 72.11812l-24.039429 24.039368l-72.590454 0zm0 0l72.590454 0l24.039429 -24.039368m-24.039429 24.039368l0 72.11812" fill-rule="evenodd"/><path stroke="#000000" stroke-width="1.0" stroke-linejoin="round" stroke-linecap="butt" stroke-dasharray="1.0,3.0" d="m1035.2378 188.0049l24.039307 -24.039368l72.590576 0l0 72.11812l-24.039429 24.039368l-72.590454 0zm0 0l72.590454 0l24.039429 -24.039368m-24.039429 24.039368l0 72.11812" fill-rule="evenodd"/><path fill="#6d9eeb" fill-opacity="0.8427" d="m819.23773 116.004906l72.590576 0l0 72.11811l-72.590576 0z" fill-rule="evenodd"/><path fill="#577ebb" fill-opacity="0.8427" d="m891.8283 116.004906l24.039368 -24.039368l0 72.11811l-24.039368 24.039368z" fill-rule="evenodd"/><path fill="#8ab1ef" fill-opacity="0.8427" d="m819.23773 116.004906l24.039368 -24.039368l72.590576 0l-24.039368 24.039368z" fill-rule="evenodd"/><path fill="#000000" fill-opacity="0.0" d="m819.23773 116.004906l24.039368 -24.039368l72.590576 0l0 72.11811l-24.039368 24.039368l-72.590576 0zm0 0l72.590576 0l24.039368 -24.039368m-24.039368 24.039368l0 72.11811" fill-rule="evenodd"/><path stroke="#000000" stroke-width="1.0" stroke-linejoin="round" stroke-linecap="butt" stroke-dasharray="1.0,3.0" d="m819.23773 116.004906l24.039368 -24.039368l72.590576 0l0 72.11811l-24.039368 24.039368l-72.590576 0zm0 0l72.590576 0l24.039368 -24.039368m-24.039368 24.039368l0 72.11811" fill-rule="evenodd"/><path fill="#6d9eeb" fill-opacity="0.8427" d="m891.23773 116.004906l72.590576 0l0 72.11811l-72.590576 0z" fill-rule="evenodd"/><path fill="#577ebb" fill-opacity="0.8427" d="m963.8283 116.004906l24.039368 -24.039368l0 72.11811l-24.039368 24.039368z" fill-rule="evenodd"/><path fill="#8ab1ef" fill-opacity="0.8427" d="m891.23773 116.004906l24.039368 -24.039368l72.590576 0l-24.039368 24.039368z" fill-rule="evenodd"/><path fill="#000000" fill-opacity="0.0" d="m891.23773 116.004906l24.039368 -24.039368l72.590576 0l0 72.11811l-24.039368 24.039368l-72.590576 0zm0 0l72.590576 0l24.039368 -24.039368m-24.039368 24.039368l0 72.11811" fill-rule="evenodd"/><path stroke="#000000" stroke-width="1.0" stroke-linejoin="round" stroke-linecap="butt" stroke-dasharray="1.0,3.0" d="m891.23773 116.004906l24.039368 -24.039368l72.590576 0l0 72.11811l-24.039368 24.039368l-72.590576 0zm0 0l72.590576 0l24.039368 -24.039368m-24.039368 24.039368l0 72.11811" fill-rule="evenodd"/><path fill="#6d9eeb" fill-opacity="0.8427" d="m963.23773 116.004906l72.590515 0l0 72.11811l-72.590515 0z" fill-rule="evenodd"/><path fill="#577ebb" fill-opacity="0.8427" d="m1035.8282 116.004906l24.039429 -24.039368l0 72.11811l-24.039429 24.039368z" fill-rule="evenodd"/><path fill="#8ab1ef" fill-opacity="0.8427" d="m963.23773 116.004906l24.039368 -24.039368l72.590576 0l-24.039429 24.039368z" fill-rule="evenodd"/><path fill="#000000" fill-opacity="0.0" d="m963.23773 116.004906l24.039368 -24.039368l72.590576 0l0 72.11811l-24.039429 24.039368l-72.590515 0zm0 0l72.590515 0l24.039429 -24.039368m-24.039429 24.039368l0 72.11811" fill-rule="evenodd"/><path stroke="#000000" stroke-width="1.0" stroke-linejoin="round" stroke-linecap="butt" stroke-dasharray="1.0,3.0" d="m963.23773 116.004906l24.039368 -24.039368l72.590576 0l0 72.11811l-24.039429 24.039368l-72.590515 0zm0 0l72.590515 0l24.039429 -24.039368m-24.039429 24.039368l0 72.11811" fill-rule="evenodd"/><path fill="#6d9eeb" fill-opacity="0.8427" d="m1035.2378 116.004906l72.590454 0l0 72.11811l-72.590454 0z" fill-rule="evenodd"/><path fill="#577ebb" fill-opacity="0.8427" d="m1107.8282 116.004906l24.039429 -24.039368l0 72.11811l-24.039429 24.039368z" fill-rule="evenodd"/><path fill="#8ab1ef" fill-opacity="0.8427" d="m1035.2378 116.004906l24.039307 -24.039368l72.590576 0l-24.039429 24.039368z" fill-rule="evenodd"/><path fill="#000000" fill-opacity="0.0" d="m1035.2378 116.004906l24.039307 -24.039368l72.590576 0l0 72.11811l-24.039429 24.039368l-72.590454 0zm0 0l72.590454 0l24.039429 -24.039368m-24.039429 24.039368l0 72.11811" fill-rule="evenodd"/><path stroke="#000000" stroke-width="1.0" stroke-linejoin="round" stroke-linecap="butt" stroke-dasharray="1.0,3.0" d="m1035.2378 116.004906l24.039307 -24.039368l72.590576 0l0 72.11811l-24.039429 24.039368l-72.590454 0zm0 0l72.590454 0l24.039429 -24.039368m-24.039429 24.039368l0 72.11811" fill-rule="evenodd"/><path fill="#ffffff" fill-opacity="0.7135" d="m795.9259 285.50934l72.58234 0l0 72.12033l-72.58234 0z" fill-rule="evenodd"/><path fill="#cbcbcb" fill-opacity="0.7135" d="m868.50824 285.50934l24.0401 -24.0401l0 72.12033l-24.0401 24.0401z" fill-rule="evenodd"/><path fill="#ffffff" fill-opacity="0.7135" d="m795.9259 285.50934l24.0401 -24.0401l72.58234 0l-24.0401 24.0401z" fill-rule="evenodd"/><path fill="#000000" fill-opacity="0.0" d="m795.9259 285.50934l24.0401 -24.0401l72.58234 0l0 72.12033l-24.0401 24.0401l-72.58234 0zm0 0l72.58234 0l24.0401 -24.0401m-24.0401 24.0401l0 72.12033" fill-rule="evenodd"/><path stroke="#000000" stroke-width="1.0" stroke-linejoin="round" stroke-linecap="butt" stroke-dasharray="1.0,3.0" d="m795.9259 285.50934l24.0401 -24.0401l72.58234 0l0 72.12033l-24.0401 24.0401l-72.58234 0zm0 0l72.58234 0l24.0401 -24.0401m-24.0401 24.0401l0 72.12033" fill-rule="evenodd"/><path fill="#ffffff" fill-opacity="0.7135" d="m772.49005 309.03595l72.58234 0l0 72.1203l-72.58234 0z" fill-rule="evenodd"/><path fill="#cbcbcb" fill-opacity="0.7135" d="m845.0724 309.03595l24.0401 -24.04013l0 72.12033l-24.0401 24.0401z" fill-rule="evenodd"/><path fill="#ffffff" fill-opacity="0.7135" d="m772.49005 309.03595l24.0401 -24.04013l72.58234 0l-24.0401 24.04013z" fill-rule="evenodd"/><path fill="#000000" fill-opacity="0.0" d="m772.49005 309.03595l24.0401 -24.04013l72.58234 0l0 72.12033l-24.0401 24.0401l-72.58234 0zm0 0l72.58234 0l24.0401 -24.04013m-24.0401 24.04013l0 72.1203" fill-rule="evenodd"/><path stroke="#000000" stroke-width="1.0" stroke-linejoin="round" stroke-linecap="butt" stroke-dasharray="1.0,3.0" d="m772.49005 309.03595l24.0401 -24.04013l72.58234 0l0 72.12033l-24.0401 24.0401l-72.58234 0zm0 0l72.58234 0l24.0401 -24.04013m-24.0401 24.04013l0 72.1203" fill-rule="evenodd"/><path fill="#ffffff" fill-opacity="0.7135" d="m748.1176 333.02426l72.5824 0l0 72.12033l-72.5824 0z" fill-rule="evenodd"/><path fill="#cbcbcb" fill-opacity="0.7135" d="m820.7 333.02426l24.0401 -24.0401l0 72.1203l-24.0401 24.04013z" fill-rule="evenodd"/><path fill="#ffffff" fill-opacity="0.7135" d="m748.1176 333.02426l24.0401 -24.0401l72.5824 0l-24.0401 24.0401z" fill-rule="evenodd"/><path fill="#000000" fill-opacity="0.0" d="m748.1176 333.02426l24.0401 -24.0401l72.5824 0l0 72.1203l-24.0401 24.04013l-72.5824 0zm0 0l72.5824 0l24.0401 -24.0401m-24.0401 24.0401l0 72.12033" fill-rule="evenodd"/><path stroke="#000000" stroke-width="1.0" stroke-linejoin="round" stroke-linecap="butt" stroke-dasharray="1.0,3.0" d="m748.1176 333.02426l24.0401 -24.0401l72.5824 0l0 72.1203l-24.0401 24.04013l-72.5824 0zm0 0l72.5824 0l24.0401 -24.0401m-24.0401 24.0401l0 72.12033" fill-rule="evenodd"/><path fill="#ffffff" fill-opacity="0.7135" d="m867.9259 285.50934l72.58234 0l0 72.12033l-72.58234 0z" fill-rule="evenodd"/><path fill="#cbcbcb" fill-opacity="0.7135" d="m940.50824 285.50934l24.0401 -24.0401l0 72.12033l-24.0401 24.0401z" fill-rule="evenodd"/><path fill="#ffffff" fill-opacity="0.7135" d="m867.9259 285.50934l24.0401 -24.0401l72.58234 0l-24.0401 24.0401z" fill-rule="evenodd"/><path fill="#000000" fill-opacity="0.0" d="m867.9259 285.50934l24.0401 -24.0401l72.58234 0l0 72.12033l-24.0401 24.0401l-72.58234 0zm0 0l72.58234 0l24.0401 -24.0401m-24.0401 24.0401l0 72.12033" fill-rule="evenodd"/><path stroke="#000000" stroke-width="1.0" stroke-linejoin="round" stroke-linecap="butt" stroke-dasharray="1.0,3.0" d="m867.9259 285.50934l24.0401 -24.0401l72.58234 0l0 72.12033l-24.0401 24.0401l-72.58234 0zm0 0l72.58234 0l24.0401 -24.0401m-24.0401 24.0401l0 72.12033" fill-rule="evenodd"/><path fill="#ffffff" fill-opacity="0.7135" d="m844.49005 309.03595l72.58234 0l0 72.1203l-72.58234 0z" fill-rule="evenodd"/><path fill="#cbcbcb" fill-opacity="0.7135" d="m917.0724 309.03595l24.0401 -24.04013l0 72.12033l-24.0401 24.0401z" fill-rule="evenodd"/><path fill="#ffffff" fill-opacity="0.7135" d="m844.49005 309.03595l24.0401 -24.04013l72.58234 0l-24.0401 24.04013z" fill-rule="evenodd"/><path fill="#000000" fill-opacity="0.0" d="m844.49005 309.03595l24.0401 -24.04013l72.58234 0l0 72.12033l-24.0401 24.0401l-72.58234 0zm0 0l72.58234 0l24.0401 -24.04013m-24.0401 24.04013l0 72.1203" fill-rule="evenodd"/><path stroke="#000000" stroke-width="1.0" stroke-linejoin="round" stroke-linecap="butt" stroke-dasharray="1.0,3.0" d="m844.49005 309.03595l24.0401 -24.04013l72.58234 0l0 72.12033l-24.0401 24.0401l-72.58234 0zm0 0l72.58234 0l24.0401 -24.04013m-24.0401 24.04013l0 72.1203" fill-rule="evenodd"/><path fill="#ffffff" fill-opacity="0.7135" d="m820.1176 333.02426l72.5824 0l0 72.12033l-72.5824 0z" fill-rule="evenodd"/><path fill="#cbcbcb" fill-opacity="0.7135" d="m892.7 333.02426l24.0401 -24.0401l0 72.1203l-24.0401 24.04013z" fill-rule="evenodd"/><path fill="#ffffff" fill-opacity="0.7135" d="m820.1176 333.02426l24.0401 -24.0401l72.5824 0l-24.0401 24.0401z" fill-rule="evenodd"/><path fill="#000000" fill-opacity="0.0" d="m820.1176 333.02426l24.0401 -24.0401l72.5824 0l0 72.1203l-24.0401 24.04013l-72.5824 0zm0 0l72.5824 0l24.0401 -24.0401m-24.0401 24.0401l0 72.12033" fill-rule="evenodd"/><path stroke="#000000" stroke-width="1.0" stroke-linejoin="round" stroke-linecap="butt" stroke-dasharray="1.0,3.0" d="m820.1176 333.02426l24.0401 -24.0401l72.5824 0l0 72.1203l-24.0401 24.04013l-72.5824 0zm0 0l72.5824 0l24.0401 -24.0401m-24.0401 24.0401l0 72.12033" fill-rule="evenodd"/><path fill="#ffffff" fill-opacity="0.7135" d="m939.9259 285.50934l72.58234 0l0 72.12033l-72.58234 0z" fill-rule="evenodd"/><path fill="#cbcbcb" fill-opacity="0.7135" d="m1012.50824 285.50934l24.0401 -24.0401l0 72.12033l-24.0401 24.0401z" fill-rule="evenodd"/><path fill="#ffffff" fill-opacity="0.7135" d="m939.9259 285.50934l24.0401 -24.0401l72.58234 0l-24.0401 24.0401z" fill-rule="evenodd"/><path fill="#000000" fill-opacity="0.0" d="m939.9259 285.50934l24.0401 -24.0401l72.58234 0l0 72.12033l-24.0401 24.0401l-72.58234 0zm0 0l72.58234 0l24.0401 -24.0401m-24.0401 24.0401l0 72.12033" fill-rule="evenodd"/><path stroke="#000000" stroke-width="1.0" stroke-linejoin="round" stroke-linecap="butt" stroke-dasharray="1.0,3.0" d="m939.9259 285.50934l24.0401 -24.0401l72.58234 0l0 72.12033l-24.0401 24.0401l-72.58234 0zm0 0l72.58234 0l24.0401 -24.0401m-24.0401 24.0401l0 72.12033" fill-rule="evenodd"/><path fill="#ffffff" fill-opacity="0.7135" d="m916.49005 309.03595l72.58234 0l0 72.1203l-72.58234 0z" fill-rule="evenodd"/><path fill="#cbcbcb" fill-opacity="0.7135" d="m989.0724 309.03595l24.0401 -24.04013l0 72.12033l-24.0401 24.0401z" fill-rule="evenodd"/><path fill="#ffffff" fill-opacity="0.7135" d="m916.49005 309.03595l24.0401 -24.04013l72.58234 0l-24.0401 24.04013z" fill-rule="evenodd"/><path fill="#000000" fill-opacity="0.0" d="m916.49005 309.03595l24.0401 -24.04013l72.58234 0l0 72.12033l-24.0401 24.0401l-72.58234 0zm0 0l72.58234 0l24.0401 -24.04013m-24.0401 24.04013l0 72.1203" fill-rule="evenodd"/><path stroke="#000000" stroke-width="1.0" stroke-linejoin="round" stroke-linecap="butt" stroke-dasharray="1.0,3.0" d="m916.49005 309.03595l24.0401 -24.04013l72.58234 0l0 72.12033l-24.0401 24.0401l-72.58234 0zm0 0l72.58234 0l24.0401 -24.04013m-24.0401 24.04013l0 72.1203" fill-rule="evenodd"/><path fill="#ffffff" fill-opacity="0.7135" d="m892.1176 333.02426l72.5824 0l0 72.12033l-72.5824 0z" fill-rule="evenodd"/><path fill="#cbcbcb" fill-opacity="0.7135" d="m964.7 333.02426l24.0401 -24.0401l0 72.1203l-24.0401 24.04013z" fill-rule="evenodd"/><path fill="#ffffff" fill-opacity="0.7135" d="m892.1176 333.02426l24.0401 -24.0401l72.5824 0l-24.0401 24.0401z" fill-rule="evenodd"/><path fill="#000000" fill-opacity="0.0" d="m892.1176 333.02426l24.0401 -24.0401l72.5824 0l0 72.1203l-24.0401 24.04013l-72.5824 0zm0 0l72.5824 0l24.0401 -24.0401m-24.0401 24.0401l0 72.12033" fill-rule="evenodd"/><path stroke="#000000" stroke-width="1.0" stroke-linejoin="round" stroke-linecap="butt" stroke-dasharray="1.0,3.0" d="m892.1176 333.02426l24.0401 -24.0401l72.5824 0l0 72.1203l-24.0401 24.04013l-72.5824 0zm0 0l72.5824 0l24.0401 -24.0401m-24.0401 24.0401l0 72.12033" fill-rule="evenodd"/><path fill="#ffffff" fill-opacity="0.7135" d="m795.9259 213.50934l72.58234 0l0 72.12033l-72.58234 0z" fill-rule="evenodd"/><path fill="#cbcbcb" fill-opacity="0.7135" d="m868.50824 213.50934l24.0401 -24.040115l0 72.120346l-24.0401 24.0401z" fill-rule="evenodd"/><path fill="#ffffff" fill-opacity="0.7135" d="m795.9259 213.50934l24.0401 -24.040115l72.58234 0l-24.0401 24.040115z" fill-rule="evenodd"/><path fill="#000000" fill-opacity="0.0" d="m795.9259 213.50934l24.0401 -24.040115l72.58234 0l0 72.120346l-24.0401 24.0401l-72.58234 0zm0 0l72.58234 0l24.0401 -24.040115m-24.0401 24.040115l0 72.12033" fill-rule="evenodd"/><path stroke="#000000" stroke-width="1.0" stroke-linejoin="round" stroke-linecap="butt" stroke-dasharray="1.0,3.0" d="m795.9259 213.50934l24.0401 -24.040115l72.58234 0l0 72.120346l-24.0401 24.0401l-72.58234 0zm0 0l72.58234 0l24.0401 -24.040115m-24.0401 24.040115l0 72.12033" fill-rule="evenodd"/><path fill="#ffffff" fill-opacity="0.7135" d="m772.49005 237.03593l72.58234 0l0 72.120316l-72.58234 0z" fill-rule="evenodd"/><path fill="#cbcbcb" fill-opacity="0.7135" d="m845.0724 237.03593l24.0401 -24.0401l0 72.120316l-24.0401 24.0401z" fill-rule="evenodd"/><path fill="#ffffff" fill-opacity="0.7135" d="m772.49005 237.03593l24.0401 -24.0401l72.58234 0l-24.0401 24.0401z" fill-rule="evenodd"/><path fill="#000000" fill-opacity="0.0" d="m772.49005 237.03593l24.0401 -24.0401l72.58234 0l0 72.120316l-24.0401 24.0401l-72.58234 0zm0 0l72.58234 0l24.0401 -24.0401m-24.0401 24.0401l0 72.120316" fill-rule="evenodd"/><path stroke="#000000" stroke-width="1.0" stroke-linejoin="round" stroke-linecap="butt" stroke-dasharray="1.0,3.0" d="m772.49005 237.03593l24.0401 -24.0401l72.58234 0l0 72.120316l-24.0401 24.0401l-72.58234 0zm0 0l72.58234 0l24.0401 -24.0401m-24.0401 24.0401l0 72.120316" fill-rule="evenodd"/><path fill="#ffffff" fill-opacity="0.7135" d="m748.1176 261.02426l72.5824 0l0 72.12033l-72.5824 0z" fill-rule="evenodd"/><path fill="#cbcbcb" fill-opacity="0.7135" d="m820.7 261.02426l24.0401 -24.040115l0 72.120316l-24.0401 24.04013z" fill-rule="evenodd"/><path fill="#ffffff" fill-opacity="0.7135" d="m748.1176 261.02426l24.0401 -24.040115l72.5824 0l-24.0401 24.040115z" fill-rule="evenodd"/><path fill="#000000" fill-opacity="0.0" d="m748.1176 261.02426l24.0401 -24.040115l72.5824 0l0 72.120316l-24.0401 24.04013l-72.5824 0zm0 0l72.5824 0l24.0401 -24.040115m-24.0401 24.040115l0 72.12033" fill-rule="evenodd"/><path stroke="#000000" stroke-width="1.0" stroke-linejoin="round" stroke-linecap="butt" stroke-dasharray="1.0,3.0" d="m748.1176 261.02426l24.0401 -24.040115l72.5824 0l0 72.120316l-24.0401 24.04013l-72.5824 0zm0 0l72.5824 0l24.0401 -24.040115m-24.0401 24.040115l0 72.12033" fill-rule="evenodd"/><path fill="#ffffff" fill-opacity="0.7135" d="m867.9259 213.50934l72.58234 0l0 72.12033l-72.58234 0z" fill-rule="evenodd"/><path fill="#cbcbcb" fill-opacity="0.7135" d="m940.50824 213.50934l24.0401 -24.040115l0 72.120346l-24.0401 24.0401z" fill-rule="evenodd"/><path fill="#ffffff" fill-opacity="0.7135" d="m867.9259 213.50934l24.0401 -24.040115l72.58234 0l-24.0401 24.040115z" fill-rule="evenodd"/><path fill="#000000" fill-opacity="0.0" d="m867.9259 213.50934l24.0401 -24.040115l72.58234 0l0 72.120346l-24.0401 24.0401l-72.58234 0zm0 0l72.58234 0l24.0401 -24.040115m-24.0401 24.040115l0 72.12033" fill-rule="evenodd"/><path stroke="#000000" stroke-width="1.0" stroke-linejoin="round" stroke-linecap="butt" stroke-dasharray="1.0,3.0" d="m867.9259 213.50934l24.0401 -24.040115l72.58234 0l0 72.120346l-24.0401 24.0401l-72.58234 0zm0 0l72.58234 0l24.0401 -24.040115m-24.0401 24.040115l0 72.12033" fill-rule="evenodd"/><path fill="#ffffff" fill-opacity="0.7135" d="m844.49005 237.03593l72.58234 0l0 72.120316l-72.58234 0z" fill-rule="evenodd"/><path fill="#cbcbcb" fill-opacity="0.7135" d="m917.0724 237.03593l24.0401 -24.0401l0 72.120316l-24.0401 24.0401z" fill-rule="evenodd"/><path fill="#ffffff" fill-opacity="0.7135" d="m844.49005 237.03593l24.0401 -24.0401l72.58234 0l-24.0401 24.0401z" fill-rule="evenodd"/><path fill="#000000" fill-opacity="0.0" d="m844.49005 237.03593l24.0401 -24.0401l72.58234 0l0 72.120316l-24.0401 24.0401l-72.58234 0zm0 0l72.58234 0l24.0401 -24.0401m-24.0401 24.0401l0 72.120316" fill-rule="evenodd"/><path stroke="#000000" stroke-width="1.0" stroke-linejoin="round" stroke-linecap="butt" stroke-dasharray="1.0,3.0" d="m844.49005 237.03593l24.0401 -24.0401l72.58234 0l0 72.120316l-24.0401 24.0401l-72.58234 0zm0 0l72.58234 0l24.0401 -24.0401m-24.0401 24.0401l0 72.120316" fill-rule="evenodd"/><path fill="#ffffff" fill-opacity="0.7135" d="m820.1176 261.02426l72.5824 0l0 72.12033l-72.5824 0z" fill-rule="evenodd"/><path fill="#cbcbcb" fill-opacity="0.7135" d="m892.7 261.02426l24.0401 -24.040115l0 72.120316l-24.0401 24.04013z" fill-rule="evenodd"/><path fill="#ffffff" fill-opacity="0.7135" d="m820.1176 261.02426l24.0401 -24.040115l72.5824 0l-24.0401 24.040115z" fill-rule="evenodd"/><path fill="#000000" fill-opacity="0.0" d="m820.1176 261.02426l24.0401 -24.040115l72.5824 0l0 72.120316l-24.0401 24.04013l-72.5824 0zm0 0l72.5824 0l24.0401 -24.040115m-24.0401 24.040115l0 72.12033" fill-rule="evenodd"/><path stroke="#000000" stroke-width="1.0" stroke-linejoin="round" stroke-linecap="butt" stroke-dasharray="1.0,3.0" d="m820.1176 261.02426l24.0401 -24.040115l72.5824 0l0 72.120316l-24.0401 24.04013l-72.5824 0zm0 0l72.5824 0l24.0401 -24.040115m-24.0401 24.040115l0 72.12033" fill-rule="evenodd"/><path fill="#ffffff" fill-opacity="0.7135" d="m939.9259 213.50934l72.58234 0l0 72.12033l-72.58234 0z" fill-rule="evenodd"/><path fill="#cbcbcb" fill-opacity="0.7135" d="m1012.50824 213.50934l24.0401 -24.040115l0 72.120346l-24.0401 24.0401z" fill-rule="evenodd"/><path fill="#ffffff" fill-opacity="0.7135" d="m939.9259 213.50934l24.0401 -24.040115l72.58234 0l-24.0401 24.040115z" fill-rule="evenodd"/><path fill="#000000" fill-opacity="0.0" d="m939.9259 213.50934l24.0401 -24.040115l72.58234 0l0 72.120346l-24.0401 24.0401l-72.58234 0zm0 0l72.58234 0l24.0401 -24.040115m-24.0401 24.040115l0 72.12033" fill-rule="evenodd"/><path stroke="#000000" stroke-width="1.0" stroke-linejoin="round" stroke-linecap="butt" stroke-dasharray="1.0,3.0" d="m939.9259 213.50934l24.0401 -24.040115l72.58234 0l0 72.120346l-24.0401 24.0401l-72.58234 0zm0 0l72.58234 0l24.0401 -24.040115m-24.0401 24.040115l0 72.12033" fill-rule="evenodd"/><path fill="#ffffff" fill-opacity="0.7135" d="m916.49005 237.03593l72.58234 0l0 72.120316l-72.58234 0z" fill-rule="evenodd"/><path fill="#cbcbcb" fill-opacity="0.7135" d="m989.0724 237.03593l24.0401 -24.0401l0 72.120316l-24.0401 24.0401z" fill-rule="evenodd"/><path fill="#ffffff" fill-opacity="0.7135" d="m916.49005 237.03593l24.0401 -24.0401l72.58234 0l-24.0401 24.0401z" fill-rule="evenodd"/><path fill="#000000" fill-opacity="0.0" d="m916.49005 237.03593l24.0401 -24.0401l72.58234 0l0 72.120316l-24.0401 24.0401l-72.58234 0zm0 0l72.58234 0l24.0401 -24.0401m-24.0401 24.0401l0 72.120316" fill-rule="evenodd"/><path stroke="#000000" stroke-width="1.0" stroke-linejoin="round" stroke-linecap="butt" stroke-dasharray="1.0,3.0" d="m916.49005 237.03593l24.0401 -24.0401l72.58234 0l0 72.120316l-24.0401 24.0401l-72.58234 0zm0 0l72.58234 0l24.0401 -24.0401m-24.0401 24.0401l0 72.120316" fill-rule="evenodd"/><path fill="#ffffff" fill-opacity="0.7135" d="m892.1176 261.02426l72.5824 0l0 72.12033l-72.5824 0z" fill-rule="evenodd"/><path fill="#cbcbcb" fill-opacity="0.7135" d="m964.7 261.02426l24.0401 -24.040115l0 72.120316l-24.0401 24.04013z" fill-rule="evenodd"/><path fill="#ffffff" fill-opacity="0.7135" d="m892.1176 261.02426l24.0401 -24.040115l72.5824 0l-24.0401 24.040115z" fill-rule="evenodd"/><path fill="#000000" fill-opacity="0.0" d="m892.1176 261.02426l24.0401 -24.040115l72.5824 0l0 72.120316l-24.0401 24.04013l-72.5824 0zm0 0l72.5824 0l24.0401 -24.040115m-24.0401 24.040115l0 72.12033" fill-rule="evenodd"/><path stroke="#000000" stroke-width="1.0" stroke-linejoin="round" stroke-linecap="butt" stroke-dasharray="1.0,3.0" d="m892.1176 261.02426l24.0401 -24.040115l72.5824 0l0 72.120316l-24.0401 24.04013l-72.5824 0zm0 0l72.5824 0l24.0401 -24.040115m-24.0401 24.040115l0 72.12033" fill-rule="evenodd"/><path fill="#ffffff" fill-opacity="0.7135" d="m795.9259 141.50934l72.58234 0l0 72.12033l-72.58234 0z" fill-rule="evenodd"/><path fill="#cbcbcb" fill-opacity="0.7135" d="m868.50824 141.50934l24.0401 -24.040108l0 72.12032l-24.0401 24.040115z" fill-rule="evenodd"/><path fill="#ffffff" fill-opacity="0.7135" d="m795.9259 141.50934l24.0401 -24.040108l72.58234 0l-24.0401 24.040108z" fill-rule="evenodd"/><path fill="#000000" fill-opacity="0.0" d="m795.9259 141.50934l24.0401 -24.040108l72.58234 0l0 72.12032l-24.0401 24.040115l-72.58234 0zm0 0l72.58234 0l24.0401 -24.040108m-24.0401 24.040108l0 72.12033" fill-rule="evenodd"/><path stroke="#000000" stroke-width="1.0" stroke-linejoin="round" stroke-linecap="butt" stroke-dasharray="1.0,3.0" d="m795.9259 141.50934l24.0401 -24.040108l72.58234 0l0 72.12032l-24.0401 24.040115l-72.58234 0zm0 0l72.58234 0l24.0401 -24.040108m-24.0401 24.040108l0 72.12033" fill-rule="evenodd"/><path fill="#ffffff" fill-opacity="0.7135" d="m772.49005 165.03593l72.58234 0l0 72.12033l-72.58234 0z" fill-rule="evenodd"/><path fill="#cbcbcb" fill-opacity="0.7135" d="m845.0724 165.03593l24.0401 -24.0401l0 72.120316l-24.0401 24.040115z" fill-rule="evenodd"/><path fill="#ffffff" fill-opacity="0.7135" d="m772.49005 165.03593l24.0401 -24.0401l72.58234 0l-24.0401 24.0401z" fill-rule="evenodd"/><path fill="#000000" fill-opacity="0.0" d="m772.49005 165.03593l24.0401 -24.0401l72.58234 0l0 72.120316l-24.0401 24.040115l-72.58234 0zm0 0l72.58234 0l24.0401 -24.0401m-24.0401 24.0401l0 72.12033" fill-rule="evenodd"/><path stroke="#000000" stroke-width="1.0" stroke-linejoin="round" stroke-linecap="butt" stroke-dasharray="1.0,3.0" d="m772.49005 165.03593l24.0401 -24.0401l72.58234 0l0 72.120316l-24.0401 24.040115l-72.58234 0zm0 0l72.58234 0l24.0401 -24.0401m-24.0401 24.0401l0 72.12033" fill-rule="evenodd"/><path fill="#ffffff" fill-opacity="0.7135" d="m748.1176 189.02426l72.5824 0l0 72.12033l-72.5824 0z" fill-rule="evenodd"/><path fill="#cbcbcb" fill-opacity="0.7135" d="m820.7 189.02426l24.0401 -24.040115l0 72.12033l-24.0401 24.040115z" fill-rule="evenodd"/><path fill="#ffffff" fill-opacity="0.7135" d="m748.1176 189.02426l24.0401 -24.040115l72.5824 0l-24.0401 24.040115z" fill-rule="evenodd"/><path fill="#000000" fill-opacity="0.0" d="m748.1176 189.02426l24.0401 -24.040115l72.5824 0l0 72.12033l-24.0401 24.040115l-72.5824 0zm0 0l72.5824 0l24.0401 -24.040115m-24.0401 24.040115l0 72.12033" fill-rule="evenodd"/><path stroke="#000000" stroke-width="1.0" stroke-linejoin="round" stroke-linecap="butt" stroke-dasharray="1.0,3.0" d="m748.1176 189.02426l24.0401 -24.040115l72.5824 0l0 72.12033l-24.0401 24.040115l-72.5824 0zm0 0l72.5824 0l24.0401 -24.040115m-24.0401 24.040115l0 72.12033" fill-rule="evenodd"/><path fill="#ffffff" fill-opacity="0.7135" d="m867.9259 141.50934l72.58234 0l0 72.12033l-72.58234 0z" fill-rule="evenodd"/><path fill="#cbcbcb" fill-opacity="0.7135" d="m940.50824 141.50934l24.0401 -24.040108l0 72.12032l-24.0401 24.040115z" fill-rule="evenodd"/><path fill="#ffffff" fill-opacity="0.7135" d="m867.9259 141.50934l24.0401 -24.040108l72.58234 0l-24.0401 24.040108z" fill-rule="evenodd"/><path fill="#000000" fill-opacity="0.0" d="m867.9259 141.50934l24.0401 -24.040108l72.58234 0l0 72.12032l-24.0401 24.040115l-72.58234 0zm0 0l72.58234 0l24.0401 -24.040108m-24.0401 24.040108l0 72.12033" fill-rule="evenodd"/><path stroke="#000000" stroke-width="1.0" stroke-linejoin="round" stroke-linecap="butt" stroke-dasharray="1.0,3.0" d="m867.9259 141.50934l24.0401 -24.040108l72.58234 0l0 72.12032l-24.0401 24.040115l-72.58234 0zm0 0l72.58234 0l24.0401 -24.040108m-24.0401 24.040108l0 72.12033" fill-rule="evenodd"/><path fill="#ffffff" fill-opacity="0.7135" d="m844.49005 165.03593l72.58234 0l0 72.12033l-72.58234 0z" fill-rule="evenodd"/><path fill="#cbcbcb" fill-opacity="0.7135" d="m917.0724 165.03593l24.0401 -24.0401l0 72.120316l-24.0401 24.040115z" fill-rule="evenodd"/><path fill="#ffffff" fill-opacity="0.7135" d="m844.49005 165.03593l24.0401 -24.0401l72.58234 0l-24.0401 24.0401z" fill-rule="evenodd"/><path fill="#000000" fill-opacity="0.0" d="m844.49005 165.03593l24.0401 -24.0401l72.58234 0l0 72.120316l-24.0401 24.040115l-72.58234 0zm0 0l72.58234 0l24.0401 -24.0401m-24.0401 24.0401l0 72.12033" fill-rule="evenodd"/><path stroke="#000000" stroke-width="1.0" stroke-linejoin="round" stroke-linecap="butt" stroke-dasharray="1.0,3.0" d="m844.49005 165.03593l24.0401 -24.0401l72.58234 0l0 72.120316l-24.0401 24.040115l-72.58234 0zm0 0l72.58234 0l24.0401 -24.0401m-24.0401 24.0401l0 72.12033" fill-rule="evenodd"/><path fill="#ffffff" fill-opacity="0.7135" d="m820.1176 189.02426l72.5824 0l0 72.12033l-72.5824 0z" fill-rule="evenodd"/><path fill="#cbcbcb" fill-opacity="0.7135" d="m892.7 189.02426l24.0401 -24.040115l0 72.12033l-24.0401 24.040115z" fill-rule="evenodd"/><path fill="#ffffff" fill-opacity="0.7135" d="m820.1176 189.02426l24.0401 -24.040115l72.5824 0l-24.0401 24.040115z" fill-rule="evenodd"/><path fill="#000000" fill-opacity="0.0" d="m820.1176 189.02426l24.0401 -24.040115l72.5824 0l0 72.12033l-24.0401 24.040115l-72.5824 0zm0 0l72.5824 0l24.0401 -24.040115m-24.0401 24.040115l0 72.12033" fill-rule="evenodd"/><path stroke="#000000" stroke-width="1.0" stroke-linejoin="round" stroke-linecap="butt" stroke-dasharray="1.0,3.0" d="m820.1176 189.02426l24.0401 -24.040115l72.5824 0l0 72.12033l-24.0401 24.040115l-72.5824 0zm0 0l72.5824 0l24.0401 -24.040115m-24.0401 24.040115l0 72.12033" fill-rule="evenodd"/><path fill="#ffffff" fill-opacity="0.7135" d="m939.9259 141.50934l72.58234 0l0 72.12033l-72.58234 0z" fill-rule="evenodd"/><path fill="#cbcbcb" fill-opacity="0.7135" d="m1012.50824 141.50934l24.0401 -24.040108l0 72.12032l-24.0401 24.040115z" fill-rule="evenodd"/><path fill="#ffffff" fill-opacity="0.7135" d="m939.9259 141.50934l24.0401 -24.040108l72.58234 0l-24.0401 24.040108z" fill-rule="evenodd"/><path fill="#000000" fill-opacity="0.0" d="m939.9259 141.50934l24.0401 -24.040108l72.58234 0l0 72.12032l-24.0401 24.040115l-72.58234 0zm0 0l72.58234 0l24.0401 -24.040108m-24.0401 24.040108l0 72.12033" fill-rule="evenodd"/><path stroke="#000000" stroke-width="1.0" stroke-linejoin="round" stroke-linecap="butt" stroke-dasharray="1.0,3.0" d="m939.9259 141.50934l24.0401 -24.040108l72.58234 0l0 72.12032l-24.0401 24.040115l-72.58234 0zm0 0l72.58234 0l24.0401 -24.040108m-24.0401 24.040108l0 72.12033" fill-rule="evenodd"/><path fill="#ffffff" fill-opacity="0.7135" d="m916.49005 165.03593l72.58234 0l0 72.12033l-72.58234 0z" fill-rule="evenodd"/><path fill="#cbcbcb" fill-opacity="0.7135" d="m989.0724 165.03593l24.0401 -24.0401l0 72.120316l-24.0401 24.040115z" fill-rule="evenodd"/><path fill="#ffffff" fill-opacity="0.7135" d="m916.49005 165.03593l24.0401 -24.0401l72.58234 0l-24.0401 24.0401z" fill-rule="evenodd"/><path fill="#000000" fill-opacity="0.0" d="m916.49005 165.03593l24.0401 -24.0401l72.58234 0l0 72.120316l-24.0401 24.040115l-72.58234 0zm0 0l72.58234 0l24.0401 -24.0401m-24.0401 24.0401l0 72.12033" fill-rule="evenodd"/><path stroke="#000000" stroke-width="1.0" stroke-linejoin="round" stroke-linecap="butt" stroke-dasharray="1.0,3.0" d="m916.49005 165.03593l24.0401 -24.0401l72.58234 0l0 72.120316l-24.0401 24.040115l-72.58234 0zm0 0l72.58234 0l24.0401 -24.0401m-24.0401 24.0401l0 72.12033" fill-rule="evenodd"/><path fill="#ffffff" fill-opacity="0.7135" d="m892.1176 189.02426l72.5824 0l0 72.12033l-72.5824 0z" fill-rule="evenodd"/><path fill="#cbcbcb" fill-opacity="0.7135" d="m964.7 189.02426l24.0401 -24.040115l0 72.12033l-24.0401 24.040115z" fill-rule="evenodd"/><path fill="#ffffff" fill-opacity="0.7135" d="m892.1176 189.02426l24.0401 -24.040115l72.5824 0l-24.0401 24.040115z" fill-rule="evenodd"/><path fill="#000000" fill-opacity="0.0" d="m892.1176 189.02426l24.0401 -24.040115l72.5824 0l0 72.12033l-24.0401 24.040115l-72.5824 0zm0 0l72.5824 0l24.0401 -24.040115m-24.0401 24.040115l0 72.12033" fill-rule="evenodd"/><path stroke="#000000" stroke-width="1.0" stroke-linejoin="round" stroke-linecap="butt" stroke-dasharray="1.0,3.0" d="m892.1176 189.02426l24.0401 -24.040115l72.5824 0l0 72.12033l-24.0401 24.040115l-72.5824 0zm0 0l72.5824 0l24.0401 -24.040115m-24.0401 24.040115l0 72.12033" fill-rule="evenodd"/><path fill="#cc0000" fill-opacity="0.8315" d="m1035.2378 260.00565l72.582275 0l0 72.12033l-72.582275 0z" fill-rule="evenodd"/><path fill="#a30000" fill-opacity="0.8315" d="m1107.8201 260.00565l24.040161 -24.040115l0 72.120316l-24.040161 24.04013z" fill-rule="evenodd"/><path fill="#d63333" fill-opacity="0.8315" d="m1035.2378 260.00565l24.04004 -24.040115l72.5824 0l-24.040161 24.040115z" fill-rule="evenodd"/><path fill="#000000" fill-opacity="0.0" d="m1035.2378 260.00565l24.04004 -24.040115l72.5824 0l0 72.120316l-24.040161 24.04013l-72.582275 0zm0 0l72.582275 0l24.040161 -24.040115m-24.040161 24.040115l0 72.12033" fill-rule="evenodd"/><path stroke="#000000" stroke-width="1.0" stroke-linejoin="round" stroke-linecap="butt" stroke-dasharray="1.0,3.0" d="m1035.2378 260.00565l24.04004 -24.040115l72.5824 0l0 72.120316l-24.040161 24.04013l-72.582275 0zm0 0l72.582275 0l24.040161 -24.040115m-24.040161 24.040115l0 72.12033" fill-rule="evenodd"/><path fill="#6aa84f" fill-opacity="0.7865" d="m1011.1385 283.98965l72.58234 0l0 72.12033l-72.58234 0z" fill-rule="evenodd"/><path fill="#54863f" fill-opacity="0.7865" d="m1083.7208 283.98965l24.040161 -24.0401l0 72.1203l-24.040161 24.04013z" fill-rule="evenodd"/><path fill="#87b972" fill-opacity="0.7865" d="m1011.1385 283.98965l24.0401 -24.0401l72.5824 0l-24.040161 24.0401z" fill-rule="evenodd"/><path fill="#000000" fill-opacity="0.0" d="m1011.1385 283.98965l24.0401 -24.0401l72.5824 0l0 72.1203l-24.040161 24.04013l-72.58234 0zm0 0l72.58234 0l24.040161 -24.0401m-24.040161 24.0401l0 72.12033" fill-rule="evenodd"/><path stroke="#000000" stroke-width="1.0" stroke-linejoin="round" stroke-linecap="butt" stroke-dasharray="1.0,3.0" d="m1011.1385 283.98965l24.0401 -24.0401l72.5824 0l0 72.1203l-24.040161 24.04013l-72.58234 0zm0 0l72.58234 0l24.040161 -24.0401m-24.040161 24.0401l0 72.12033" fill-rule="evenodd"/><path fill="#6aa84f" fill-opacity="0.7865" d="m987.70264 307.51624l72.5824 0l0 72.12033l-72.5824 0z" fill-rule="evenodd"/><path fill="#54863f" fill-opacity="0.7865" d="m1060.285 307.51624l24.04004 -24.0401l0 72.12033l-24.04004 24.0401z" fill-rule="evenodd"/><path fill="#87b972" fill-opacity="0.7865" d="m987.70264 307.51624l24.0401 -24.0401l72.58234 0l-24.04004 24.0401z" fill-rule="evenodd"/><path fill="#000000" fill-opacity="0.0" d="m987.70264 307.51624l24.0401 -24.0401l72.58234 0l0 72.12033l-24.04004 24.0401l-72.5824 0zm0 0l72.5824 0l24.04004 -24.0401m-24.04004 24.0401l0 72.12033" fill-rule="evenodd"/><path stroke="#000000" stroke-width="1.0" stroke-linejoin="round" stroke-linecap="butt" stroke-dasharray="1.0,3.0" d="m987.70264 307.51624l24.0401 -24.0401l72.58234 0l0 72.12033l-24.04004 24.0401l-72.5824 0zm0 0l72.5824 0l24.04004 -24.0401m-24.04004 24.0401l0 72.12033" fill-rule="evenodd"/><path fill="#6aa84f" fill-opacity="0.7865" d="m963.3302 331.50458l72.5824 0l0 72.12033l-72.5824 0z" fill-rule="evenodd"/><path fill="#54863f" fill-opacity="0.7865" d="m1035.9126 331.50458l24.04004 -24.0401l0 72.1203l-24.04004 24.04013z" fill-rule="evenodd"/><path fill="#87b972" fill-opacity="0.7865" d="m963.3302 331.50458l24.0401 -24.0401l72.58234 0l-24.04004 24.0401z" fill-rule="evenodd"/><path fill="#000000" fill-opacity="0.0" d="m963.3302 331.50458l24.0401 -24.0401l72.58234 0l0 72.1203l-24.04004 24.04013l-72.5824 0zm0 0l72.5824 0l24.04004 -24.0401m-24.04004 24.0401l0 72.12033" fill-rule="evenodd"/><path stroke="#000000" stroke-width="1.0" stroke-linejoin="round" stroke-linecap="butt" stroke-dasharray="1.0,3.0" d="m963.3302 331.50458l24.0401 -24.0401l72.58234 0l0 72.1203l-24.04004 24.04013l-72.5824 0zm0 0l72.5824 0l24.04004 -24.0401m-24.04004 24.0401l0 72.12033" fill-rule="evenodd"/><path fill="#cc0000" fill-opacity="0.8315" d="m1035.2378 188.00565l72.582275 0l0 72.12033l-72.582275 0z" fill-rule="evenodd"/><path fill="#a30000" fill-opacity="0.8315" d="m1107.8201 188.00565l24.040161 -24.040115l0 72.12033l-24.040161 24.040115z" fill-rule="evenodd"/><path fill="#d63333" fill-opacity="0.8315" d="m1035.2378 188.00565l24.04004 -24.040115l72.5824 0l-24.040161 24.040115z" fill-rule="evenodd"/><path fill="#000000" fill-opacity="0.0" d="m1035.2378 188.00565l24.04004 -24.040115l72.5824 0l0 72.12033l-24.040161 24.040115l-72.582275 0zm0 0l72.582275 0l24.040161 -24.040115m-24.040161 24.040115l0 72.12033" fill-rule="evenodd"/><path stroke="#000000" stroke-width="1.0" stroke-linejoin="round" stroke-linecap="butt" stroke-dasharray="1.0,3.0" d="m1035.2378 188.00565l24.04004 -24.040115l72.5824 0l0 72.12033l-24.040161 24.040115l-72.582275 0zm0 0l72.582275 0l24.040161 -24.040115m-24.040161 24.040115l0 72.12033" fill-rule="evenodd"/><path fill="#6aa84f" fill-opacity="0.7865" d="m1011.1385 211.98965l72.58234 0l0 72.12033l-72.58234 0z" fill-rule="evenodd"/><path fill="#54863f" fill-opacity="0.7865" d="m1083.7208 211.98965l24.040161 -24.040115l0 72.120316l-24.040161 24.04013z" fill-rule="evenodd"/><path fill="#87b972" fill-opacity="0.7865" d="m1011.1385 211.98965l24.0401 -24.040115l72.5824 0l-24.040161 24.040115z" fill-rule="evenodd"/><path fill="#000000" fill-opacity="0.0" d="m1011.1385 211.98965l24.0401 -24.040115l72.5824 0l0 72.120316l-24.040161 24.04013l-72.58234 0zm0 0l72.58234 0l24.040161 -24.040115m-24.040161 24.040115l0 72.12033" fill-rule="evenodd"/><path stroke="#000000" stroke-width="1.0" stroke-linejoin="round" stroke-linecap="butt" stroke-dasharray="1.0,3.0" d="m1011.1385 211.98965l24.0401 -24.040115l72.5824 0l0 72.120316l-24.040161 24.04013l-72.58234 0zm0 0l72.58234 0l24.040161 -24.040115m-24.040161 24.040115l0 72.12033" fill-rule="evenodd"/><path fill="#6aa84f" fill-opacity="0.7865" d="m987.70264 235.51625l72.5824 0l0 72.120316l-72.5824 0z" fill-rule="evenodd"/><path fill="#54863f" fill-opacity="0.7865" d="m1060.285 235.51625l24.04004 -24.040115l0 72.12033l-24.04004 24.0401z" fill-rule="evenodd"/><path fill="#87b972" fill-opacity="0.7865" d="m987.70264 235.51625l24.0401 -24.040115l72.58234 0l-24.04004 24.040115z" fill-rule="evenodd"/><path fill="#000000" fill-opacity="0.0" d="m987.70264 235.51625l24.0401 -24.040115l72.58234 0l0 72.12033l-24.04004 24.0401l-72.5824 0zm0 0l72.5824 0l24.04004 -24.040115m-24.04004 24.040115l0 72.120316" fill-rule="evenodd"/><path stroke="#000000" stroke-width="1.0" stroke-linejoin="round" stroke-linecap="butt" stroke-dasharray="1.0,3.0" d="m987.70264 235.51625l24.0401 -24.040115l72.58234 0l0 72.12033l-24.04004 24.0401l-72.5824 0zm0 0l72.5824 0l24.04004 -24.040115m-24.04004 24.040115l0 72.120316" fill-rule="evenodd"/><path fill="#6aa84f" fill-opacity="0.7865" d="m963.3302 259.50458l72.5824 0l0 72.12033l-72.5824 0z" fill-rule="evenodd"/><path fill="#54863f" fill-opacity="0.7865" d="m1035.9126 259.50458l24.04004 -24.040115l0 72.120316l-24.04004 24.04013z" fill-rule="evenodd"/><path fill="#87b972" fill-opacity="0.7865" d="m963.3302 259.50458l24.0401 -24.040115l72.58234 0l-24.04004 24.040115z" fill-rule="evenodd"/><path fill="#000000" fill-opacity="0.0" d="m963.3302 259.50458l24.0401 -24.040115l72.58234 0l0 72.120316l-24.04004 24.04013l-72.5824 0zm0 0l72.5824 0l24.04004 -24.040115m-24.04004 24.040115l0 72.12033" fill-rule="evenodd"/><path stroke="#000000" stroke-width="1.0" stroke-linejoin="round" stroke-linecap="butt" stroke-dasharray="1.0,3.0" d="m963.3302 259.50458l24.0401 -24.040115l72.58234 0l0 72.120316l-24.04004 24.04013l-72.5824 0zm0 0l72.5824 0l24.04004 -24.040115m-24.04004 24.040115l0 72.12033" fill-rule="evenodd"/><path fill="#cc0000" fill-opacity="0.8315" d="m1035.2378 116.005646l72.582275 0l0 72.120316l-72.582275 0z" fill-rule="evenodd"/><path fill="#a30000" fill-opacity="0.8315" d="m1107.8201 116.005646l24.040161 -24.040108l0 72.12032l-24.040161 24.0401z" fill-rule="evenodd"/><path fill="#d63333" fill-opacity="0.8315" d="m1035.2378 116.005646l24.04004 -24.040108l72.5824 0l-24.040161 24.040108z" fill-rule="evenodd"/><path fill="#000000" fill-opacity="0.0" d="m1035.2378 116.005646l24.04004 -24.040108l72.5824 0l0 72.12032l-24.040161 24.0401l-72.582275 0zm0 0l72.582275 0l24.040161 -24.040108m-24.040161 24.040108l0 72.120316" fill-rule="evenodd"/><path stroke="#000000" stroke-width="1.0" stroke-linejoin="round" stroke-linecap="butt" stroke-dasharray="1.0,3.0" d="m1035.2378 116.005646l24.04004 -24.040108l72.5824 0l0 72.12032l-24.040161 24.0401l-72.582275 0zm0 0l72.582275 0l24.040161 -24.040108m-24.040161 24.040108l0 72.120316" fill-rule="evenodd"/><path fill="#6aa84f" fill-opacity="0.7865" d="m1011.1385 139.98965l72.58234 0l0 72.120316l-72.58234 0z" fill-rule="evenodd"/><path fill="#54863f" fill-opacity="0.7865" d="m1083.7208 139.98965l24.040161 -24.040108l0 72.12032l-24.040161 24.0401z" fill-rule="evenodd"/><path fill="#87b972" fill-opacity="0.7865" d="m1011.1385 139.98965l24.0401 -24.040108l72.5824 0l-24.040161 24.040108z" fill-rule="evenodd"/><path fill="#000000" fill-opacity="0.0" d="m1011.1385 139.98965l24.0401 -24.040108l72.5824 0l0 72.12032l-24.040161 24.0401l-72.58234 0zm0 0l72.58234 0l24.040161 -24.040108m-24.040161 24.040108l0 72.120316" fill-rule="evenodd"/><path stroke="#000000" stroke-width="1.0" stroke-linejoin="round" stroke-linecap="butt" stroke-dasharray="1.0,3.0" d="m1011.1385 139.98965l24.0401 -24.040108l72.5824 0l0 72.12032l-24.040161 24.0401l-72.58234 0zm0 0l72.58234 0l24.040161 -24.040108m-24.040161 24.040108l0 72.120316" fill-rule="evenodd"/><path fill="#6aa84f" fill-opacity="0.7865" d="m987.70264 163.51625l72.5824 0l0 72.120316l-72.5824 0z" fill-rule="evenodd"/><path fill="#54863f" fill-opacity="0.7865" d="m1060.285 163.51625l24.04004 -24.040115l0 72.12033l-24.04004 24.0401z" fill-rule="evenodd"/><path fill="#87b972" fill-opacity="0.7865" d="m987.70264 163.51625l24.0401 -24.040115l72.58234 0l-24.04004 24.040115z" fill-rule="evenodd"/><path fill="#000000" fill-opacity="0.0" d="m987.70264 163.51625l24.0401 -24.040115l72.58234 0l0 72.12033l-24.04004 24.0401l-72.5824 0zm0 0l72.5824 0l24.04004 -24.040115m-24.04004 24.040115l0 72.120316" fill-rule="evenodd"/><path stroke="#000000" stroke-width="1.0" stroke-linejoin="round" stroke-linecap="butt" stroke-dasharray="1.0,3.0" d="m987.70264 163.51625l24.0401 -24.040115l72.58234 0l0 72.12033l-24.04004 24.0401l-72.5824 0zm0 0l72.5824 0l24.04004 -24.040115m-24.04004 24.040115l0 72.120316" fill-rule="evenodd"/><path fill="#6aa84f" fill-opacity="0.7865" d="m963.3302 187.50458l72.5824 0l0 72.12033l-72.5824 0z" fill-rule="evenodd"/><path fill="#54863f" fill-opacity="0.7865" d="m1035.9126 187.50458l24.04004 -24.040115l0 72.12033l-24.04004 24.040115z" fill-rule="evenodd"/><path fill="#87b972" fill-opacity="0.7865" d="m963.3302 187.50458l24.0401 -24.040115l72.58234 0l-24.04004 24.040115z" fill-rule="evenodd"/><path fill="#000000" fill-opacity="0.0" d="m963.3302 187.50458l24.0401 -24.040115l72.58234 0l0 72.12033l-24.04004 24.040115l-72.5824 0zm0 0l72.5824 0l24.04004 -24.040115m-24.04004 24.040115l0 72.12033" fill-rule="evenodd"/><path stroke="#000000" stroke-width="1.0" stroke-linejoin="round" stroke-linecap="butt" stroke-dasharray="1.0,3.0" d="m963.3302 187.50458l24.0401 -24.040115l72.58234 0l0 72.12033l-24.04004 24.040115l-72.5824 0zm0 0l72.5824 0l24.04004 -24.040115m-24.04004 24.040115l0 72.12033" fill-rule="evenodd"/><path fill="#000000" fill-opacity="0.0" d="m724.96063 195.01344l321.73224 0" fill-rule="evenodd"/><path stroke="#000000" stroke-width="3.0" stroke-linejoin="round" stroke-linecap="butt" d="m724.96063 195.01346l303.73224 0" fill-rule="evenodd"/><path fill="#000000" stroke="#000000" stroke-width="3.0" stroke-linecap="butt" d="m1028.6929 199.96864l13.61438 -4.955185l-13.61438 -4.9552z" fill-rule="evenodd"/><path fill="#000000" fill-opacity="0.0" d="m103.272964 124.32284l66.645676 0l0 55.30709l-66.645676 0z" fill-rule="evenodd"/><path fill="#000000" d="m126.61924 170.7772l-3.015625 0q-2.390625 -3.609375 -3.640625 -7.5q-1.25 -3.890625 -1.25 -7.53125q0 -4.515625 1.546875 -8.546875q1.34375 -3.5 3.40625 -6.453125l3.0 0q-2.140625 4.734375 -2.953125 8.0625q-0.796875 3.3125 -0.796875 7.03125q0 2.5625 0.46875 5.25q0.484375 2.6875 1.3125 5.109375q0.546875 1.59375 1.921875 4.578125zm6.6562424 -18.265625l-3.984375 -0.71875q0.671875 -2.40625 2.3125 -3.5625q1.640625 -1.15625 4.875 -1.15625q2.9375 0 4.375 0.703125q1.4375 0.6875 2.015625 1.765625q0.59375 1.0625 0.59375 3.921875l-0.046875 5.125q0 2.1875 0.203125 3.234375q0.21875 1.03125 0.796875 2.21875l-4.34375 0q-0.171875 -0.4375 -0.421875 -1.296875q-0.109375 -0.390625 -0.15625 -0.515625q-1.125 1.09375 -2.40625 1.640625q-1.28125 0.546875 -2.734375 0.546875q-2.5625 0 -4.046875 -1.390625q-1.46875 -1.390625 -1.46875 -3.515625q0 -1.40625 0.671875 -2.5q0.671875 -1.109375 1.875 -1.6875q1.21875 -0.59375 3.5 -1.03125q3.078125 -0.578125 4.265625 -1.078125l0 -0.4375q0 -1.265625 -0.625 -1.796875q-0.625 -0.546875 -2.359375 -0.546875q-1.171875 0 -1.828125 0.46875q-0.65625 0.453125 -1.0625 1.609375zm5.875 3.5625q-0.84375 0.28125 -2.671875 0.671875q-1.828125 0.390625 -2.390625 0.765625q-0.859375 0.609375 -0.859375 1.546875q0 0.921875 0.6875 1.59375q0.6875 0.671875 1.75 0.671875q1.1875 0 2.265625 -0.78125q0.796875 -0.59375 1.046875 -1.453125q0.171875 -0.5625 0.171875 -2.140625l0 -0.875zm7.421875 14.703125q1.296875 -2.78125 1.828125 -4.265625q0.53125 -1.484375 0.984375 -3.421875q0.453125 -1.9375 0.671875 -3.671875q0.21875 -1.75 0.21875 -3.578125q0 -3.71875 -0.796875 -7.03125q-0.796875 -3.328125 -2.9375 -8.0625l2.984375 0q2.359375 3.359375 3.65625 7.125q1.3125 3.765625 1.3125 7.640625q0 3.265625 -1.03125 7.0q-1.171875 4.1875 -3.859375 8.265625l-3.03125 0z" fill-rule="nonzero"/><path fill="#000000" fill-opacity="0.0" d="m487.27298 124.32284l66.64566 0l0 55.30709l-66.64566 0z" fill-rule="evenodd"/><path fill="#000000" d="m509.74423 170.7772l-3.015625 0q-2.390625 -3.609375 -3.640625 -7.5q-1.25 -3.890625 -1.25 -7.53125q0 -4.515625 1.546875 -8.546875q1.34375 -3.5 3.40625 -6.453125l3.0 0q-2.140625 4.734375 -2.953125 8.0625q-0.796875 3.3125 -0.796875 7.03125q0 2.5625 0.46875 5.25q0.484375 2.6875 1.3125 5.109375q0.546875 1.59375 1.921875 4.578125zm3.1875305 -6.734375l0 -22.90625l4.390625 0l0 8.25q2.03125 -2.3125 4.8125 -2.3125q3.03125 0 5.015625 2.203125q1.984375 2.1875 1.984375 6.296875q0 4.25 -2.03125 6.546875q-2.015625 2.296875 -4.90625 2.296875q-1.421875 0 -2.8125 -0.703125q-1.375 -0.71875 -2.375 -2.109375l0 2.4375l-4.078125 0zm4.359375 -8.65625q0 2.578125 0.8125 3.8125q1.140625 1.75 3.03125 1.75q1.453125 0 2.46875 -1.234375q1.03125 -1.25 1.03125 -3.921875q0 -2.84375 -1.03125 -4.09375q-1.03125 -1.265625 -2.640625 -1.265625q-1.578125 0 -2.625 1.234375q-1.046875 1.21875 -1.046875 3.71875zm14.15625 15.390625q1.296875 -2.78125 1.828125 -4.265625q0.53125 -1.484375 0.984375 -3.421875q0.453125 -1.9375 0.671875 -3.671875q0.21875 -1.75 0.21875 -3.578125q0 -3.71875 -0.796875 -7.03125q-0.796875 -3.328125 -2.9375 -8.0625l2.984375 0q2.359375 3.359375 3.65625 7.125q1.3125 3.765625 1.3125 7.640625q0 3.265625 -1.03125 7.0q-1.171875 4.1875 -3.859375 8.265625l-3.03125 0z" fill-rule="nonzero"/><path fill="#000000" fill-opacity="0.0" d="m103.272964 516.3228l66.645676 0l0 55.30713l-66.645676 0z" fill-rule="evenodd"/><path fill="#000000" d="m126.61924 562.7772l-3.015625 0q-2.390625 -3.609375 -3.640625 -7.5q-1.25 -3.890625 -1.25 -7.53125q0 -4.515625 1.546875 -8.546875q1.34375 -3.5 3.40625 -6.453125l3.0 0q-2.140625 4.734375 -2.953125 8.0625q-0.796875 3.3125 -0.796875 7.03125q0 2.5625 0.46875 5.25q0.484375 2.6875 1.3125 5.109375q0.546875 1.59375 1.921875 4.578125zm17.843742 -18.421875l-4.328125 0.78125q-0.21875 -1.296875 -1.0 -1.953125q-0.765625 -0.65625 -2.0 -0.65625q-1.640625 0 -2.625 1.140625q-0.96875 1.125 -0.96875 3.78125q0 2.953125 0.984375 4.171875q1.0 1.21875 2.671875 1.21875q1.25 0 2.046875 -0.703125q0.796875 -0.71875 1.125 -2.453125l4.3125 0.734375q-0.671875 2.96875 -2.578125 4.484375q-1.90625 1.515625 -5.109375 1.515625q-3.640625 0 -5.8125 -2.296875q-2.15625 -2.296875 -2.15625 -6.359375q0 -4.109375 2.171875 -6.390625q2.171875 -2.296875 5.875 -2.296875q3.03125 0 4.8125 1.3125q1.796875 1.296875 2.578125 3.96875zm2.109375 18.421875q1.296875 -2.78125 1.828125 -4.265625q0.53125 -1.484375 0.984375 -3.421875q0.453125 -1.9375 0.671875 -3.671875q0.21875 -1.75 0.21875 -3.578125q0 -3.71875 -0.796875 -7.03125q-0.796875 -3.328125 -2.9375 -8.0625l2.984375 0q2.359375 3.359375 3.65625 7.125q1.3125 3.765625 1.3125 7.640625q0 3.265625 -1.03125 7.0q-1.171875 4.1875 -3.859375 8.265625l-3.03125 0z" fill-rule="nonzero"/><path fill="#000000" fill-opacity="0.0" d="m495.27298 516.3228l66.64566 0l0 55.30713l-66.64566 0z" fill-rule="evenodd"/><path fill="#000000" d="m517.74426 562.7772l-3.015625 0q-2.390625 -3.609375 -3.6406555 -7.5q-1.25 -3.890625 -1.25 -7.53125q0 -4.515625 1.546875 -8.546875q1.3437805 -3.5 3.4062805 -6.453125l3.0 0q-2.140625 4.734375 -2.953125 8.0625q-0.796875 3.3125 -0.796875 7.03125q0 2.5625 0.46875 5.25q0.484375 2.6875 1.3125 5.109375q0.546875 1.59375 1.921875 4.578125zm18.59375 -6.734375l-4.078125 0l0 -2.4375q-1.015625 1.421875 -2.40625 2.125q-1.375 0.6875 -2.78125 0.6875q-2.859375 0 -4.90625 -2.296875q-2.03125 -2.3125 -2.03125 -6.4375q0 -4.21875 1.984375 -6.40625q1.984375 -2.203125 5.015625 -2.203125q2.78125 0 4.8125 2.3125l0 -8.25l4.390625 0l0 22.90625zm-11.71875 -8.65625q0 2.65625 0.734375 3.84375q1.0625 1.71875 2.96875 1.71875q1.515625 0 2.578125 -1.28125q1.0625 -1.296875 1.0625 -3.859375q0 -2.859375 -1.03125 -4.109375q-1.03125 -1.265625 -2.640625 -1.265625q-1.5625 0 -2.625 1.25q-1.046875 1.234375 -1.046875 3.703125zm14.828125 15.390625q1.296875 -2.78125 1.828125 -4.265625q0.53125 -1.484375 0.984375 -3.421875q0.453125 -1.9375 0.671875 -3.671875q0.21875 -1.75 0.21875 -3.578125q0 -3.71875 -0.796875 -7.03125q-0.796875 -3.328125 -2.9375 -8.0625l2.984375 0q2.359375 3.359375 3.65625 7.125q1.3125 3.765625 1.3125 7.640625q0 3.265625 -1.03125 7.0q-1.171875 4.1875 -3.859375 8.265625l-3.03125 0z" fill-rule="nonzero"/><path fill="#000000" fill-opacity="0.0" d="m887.27295 516.3228l66.64569 0l0 55.30713l-66.64569 0z" fill-rule="evenodd"/><path fill="#000000" d="m910.61926 562.7772l-3.015625 0q-2.390625 -3.609375 -3.640625 -7.5q-1.25 -3.890625 -1.25 -7.53125q0 -4.515625 1.546875 -8.546875q1.34375 -3.5 3.40625 -6.453125l3.0 0q-2.140625 4.734375 -2.953125 8.0625q-0.796875 3.3125 -0.796875 7.03125q0 2.5625 0.46875 5.25q0.484375 2.6875 1.3125 5.109375q0.546875 1.59375 1.921875 4.578125zm12.984375 -12.015625l4.375 0.734375q-0.84375 2.40625 -2.671875 3.671875q-1.8125 1.25 -4.546875 1.25q-4.328125 0 -6.40625 -2.828125q-1.640625 -2.265625 -1.640625 -5.71875q0 -4.125 2.15625 -6.453125q2.15625 -2.34375 5.453125 -2.34375q3.703125 0 5.84375 2.453125q2.140625 2.4375 2.046875 7.484375l-11.0 0q0.046875 1.953125 1.0625 3.046875q1.015625 1.078125 2.53125 1.078125q1.03125 0 1.734375 -0.5625q0.703125 -0.5625 1.0625 -1.8125zm0.25 -4.4375q-0.046875 -1.90625 -0.984375 -2.890625q-0.9375 -1.0 -2.28125 -1.0q-1.4375 0 -2.375 1.046875q-0.9375 1.046875 -0.921875 2.84375l6.5625 0zm6.71875 16.453125q1.296875 -2.78125 1.828125 -4.265625q0.53125 -1.484375 0.984375 -3.421875q0.453125 -1.9375 0.671875 -3.671875q0.21875 -1.75 0.21875 -3.578125q0 -3.71875 -0.796875 -7.03125q-0.796875 -3.328125 -2.9375 -8.0625l2.984375 0q2.359375 3.359375 3.65625 7.125q1.3125 3.765625 1.3125 7.640625q0 3.265625 -1.03125 7.0q-1.171875 4.1875 -3.859375 8.265625l-3.03125 0z" fill-rule="nonzero"/><path fill="#000000" fill-opacity="0.0" d="m1048.4594 161.25984l51.748047 0l0 36.818893l-51.748047 0z" fill-rule="evenodd"/><path fill="#000000" d="m1059.6625 182.1361l0 -4.0625l4.390625 0l0 4.0625l-4.390625 0zm4.390625 2.25l0 16.078125q0 3.171875 -0.421875 4.46875q-0.40625 1.3125 -1.59375 2.046875q-1.171875 0.734375 -3.0 0.734375q-0.65625 0 -1.421875 -0.125q-0.75 -0.109375 -1.625 -0.34375l0.765625 -3.75q0.3125 0.0625 0.59375 0.09375q0.265625 0.046875 0.5 0.046875q0.671875 0 1.09375 -0.296875q0.4375 -0.28125 0.578125 -0.6875q0.140625 -0.40625 0.140625 -2.4375l0 -15.828125l4.390625 0z" fill-rule="nonzero"/><path fill="#000000" fill-opacity="0.0" d="m816.4593 49.259842l51.748047 0l0 36.8189l-51.748047 0z" fill-rule="evenodd"/><path fill="#000000" d="m827.5999 88.97984l0 -22.90625l4.390625 0l0 12.15625l5.140625 -5.84375l5.40625 0l-5.671875 6.0625l6.078125 10.53125l-4.734375 0l-4.171875 -7.453125l-2.046875 2.140625l0 5.3125l-4.390625 0z" fill-rule="nonzero"/><path fill="#000000" fill-opacity="0.0" d="m712.4593 457.25986l51.748047 0l0 36.81888l-51.748047 0z" fill-rule="evenodd"/><path fill="#000000" d="m723.75616 478.1361l0 -4.0625l4.390625 0l0 4.0625l-4.390625 0zm0 18.84375l0 -16.59375l4.390625 0l0 16.59375l-4.390625 0z" fill-rule="nonzero"/></g></svg>