<svg version="1.1" viewBox="0.0 0.0 1221.3595800524934 411.18635170603676" fill="none" stroke="none" stroke-linecap="square" stroke-miterlimit="10" xmlns:xlink="http://www.w3.org/1999/xlink" xmlns="http://www.w3.org/2000/svg"><clipPath id="p.0"><path d="m0 0l1221.3596 0l0 411.18634l-1221.3596 0l0 -411.18634z" clip-rule="nonzero"/></clipPath><g clip-path="url(#p.0)"><path fill="#000000" fill-opacity="0.0" d="m0 0l1221.3596 0l0 411.18634l-1221.3596 0z" fill-rule="evenodd"/><path fill="#000000" fill-opacity="0.0" d="m45.38845 75.74016l31.622047 -34.677166" fill-rule="evenodd"/><path stroke="#000000" stroke-width="1.0" stroke-linejoin="round" stroke-linecap="butt" d="m45.38845 75.74016l27.5792 -30.243725" fill-rule="evenodd"/><path fill="#000000" stroke="#000000" stroke-width="1.0" stroke-linecap="butt" d="m74.188126 46.609383l1.8373337 -4.4661827l-4.278282 2.240284z" fill-rule="evenodd"/><path fill="#000000" fill-opacity="0.0" d="m46.154854 75.149605l0 47.46457" fill-rule="evenodd"/><path stroke="#000000" stroke-width="1.0" stroke-linejoin="round" stroke-linecap="butt" d="m46.154854 75.149605l0 41.46457" fill-rule="evenodd"/><path fill="#000000" stroke="#000000" stroke-width="1.0" stroke-linecap="butt" d="m44.503124 116.614174l1.6517296 4.5380936l1.6517334 -4.5380936z" fill-rule="evenodd"/><path fill="#000000" fill-opacity="0.0" d="m46.76378 76.367455l45.007874 0" fill-rule="evenodd"/><path stroke="#000000" stroke-width="1.0" stroke-linejoin="round" stroke-linecap="butt" d="m46.76378 76.367455l39.007874 0" fill-rule="evenodd"/><path fill="#000000" stroke="#000000" stroke-width="1.0" stroke-linecap="butt" d="m85.77165 78.01919l4.538101 -1.6517334l-4.538101 -1.6517334z" fill-rule="evenodd"/><path fill="#000000" fill-opacity="0.0" d="m69.0105 13.036745l24.346458 0l0 36.8189l-24.346458 0z" fill-rule="evenodd"/><path fill="#000000" d="m84.96362 39.956745l-1.640625 0l0 -10.453127q-0.59375 0.5625 -1.5625 1.140625q-0.953125 0.5625 -1.71875 0.84375l0 -1.59375q1.375 -0.640625 2.40625 -1.5625q1.03125 -0.921875 1.453125 -1.78125l1.0625 0l0 13.406252z" fill-rule="nonzero"/><path fill="#000000" fill-opacity="0.0" d="m85.0105 53.036747l24.346458 0l0 36.818897l-24.346458 0z" fill-rule="evenodd"/><path fill="#000000" d="m103.40112 78.37862l0 1.578125l-8.828125 0q-0.015625 -0.59375 0.1875 -1.140625q0.34375 -0.90625 1.078125 -1.78125q0.75 -0.875 2.15625 -2.015625q2.171875 -1.78125 2.9375 -2.828125q0.765625 -1.046875 0.765625 -1.96875q0 -0.984375 -0.703125 -1.640625q-0.6875 -0.671875 -1.8125 -0.671875q-1.1875 0 -1.90625 0.71875q-0.703125 0.703125 -0.703125 1.953125l-1.6875 -0.171875q0.171875 -1.890625 1.296875 -2.875q1.140625 -0.984375 3.03125 -0.984375q1.921875 0 3.046875 1.0625q1.125 1.0625 1.125 2.640625q0 0.796875 -0.328125 1.578125q-0.328125 0.78125 -1.09375 1.640625q-0.75 0.84375 -2.53125 2.34375q-1.46875 1.234375 -1.890625 1.6875q-0.421875 0.4375 -0.6875 0.875l6.546875 0z" fill-rule="nonzero"/><path fill="#000000" fill-opacity="0.0" d="m28.580053 113.808395l35.149605 0l0 36.81891l-35.149605 0z" fill-rule="evenodd"/><path fill="#000000" d="m41.74825 137.19714l1.640625 -0.21875q0.28125 1.40625 0.953125 2.015625q0.6874962 0.609375 1.6562462 0.609375q1.15625 0 1.953125 -0.796875q0.796875 -0.796875 0.796875 -1.984375q0 -1.125 -0.734375 -1.859375q-0.734375 -0.734375 -1.875 -0.734375q-0.46875 0 -1.15625 0.171875l0.1875 -1.4375q0.15625 0.015625 0.265625 0.015625q1.046875 0 1.875 -0.546875q0.84375 -0.546875 0.84375 -1.671875q0 -0.90625 -0.609375 -1.5q-0.609375 -0.59375 -1.578125 -0.59375q-0.953125 0 -1.5937462 0.609375q-0.640625 0.59375 -0.8125 1.796875l-1.640625 -0.296875q0.296875 -1.640625 1.359375 -2.546875q1.0625 -0.90625 2.6562462 -0.90625q1.09375 0 2.0 0.46875q0.921875 0.46875 1.40625 1.28125q0.5 0.8125 0.5 1.71875q0 0.859375 -0.46875 1.578125q-0.46875 0.703125 -1.375 1.125q1.1875 0.28125 1.84375 1.140625q0.65625 0.859375 0.65625 2.15625q0 1.734375 -1.28125 2.953125q-1.265625 1.21875 -3.21875 1.21875q-1.7656212 0 -2.9218712 -1.046875q-1.15625 -1.046875 -1.328125 -2.71875z" fill-rule="nonzero"/><path fill="#9eddfd" fill-opacity="0.7039" d="m156.2126 224.91077l116.71654 0l0 100.46457l-116.71654 0z" fill-rule="evenodd"/><path fill="#7eb0ca" fill-opacity="0.7039" d="m272.92914 224.91077l33.48819 -33.48819l0 100.46457l-33.48819 33.48819z" fill-rule="evenodd"/><path fill="#b1e3fd" fill-opacity="0.7039" d="m156.2126 224.91077l33.48819 -33.48819l116.71654 0l-33.48819 33.48819z" fill-rule="evenodd"/><path fill="#000000" fill-opacity="0.0" d="m156.2126 224.91077l33.48819 -33.48819l116.71654 0l0 100.46457l-33.48819 33.48819l-116.71654 0zm0 0l116.71654 0l33.48819 -33.48819m-33.48819 33.48819l0 100.46457" fill-rule="evenodd"/><path stroke="#000000" stroke-width="1.0" stroke-linejoin="round" stroke-linecap="butt" d="m156.2126 224.91077l33.48819 -33.48819l116.71654 0l0 100.46457l-33.48819 33.48819l-116.71654 0zm0 0l116.71654 0l33.48819 -33.48819m-33.48819 33.48819l0 100.46457" fill-rule="evenodd"/><path fill="#9eddfd" fill-opacity="0.7039" d="m124.2126 256.91077l116.71654 0l0 100.46457l-116.71654 0z" fill-rule="evenodd"/><path fill="#7eb0ca" fill-opacity="0.7039" d="m240.92914 256.91077l33.48819 -33.48819l0 100.46457l-33.48819 33.48819z" fill-rule="evenodd"/><path fill="#b1e3fd" fill-opacity="0.7039" d="m124.2126 256.91077l33.48819 -33.48819l116.71654 0l-33.48819 33.48819z" fill-rule="evenodd"/><path fill="#000000" fill-opacity="0.0" d="m124.2126 256.91077l33.48819 -33.48819l116.71654 0l0 100.46457l-33.48819 33.48819l-116.71654 0zm0 0l116.71654 0l33.48819 -33.48819m-33.48819 33.48819l0 100.46457" fill-rule="evenodd"/><path stroke="#000000" stroke-width="1.0" stroke-linejoin="round" stroke-linecap="butt" d="m124.2126 256.91077l33.48819 -33.48819l116.71654 0l0 100.46457l-33.48819 33.48819l-116.71654 0zm0 0l116.71654 0l33.48819 -33.48819m-33.48819 33.48819l0 100.46457" fill-rule="evenodd"/><path fill="#9eddfd" fill-opacity="0.7039" d="m276.2126 224.91077l116.71655 0l0 100.46457l-116.71655 0z" fill-rule="evenodd"/><path fill="#7eb0ca" fill-opacity="0.7039" d="m392.92914 224.91077l33.48819 -33.48819l0 100.46457l-33.48819 33.48819z" fill-rule="evenodd"/><path fill="#b1e3fd" fill-opacity="0.7039" d="m276.2126 224.91077l33.48819 -33.48819l116.71655 0l-33.48819 33.48819z" fill-rule="evenodd"/><path fill="#000000" fill-opacity="0.0" d="m276.2126 224.91077l33.48819 -33.48819l116.71655 0l0 100.46457l-33.48819 33.48819l-116.71655 0zm0 0l116.71655 0l33.48819 -33.48819m-33.48819 33.48819l0 100.46457" fill-rule="evenodd"/><path stroke="#000000" stroke-width="1.0" stroke-linejoin="round" stroke-linecap="butt" d="m276.2126 224.91077l33.48819 -33.48819l116.71655 0l0 100.46457l-33.48819 33.48819l-116.71655 0zm0 0l116.71655 0l33.48819 -33.48819m-33.48819 33.48819l0 100.46457" fill-rule="evenodd"/><path fill="#9eddfd" fill-opacity="0.7039" d="m244.2126 256.91077l116.71654 0l0 100.46457l-116.71654 0z" fill-rule="evenodd"/><path fill="#7eb0ca" fill-opacity="0.7039" d="m360.92914 256.91077l33.48819 -33.48819l0 100.46457l-33.48819 33.48819z" fill-rule="evenodd"/><path fill="#b1e3fd" fill-opacity="0.7039" d="m244.2126 256.91077l33.488174 -33.48819l116.71655 0l-33.48819 33.48819z" fill-rule="evenodd"/><path fill="#000000" fill-opacity="0.0" d="m244.2126 256.91077l33.488174 -33.48819l116.71655 0l0 100.46457l-33.48819 33.48819l-116.71654 0zm0 0l116.71654 0l33.48819 -33.48819m-33.48819 33.48819l0 100.46457" fill-rule="evenodd"/><path stroke="#000000" stroke-width="1.0" stroke-linejoin="round" stroke-linecap="butt" d="m244.2126 256.91077l33.488174 -33.48819l116.71655 0l0 100.46457l-33.48819 33.48819l-116.71654 0zm0 0l116.71654 0l33.48819 -33.48819m-33.48819 33.48819l0 100.46457" fill-rule="evenodd"/><path fill="#000000" fill-opacity="0.0" d="m500.7349 296.5958l-310.39368 0" fill-rule="evenodd"/><path stroke="#000000" stroke-width="1.0" stroke-linejoin="round" stroke-linecap="butt" d="m500.7349 296.5958l-304.39368 0" fill-rule="evenodd"/><path fill="#000000" stroke="#000000" stroke-width="1.0" stroke-linecap="butt" d="m196.3412 294.94406l-4.538086 1.6517334l4.538086 1.6517334z" fill-rule="evenodd"/><path fill="#000000" fill-opacity="0.0" d="m501.82416 262.83466l-166.6142 0" fill-rule="evenodd"/><path stroke="#000000" stroke-width="1.0" stroke-linejoin="round" stroke-linecap="butt" d="m501.82416 262.83466l-160.6142 0" fill-rule="evenodd"/><path fill="#000000" stroke="#000000" stroke-width="1.0" stroke-linecap="butt" d="m341.20996 261.18292l-4.538086 1.6517334l4.538086 1.6517334z" fill-rule="evenodd"/><path fill="#000000" fill-opacity="0.0" d="m500.7349 209.46982l-253.76376 0" fill-rule="evenodd"/><path stroke="#000000" stroke-width="1.0" stroke-linejoin="round" stroke-linecap="butt" d="m500.7349 209.46982l-247.76376 0" fill-rule="evenodd"/><path fill="#000000" stroke="#000000" stroke-width="1.0" stroke-linecap="butt" d="m252.97113 207.81808l-4.538101 1.6517334l4.538101 1.6517334z" fill-rule="evenodd"/><path fill="#000000" fill-opacity="0.0" d="m501.82416 234.51968l-91.49606 0" fill-rule="evenodd"/><path stroke="#000000" stroke-width="1.0" stroke-linejoin="round" stroke-linecap="butt" d="m501.82416 234.51968l-85.49606 0" fill-rule="evenodd"/><path fill="#000000" stroke="#000000" stroke-width="1.0" stroke-linecap="butt" d="m416.3281 232.86795l-4.5381165 1.6517334l4.5381165 1.6517334z" fill-rule="evenodd"/><path fill="#7eeda2" fill-opacity="0.7039" d="m156.2126 96.91076l116.71654 0l0 100.46458l-116.71654 0z" fill-rule="evenodd"/><path fill="#64bd81" fill-opacity="0.7039" d="m272.92914 96.91076l33.48819 -33.488186l0 100.46457l-33.48819 33.48819z" fill-rule="evenodd"/><path fill="#97f0b4" fill-opacity="0.7039" d="m156.2126 96.91076l33.48819 -33.488186l116.71654 0l-33.48819 33.488186z" fill-rule="evenodd"/><path fill="#000000" fill-opacity="0.0" d="m156.2126 96.91076l33.48819 -33.488186l116.71654 0l0 100.46457l-33.48819 33.48819l-116.71654 0zm0 0l116.71654 0l33.48819 -33.488186m-33.48819 33.488186l0 100.46458" fill-rule="evenodd"/><path stroke="#000000" stroke-width="1.0" stroke-linejoin="round" stroke-linecap="butt" d="m156.2126 96.91076l33.48819 -33.488186l116.71654 0l0 100.46457l-33.48819 33.48819l-116.71654 0zm0 0l116.71654 0l33.48819 -33.488186m-33.48819 33.488186l0 100.46458" fill-rule="evenodd"/><path fill="#ffffff" fill-opacity="0.7135" d="m124.2126 128.91077l116.71654 0l0 100.46457l-116.71654 0z" fill-rule="evenodd"/><path fill="#cbcbcb" fill-opacity="0.7135" d="m240.92914 128.91077l33.48819 -33.488197l0 100.46458l-33.48819 33.48819z" fill-rule="evenodd"/><path fill="#ffffff" fill-opacity="0.7135" d="m124.2126 128.91077l33.48819 -33.488197l116.71654 0l-33.48819 33.488197z" fill-rule="evenodd"/><path fill="#000000" fill-opacity="0.0" d="m124.2126 128.91077l33.48819 -33.488197l116.71654 0l0 100.46458l-33.48819 33.48819l-116.71654 0zm0 0l116.71654 0l33.48819 -33.488197m-33.48819 33.488197l0 100.46457" fill-rule="evenodd"/><path stroke="#000000" stroke-width="1.0" stroke-linejoin="round" stroke-linecap="butt" d="m124.2126 128.91077l33.48819 -33.488197l116.71654 0l0 100.46458l-33.48819 33.48819l-116.71654 0zm0 0l116.71654 0l33.48819 -33.488197m-33.48819 33.488197l0 100.46457" fill-rule="evenodd"/><path fill="#fba1a1" fill-opacity="0.882" d="m276.2126 96.91076l116.71655 0l0 100.46458l-116.71655 0z" fill-rule="evenodd"/><path fill="#c88080" fill-opacity="0.882" d="m392.92914 96.91076l33.48819 -33.488186l0 100.46457l-33.48819 33.48819z" fill-rule="evenodd"/><path fill="#fbb3b3" fill-opacity="0.882" d="m276.2126 96.91076l33.48819 -33.488186l116.71655 0l-33.48819 33.488186z" fill-rule="evenodd"/><path fill="#000000" fill-opacity="0.0" d="m276.2126 96.91076l33.48819 -33.488186l116.71655 0l0 100.46457l-33.48819 33.48819l-116.71655 0zm0 0l116.71655 0l33.48819 -33.488186m-33.48819 33.488186l0 100.46458" fill-rule="evenodd"/><path stroke="#000000" stroke-width="1.0" stroke-linejoin="round" stroke-linecap="butt" d="m276.2126 96.91076l33.48819 -33.488186l116.71655 0l0 100.46457l-33.48819 33.48819l-116.71655 0zm0 0l116.71655 0l33.48819 -33.488186m-33.48819 33.488186l0 100.46458" fill-rule="evenodd"/><path fill="#fba1a1" fill-opacity="0.882" d="m244.2126 128.91077l116.71654 0l0 100.46457l-116.71654 0z" fill-rule="evenodd"/><path fill="#c88080" fill-opacity="0.882" d="m360.92914 128.91077l33.48819 -33.488197l0 100.46458l-33.48819 33.48819z" fill-rule="evenodd"/><path fill="#fbb3b3" fill-opacity="0.882" d="m244.2126 128.91077l33.488174 -33.488197l116.71655 0l-33.48819 33.488197z" fill-rule="evenodd"/><path fill="#000000" fill-opacity="0.0" d="m244.2126 128.91077l33.488174 -33.488197l116.71655 0l0 100.46458l-33.48819 33.48819l-116.71654 0zm0 0l116.71654 0l33.48819 -33.488197m-33.48819 33.488197l0 100.46457" fill-rule="evenodd"/><path stroke="#000000" stroke-width="1.0" stroke-linejoin="round" stroke-linecap="butt" d="m244.2126 128.91077l33.488174 -33.488197l116.71655 0l0 100.46458l-33.48819 33.48819l-116.71654 0zm0 0l116.71654 0l33.48819 -33.488197m-33.48819 33.488197l0 100.46457" fill-rule="evenodd"/><path fill="#000000" fill-opacity="0.0" d="m501.82416 134.83464l-166.6142 0" fill-rule="evenodd"/><path stroke="#000000" stroke-width="1.0" stroke-linejoin="round" stroke-linecap="butt" d="m501.82416 134.83464l-160.6142 0" fill-rule="evenodd"/><path fill="#000000" stroke="#000000" stroke-width="1.0" stroke-linecap="butt" d="m341.20996 133.1829l-4.538086 1.6517334l4.538086 1.6517334z" fill-rule="evenodd"/><path fill="#000000" fill-opacity="0.0" d="m500.7349 81.46982l-253.76376 0" fill-rule="evenodd"/><path stroke="#000000" stroke-width="1.0" stroke-linejoin="round" stroke-linecap="butt" d="m500.7349 81.46982l-247.76376 0" fill-rule="evenodd"/><path fill="#000000" stroke="#000000" stroke-width="1.0" stroke-linecap="butt" d="m252.97113 79.818085l-4.538101 1.6517334l4.538101 1.6517334z" fill-rule="evenodd"/><path fill="#000000" fill-opacity="0.0" d="m501.82416 106.519684l-91.49606 0" fill-rule="evenodd"/><path stroke="#000000" stroke-width="1.0" stroke-linejoin="round" stroke-linecap="butt" d="m501.82416 106.519684l-85.49606 0" fill-rule="evenodd"/><path fill="#000000" stroke="#000000" stroke-width="1.0" stroke-linecap="butt" d="m416.3281 104.86795l-4.5381165 1.6517334l4.5381165 1.6517334z" fill-rule="evenodd"/><path fill="#000000" fill-opacity="0.0" d="m500.7349 115.06036l91.49606 0l0 36.81891l-91.49606 0z" fill-rule="evenodd"/><path fill="#000000" d="m517.4224 136.74599l0 -1.578125l5.65625 0l0 4.953125q-1.296875 1.046875 -2.6875 1.578125q-1.375 0.515625 -2.84375 0.515625q-1.96875 0 -3.578125 -0.84375q-1.609375 -0.84375 -2.4219055 -2.4375q-0.8125 -1.59375 -0.8125 -3.5625q0 -1.953125 0.8125 -3.640625q0.8125305 -1.6875 2.3437805 -2.5q1.53125 -0.828125 3.515625 -0.828125q1.453125 0 2.625 0.46875q1.171875 0.46875 1.828125 1.3125q0.671875 0.828125 1.015625 2.171875l-1.59375 0.4375q-0.296875 -1.015625 -0.75 -1.59375q-0.4375 -0.59375 -1.265625 -0.9375q-0.828125 -0.34375 -1.84375 -0.34375q-1.203125 0 -2.09375 0.375q-0.890625 0.359375 -1.4375 0.96875q-0.53125 0.59375 -0.828125 1.3125q-0.515625 1.234375 -0.515625 2.6875q0 1.78125 0.609375 2.984375q0.625 1.203125 1.796875 1.796875q1.171875 0.578125 2.5 0.578125q1.140625 0 2.234375 -0.4375q1.09375 -0.453125 1.65625 -0.953125l0 -2.484375l-3.921875 0z" fill-rule="nonzero"/><path fill="#000000" d="m530.51196 147.93349l0 1.046875l-5.890625 0q-0.015625 -0.390625 0.125 -0.765625q0.234375 -0.59375 0.71875 -1.171875q0.5 -0.59375 1.4375 -1.359375q1.453125 -1.1875 1.953125 -1.875q0.515625 -0.703125 0.515625 -1.3125q0 -0.65625 -0.46875 -1.09375q-0.453125 -0.453125 -1.203125 -0.453125q-0.796875 0 -1.265625 0.46875q-0.46875 0.46875 -0.484375 1.3125l-1.125 -0.109375q0.125 -1.265625 0.875 -1.921875q0.75 -0.65625 2.015625 -0.65625q1.28125 0 2.03125 0.71875q0.75 0.703125 0.75 1.75q0 0.53125 -0.21875 1.046875q-0.21875 0.515625 -0.734375 1.09375q-0.5 0.5625 -1.671875 1.5625q-0.984375 0.828125 -1.265625 1.125q-0.28125 0.296875 -0.46875 0.59375l4.375 0z" fill-rule="nonzero"/><path fill="#000000" d="m541.02277 134.12099l-8.828125 0l0 -1.515625l8.828125 0l0 1.515625zm0 4.0625l-8.828125 0l0 -1.53125l8.828125 0l0 1.53125zm2.5668335 3.796875l0 -13.359375l9.015625 0l0 1.578125l-7.25 0l0 4.140625l6.265625 0l0 1.578125l-6.265625 0l0 6.0625l-1.765625 0z" fill-rule="nonzero"/><path fill="#000000" d="m559.7199 147.93349l0 1.046875l-5.890625 0q-0.015625 -0.390625 0.125 -0.765625q0.234375 -0.59375 0.71875 -1.171875q0.5 -0.59375 1.4375 -1.359375q1.453125 -1.1875 1.953125 -1.875q0.515625 -0.703125 0.515625 -1.3125q0 -0.65625 -0.46875 -1.09375q-0.453125 -0.453125 -1.203125 -0.453125q-0.796875 0 -1.265625 0.46875q-0.46875 0.46875 -0.484375 1.3125l-1.125 -0.109375q0.125 -1.265625 0.875 -1.921875q0.75 -0.65625 2.015625 -0.65625q1.28125 0 2.03125 0.71875q0.75 0.703125 0.75 1.75q0 0.53125 -0.21875 1.046875q-0.21875 0.515625 -0.734375 1.09375q-0.5 0.5625 -1.671875 1.5625q-0.984375 0.828125 -1.265625 1.125q-0.28125 0.296875 -0.46875 0.59375l4.375 0z" fill-rule="nonzero"/><path fill="#000000" fill-opacity="0.0" d="m500.7349 83.06036l91.49606 0l0 36.8189l-91.49606 0z" fill-rule="evenodd"/><path fill="#000000" d="m517.4224 104.74599l0 -1.578125l5.65625 0l0 4.953125q-1.296875 1.046875 -2.6875 1.578125q-1.375 0.515625 -2.84375 0.515625q-1.96875 0 -3.578125 -0.84375q-1.609375 -0.84375 -2.4219055 -2.4375q-0.8125 -1.59375 -0.8125 -3.5625q0 -1.953125 0.8125 -3.640625q0.8125305 -1.6875 2.3437805 -2.5q1.53125 -0.828125 3.515625 -0.828125q1.453125 0 2.625 0.46875q1.171875 0.46875 1.828125 1.3125q0.671875 0.828125 1.015625 2.171875l-1.59375 0.4375q-0.296875 -1.015625 -0.75 -1.59375q-0.4375 -0.59375 -1.265625 -0.9375q-0.828125 -0.34375 -1.84375 -0.34375q-1.203125 0 -2.09375 0.375q-0.890625 0.359375 -1.4375 0.96875q-0.53125 0.59375 -0.828125 1.3125q-0.515625 1.234375 -0.515625 2.6875q0 1.78125 0.609375 2.984375q0.625 1.203125 1.796875 1.796875q1.171875 0.578125 2.5 0.578125q1.140625 0 2.234375 -0.4375q1.09375 -0.453125 1.65625 -0.953125l0 -2.484375l-3.921875 0z" fill-rule="nonzero"/><path fill="#000000" d="m524.76196 114.63661l1.09375 -0.15625q0.1875 0.9375 0.640625 1.34375q0.453125 0.40625 1.109375 0.40625q0.765625 0 1.296875 -0.53125q0.53125 -0.53125 0.53125 -1.328125q0 -0.75 -0.5 -1.234375q-0.484375 -0.5 -1.234375 -0.5q-0.3125 0 -0.78125 0.125l0.125 -0.953125q0.109375 0.015625 0.171875 0.015625q0.703125 0 1.265625 -0.359375q0.5625 -0.375 0.5625 -1.140625q0 -0.59375 -0.40625 -0.984375q-0.40625 -0.40625 -1.0625 -0.40625q-0.625 0 -1.0625 0.40625q-0.421875 0.40625 -0.546875 1.203125l-1.09375 -0.1875q0.203125 -1.109375 0.90625 -1.703125q0.71875 -0.609375 1.78125 -0.609375q0.71875 0 1.328125 0.3125q0.625 0.3125 0.953125 0.859375q0.328125 0.53125 0.328125 1.140625q0 0.578125 -0.3125 1.0625q-0.3125 0.46875 -0.921875 0.734375q0.796875 0.1875 1.234375 0.765625q0.4375 0.578125 0.4375 1.4375q0 1.15625 -0.859375 1.96875q-0.84375 0.8125 -2.140625 0.8125q-1.171875 0 -1.953125 -0.6875q-0.78125 -0.703125 -0.890625 -1.8125z" fill-rule="nonzero"/><path fill="#000000" d="m541.02277 102.12099l-8.828125 0l0 -1.515625l8.828125 0l0 1.515625zm0 4.0625l-8.828125 0l0 -1.53125l8.828125 0l0 1.53125zm2.5668335 3.796875l0 -13.359375l9.015625 0l0 1.578125l-7.25 0l0 4.140625l6.265625 0l0 1.578125l-6.265625 0l0 6.0625l-1.765625 0z" fill-rule="nonzero"/><path fill="#000000" d="m553.9699 114.63661l1.09375 -0.15625q0.1875 0.9375 0.640625 1.34375q0.453125 0.40625 1.109375 0.40625q0.765625 0 1.296875 -0.53125q0.53125 -0.53125 0.53125 -1.328125q0 -0.75 -0.5 -1.234375q-0.484375 -0.5 -1.234375 -0.5q-0.3125 0 -0.78125 0.125l0.125 -0.953125q0.109375 0.015625 0.171875 0.015625q0.703125 0 1.265625 -0.359375q0.5625 -0.375 0.5625 -1.140625q0 -0.59375 -0.40625 -0.984375q-0.40625 -0.40625 -1.0625 -0.40625q-0.625 0 -1.0625 0.40625q-0.421875 0.40625 -0.546875 1.203125l-1.09375 -0.1875q0.203125 -1.109375 0.90625 -1.703125q0.71875 -0.609375 1.78125 -0.609375q0.71875 0 1.328125 0.3125q0.625 0.3125 0.953125 0.859375q0.328125 0.53125 0.328125 1.140625q0 0.578125 -0.3125 1.0625q-0.3125 0.46875 -0.921875 0.734375q0.796875 0.1875 1.234375 0.765625q0.4375 0.578125 0.4375 1.4375q0 1.15625 -0.859375 1.96875q-0.84375 0.8125 -2.140625 0.8125q-1.171875 0 -1.953125 -0.6875q-0.78125 -0.703125 -0.890625 -1.8125z" fill-rule="nonzero"/><path fill="#000000" fill-opacity="0.0" d="m500.7349 59.060368l91.49606 0l0 36.818897l-91.49606 0z" fill-rule="evenodd"/><path fill="#000000" d="m517.4224 80.74599l0 -1.578125l5.65625 0l0 4.953125q-1.296875 1.046875 -2.6875 1.578125q-1.375 0.515625 -2.84375 0.515625q-1.96875 0 -3.578125 -0.84375q-1.609375 -0.84375 -2.4219055 -2.4375q-0.8125 -1.59375 -0.8125 -3.5625q0 -1.953125 0.8125 -3.640625q0.8125305 -1.6875 2.3437805 -2.5q1.53125 -0.828125 3.515625 -0.828125q1.453125 0 2.625 0.46875q1.171875 0.46875 1.828125 1.3125q0.671875 0.828125 1.015625 2.171875l-1.59375 0.4375q-0.296875 -1.015625 -0.75 -1.59375q-0.4375 -0.59375 -1.265625 -0.9375q-0.828125 -0.34375 -1.84375 -0.34375q-1.203125 0 -2.09375 0.375q-0.890625 0.359375 -1.4375 0.96875q-0.53125 0.59375 -0.828125 1.3125q-0.515625 1.234375 -0.515625 2.6875q0 1.78125 0.609375 2.984375q0.625 1.203125 1.796875 1.796875q1.171875 0.578125 2.5 0.578125q1.140625 0 2.234375 -0.4375q1.09375 -0.453125 1.65625 -0.953125l0 -2.484375l-3.921875 0z" fill-rule="nonzero"/><path fill="#000000" d="m528.88696 92.98036l-1.09375 0l0 -6.96875q-0.40625 0.375 -1.046875 0.75q-0.640625 0.375 -1.140625 0.578125l0 -1.0625q0.90625 -0.4375 1.59375 -1.046875q0.6875 -0.609375 0.96875 -1.1875l0.71875 0l0 8.9375z" fill-rule="nonzero"/><path fill="#000000" d="m541.02277 78.12099l-8.828125 0l0 -1.515625l8.828125 0l0 1.515625zm0 4.0625l-8.828125 0l0 -1.53125l8.828125 0l0 1.53125zm2.5668335 3.796875l0 -13.359375l9.015625 0l0 1.578125l-7.25 0l0 4.140625l6.265625 0l0 1.578125l-6.265625 0l0 6.0625l-1.765625 0z" fill-rule="nonzero"/><path fill="#000000" d="m558.0949 92.98036l-1.09375 0l0 -6.96875q-0.40625 0.375 -1.046875 0.75q-0.640625 0.375 -1.140625 0.578125l0 -1.0625q0.90625 -0.4375 1.59375 -1.046875q0.6875 -0.609375 0.96875 -1.1875l0.71875 0l0 8.9375z" fill-rule="nonzero"/><path fill="#000000" fill-opacity="0.0" d="m500.7349 275.06036l91.49606 0l0 36.81891l-91.49606 0z" fill-rule="evenodd"/><path fill="#000000" d="m517.4224 296.746l0 -1.578125l5.65625 0l0 4.953125q-1.296875 1.046875 -2.6875 1.578125q-1.375 0.515625 -2.84375 0.515625q-1.96875 0 -3.578125 -0.84375q-1.609375 -0.84375 -2.4219055 -2.4375q-0.8125 -1.59375 -0.8125 -3.5625q0 -1.953125 0.8125 -3.640625q0.8125305 -1.6875 2.3437805 -2.5q1.53125 -0.828125 3.515625 -0.828125q1.453125 0 2.625 0.46875q1.171875 0.46875 1.828125 1.3125q0.671875 0.828125 1.015625 2.171875l-1.59375 0.4375q-0.296875 -1.015625 -0.75 -1.59375q-0.4375 -0.59375 -1.265625 -0.9375q-0.828125 -0.34375 -1.84375 -0.34375q-1.203125 0 -2.09375 0.375q-0.890625 0.359375 -1.4375 0.96875q-0.53125 0.59375 -0.828125 1.3125q-0.515625 1.234375 -0.515625 2.6875q0 1.78125 0.609375 2.984375q0.625 1.203125 1.796875 1.796875q1.171875 0.578125 2.5 0.578125q1.140625 0 2.234375 -0.4375q1.09375 -0.453125 1.65625 -0.953125l0 -2.484375l-3.921875 0z" fill-rule="nonzero"/><path fill="#000000" d="m528.26196 308.98038l0 -2.125l-3.859375 0l0 -1.015625l4.0625 -5.765625l0.890625 0l0 5.765625l1.203125 0l0 1.015625l-1.203125 0l0 2.125l-1.09375 0zm0 -3.140625l0 -4.0l-2.78125 4.0l2.78125 0z" fill-rule="nonzero"/><path fill="#000000" fill-opacity="0.0" d="m500.7349 243.06036l91.49606 0l0 36.81891l-91.49606 0z" fill-rule="evenodd"/><path fill="#000000" d="m517.4224 264.746l0 -1.578125l5.65625 0l0 4.953125q-1.296875 1.046875 -2.6875 1.578125q-1.375 0.515625 -2.84375 0.515625q-1.96875 0 -3.578125 -0.84375q-1.609375 -0.84375 -2.4219055 -2.4375q-0.8125 -1.59375 -0.8125 -3.5625q0 -1.953125 0.8125 -3.640625q0.8125305 -1.6875 2.3437805 -2.5q1.53125 -0.828125 3.515625 -0.828125q1.453125 0 2.625 0.46875q1.171875 0.46875 1.828125 1.3125q0.671875 0.828125 1.015625 2.171875l-1.59375 0.4375q-0.296875 -1.015625 -0.75 -1.59375q-0.4375 -0.59375 -1.265625 -0.9375q-0.828125 -0.34375 -1.84375 -0.34375q-1.203125 0 -2.09375 0.375q-0.890625 0.359375 -1.4375 0.96875q-0.53125 0.59375 -0.828125 1.3125q-0.515625 1.234375 -0.515625 2.6875q0 1.78125 0.609375 2.984375q0.625 1.203125 1.796875 1.796875q1.171875 0.578125 2.5 0.578125q1.140625 0 2.234375 -0.4375q1.09375 -0.453125 1.65625 -0.953125l0 -2.484375l-3.921875 0z" fill-rule="nonzero"/><path fill="#000000" d="m530.43384 270.26163l-1.09375 0.078125q-0.140625 -0.640625 -0.40625 -0.9375q-0.4375 -0.46875 -1.09375 -0.46875q-0.515625 0 -0.921875 0.296875q-0.515625 0.375 -0.8125 1.109375q-0.296875 0.71875 -0.296875 2.046875q0.390625 -0.59375 0.953125 -0.890625q0.578125 -0.296875 1.203125 -0.296875q1.09375 0 1.859375 0.8125q0.765625 0.796875 0.765625 2.078125q0 0.84375 -0.359375 1.5625q-0.359375 0.71875 -1.0 1.109375q-0.625 0.375 -1.421875 0.375q-1.375 0 -2.234375 -1.0q-0.859375 -1.015625 -0.859375 -3.328125q0 -2.578125 0.953125 -3.75q0.828125 -1.015625 2.234375 -1.015625q1.0625 0 1.734375 0.59375q0.671875 0.578125 0.796875 1.625zm-4.46875 3.828125q0 0.578125 0.234375 1.09375q0.25 0.515625 0.671875 0.78125q0.4375 0.265625 0.921875 0.265625q0.6875 0 1.1875 -0.546875q0.5 -0.5625 0.5 -1.53125q0 -0.921875 -0.5 -1.453125q-0.484375 -0.53125 -1.234375 -0.53125q-0.75 0 -1.265625 0.53125q-0.515625 0.53125 -0.515625 1.390625z" fill-rule="nonzero"/><path fill="#000000" fill-opacity="0.0" d="m500.7349 211.06036l91.49606 0l0 36.81891l-91.49606 0z" fill-rule="evenodd"/><path fill="#000000" d="m517.4224 232.74599l0 -1.578125l5.65625 0l0 4.953125q-1.296875 1.046875 -2.6875 1.578125q-1.375 0.515625 -2.84375 0.515625q-1.96875 0 -3.578125 -0.84375q-1.609375 -0.84375 -2.4219055 -2.4375q-0.8125 -1.59375 -0.8125 -3.5625q0 -1.953125 0.8125 -3.640625q0.8125305 -1.6875 2.3437805 -2.5q1.53125 -0.828125 3.515625 -0.828125q1.453125 0 2.625 0.46875q1.171875 0.46875 1.828125 1.3125q0.671875 0.828125 1.015625 2.171875l-1.59375 0.4375q-0.296875 -1.015625 -0.75 -1.59375q-0.4375 -0.59375 -1.265625 -0.9375q-0.828125 -0.34375 -1.84375 -0.34375q-1.203125 0 -2.09375 0.375q-0.890625 0.359375 -1.4375 0.96875q-0.53125 0.59375 -0.828125 1.3125q-0.515625 1.234375 -0.515625 2.6875q0 1.78125 0.609375 2.984375q0.625 1.203125 1.796875 1.796875q1.171875 0.578125 2.5 0.578125q1.140625 0 2.234375 -0.4375q1.09375 -0.453125 1.65625 -0.953125l0 -2.484375l-3.921875 0z" fill-rule="nonzero"/><path fill="#000000" d="m524.76196 242.65224l1.140625 -0.09375q0.140625 0.828125 0.59375 1.25q0.46875 0.421875 1.125 0.421875q0.796875 0 1.34375 -0.59375q0.546875 -0.59375 0.546875 -1.578125q0 -0.9375 -0.53125 -1.46875q-0.53125 -0.546875 -1.375 -0.546875q-0.53125 0 -0.953125 0.25q-0.421875 0.234375 -0.671875 0.609375l-1.03125 -0.125l0.875 -4.578125l4.421875 0l0 1.046875l-3.546875 0l-0.484375 2.390625q0.796875 -0.5625 1.6875 -0.5625q1.15625 0 1.953125 0.8125q0.8125 0.8125 0.8125 2.078125q0 1.203125 -0.703125 2.09375q-0.859375 1.078125 -2.34375 1.078125q-1.21875 0 -1.984375 -0.671875q-0.765625 -0.6875 -0.875 -1.8125z" fill-rule="nonzero"/><path fill="#000000" fill-opacity="0.0" d="m500.7349 187.06036l91.49606 0l0 36.81891l-91.49606 0z" fill-rule="evenodd"/><path fill="#000000" d="m517.4224 208.74599l0 -1.578125l5.65625 0l0 4.953125q-1.296875 1.046875 -2.6875 1.578125q-1.375 0.515625 -2.84375 0.515625q-1.96875 0 -3.578125 -0.84375q-1.609375 -0.84375 -2.4219055 -2.4375q-0.8125 -1.59375 -0.8125 -3.5625q0 -1.953125 0.8125 -3.640625q0.8125305 -1.6875 2.3437805 -2.5q1.53125 -0.828125 3.515625 -0.828125q1.453125 0 2.625 0.46875q1.171875 0.46875 1.828125 1.3125q0.671875 0.828125 1.015625 2.171875l-1.59375 0.4375q-0.296875 -1.015625 -0.75 -1.59375q-0.4375 -0.59375 -1.265625 -0.9375q-0.828125 -0.34375 -1.84375 -0.34375q-1.203125 0 -2.09375 0.375q-0.890625 0.359375 -1.4375 0.96875q-0.53125 0.59375 -0.828125 1.3125q-0.515625 1.234375 -0.515625 2.6875q0 1.78125 0.609375 2.984375q0.625 1.203125 1.796875 1.796875q1.171875 0.578125 2.5 0.578125q1.140625 0 2.234375 -0.4375q1.09375 -0.453125 1.65625 -0.953125l0 -2.484375l-3.921875 0z" fill-rule="nonzero"/><path fill="#000000" d="m524.76196 218.65224l1.140625 -0.09375q0.140625 0.828125 0.59375 1.25q0.46875 0.421875 1.125 0.421875q0.796875 0 1.34375 -0.59375q0.546875 -0.59375 0.546875 -1.578125q0 -0.9375 -0.53125 -1.46875q-0.53125 -0.546875 -1.375 -0.546875q-0.53125 0 -0.953125 0.25q-0.421875 0.234375 -0.671875 0.609375l-1.03125 -0.125l0.875 -4.578125l4.421875 0l0 1.046875l-3.546875 0l-0.484375 2.390625q0.796875 -0.5625 1.6875 -0.5625q1.15625 0 1.953125 0.8125q0.8125 0.8125 0.8125 2.078125q0 1.203125 -0.703125 2.09375q-0.859375 1.078125 -2.34375 1.078125q-1.21875 0 -1.984375 -0.671875q-0.765625 -0.6875 -0.875 -1.8125z" fill-rule="nonzero"/><path fill="#9eddfd" fill-opacity="0.7039" d="m788.2126 224.91077l116.71655 0l0 100.46457l-116.71655 0z" fill-rule="evenodd"/><path fill="#7eb0ca" fill-opacity="0.7039" d="m904.92914 224.91077l33.48816 -33.48819l0 100.46457l-33.48816 33.48819z" fill-rule="evenodd"/><path fill="#b1e3fd" fill-opacity="0.7039" d="m788.2126 224.91077l33.48822 -33.48819l116.71649 0l-33.48816 33.48819z" fill-rule="evenodd"/><path fill="#000000" fill-opacity="0.0" d="m788.2126 224.91077l33.48822 -33.48819l116.71649 0l0 100.46457l-33.48816 33.48819l-116.71655 0zm0 0l116.71655 0l33.48816 -33.48819m-33.48816 33.48819l0 100.46457" fill-rule="evenodd"/><path stroke="#000000" stroke-width="1.0" stroke-linejoin="round" stroke-linecap="butt" d="m788.2126 224.91077l33.48822 -33.48819l116.71649 0l0 100.46457l-33.48816 33.48819l-116.71655 0zm0 0l116.71655 0l33.48816 -33.48819m-33.48816 33.48819l0 100.46457" fill-rule="evenodd"/><path fill="#7eeda2" fill-opacity="0.7039" d="m756.2126 256.91077l116.71655 0l0 100.46457l-116.71655 0z" fill-rule="evenodd"/><path fill="#64bd81" fill-opacity="0.7039" d="m872.92914 256.91077l33.48816 -33.48819l0 100.46457l-33.48816 33.48819z" fill-rule="evenodd"/><path fill="#97f0b4" fill-opacity="0.7039" d="m756.2126 256.91077l33.48822 -33.48819l116.71649 0l-33.48816 33.48819z" fill-rule="evenodd"/><path fill="#000000" fill-opacity="0.0" d="m756.2126 256.91077l33.48822 -33.48819l116.71649 0l0 100.46457l-33.48816 33.48819l-116.71655 0zm0 0l116.71655 0l33.48816 -33.48819m-33.48816 33.48819l0 100.46457" fill-rule="evenodd"/><path stroke="#000000" stroke-width="1.0" stroke-linejoin="round" stroke-linecap="butt" d="m756.2126 256.91077l33.48822 -33.48819l116.71649 0l0 100.46457l-33.48816 33.48819l-116.71655 0zm0 0l116.71655 0l33.48816 -33.48819m-33.48816 33.48819l0 100.46457" fill-rule="evenodd"/><path fill="#9eddfd" fill-opacity="0.7039" d="m908.2126 224.91077l116.71649 0l0 100.46457l-116.71649 0z" fill-rule="evenodd"/><path fill="#7eb0ca" fill-opacity="0.7039" d="m1024.9291 224.91077l33.48828 -33.48819l0 100.46457l-33.48828 33.48819z" fill-rule="evenodd"/><path fill="#b1e3fd" fill-opacity="0.7039" d="m908.2126 224.91077l33.48822 -33.48819l116.71655 0l-33.48828 33.48819z" fill-rule="evenodd"/><path fill="#000000" fill-opacity="0.0" d="m908.2126 224.91077l33.48822 -33.48819l116.71655 0l0 100.46457l-33.48828 33.48819l-116.71649 0zm0 0l116.71649 0l33.48828 -33.48819m-33.48828 33.48819l0 100.46457" fill-rule="evenodd"/><path stroke="#000000" stroke-width="1.0" stroke-linejoin="round" stroke-linecap="butt" d="m908.2126 224.91077l33.48822 -33.48819l116.71655 0l0 100.46457l-33.48828 33.48819l-116.71649 0zm0 0l116.71649 0l33.48828 -33.48819m-33.48828 33.48819l0 100.46457" fill-rule="evenodd"/><path fill="#fba1a1" fill-opacity="0.882" d="m876.2126 256.91077l116.71655 0l0 100.46457l-116.71655 0z" fill-rule="evenodd"/><path fill="#c88080" fill-opacity="0.882" d="m992.92914 256.91077l33.48822 -33.48819l0 100.46457l-33.48822 33.48819z" fill-rule="evenodd"/><path fill="#fbb3b3" fill-opacity="0.882" d="m876.2126 256.91077l33.48822 -33.48819l116.71655 0l-33.48822 33.48819z" fill-rule="evenodd"/><path fill="#000000" fill-opacity="0.0" d="m876.2126 256.91077l33.48822 -33.48819l116.71655 0l0 100.46457l-33.48822 33.48819l-116.71655 0zm0 0l116.71655 0l33.48822 -33.48819m-33.48822 33.48819l0 100.46457" fill-rule="evenodd"/><path stroke="#000000" stroke-width="1.0" stroke-linejoin="round" stroke-linecap="butt" d="m876.2126 256.91077l33.48822 -33.48819l116.71655 0l0 100.46457l-33.48822 33.48819l-116.71655 0zm0 0l116.71655 0l33.48822 -33.48819m-33.48822 33.48819l0 100.46457" fill-rule="evenodd"/><path fill="#000000" fill-opacity="0.0" d="m1132.7349 296.5958l-310.39368 0" fill-rule="evenodd"/><path stroke="#000000" stroke-width="1.0" stroke-linejoin="round" stroke-linecap="butt" d="m1132.7349 296.5958l-304.39368 0" fill-rule="evenodd"/><path fill="#000000" stroke="#000000" stroke-width="1.0" stroke-linecap="butt" d="m828.3412 294.94406l-4.538086 1.6517334l4.538086 1.6517334z" fill-rule="evenodd"/><path fill="#000000" fill-opacity="0.0" d="m1133.8241 262.83466l-166.61414 0" fill-rule="evenodd"/><path stroke="#000000" stroke-width="1.0" stroke-linejoin="round" stroke-linecap="butt" d="m1133.8241 262.83466l-160.61414 0" fill-rule="evenodd"/><path fill="#000000" stroke="#000000" stroke-width="1.0" stroke-linecap="butt" d="m973.20996 261.18292l-4.538086 1.6517334l4.538086 1.6517334z" fill-rule="evenodd"/><path fill="#000000" fill-opacity="0.0" d="m1132.7349 209.46982l-253.76373 0" fill-rule="evenodd"/><path stroke="#000000" stroke-width="1.0" stroke-linejoin="round" stroke-linecap="butt" d="m1132.7349 209.46982l-247.76373 0" fill-rule="evenodd"/><path fill="#000000" stroke="#000000" stroke-width="1.0" stroke-linecap="butt" d="m884.9711 207.81808l-4.538086 1.6517334l4.538086 1.6517334z" fill-rule="evenodd"/><path fill="#000000" fill-opacity="0.0" d="m1133.8241 234.51968l-91.49597 0" fill-rule="evenodd"/><path stroke="#000000" stroke-width="1.0" stroke-linejoin="round" stroke-linecap="butt" d="m1133.8241 234.51968l-85.49597 0" fill-rule="evenodd"/><path fill="#000000" stroke="#000000" stroke-width="1.0" stroke-linecap="butt" d="m1048.3281 232.86795l-4.538086 1.6517334l4.538086 1.6517334z" fill-rule="evenodd"/><path fill="#9eddfd" fill-opacity="0.7039" d="m788.2126 96.91076l116.71655 0l0 100.46458l-116.71655 0z" fill-rule="evenodd"/><path fill="#7eb0ca" fill-opacity="0.7039" d="m904.92914 96.91076l33.48816 -33.488186l0 100.46457l-33.48816 33.48819z" fill-rule="evenodd"/><path fill="#b1e3fd" fill-opacity="0.7039" d="m788.2126 96.91076l33.48822 -33.488186l116.71649 0l-33.48816 33.488186z" fill-rule="evenodd"/><path fill="#000000" fill-opacity="0.0" d="m788.2126 96.91076l33.48822 -33.488186l116.71649 0l0 100.46457l-33.48816 33.48819l-116.71655 0zm0 0l116.71655 0l33.48816 -33.488186m-33.48816 33.488186l0 100.46458" fill-rule="evenodd"/><path stroke="#000000" stroke-width="1.0" stroke-linejoin="round" stroke-linecap="butt" d="m788.2126 96.91076l33.48822 -33.488186l116.71649 0l0 100.46457l-33.48816 33.48819l-116.71655 0zm0 0l116.71655 0l33.48816 -33.488186m-33.48816 33.488186l0 100.46458" fill-rule="evenodd"/><path fill="#ffffff" fill-opacity="0.7135" d="m756.2126 128.91077l116.71655 0l0 100.46457l-116.71655 0z" fill-rule="evenodd"/><path fill="#cbcbcb" fill-opacity="0.7135" d="m872.92914 128.91077l33.48816 -33.488197l0 100.46458l-33.48816 33.48819z" fill-rule="evenodd"/><path fill="#ffffff" fill-opacity="0.7135" d="m756.2126 128.91077l33.48822 -33.488197l116.71649 0l-33.48816 33.488197z" fill-rule="evenodd"/><path fill="#000000" fill-opacity="0.0" d="m756.2126 128.91077l33.48822 -33.488197l116.71649 0l0 100.46458l-33.48816 33.48819l-116.71655 0zm0 0l116.71655 0l33.48816 -33.488197m-33.48816 33.488197l0 100.46457" fill-rule="evenodd"/><path stroke="#000000" stroke-width="1.0" stroke-linejoin="round" stroke-linecap="butt" d="m756.2126 128.91077l33.48822 -33.488197l116.71649 0l0 100.46458l-33.48816 33.48819l-116.71655 0zm0 0l116.71655 0l33.48816 -33.488197m-33.48816 33.488197l0 100.46457" fill-rule="evenodd"/><path fill="#9eddfd" fill-opacity="0.7039" d="m908.2126 96.91076l116.71649 0l0 100.46458l-116.71649 0z" fill-rule="evenodd"/><path fill="#7eb0ca" fill-opacity="0.7039" d="m1024.9291 96.91076l33.48828 -33.488186l0 100.46457l-33.48828 33.48819z" fill-rule="evenodd"/><path fill="#b1e3fd" fill-opacity="0.7039" d="m908.2126 96.91076l33.48822 -33.488186l116.71655 0l-33.48828 33.488186z" fill-rule="evenodd"/><path fill="#000000" fill-opacity="0.0" d="m908.2126 96.91076l33.48822 -33.488186l116.71655 0l0 100.46457l-33.48828 33.48819l-116.71649 0zm0 0l116.71649 0l33.48828 -33.488186m-33.48828 33.488186l0 100.46458" fill-rule="evenodd"/><path stroke="#000000" stroke-width="1.0" stroke-linejoin="round" stroke-linecap="butt" d="m908.2126 96.91076l33.48822 -33.488186l116.71655 0l0 100.46457l-33.48828 33.48819l-116.71649 0zm0 0l116.71649 0l33.48828 -33.488186m-33.48828 33.488186l0 100.46458" fill-rule="evenodd"/><path fill="#fba1a1" fill-opacity="0.882" d="m876.2126 128.91077l116.71655 0l0 100.46457l-116.71655 0z" fill-rule="evenodd"/><path fill="#c88080" fill-opacity="0.882" d="m992.92914 128.91077l33.48822 -33.488197l0 100.46458l-33.48822 33.48819z" fill-rule="evenodd"/><path fill="#fbb3b3" fill-opacity="0.882" d="m876.2126 128.91077l33.48822 -33.488197l116.71655 0l-33.48822 33.488197z" fill-rule="evenodd"/><path fill="#000000" fill-opacity="0.0" d="m876.2126 128.91077l33.48822 -33.488197l116.71655 0l0 100.46458l-33.48822 33.48819l-116.71655 0zm0 0l116.71655 0l33.48822 -33.488197m-33.48822 33.488197l0 100.46457" fill-rule="evenodd"/><path stroke="#000000" stroke-width="1.0" stroke-linejoin="round" stroke-linecap="butt" d="m876.2126 128.91077l33.48822 -33.488197l116.71655 0l0 100.46458l-33.48822 33.48819l-116.71655 0zm0 0l116.71655 0l33.48822 -33.488197m-33.48822 33.488197l0 100.46457" fill-rule="evenodd"/><path fill="#000000" fill-opacity="0.0" d="m1133.8241 134.83464l-166.61414 0" fill-rule="evenodd"/><path stroke="#000000" stroke-width="1.0" stroke-linejoin="round" stroke-linecap="butt" d="m1133.8241 134.83464l-160.61414 0" fill-rule="evenodd"/><path fill="#000000" stroke="#000000" stroke-width="1.0" stroke-linecap="butt" d="m973.20996 133.1829l-4.538086 1.6517334l4.538086 1.6517334z" fill-rule="evenodd"/><path fill="#000000" fill-opacity="0.0" d="m1132.7349 81.46982l-253.76373 0" fill-rule="evenodd"/><path stroke="#000000" stroke-width="1.0" stroke-linejoin="round" stroke-linecap="butt" d="m1132.7349 81.46982l-247.76373 0" fill-rule="evenodd"/><path fill="#000000" stroke="#000000" stroke-width="1.0" stroke-linecap="butt" d="m884.9711 79.818085l-4.538086 1.6517334l4.538086 1.6517334z" fill-rule="evenodd"/><path fill="#000000" fill-opacity="0.0" d="m1133.8241 106.519684l-91.49597 0" fill-rule="evenodd"/><path stroke="#000000" stroke-width="1.0" stroke-linejoin="round" stroke-linecap="butt" d="m1133.8241 106.519684l-85.49597 0" fill-rule="evenodd"/><path fill="#000000" stroke="#000000" stroke-width="1.0" stroke-linecap="butt" d="m1048.3281 104.86795l-4.538086 1.6517334l4.538086 1.6517334z" fill-rule="evenodd"/><path fill="#000000" fill-opacity="0.0" d="m1132.7349 115.06036l91.49609 0l0 36.81891l-91.49609 0z" fill-rule="evenodd"/><path fill="#000000" d="m1149.4224 136.74599l0 -1.578125l5.65625 0l0 4.953125q-1.296875 1.046875 -2.6875 1.578125q-1.375 0.515625 -2.84375 0.515625q-1.96875 0 -3.578125 -0.84375q-1.609375 -0.84375 -2.421875 -2.4375q-0.8125 -1.59375 -0.8125 -3.5625q0 -1.953125 0.8125 -3.640625q0.8125 -1.6875 2.34375 -2.5q1.53125 -0.828125 3.515625 -0.828125q1.453125 0 2.625 0.46875q1.171875 0.46875 1.828125 1.3125q0.671875 0.828125 1.015625 2.171875l-1.59375 0.4375q-0.296875 -1.015625 -0.75 -1.59375q-0.4375 -0.59375 -1.265625 -0.9375q-0.828125 -0.34375 -1.84375 -0.34375q-1.203125 0 -2.09375 0.375q-0.890625 0.359375 -1.4375 0.96875q-0.53125 0.59375 -0.828125 1.3125q-0.515625 1.234375 -0.515625 2.6875q0 1.78125 0.609375 2.984375q0.625 1.203125 1.796875 1.796875q1.171875 0.578125 2.5 0.578125q1.140625 0 2.234375 -0.4375q1.09375 -0.453125 1.65625 -0.953125l0 -2.484375l-3.921875 0z" fill-rule="nonzero"/><path fill="#000000" d="m1162.512 147.93349l0 1.046875l-5.890625 0q-0.015625 -0.390625 0.125 -0.765625q0.234375 -0.59375 0.71875 -1.171875q0.5 -0.59375 1.4375 -1.359375q1.453125 -1.1875 1.953125 -1.875q0.515625 -0.703125 0.515625 -1.3125q0 -0.65625 -0.46875 -1.09375q-0.453125 -0.453125 -1.203125 -0.453125q-0.796875 0 -1.265625 0.46875q-0.46875 0.46875 -0.484375 1.3125l-1.125 -0.109375q0.125 -1.265625 0.875 -1.921875q0.75 -0.65625 2.015625 -0.65625q1.28125 0 2.03125 0.71875q0.75 0.703125 0.75 1.75q0 0.53125 -0.21875 1.046875q-0.21875 0.515625 -0.734375 1.09375q-0.5 0.5625 -1.671875 1.5625q-0.984375 0.828125 -1.265625 1.125q-0.28125 0.296875 -0.46875 0.59375l4.375 0z" fill-rule="nonzero"/><path fill="#000000" fill-opacity="0.0" d="m1132.7349 83.06036l91.49609 0l0 36.8189l-91.49609 0z" fill-rule="evenodd"/><path fill="#000000" d="m1149.4224 104.74599l0 -1.578125l5.65625 0l0 4.953125q-1.296875 1.046875 -2.6875 1.578125q-1.375 0.515625 -2.84375 0.515625q-1.96875 0 -3.578125 -0.84375q-1.609375 -0.84375 -2.421875 -2.4375q-0.8125 -1.59375 -0.8125 -3.5625q0 -1.953125 0.8125 -3.640625q0.8125 -1.6875 2.34375 -2.5q1.53125 -0.828125 3.515625 -0.828125q1.453125 0 2.625 0.46875q1.171875 0.46875 1.828125 1.3125q0.671875 0.828125 1.015625 2.171875l-1.59375 0.4375q-0.296875 -1.015625 -0.75 -1.59375q-0.4375 -0.59375 -1.265625 -0.9375q-0.828125 -0.34375 -1.84375 -0.34375q-1.203125 0 -2.09375 0.375q-0.890625 0.359375 -1.4375 0.96875q-0.53125 0.59375 -0.828125 1.3125q-0.515625 1.234375 -0.515625 2.6875q0 1.78125 0.609375 2.984375q0.625 1.203125 1.796875 1.796875q1.171875 0.578125 2.5 0.578125q1.140625 0 2.234375 -0.4375q1.09375 -0.453125 1.65625 -0.953125l0 -2.484375l-3.921875 0z" fill-rule="nonzero"/><path fill="#000000" d="m1162.4338 110.26161l-1.09375 0.078125q-0.140625 -0.640625 -0.40625 -0.9375q-0.4375 -0.46875 -1.09375 -0.46875q-0.515625 0 -0.921875 0.296875q-0.515625 0.375 -0.8125 1.109375q-0.296875 0.71875 -0.296875 2.046875q0.390625 -0.59375 0.953125 -0.890625q0.578125 -0.296875 1.203125 -0.296875q1.09375 0 1.859375 0.8125q0.765625 0.796875 0.765625 2.078125q0 0.84375 -0.359375 1.5625q-0.359375 0.71875 -1.0 1.109375q-0.625 0.375 -1.421875 0.375q-1.375 0 -2.234375 -1.0q-0.859375 -1.015625 -0.859375 -3.328125q0 -2.578125 0.953125 -3.75q0.828125 -1.015625 2.234375 -1.015625q1.0625 0 1.734375 0.59375q0.671875 0.578125 0.796875 1.625zm-4.46875 3.828125q0 0.578125 0.234375 1.09375q0.25 0.515625 0.671875 0.78125q0.4375 0.265625 0.921875 0.265625q0.6875 0 1.1875 -0.546875q0.5 -0.5625 0.5 -1.53125q0 -0.921875 -0.5 -1.453125q-0.484375 -0.53125 -1.234375 -0.53125q-0.75 0 -1.265625 0.53125q-0.515625 0.53125 -0.515625 1.390625z" fill-rule="nonzero"/><path fill="#000000" fill-opacity="0.0" d="m1132.7349 59.060368l91.49609 0l0 36.818897l-91.49609 0z" fill-rule="evenodd"/><path fill="#000000" d="m1149.4224 80.74599l0 -1.578125l5.65625 0l0 4.953125q-1.296875 1.046875 -2.6875 1.578125q-1.375 0.515625 -2.84375 0.515625q-1.96875 0 -3.578125 -0.84375q-1.609375 -0.84375 -2.421875 -2.4375q-0.8125 -1.59375 -0.8125 -3.5625q0 -1.953125 0.8125 -3.640625q0.8125 -1.6875 2.34375 -2.5q1.53125 -0.828125 3.515625 -0.828125q1.453125 0 2.625 0.46875q1.171875 0.46875 1.828125 1.3125q0.671875 0.828125 1.015625 2.171875l-1.59375 0.4375q-0.296875 -1.015625 -0.75 -1.59375q-0.4375 -0.59375 -1.265625 -0.9375q-0.828125 -0.34375 -1.84375 -0.34375q-1.203125 0 -2.09375 0.375q-0.890625 0.359375 -1.4375 0.96875q-0.53125 0.59375 -0.828125 1.3125q-0.515625 1.234375 -0.515625 2.6875q0 1.78125 0.609375 2.984375q0.625 1.203125 1.796875 1.796875q1.171875 0.578125 2.5 0.578125q1.140625 0 2.234375 -0.4375q1.09375 -0.453125 1.65625 -0.953125l0 -2.484375l-3.921875 0z" fill-rule="nonzero"/><path fill="#000000" d="m1160.262 92.98036l0 -2.125l-3.859375 0l0 -1.015625l4.0625 -5.765625l0.890625 0l0 5.765625l1.203125 0l0 1.015625l-1.203125 0l0 2.125l-1.09375 0zm0 -3.140625l0 -4.0l-2.78125 4.0l2.78125 0z" fill-rule="nonzero"/><path fill="#000000" fill-opacity="0.0" d="m1132.7349 275.06036l91.49609 0l0 36.81891l-91.49609 0z" fill-rule="evenodd"/><path fill="#000000" d="m1149.4224 296.746l0 -1.578125l5.65625 0l0 4.953125q-1.296875 1.046875 -2.6875 1.578125q-1.375 0.515625 -2.84375 0.515625q-1.96875 0 -3.578125 -0.84375q-1.609375 -0.84375 -2.421875 -2.4375q-0.8125 -1.59375 -0.8125 -3.5625q0 -1.953125 0.8125 -3.640625q0.8125 -1.6875 2.34375 -2.5q1.53125 -0.828125 3.515625 -0.828125q1.453125 0 2.625 0.46875q1.171875 0.46875 1.828125 1.3125q0.671875 0.828125 1.015625 2.171875l-1.59375 0.4375q-0.296875 -1.015625 -0.75 -1.59375q-0.4375 -0.59375 -1.265625 -0.9375q-0.828125 -0.34375 -1.84375 -0.34375q-1.203125 0 -2.09375 0.375q-0.890625 0.359375 -1.4375 0.96875q-0.53125 0.59375 -0.828125 1.3125q-0.515625 1.234375 -0.515625 2.6875q0 1.78125 0.609375 2.984375q0.625 1.203125 1.796875 1.796875q1.171875 0.578125 2.5 0.578125q1.140625 0 2.234375 -0.4375q1.09375 -0.453125 1.65625 -0.953125l0 -2.484375l-3.921875 0z" fill-rule="nonzero"/><path fill="#000000" d="m1160.887 308.98038l-1.09375 0l0 -6.96875q-0.40625 0.375 -1.046875 0.75q-0.640625 0.375 -1.140625 0.578125l0 -1.0625q0.90625 -0.4375 1.59375 -1.046875q0.6875 -0.609375 0.96875 -1.1875l0.71875 0l0 8.9375z" fill-rule="nonzero"/><path fill="#000000" fill-opacity="0.0" d="m1132.7349 243.06036l91.49609 0l0 36.81891l-91.49609 0z" fill-rule="evenodd"/><path fill="#000000" d="m1149.4224 264.746l0 -1.578125l5.65625 0l0 4.953125q-1.296875 1.046875 -2.6875 1.578125q-1.375 0.515625 -2.84375 0.515625q-1.96875 0 -3.578125 -0.84375q-1.609375 -0.84375 -2.421875 -2.4375q-0.8125 -1.59375 -0.8125 -3.5625q0 -1.953125 0.8125 -3.640625q0.8125 -1.6875 2.34375 -2.5q1.53125 -0.828125 3.515625 -0.828125q1.453125 0 2.625 0.46875q1.171875 0.46875 1.828125 1.3125q0.671875 0.828125 1.015625 2.171875l-1.59375 0.4375q-0.296875 -1.015625 -0.75 -1.59375q-0.4375 -0.59375 -1.265625 -0.9375q-0.828125 -0.34375 -1.84375 -0.34375q-1.203125 0 -2.09375 0.375q-0.890625 0.359375 -1.4375 0.96875q-0.53125 0.59375 -0.828125 1.3125q-0.515625 1.234375 -0.515625 2.6875q0 1.78125 0.609375 2.984375q0.625 1.203125 1.796875 1.796875q1.171875 0.578125 2.5 0.578125q1.140625 0 2.234375 -0.4375q1.09375 -0.453125 1.65625 -0.953125l0 -2.484375l-3.921875 0z" fill-rule="nonzero"/><path fill="#000000" d="m1156.762 274.63663l1.09375 -0.15625q0.1875 0.9375 0.640625 1.34375q0.453125 0.40625 1.109375 0.40625q0.765625 0 1.296875 -0.53125q0.53125 -0.53125 0.53125 -1.328125q0 -0.75 -0.5 -1.234375q-0.484375 -0.5 -1.234375 -0.5q-0.3125 0 -0.78125 0.125l0.125 -0.953125q0.109375 0.015625 0.171875 0.015625q0.703125 0 1.265625 -0.359375q0.5625 -0.375 0.5625 -1.140625q0 -0.59375 -0.40625 -0.984375q-0.40625 -0.40625 -1.0625 -0.40625q-0.625 0 -1.0625 0.40625q-0.421875 0.40625 -0.546875 1.203125l-1.09375 -0.1875q0.203125 -1.109375 0.90625 -1.703125q0.71875 -0.609375 1.78125 -0.609375q0.71875 0 1.328125 0.3125q0.625 0.3125 0.953125 0.859375q0.328125 0.53125 0.328125 1.140625q0 0.578125 -0.3125 1.0625q-0.3125 0.46875 -0.921875 0.734375q0.796875 0.1875 1.234375 0.765625q0.4375 0.578125 0.4375 1.4375q0 1.15625 -0.859375 1.96875q-0.84375 0.8125 -2.140625 0.8125q-1.171875 0 -1.953125 -0.6875q-0.78125 -0.703125 -0.890625 -1.8125z" fill-rule="nonzero"/><path fill="#000000" fill-opacity="0.0" d="m1132.7349 211.06036l91.49609 0l0 36.81891l-91.49609 0z" fill-rule="evenodd"/><path fill="#000000" d="m1149.4224 232.74599l0 -1.578125l5.65625 0l0 4.953125q-1.296875 1.046875 -2.6875 1.578125q-1.375 0.515625 -2.84375 0.515625q-1.96875 0 -3.578125 -0.84375q-1.609375 -0.84375 -2.421875 -2.4375q-0.8125 -1.59375 -0.8125 -3.5625q0 -1.953125 0.8125 -3.640625q0.8125 -1.6875 2.34375 -2.5q1.53125 -0.828125 3.515625 -0.828125q1.453125 0 2.625 0.46875q1.171875 0.46875 1.828125 1.3125q0.671875 0.828125 1.015625 2.171875l-1.59375 0.4375q-0.296875 -1.015625 -0.75 -1.59375q-0.4375 -0.59375 -1.265625 -0.9375q-0.828125 -0.34375 -1.84375 -0.34375q-1.203125 0 -2.09375 0.375q-0.890625 0.359375 -1.4375 0.96875q-0.53125 0.59375 -0.828125 1.3125q-0.515625 1.234375 -0.515625 2.6875q0 1.78125 0.609375 2.984375q0.625 1.203125 1.796875 1.796875q1.171875 0.578125 2.5 0.578125q1.140625 0 2.234375 -0.4375q1.09375 -0.453125 1.65625 -0.953125l0 -2.484375l-3.921875 0z" fill-rule="nonzero"/><path fill="#000000" d="m1156.8401 237.24599l0 -1.046875l5.765625 0l0 0.84375q-0.859375 0.90625 -1.703125 2.40625q-0.828125 1.5 -1.28125 3.078125q-0.328125 1.125 -0.421875 2.453125l-1.125 0q0.03125 -1.046875 0.421875 -2.53125q0.390625 -1.5 1.125 -2.875q0.75 -1.390625 1.578125 -2.328125l-4.359375 0z" fill-rule="nonzero"/><path fill="#000000" fill-opacity="0.0" d="m1132.7349 187.06036l91.49609 0l0 36.81891l-91.49609 0z" fill-rule="evenodd"/><path fill="#000000" d="m1149.4224 208.74599l0 -1.578125l5.65625 0l0 4.953125q-1.296875 1.046875 -2.6875 1.578125q-1.375 0.515625 -2.84375 0.515625q-1.96875 0 -3.578125 -0.84375q-1.609375 -0.84375 -2.421875 -2.4375q-0.8125 -1.59375 -0.8125 -3.5625q0 -1.953125 0.8125 -3.640625q0.8125 -1.6875 2.34375 -2.5q1.53125 -0.828125 3.515625 -0.828125q1.453125 0 2.625 0.46875q1.171875 0.46875 1.828125 1.3125q0.671875 0.828125 1.015625 2.171875l-1.59375 0.4375q-0.296875 -1.015625 -0.75 -1.59375q-0.4375 -0.59375 -1.265625 -0.9375q-0.828125 -0.34375 -1.84375 -0.34375q-1.203125 0 -2.09375 0.375q-0.890625 0.359375 -1.4375 0.96875q-0.53125 0.59375 -0.828125 1.3125q-0.515625 1.234375 -0.515625 2.6875q0 1.78125 0.609375 2.984375q0.625 1.203125 1.796875 1.796875q1.171875 0.578125 2.5 0.578125q1.140625 0 2.234375 -0.4375q1.09375 -0.453125 1.65625 -0.953125l0 -2.484375l-3.921875 0z" fill-rule="nonzero"/><path fill="#000000" d="m1156.762 218.65224l1.140625 -0.09375q0.140625 0.828125 0.59375 1.25q0.46875 0.421875 1.125 0.421875q0.796875 0 1.34375 -0.59375q0.546875 -0.59375 0.546875 -1.578125q0 -0.9375 -0.53125 -1.46875q-0.53125 -0.546875 -1.375 -0.546875q-0.53125 0 -0.953125 0.25q-0.421875 0.234375 -0.671875 0.609375l-1.03125 -0.125l0.875 -4.578125l4.421875 0l0 1.046875l-3.546875 0l-0.484375 2.390625q0.796875 -0.5625 1.6875 -0.5625q1.15625 0 1.953125 0.8125q0.8125 0.8125 0.8125 2.078125q0 1.203125 -0.703125 2.09375q-0.859375 1.078125 -2.34375 1.078125q-1.21875 0 -1.984375 -0.671875q-0.765625 -0.6875 -0.875 -1.8125z" fill-rule="nonzero"/><path fill="#000000" fill-opacity="0.0" d="m653.3884 75.74016l31.62207 -34.677166" fill-rule="evenodd"/><path stroke="#000000" stroke-width="1.0" stroke-linejoin="round" stroke-linecap="butt" d="m653.3884 75.74016l27.579224 -30.243725" fill-rule="evenodd"/><path fill="#000000" stroke="#000000" stroke-width="1.0" stroke-linecap="butt" d="m682.1881 46.609383l1.8373413 -4.4661827l-4.2782593 2.240284z" fill-rule="evenodd"/><path fill="#000000" fill-opacity="0.0" d="m654.15485 75.149605l0 47.46457" fill-rule="evenodd"/><path stroke="#000000" stroke-width="1.0" stroke-linejoin="round" stroke-linecap="butt" d="m654.15485 75.149605l0 41.46457" fill-rule="evenodd"/><path fill="#000000" stroke="#000000" stroke-width="1.0" stroke-linecap="butt" d="m652.5031 116.614174l1.6517334 4.5380936l1.6517334 -4.5380936z" fill-rule="evenodd"/><path fill="#000000" fill-opacity="0.0" d="m654.7638 76.367455l45.007874 0" fill-rule="evenodd"/><path stroke="#000000" stroke-width="1.0" stroke-linejoin="round" stroke-linecap="butt" d="m654.7638 76.367455l39.007874 0" fill-rule="evenodd"/><path fill="#000000" stroke="#000000" stroke-width="1.0" stroke-linecap="butt" d="m693.77167 78.01919l4.538086 -1.6517334l-4.538086 -1.6517334z" fill-rule="evenodd"/><path fill="#000000" fill-opacity="0.0" d="m677.0105 13.036745l24.346436 0l0 36.8189l-24.346436 0z" fill-rule="evenodd"/><path fill="#000000" d="m686.79175 36.425495l1.640625 -0.21875q0.28125 1.40625 0.953125 2.015625q0.6875 0.609375 1.65625 0.609375q1.15625 0 1.953125 -0.796875q0.796875 -0.796875 0.796875 -1.984375q0 -1.125 -0.734375 -1.859375q-0.734375 -0.734375 -1.875 -0.734375q-0.46875 0 -1.15625 0.171875l0.1875 -1.4375q0.15625 0.015625 0.265625 0.015625q1.046875 0 1.875 -0.5468769q0.84375 -0.546875 0.84375 -1.671875q0 -0.90625 -0.609375 -1.5q-0.609375 -0.59375 -1.578125 -0.59375q-0.953125 0 -1.59375 0.609375q-0.640625 0.59375 -0.8125 1.796875l-1.640625 -0.296875q0.296875 -1.640625 1.359375 -2.546875q1.0625 -0.90625 2.65625 -0.90625q1.09375 0 2.0 0.46875q0.921875 0.46875 1.40625 1.28125q0.5 0.8125 0.5 1.71875q0 0.859375 -0.46875 1.578125q-0.46875 0.7031269 -1.375 1.1250019q1.1875 0.28125 1.84375 1.140625q0.65625 0.859375 0.65625 2.15625q0 1.734375 -1.28125 2.953125q-1.265625 1.21875 -3.21875 1.21875q-1.765625 0 -2.921875 -1.046875q-1.15625 -1.046875 -1.328125 -2.71875z" fill-rule="nonzero"/><path fill="#000000" fill-opacity="0.0" d="m693.0105 53.036747l24.346436 0l0 36.818897l-24.346436 0z" fill-rule="evenodd"/><path fill="#000000" d="m711.4011 78.37862l0 1.578125l-8.828125 0q-0.015625 -0.59375 0.1875 -1.140625q0.34375 -0.90625 1.078125 -1.78125q0.75 -0.875 2.15625 -2.015625q2.171875 -1.78125 2.9375 -2.828125q0.765625 -1.046875 0.765625 -1.96875q0 -0.984375 -0.703125 -1.640625q-0.6875 -0.671875 -1.8125 -0.671875q-1.1875 0 -1.90625 0.71875q-0.703125 0.703125 -0.703125 1.953125l-1.6875 -0.171875q0.171875 -1.890625 1.296875 -2.875q1.140625 -0.984375 3.03125 -0.984375q1.921875 0 3.046875 1.0625q1.125 1.0625 1.125 2.640625q0 0.796875 -0.328125 1.578125q-0.328125 0.78125 -1.09375 1.640625q-0.75 0.84375 -2.53125 2.34375q-1.46875 1.234375 -1.890625 1.6875q-0.421875 0.4375 -0.6875 0.875l6.546875 0z" fill-rule="nonzero"/><path fill="#000000" fill-opacity="0.0" d="m636.5801 113.808395l35.149597 0l0 36.81891l-35.149597 0z" fill-rule="evenodd"/><path fill="#000000" d="m655.9201 140.7284l-1.640625 0l0 -10.453125q-0.59375 0.5625 -1.5625 1.140625q-0.953125 0.5625 -1.71875 0.84375l0 -1.59375q1.375 -0.640625 2.40625 -1.5625q1.03125 -0.921875 1.453125 -1.78125l1.0625 0l0 13.40625z" fill-rule="nonzero"/><path fill="#000000" fill-opacity="0.0" d="m223.02625 363.81628l83.37009 0l0 16.251953l-83.37009 0z" fill-rule="evenodd"/><path fill="#000000" d="m236.38562 392.91013q-1.359375 -1.703125 -2.296875 -4.0q-0.9375 -2.296875 -0.9375 -4.765625q0 -2.15625 0.703125 -4.140625q0.828125 -2.3125 2.53125 -4.59375l1.171875 0q-1.09375 1.890625 -1.453125 2.703125q-0.546875 1.25 -0.875 2.625q-0.390625 1.703125 -0.390625 3.421875q0 4.375 2.71875 8.75l-1.171875 0zm9.400177 -5.109375q-0.921875 0.765625 -1.765625 1.09375q-0.828125 0.3125 -1.796875 0.3125q-1.59375 0 -2.453125 -0.78125q-0.859375 -0.78125 -0.859375 -1.984375q0 -0.71875 0.328125 -1.296875q0.328125 -0.59375 0.84375 -0.9375q0.53125 -0.359375 1.1875 -0.546875q0.46875 -0.125 1.453125 -0.25q1.984375 -0.234375 2.921875 -0.5625q0.015625 -0.34375 0.015625 -0.421875q0 -1.0 -0.46875 -1.421875q-0.625 -0.546875 -1.875 -0.546875q-1.15625 0 -1.703125 0.40625q-0.546875 0.40625 -0.8125 1.421875l-1.609375 -0.21875q0.21875 -1.015625 0.71875 -1.640625q0.5 -0.640625 1.453125 -0.984375q0.953125 -0.34375 2.1875 -0.34375q1.25 0 2.015625 0.296875q0.78125 0.28125 1.140625 0.734375q0.375 0.4375 0.515625 1.109375q0.078125 0.421875 0.078125 1.515625l0 2.1875q0 2.28125 0.109375 2.890625q0.109375 0.59375 0.40625 1.15625l-1.703125 0q-0.265625 -0.515625 -0.328125 -1.1875zm-0.140625 -3.671875q-0.890625 0.375 -2.671875 0.625q-1.015625 0.140625 -1.4375 0.328125q-0.421875 0.1875 -0.65625 0.53125q-0.21875 0.34375 -0.21875 0.78125q0 0.65625 0.5 1.09375q0.5 0.4375 1.453125 0.4375q0.9375 0 1.671875 -0.40625q0.75 -0.421875 1.09375 -1.140625q0.265625 -0.5625 0.265625 -1.640625l0 -0.609375zm5.281967 8.78125l-1.1875 0q2.734375 -4.375 2.734375 -8.75q0 -1.71875 -0.390625 -3.390625q-0.3125 -1.375 -0.875 -2.625q-0.359375 -0.828125 -1.46875 -2.734375l1.1875 0q1.703125 2.28125 2.53125 4.59375q0.6875 1.984375 0.6875 4.140625q0 2.46875 -0.9375 4.765625q-0.9375 2.296875 -2.28125 4.0z" fill-rule="nonzero"/><path fill="#000000" fill-opacity="0.0" d="m855.02625 363.81628l83.370056 0l0 16.251953l-83.370056 0z" fill-rule="evenodd"/><path fill="#000000" d="m868.3856 392.91013q-1.359375 -1.703125 -2.296875 -4.0q-0.9375 -2.296875 -0.9375 -4.765625q0 -2.15625 0.703125 -4.140625q0.828125 -2.3125 2.53125 -4.59375l1.171875 0q-1.09375 1.890625 -1.453125 2.703125q-0.546875 1.25 -0.875 2.625q-0.390625 1.703125 -0.390625 3.421875q0 4.375 2.71875 8.75l-1.171875 0zm4.5877075 -3.921875l-1.515625 0l0 -13.359375l1.640625 0l0 4.765625q1.046875 -1.296875 2.65625 -1.296875q0.890625 0 1.6875 0.359375q0.796875 0.359375 1.3125 1.015625q0.515625 0.640625 0.796875 1.5625q0.296875 0.921875 0.296875 1.96875q0 2.484375 -1.234375 3.84375q-1.21875 1.359375 -2.953125 1.359375q-1.703125 0 -2.6875 -1.4375l0 1.21875zm-0.015625 -4.90625q0 1.734375 0.484375 2.515625q0.765625 1.265625 2.09375 1.265625q1.078125 0 1.859375 -0.9375q0.78125 -0.9375 0.78125 -2.78125q0 -1.890625 -0.75 -2.796875q-0.75 -0.90625 -1.828125 -0.90625q-1.0625 0 -1.859375 0.9375q-0.78125 0.9375 -0.78125 2.703125zm9.969421 8.828125l-1.1875 0q2.734375 -4.375 2.734375 -8.75q0 -1.71875 -0.390625 -3.390625q-0.3125 -1.375 -0.875 -2.625q-0.359375 -0.828125 -1.46875 -2.734375l1.1875 0q1.703125 2.28125 2.53125 4.59375q0.6875 1.984375 0.6875 4.140625q0 2.46875 -0.9375 4.765625q-0.9375 2.296875 -2.28125 4.0z" fill-rule="nonzero"/></g></svg>