<svg version="1.1" viewBox="0.0 0.0 1030.4251968503936 434.3543307086614" fill="none" stroke="none" stroke-linecap="square" stroke-miterlimit="10" xmlns:xlink="http://www.w3.org/1999/xlink" xmlns="http://www.w3.org/2000/svg"><clipPath id="p.0"><path d="m0 0l1030.4252 0l0 434.35434l-1030.4252 0l0 -434.35434z" clip-rule="nonzero"/></clipPath><g clip-path="url(#p.0)"><path fill="#000000" fill-opacity="0.0" d="m0 0l1030.4252 0l0 434.35434l-1030.4252 0z" fill-rule="evenodd"/><path fill="#cfe2f3" fill-opacity="0.7039" d="m591.1155 236.47769l116.71655 0l0 100.46457l-116.71655 0z" fill-rule="evenodd"/><path fill="#a5b4c2" fill-opacity="0.7039" d="m707.83203 236.47769l33.48816 -33.48819l0 100.46457l-33.48816 33.48819z" fill-rule="evenodd"/><path fill="#d8e7f5" fill-opacity="0.7039" d="m591.1155 236.47769l33.48822 -33.48819l116.71649 0l-33.48816 33.48819z" fill-rule="evenodd"/><path fill="#000000" fill-opacity="0.0" d="m591.1155 236.47769l33.48822 -33.48819l116.71649 0l0 100.46457l-33.48816 33.48819l-116.71655 0zm0 0l116.71655 0l33.48816 -33.48819m-33.48816 33.48819l0 100.46457" fill-rule="evenodd"/><path stroke="#000000" stroke-width="1.0" stroke-linejoin="round" stroke-linecap="butt" d="m591.1155 236.47769l33.48822 -33.48819l116.71649 0l0 100.46457l-33.48816 33.48819l-116.71655 0zm0 0l116.71655 0l33.48816 -33.48819m-33.48816 33.48819l0 100.46457" fill-rule="evenodd"/><path fill="#cfe2f3" fill-opacity="0.7039" d="m559.1155 268.4777l116.71655 0l0 100.46457l-116.71655 0z" fill-rule="evenodd"/><path fill="#a5b4c2" fill-opacity="0.7039" d="m675.83203 268.4777l33.48816 -33.48819l0 100.46457l-33.48816 33.48819z" fill-rule="evenodd"/><path fill="#d8e7f5" fill-opacity="0.7039" d="m559.1155 268.4777l33.48822 -33.48819l116.71649 0l-33.48816 33.48819z" fill-rule="evenodd"/><path fill="#000000" fill-opacity="0.0" d="m559.1155 268.4777l33.48822 -33.48819l116.71649 0l0 100.46457l-33.48816 33.48819l-116.71655 0zm0 0l116.71655 0l33.48816 -33.48819m-33.48816 33.48819l0 100.46457" fill-rule="evenodd"/><path stroke="#000000" stroke-width="1.0" stroke-linejoin="round" stroke-linecap="butt" d="m559.1155 268.4777l33.48822 -33.48819l116.71649 0l0 100.46457l-33.48816 33.48819l-116.71655 0zm0 0l116.71655 0l33.48816 -33.48819m-33.48816 33.48819l0 100.46457" fill-rule="evenodd"/><path fill="#cfe2f3" fill-opacity="0.7039" d="m711.1155 236.47769l116.71655 0l0 100.46457l-116.71655 0z" fill-rule="evenodd"/><path fill="#a5b4c2" fill-opacity="0.7039" d="m827.83203 236.47769l33.48816 -33.48819l0 100.46457l-33.48816 33.48819z" fill-rule="evenodd"/><path fill="#d8e7f5" fill-opacity="0.7039" d="m711.1155 236.47769l33.48822 -33.48819l116.71649 0l-33.48816 33.48819z" fill-rule="evenodd"/><path fill="#000000" fill-opacity="0.0" d="m711.1155 236.47769l33.48822 -33.48819l116.71649 0l0 100.46457l-33.48816 33.48819l-116.71655 0zm0 0l116.71655 0l33.48816 -33.48819m-33.48816 33.48819l0 100.46457" fill-rule="evenodd"/><path stroke="#000000" stroke-width="1.0" stroke-linejoin="round" stroke-linecap="butt" d="m711.1155 236.47769l33.48822 -33.48819l116.71649 0l0 100.46457l-33.48816 33.48819l-116.71655 0zm0 0l116.71655 0l33.48816 -33.48819m-33.48816 33.48819l0 100.46457" fill-rule="evenodd"/><path fill="#cfe2f3" fill-opacity="0.7039" d="m679.1155 268.4777l116.71655 0l0 100.46457l-116.71655 0z" fill-rule="evenodd"/><path fill="#a5b4c2" fill-opacity="0.7039" d="m795.83203 268.4777l33.48816 -33.48819l0 100.46457l-33.48816 33.48819z" fill-rule="evenodd"/><path fill="#d8e7f5" fill-opacity="0.7039" d="m679.1155 268.4777l33.48822 -33.48819l116.71649 0l-33.48816 33.48819z" fill-rule="evenodd"/><path fill="#000000" fill-opacity="0.0" d="m679.1155 268.4777l33.48822 -33.48819l116.71649 0l0 100.46457l-33.48816 33.48819l-116.71655 0zm0 0l116.71655 0l33.48816 -33.48819m-33.48816 33.48819l0 100.46457" fill-rule="evenodd"/><path stroke="#000000" stroke-width="1.0" stroke-linejoin="round" stroke-linecap="butt" d="m679.1155 268.4777l33.48822 -33.48819l116.71649 0l0 100.46457l-33.48816 33.48819l-116.71655 0zm0 0l116.71655 0l33.48816 -33.48819m-33.48816 33.48819l0 100.46457" fill-rule="evenodd"/><path fill="#cfe2f3" d="m194.96063 185.50394l116.71652 0l0 100.46457l-116.71652 0z" fill-rule="evenodd"/><path fill="#a5b4c2" d="m311.67715 185.50394l33.48819 -33.48819l0 100.46457l-33.48819 33.48819z" fill-rule="evenodd"/><path fill="#d8e7f5" d="m194.96063 185.50394l33.48819 -33.48819l116.71652 0l-33.48819 33.48819z" fill-rule="evenodd"/><path fill="#000000" fill-opacity="0.0" d="m194.96063 185.50394l33.48819 -33.48819l116.71652 0l0 100.46457l-33.48819 33.48819l-116.71652 0zm0 0l116.71652 0l33.48819 -33.48819m-33.48819 33.48819l0 100.46457" fill-rule="evenodd"/><path stroke="#000000" stroke-width="1.0" stroke-linejoin="round" stroke-linecap="butt" d="m194.96063 185.50394l33.48819 -33.48819l116.71652 0l0 100.46457l-33.48819 33.48819l-116.71652 0zm0 0l116.71652 0l33.48819 -33.48819m-33.48819 33.48819l0 100.46457" fill-rule="evenodd"/><path fill="#cfe2f3" d="m162.96063 217.50394l116.71652 0l0 100.46457l-116.71652 0z" fill-rule="evenodd"/><path fill="#a5b4c2" d="m279.67715 217.50394l33.48819 -33.48819l0 100.46457l-33.48819 33.48819z" fill-rule="evenodd"/><path fill="#d8e7f5" d="m162.96063 217.50394l33.48819 -33.48819l116.71652 0l-33.48819 33.48819z" fill-rule="evenodd"/><path fill="#000000" fill-opacity="0.0" d="m162.96063 217.50394l33.48819 -33.48819l116.71652 0l0 100.46457l-33.48819 33.48819l-116.71652 0zm0 0l116.71652 0l33.48819 -33.48819m-33.48819 33.48819l0 100.46457" fill-rule="evenodd"/><path stroke="#000000" stroke-width="1.0" stroke-linejoin="round" stroke-linecap="butt" d="m162.96063 217.50394l33.48819 -33.48819l116.71652 0l0 100.46457l-33.48819 33.48819l-116.71652 0zm0 0l116.71652 0l33.48819 -33.48819m-33.48819 33.48819l0 100.46457" fill-rule="evenodd"/><path fill="#cfe2f3" d="m306.96063 185.50394l116.71652 0l0 100.46457l-116.71652 0z" fill-rule="evenodd"/><path fill="#a5b4c2" d="m423.67715 185.50394l33.48819 -33.48819l0 100.46457l-33.48819 33.48819z" fill-rule="evenodd"/><path fill="#d8e7f5" d="m306.96063 185.50394l33.48819 -33.48819l116.71652 0l-33.48819 33.48819z" fill-rule="evenodd"/><path fill="#000000" fill-opacity="0.0" d="m306.96063 185.50394l33.48819 -33.48819l116.71652 0l0 100.46457l-33.48819 33.48819l-116.71652 0zm0 0l116.71652 0l33.48819 -33.48819m-33.48819 33.48819l0 100.46457" fill-rule="evenodd"/><path stroke="#000000" stroke-width="1.0" stroke-linejoin="round" stroke-linecap="butt" d="m306.96063 185.50394l33.48819 -33.48819l116.71652 0l0 100.46457l-33.48819 33.48819l-116.71652 0zm0 0l116.71652 0l33.48819 -33.48819m-33.48819 33.48819l0 100.46457" fill-rule="evenodd"/><path fill="#cfe2f3" d="m274.96063 217.50394l116.71652 0l0 100.46457l-116.71652 0z" fill-rule="evenodd"/><path fill="#a5b4c2" d="m391.67715 217.50394l33.48819 -33.48819l0 100.46457l-33.48819 33.48819z" fill-rule="evenodd"/><path fill="#d8e7f5" d="m274.96063 217.50394l33.48819 -33.48819l116.71652 0l-33.48819 33.48819z" fill-rule="evenodd"/><path fill="#000000" fill-opacity="0.0" d="m274.96063 217.50394l33.48819 -33.48819l116.71652 0l0 100.46457l-33.48819 33.48819l-116.71652 0zm0 0l116.71652 0l33.48819 -33.48819m-33.48819 33.48819l0 100.46457" fill-rule="evenodd"/><path stroke="#000000" stroke-width="1.0" stroke-linejoin="round" stroke-linecap="butt" d="m274.96063 217.50394l33.48819 -33.48819l116.71652 0l0 100.46457l-33.48819 33.48819l-116.71652 0zm0 0l116.71652 0l33.48819 -33.48819m-33.48819 33.48819l0 100.46457" fill-rule="evenodd"/><path fill="#cfe2f3" d="m194.96063 89.50394l116.71652 0l0 100.46457l-116.71652 0z" fill-rule="evenodd"/><path fill="#a5b4c2" d="m311.67715 89.50394l33.48819 -33.48819l0 100.46457l-33.48819 33.48819z" fill-rule="evenodd"/><path fill="#d8e7f5" d="m194.96063 89.50394l33.48819 -33.48819l116.71652 0l-33.48819 33.48819z" fill-rule="evenodd"/><path fill="#000000" fill-opacity="0.0" d="m194.96063 89.50394l33.48819 -33.48819l116.71652 0l0 100.46457l-33.48819 33.48819l-116.71652 0zm0 0l116.71652 0l33.48819 -33.48819m-33.48819 33.48819l0 100.46457" fill-rule="evenodd"/><path stroke="#000000" stroke-width="1.0" stroke-linejoin="round" stroke-linecap="butt" d="m194.96063 89.50394l33.48819 -33.48819l116.71652 0l0 100.46457l-33.48819 33.48819l-116.71652 0zm0 0l116.71652 0l33.48819 -33.48819m-33.48819 33.48819l0 100.46457" fill-rule="evenodd"/><path fill="#ffffff" fill-opacity="0.7135" d="m162.96063 121.50394l116.71652 0l0 100.46457l-116.71652 0z" fill-rule="evenodd"/><path fill="#cbcbcb" fill-opacity="0.7135" d="m279.67715 121.50394l33.48819 -33.48819l0 100.46457l-33.48819 33.48819z" fill-rule="evenodd"/><path fill="#ffffff" fill-opacity="0.7135" d="m162.96063 121.50394l33.48819 -33.48819l116.71652 0l-33.48819 33.48819z" fill-rule="evenodd"/><path fill="#000000" fill-opacity="0.0" d="m162.96063 121.50394l33.48819 -33.48819l116.71652 0l0 100.46457l-33.48819 33.48819l-116.71652 0zm0 0l116.71652 0l33.48819 -33.48819m-33.48819 33.48819l0 100.46457" fill-rule="evenodd"/><path stroke="#000000" stroke-width="1.0" stroke-linejoin="round" stroke-linecap="butt" d="m162.96063 121.50394l33.48819 -33.48819l116.71652 0l0 100.46457l-33.48819 33.48819l-116.71652 0zm0 0l116.71652 0l33.48819 -33.48819m-33.48819 33.48819l0 100.46457" fill-rule="evenodd"/><path fill="#cfe2f3" d="m306.96063 89.50394l116.71652 0l0 100.46457l-116.71652 0z" fill-rule="evenodd"/><path fill="#a5b4c2" d="m423.67715 89.50394l33.48819 -33.48819l0 100.46457l-33.48819 33.48819z" fill-rule="evenodd"/><path fill="#d8e7f5" d="m306.96063 89.50394l33.48819 -33.48819l116.71652 0l-33.48819 33.48819z" fill-rule="evenodd"/><path fill="#000000" fill-opacity="0.0" d="m306.96063 89.50394l33.48819 -33.48819l116.71652 0l0 100.46457l-33.48819 33.48819l-116.71652 0zm0 0l116.71652 0l33.48819 -33.48819m-33.48819 33.48819l0 100.46457" fill-rule="evenodd"/><path stroke="#000000" stroke-width="1.0" stroke-linejoin="round" stroke-linecap="butt" d="m306.96063 89.50394l33.48819 -33.48819l116.71652 0l0 100.46457l-33.48819 33.48819l-116.71652 0zm0 0l116.71652 0l33.48819 -33.48819m-33.48819 33.48819l0 100.46457" fill-rule="evenodd"/><path fill="#cfe2f3" d="m274.96063 121.50394l116.71652 0l0 100.46457l-116.71652 0z" fill-rule="evenodd"/><path fill="#a5b4c2" d="m391.67715 121.50394l33.48819 -33.48819l0 100.46457l-33.48819 33.48819z" fill-rule="evenodd"/><path fill="#d8e7f5" d="m274.96063 121.50394l33.48819 -33.48819l116.71652 0l-33.48819 33.48819z" fill-rule="evenodd"/><path fill="#000000" fill-opacity="0.0" d="m274.96063 121.50394l33.48819 -33.48819l116.71652 0l0 100.46457l-33.48819 33.48819l-116.71652 0zm0 0l116.71652 0l33.48819 -33.48819m-33.48819 33.48819l0 100.46457" fill-rule="evenodd"/><path stroke="#000000" stroke-width="1.0" stroke-linejoin="round" stroke-linecap="butt" d="m274.96063 121.50394l33.48819 -33.48819l116.71652 0l0 100.46457l-33.48819 33.48819l-116.71652 0zm0 0l116.71652 0l33.48819 -33.48819m-33.48819 33.48819l0 100.46457" fill-rule="evenodd"/><path fill="#000000" fill-opacity="0.0" d="m935.6378 308.16272l-310.39374 0" fill-rule="evenodd"/><path stroke="#000000" stroke-width="1.0" stroke-linejoin="round" stroke-linecap="butt" d="m935.6378 308.16272l-304.39374 0" fill-rule="evenodd"/><path fill="#000000" stroke="#000000" stroke-width="1.0" stroke-linecap="butt" d="m631.2441 306.511l-4.538086 1.6517334l4.538086 1.6517334z" fill-rule="evenodd"/><path fill="#000000" fill-opacity="0.0" d="m936.72705 274.40158l-166.6142 0" fill-rule="evenodd"/><path stroke="#000000" stroke-width="1.0" stroke-linejoin="round" stroke-linecap="butt" d="m936.72705 274.40158l-160.6142 0" fill-rule="evenodd"/><path fill="#000000" stroke="#000000" stroke-width="1.0" stroke-linecap="butt" d="m776.11285 272.74985l-4.538086 1.6517334l4.538086 1.6517334z" fill-rule="evenodd"/><path fill="#000000" fill-opacity="0.0" d="m935.6378 221.03674l-253.7638 0" fill-rule="evenodd"/><path stroke="#000000" stroke-width="1.0" stroke-linejoin="round" stroke-linecap="butt" d="m935.6378 221.03674l-247.7638 0" fill-rule="evenodd"/><path fill="#000000" stroke="#000000" stroke-width="1.0" stroke-linecap="butt" d="m687.874 219.38501l-4.538086 1.6517334l4.538086 1.6517334z" fill-rule="evenodd"/><path fill="#000000" fill-opacity="0.0" d="m936.72705 246.08661l-91.49609 0" fill-rule="evenodd"/><path stroke="#000000" stroke-width="1.0" stroke-linejoin="round" stroke-linecap="butt" d="m936.72705 246.08661l-85.49609 0" fill-rule="evenodd"/><path fill="#000000" stroke="#000000" stroke-width="1.0" stroke-linecap="butt" d="m851.23096 244.43488l-4.538086 1.6517334l4.538086 1.6517334z" fill-rule="evenodd"/><path fill="#cfe2f3" fill-opacity="0.7039" d="m591.1155 68.47769l116.71655 0l0 100.46457l-116.71655 0z" fill-rule="evenodd"/><path fill="#a5b4c2" fill-opacity="0.7039" d="m707.83203 68.47769l33.48816 -33.48819l0 100.46457l-33.48816 33.48819z" fill-rule="evenodd"/><path fill="#d8e7f5" fill-opacity="0.7039" d="m591.1155 68.47769l33.48822 -33.48819l116.71649 0l-33.48816 33.48819z" fill-rule="evenodd"/><path fill="#000000" fill-opacity="0.0" d="m591.1155 68.47769l33.48822 -33.48819l116.71649 0l0 100.46457l-33.48816 33.48819l-116.71655 0zm0 0l116.71655 0l33.48816 -33.48819m-33.48816 33.48819l0 100.46457" fill-rule="evenodd"/><path stroke="#000000" stroke-width="1.0" stroke-linejoin="round" stroke-linecap="butt" d="m591.1155 68.47769l33.48822 -33.48819l116.71649 0l0 100.46457l-33.48816 33.48819l-116.71655 0zm0 0l116.71655 0l33.48816 -33.48819m-33.48816 33.48819l0 100.46457" fill-rule="evenodd"/><path fill="#ffffff" fill-opacity="0.7135" d="m559.1155 100.47769l116.71655 0l0 100.46457l-116.71655 0z" fill-rule="evenodd"/><path fill="#cbcbcb" fill-opacity="0.7135" d="m675.83203 100.47769l33.48816 -33.48819l0 100.46457l-33.48816 33.48819z" fill-rule="evenodd"/><path fill="#ffffff" fill-opacity="0.7135" d="m559.1155 100.47769l33.48822 -33.48819l116.71649 0l-33.48816 33.48819z" fill-rule="evenodd"/><path fill="#000000" fill-opacity="0.0" d="m559.1155 100.47769l33.48822 -33.48819l116.71649 0l0 100.46457l-33.48816 33.48819l-116.71655 0zm0 0l116.71655 0l33.48816 -33.48819m-33.48816 33.48819l0 100.46457" fill-rule="evenodd"/><path stroke="#000000" stroke-width="1.0" stroke-linejoin="round" stroke-linecap="butt" d="m559.1155 100.47769l33.48822 -33.48819l116.71649 0l0 100.46457l-33.48816 33.48819l-116.71655 0zm0 0l116.71655 0l33.48816 -33.48819m-33.48816 33.48819l0 100.46457" fill-rule="evenodd"/><path fill="#cfe2f3" fill-opacity="0.7039" d="m711.1155 68.47769l116.71655 0l0 100.46457l-116.71655 0z" fill-rule="evenodd"/><path fill="#a5b4c2" fill-opacity="0.7039" d="m827.83203 68.47769l33.48816 -33.48819l0 100.46457l-33.48816 33.48819z" fill-rule="evenodd"/><path fill="#d8e7f5" fill-opacity="0.7039" d="m711.1155 68.47769l33.48822 -33.48819l116.71649 0l-33.48816 33.48819z" fill-rule="evenodd"/><path fill="#000000" fill-opacity="0.0" d="m711.1155 68.47769l33.48822 -33.48819l116.71649 0l0 100.46457l-33.48816 33.48819l-116.71655 0zm0 0l116.71655 0l33.48816 -33.48819m-33.48816 33.48819l0 100.46457" fill-rule="evenodd"/><path stroke="#000000" stroke-width="1.0" stroke-linejoin="round" stroke-linecap="butt" d="m711.1155 68.47769l33.48822 -33.48819l116.71649 0l0 100.46457l-33.48816 33.48819l-116.71655 0zm0 0l116.71655 0l33.48816 -33.48819m-33.48816 33.48819l0 100.46457" fill-rule="evenodd"/><path fill="#cfe2f3" fill-opacity="0.7039" d="m679.1155 100.47769l116.71655 0l0 100.46457l-116.71655 0z" fill-rule="evenodd"/><path fill="#a5b4c2" fill-opacity="0.7039" d="m795.83203 100.47769l33.48816 -33.48819l0 100.46457l-33.48816 33.48819z" fill-rule="evenodd"/><path fill="#d8e7f5" fill-opacity="0.7039" d="m679.1155 100.47769l33.48822 -33.48819l116.71649 0l-33.48816 33.48819z" fill-rule="evenodd"/><path fill="#000000" fill-opacity="0.0" d="m679.1155 100.47769l33.48822 -33.48819l116.71649 0l0 100.46457l-33.48816 33.48819l-116.71655 0zm0 0l116.71655 0l33.48816 -33.48819m-33.48816 33.48819l0 100.46457" fill-rule="evenodd"/><path stroke="#000000" stroke-width="1.0" stroke-linejoin="round" stroke-linecap="butt" d="m679.1155 100.47769l33.48822 -33.48819l116.71649 0l0 100.46457l-33.48816 33.48819l-116.71655 0zm0 0l116.71655 0l33.48816 -33.48819m-33.48816 33.48819l0 100.46457" fill-rule="evenodd"/><path fill="#000000" fill-opacity="0.0" d="m935.6378 140.16273l-310.39374 0" fill-rule="evenodd"/><path stroke="#000000" stroke-width="1.0" stroke-linejoin="round" stroke-linecap="butt" d="m935.6378 140.16273l-304.39374 0" fill-rule="evenodd"/><path fill="#000000" stroke="#000000" stroke-width="1.0" stroke-linecap="butt" d="m631.2441 138.511l-4.538086 1.6517334l4.538086 1.6517334z" fill-rule="evenodd"/><path fill="#000000" fill-opacity="0.0" d="m936.72705 106.40157l-166.6142 0" fill-rule="evenodd"/><path stroke="#000000" stroke-width="1.0" stroke-linejoin="round" stroke-linecap="butt" d="m936.72705 106.40157l-160.6142 0" fill-rule="evenodd"/><path fill="#000000" stroke="#000000" stroke-width="1.0" stroke-linecap="butt" d="m776.11285 104.74984l-4.538086 1.6517334l4.538086 1.6517334z" fill-rule="evenodd"/><path fill="#000000" fill-opacity="0.0" d="m935.6378 53.036747l-253.7638 0" fill-rule="evenodd"/><path stroke="#000000" stroke-width="1.0" stroke-linejoin="round" stroke-linecap="butt" d="m935.6378 53.036747l-247.7638 0" fill-rule="evenodd"/><path fill="#000000" stroke="#000000" stroke-width="1.0" stroke-linecap="butt" d="m687.874 51.385014l-4.538086 1.6517334l4.538086 1.6517296z" fill-rule="evenodd"/><path fill="#000000" fill-opacity="0.0" d="m936.72705 78.08662l-91.49609 0" fill-rule="evenodd"/><path stroke="#000000" stroke-width="1.0" stroke-linejoin="round" stroke-linecap="butt" d="m936.72705 78.08662l-85.49609 0" fill-rule="evenodd"/><path fill="#000000" stroke="#000000" stroke-width="1.0" stroke-linecap="butt" d="m851.23096 76.43488l-4.538086 1.6517334l4.538086 1.6517334z" fill-rule="evenodd"/><path fill="#000000" fill-opacity="0.0" d="m935.6378 118.6273l91.49609 0l0 36.8189l-91.49609 0z" fill-rule="evenodd"/><path fill="#000000" d="m948.9972 149.46918q-1.359375 -1.703125 -2.296875 -4.0q-0.9375 -2.296875 -0.9375 -4.765625q0 -2.15625 0.703125 -4.140625q0.828125 -2.3125 2.53125 -4.59375l1.171875 0q-1.09375 1.890625 -1.453125 2.703125q-0.546875 1.25 -0.875 2.625q-0.390625 1.703125 -0.390625 3.421875q0 4.375 2.71875 8.75l-1.171875 0zm2.6345215 -10.515625q0 -2.359375 0.484375 -3.796875q0.484375 -1.453125 1.4375 -2.234375q0.96875 -0.78125 2.421875 -0.78125q1.078125 0 1.890625 0.4375q0.8125 0.421875 1.328125 1.25q0.53125 0.8125 0.828125 1.984375q0.3125 1.15625 0.3125 3.140625q0 2.359375 -0.484375 3.8125q-0.484375 1.4375 -1.453125 2.234375q-0.953125 0.78125 -2.421875 0.78125q-1.921875 0 -3.03125 -1.390625q-1.3125 -1.671875 -1.3125 -5.4375zm1.671875 0q0 3.296875 0.765625 4.390625q0.78125 1.078125 1.90625 1.078125q1.140625 0 1.90625 -1.09375q0.765625 -1.09375 0.765625 -4.375q0 -3.296875 -0.765625 -4.375q-0.765625 -1.078125 -1.921875 -1.078125q-1.125 0 -1.796875 0.953125q-0.859375 1.21875 -0.859375 4.5zm9.578857 6.59375l0 -1.875l1.875 0l0 1.875q0 1.03125 -0.375 1.65625q-0.359375 0.640625 -1.15625 0.984375l-0.453125 -0.703125q0.515625 -0.21875 0.765625 -0.671875q0.25 -0.4375 0.28125 -1.265625l-0.9375 0zm4.3082886 -6.59375q0 -2.359375 0.484375 -3.796875q0.484375 -1.453125 1.4375 -2.234375q0.96875 -0.78125 2.421875 -0.78125q1.078125 0 1.890625 0.4375q0.8125 0.421875 1.328125 1.25q0.53125 0.8125 0.828125 1.984375q0.3125 1.15625 0.3125 3.140625q0 2.359375 -0.484375 3.8125q-0.484375 1.4375 -1.453125 2.234375q-0.953125 0.78125 -2.421875 0.78125q-1.921875 0 -3.03125 -1.390625q-1.3125 -1.671875 -1.3125 -5.4375zm1.671875 0q0 3.296875 0.765625 4.390625q0.78125 1.078125 1.90625 1.078125q1.140625 0 1.90625 -1.09375q0.765625 -1.09375 0.765625 -4.375q0 -3.296875 -0.765625 -4.375q-0.765625 -1.078125 -1.921875 -1.078125q-1.125 0 -1.796875 0.953125q-0.859375 1.21875 -0.859375 4.5zm9.578857 6.59375l0 -1.875l1.875 0l0 1.875q0 1.03125 -0.375 1.65625q-0.359375 0.640625 -1.15625 0.984375l-0.453125 -0.703125q0.515625 -0.21875 0.765625 -0.671875q0.25 -0.4375 0.28125 -1.265625l-0.9375 0zm4.3082886 -6.59375q0 -2.359375 0.484375 -3.796875q0.484375 -1.453125 1.4375 -2.234375q0.96875 -0.78125 2.421875 -0.78125q1.078125 0 1.890625 0.4375q0.8125 0.421875 1.328125 1.25q0.53125 0.8125 0.828125 1.984375q0.3125 1.15625 0.3125 3.140625q0 2.359375 -0.484375 3.8125q-0.484375 1.4375 -1.453125 2.234375q-0.953125 0.78125 -2.421875 0.78125q-1.921875 0 -3.03125 -1.390625q-1.3125 -1.671875 -1.3125 -5.4375zm1.671875 0q0 3.296875 0.765625 4.390625q0.78125 1.078125 1.90625 1.078125q1.140625 0 1.90625 -1.09375q0.765625 -1.09375 0.765625 -4.375q0 -3.296875 -0.765625 -4.375q-0.765625 -1.078125 -1.921875 -1.078125q-1.125 0 -1.796875 0.953125q-0.859375 1.21875 -0.859375 4.5zm10.235107 10.515625l-1.1875 0q2.734375 -4.375 2.734375 -8.75q0 -1.71875 -0.390625 -3.390625q-0.3125 -1.375 -0.875 -2.625q-0.359375 -0.828125 -1.46875 -2.734375l1.1875 0q1.703125 2.28125 2.53125 4.59375q0.6875 1.984375 0.6875 4.140625q0 2.46875 -0.9375 4.765625q-0.9375 2.296875 -2.28125 4.0z" fill-rule="nonzero"/><path fill="#000000" fill-opacity="0.0" d="m935.6378 86.6273l91.49609 0l0 36.8189l-91.49609 0z" fill-rule="evenodd"/><path fill="#000000" d="m948.9972 117.46917q-1.359375 -1.703125 -2.296875 -4.0q-0.9375 -2.296875 -0.9375 -4.765625q0 -2.15625 0.703125 -4.140625q0.828125 -2.3125 2.53125 -4.59375l1.171875 0q-1.09375 1.890625 -1.453125 2.703125q-0.546875 1.25 -0.875 2.625q-0.390625 1.703125 -0.390625 3.421875q0 4.375 2.71875 8.75l-1.171875 0zm2.6345215 -10.515625q0 -2.359375 0.484375 -3.796875q0.484375 -1.453125 1.4375 -2.234375q0.96875 -0.78125 2.421875 -0.78125q1.078125 0 1.890625 0.4375q0.8125 0.421875 1.328125 1.25q0.53125 0.8125 0.828125 1.984375q0.3125 1.15625 0.3125 3.140625q0 2.359375 -0.484375 3.8125q-0.484375 1.4375 -1.453125 2.234375q-0.953125 0.78125 -2.421875 0.78125q-1.921875 0 -3.03125 -1.390625q-1.3125 -1.671875 -1.3125 -5.4375zm1.671875 0q0 3.296875 0.765625 4.390625q0.78125 1.078125 1.90625 1.078125q1.140625 0 1.90625 -1.09375q0.765625 -1.09375 0.765625 -4.375q0 -3.296875 -0.765625 -4.375q-0.765625 -1.078125 -1.921875 -1.078125q-1.125 0 -1.796875 0.953125q-0.859375 1.21875 -0.859375 4.5zm9.578857 6.59375l0 -1.875l1.875 0l0 1.875q0 1.03125 -0.375 1.65625q-0.359375 0.640625 -1.15625 0.984375l-0.453125 -0.703125q0.515625 -0.21875 0.765625 -0.671875q0.25 -0.4375 0.28125 -1.265625l-0.9375 0zm10.480164 0l-1.640625 0l0 -10.453125q-0.59375 0.5625 -1.5625 1.140625q-0.953125 0.5625 -1.71875 0.84375l0 -1.59375q1.375 -0.640625 2.40625 -1.5625q1.03125 -0.921875 1.453125 -1.78125l1.0625 0l0 13.40625zm5.0788574 0l0 -1.875l1.875 0l0 1.875q0 1.03125 -0.375 1.65625q-0.359375 0.640625 -1.15625 0.984375l-0.453125 -0.703125q0.515625 -0.21875 0.765625 -0.671875q0.25 -0.4375 0.28125 -1.265625l-0.9375 0zm4.3082886 -6.59375q0 -2.359375 0.484375 -3.796875q0.484375 -1.453125 1.4375 -2.234375q0.96875 -0.78125 2.421875 -0.78125q1.078125 0 1.890625 0.4375q0.8125 0.421875 1.328125 1.25q0.53125 0.8125 0.828125 1.984375q0.3125 1.15625 0.3125 3.140625q0 2.359375 -0.484375 3.8125q-0.484375 1.4375 -1.453125 2.234375q-0.953125 0.78125 -2.421875 0.78125q-1.921875 0 -3.03125 -1.390625q-1.3125 -1.671875 -1.3125 -5.4375zm1.671875 0q0 3.296875 0.765625 4.390625q0.78125 1.078125 1.90625 1.078125q1.140625 0 1.90625 -1.09375q0.765625 -1.09375 0.765625 -4.375q0 -3.296875 -0.765625 -4.375q-0.765625 -1.078125 -1.921875 -1.078125q-1.125 0 -1.796875 0.953125q-0.859375 1.21875 -0.859375 4.5zm10.235107 10.515625l-1.1875 0q2.734375 -4.375 2.734375 -8.75q0 -1.71875 -0.390625 -3.390625q-0.3125 -1.375 -0.875 -2.625q-0.359375 -0.828125 -1.46875 -2.734375l1.1875 0q1.703125 2.28125 2.53125 4.59375q0.6875 1.984375 0.6875 4.140625q0 2.46875 -0.9375 4.765625q-0.9375 2.296875 -2.28125 4.0z" fill-rule="nonzero"/><path fill="#000000" fill-opacity="0.0" d="m935.6378 54.627296l91.49609 0l0 36.8189l-91.49609 0z" fill-rule="evenodd"/><path fill="#000000" d="m948.9972 85.46917q-1.359375 -1.703125 -2.296875 -4.0q-0.9375 -2.296875 -0.9375 -4.765625q0 -2.15625 0.703125 -4.140625q0.828125 -2.3125 2.53125 -4.59375l1.171875 0q-1.09375 1.890625 -1.453125 2.703125q-0.546875 1.25 -0.875 2.625q-0.390625 1.703125 -0.390625 3.421875q0 4.375 2.71875 8.75l-1.171875 0zm2.6345215 -10.515625q0 -2.359375 0.484375 -3.796875q0.484375 -1.453125 1.4375 -2.234375q0.96875 -0.78125 2.421875 -0.78125q1.078125 0 1.890625 0.4375q0.8125 0.421875 1.328125 1.25q0.53125 0.8125 0.828125 1.984375q0.3125 1.15625 0.3125 3.140625q0 2.359375 -0.484375 3.8125q-0.484375 1.4375 -1.453125 2.234375q-0.953125 0.78125 -2.421875 0.78125q-1.921875 0 -3.03125 -1.390625q-1.3125 -1.671875 -1.3125 -5.4375zm1.671875 0q0 3.296875 0.765625 4.390625q0.78125 1.078125 1.90625 1.078125q1.140625 0 1.90625 -1.09375q0.765625 -1.09375 0.765625 -4.375q0 -3.296875 -0.765625 -4.375q-0.765625 -1.078125 -1.921875 -1.078125q-1.125 0 -1.796875 0.953125q-0.859375 1.21875 -0.859375 4.5zm9.578857 6.59375l0 -1.875l1.875 0l0 1.875q0 1.03125 -0.375 1.65625q-0.359375 0.640625 -1.15625 0.984375l-0.453125 -0.703125q0.515625 -0.21875 0.765625 -0.671875q0.25 -0.4375 0.28125 -1.265625l-0.9375 0zm10.480164 0l-1.640625 0l0 -10.453125q-0.59375 0.5625 -1.5625 1.140625q-0.953125 0.5625 -1.71875 0.84375l0 -1.59375q1.375 -0.640625 2.40625 -1.5625q1.03125 -0.921875 1.453125 -1.78125l1.0625 0l0 13.40625zm5.0788574 0l0 -1.875l1.875 0l0 1.875q0 1.03125 -0.375 1.65625q-0.359375 0.640625 -1.15625 0.984375l-0.453125 -0.703125q0.515625 -0.21875 0.765625 -0.671875q0.25 -0.4375 0.28125 -1.265625l-0.9375 0zm10.480164 0l-1.640625 0l0 -10.453125q-0.59375 0.5625 -1.5625 1.140625q-0.953125 0.5625 -1.71875 0.84375l0 -1.59375q1.375 -0.640625 2.40625 -1.5625q1.03125 -0.921875 1.453125 -1.78125l1.0625 0l0 13.40625zm5.7351074 3.921875l-1.1875 0q2.734375 -4.375 2.734375 -8.75q0 -1.71875 -0.390625 -3.390625q-0.3125 -1.375 -0.875 -2.625q-0.359375 -0.828125 -1.46875 -2.734375l1.1875 0q1.703125 2.28125 2.53125 4.59375q0.6875 1.984375 0.6875 4.140625q0 2.46875 -0.9375 4.765625q-0.9375 2.296875 -2.28125 4.0z" fill-rule="nonzero"/><path fill="#000000" fill-opacity="0.0" d="m935.6378 30.627296l91.49609 0l0 36.8189l-91.49609 0z" fill-rule="evenodd"/><path fill="#000000" d="m948.9972 61.46917q-1.359375 -1.703125 -2.296875 -4.0q-0.9375 -2.296875 -0.9375 -4.765625q0 -2.15625 0.703125 -4.140625q0.828125 -2.3125 2.53125 -4.59375l1.171875 0q-1.09375 1.890625 -1.453125 2.703125q-0.546875 1.25 -0.875 2.625q-0.390625 1.703125 -0.390625 3.421875q0 4.375 2.71875 8.75l-1.171875 0zm2.6345215 -10.515625q0 -2.359375 0.484375 -3.796875q0.484375 -1.453125 1.4375 -2.234375q0.96875 -0.78125 2.421875 -0.78125q1.078125 0 1.890625 0.4375q0.8125 0.421875 1.328125 1.25q0.53125 0.8125 0.828125 1.984375q0.3125 1.15625 0.3125 3.140625q0 2.359375 -0.484375 3.8125q-0.484375 1.4375 -1.453125 2.234375q-0.953125 0.78125 -2.421875 0.78125q-1.921875 0 -3.03125 -1.390625q-1.3125 -1.671875 -1.3125 -5.4375zm1.671875 0q0 3.296875 0.765625 4.390625q0.78125 1.078125 1.90625 1.078125q1.140625 0 1.90625 -1.09375q0.765625 -1.09375 0.765625 -4.375q0 -3.296875 -0.765625 -4.375q-0.765625 -1.078125 -1.921875 -1.078125q-1.125 0 -1.796875 0.953125q-0.859375 1.21875 -0.859375 4.5zm9.578857 6.59375l0 -1.875l1.875 0l0 1.875q0 1.03125 -0.375 1.65625q-0.359375 0.640625 -1.15625 0.984375l-0.453125 -0.703125q0.515625 -0.21875 0.765625 -0.671875q0.25 -0.4375 0.28125 -1.265625l-0.9375 0zm4.3082886 -6.59375q0 -2.359375 0.484375 -3.796875q0.484375 -1.453125 1.4375 -2.234375q0.96875 -0.78125 2.421875 -0.78125q1.078125 0 1.890625 0.4375q0.8125 0.421875 1.328125 1.25q0.53125 0.8125 0.828125 1.984375q0.3125 1.15625 0.3125 3.140625q0 2.359375 -0.484375 3.8125q-0.484375 1.4375 -1.453125 2.234375q-0.953125 0.78125 -2.421875 0.78125q-1.921875 0 -3.03125 -1.390625q-1.3125 -1.671875 -1.3125 -5.4375zm1.671875 0q0 3.296875 0.765625 4.390625q0.78125 1.078125 1.90625 1.078125q1.140625 0 1.90625 -1.09375q0.765625 -1.09375 0.765625 -4.375q0 -3.296875 -0.765625 -4.375q-0.765625 -1.078125 -1.921875 -1.078125q-1.125 0 -1.796875 0.953125q-0.859375 1.21875 -0.859375 4.5zm9.578857 6.59375l0 -1.875l1.875 0l0 1.875q0 1.03125 -0.375 1.65625q-0.359375 0.640625 -1.15625 0.984375l-0.453125 -0.703125q0.515625 -0.21875 0.765625 -0.671875q0.25 -0.4375 0.28125 -1.265625l-0.9375 0zm10.480164 0l-1.640625 0l0 -10.453125q-0.59375 0.5625 -1.5625 1.140625q-0.953125 0.5625 -1.71875 0.84375l0 -1.59375q1.375 -0.640625 2.40625 -1.5625q1.03125 -0.921875 1.453125 -1.78125l1.0625 0l0 13.40625zm5.7351074 3.921875l-1.1875 0q2.734375 -4.375 2.734375 -8.75q0 -1.71875 -0.390625 -3.390625q-0.3125 -1.375 -0.875 -2.625q-0.359375 -0.828125 -1.46875 -2.734375l1.1875 0q1.703125 2.28125 2.53125 4.59375q0.6875 1.984375 0.6875 4.140625q0 2.46875 -0.9375 4.765625q-0.9375 2.296875 -2.28125 4.0z" fill-rule="nonzero"/><path fill="#000000" fill-opacity="0.0" d="m935.6378 286.6273l91.49609 0l0 36.81891l-91.49609 0z" fill-rule="evenodd"/><path fill="#000000" d="m948.9972 317.46918q-1.359375 -1.703125 -2.296875 -4.0q-0.9375 -2.296875 -0.9375 -4.765625q0 -2.15625 0.703125 -4.140625q0.828125 -2.3125 2.53125 -4.59375l1.171875 0q-1.09375 1.890625 -1.453125 2.703125q-0.546875 1.25 -0.875 2.625q-0.390625 1.703125 -0.390625 3.421875q0 4.375 2.71875 8.75l-1.171875 0zm8.8063965 -3.921875l-1.640625 0l0 -10.453125q-0.59375 0.5625 -1.5625 1.140625q-0.953125 0.5625 -1.71875 0.84375l0 -1.59375q1.375 -0.640625 2.40625 -1.5625q1.03125 -0.921875 1.453125 -1.78125l1.0625 0l0 13.40625zm5.0788574 0l0 -1.875l1.875 0l0 1.875q0 1.03125 -0.375 1.65625q-0.359375 0.640625 -1.15625 0.984375l-0.453125 -0.703125q0.515625 -0.21875 0.765625 -0.671875q0.25 -0.4375 0.28125 -1.265625l-0.9375 0zm4.3082886 -6.59375q0 -2.359375 0.484375 -3.796875q0.484375 -1.453125 1.4375 -2.234375q0.96875 -0.78125 2.421875 -0.78125q1.078125 0 1.890625 0.4375q0.8125 0.421875 1.328125 1.25q0.53125 0.8125 0.828125 1.984375q0.3125 1.15625 0.3125 3.140625q0 2.359375 -0.484375 3.8125q-0.484375 1.4375 -1.453125 2.234375q-0.953125 0.78125 -2.421875 0.78125q-1.921875 0 -3.03125 -1.390625q-1.3125 -1.671875 -1.3125 -5.4375zm1.671875 0q0 3.296875 0.765625 4.390625q0.78125 1.078125 1.90625 1.078125q1.140625 0 1.90625 -1.09375q0.765625 -1.09375 0.765625 -4.375q0 -3.296875 -0.765625 -4.375q-0.765625 -1.078125 -1.921875 -1.078125q-1.125 0 -1.796875 0.953125q-0.859375 1.21875 -0.859375 4.5zm9.578857 6.59375l0 -1.875l1.875 0l0 1.875q0 1.03125 -0.375 1.65625q-0.359375 0.640625 -1.15625 0.984375l-0.453125 -0.703125q0.515625 -0.21875 0.765625 -0.671875q0.25 -0.4375 0.28125 -1.265625l-0.9375 0zm4.3082886 -6.59375q0 -2.359375 0.484375 -3.796875q0.484375 -1.453125 1.4375 -2.234375q0.96875 -0.78125 2.421875 -0.78125q1.078125 0 1.890625 0.4375q0.8125 0.421875 1.328125 1.25q0.53125 0.8125 0.828125 1.984375q0.3125 1.15625 0.3125 3.140625q0 2.359375 -0.484375 3.8125q-0.484375 1.4375 -1.453125 2.234375q-0.953125 0.78125 -2.421875 0.78125q-1.921875 0 -3.03125 -1.390625q-1.3125 -1.671875 -1.3125 -5.4375zm1.671875 0q0 3.296875 0.765625 4.390625q0.78125 1.078125 1.90625 1.078125q1.140625 0 1.90625 -1.09375q0.765625 -1.09375 0.765625 -4.375q0 -3.296875 -0.765625 -4.375q-0.765625 -1.078125 -1.921875 -1.078125q-1.125 0 -1.796875 0.953125q-0.859375 1.21875 -0.859375 4.5zm10.235107 10.515625l-1.1875 0q2.734375 -4.375 2.734375 -8.75q0 -1.71875 -0.390625 -3.390625q-0.3125 -1.375 -0.875 -2.625q-0.359375 -0.828125 -1.46875 -2.734375l1.1875 0q1.703125 2.28125 2.53125 4.59375q0.6875 1.984375 0.6875 4.140625q0 2.46875 -0.9375 4.765625q-0.9375 2.296875 -2.28125 4.0z" fill-rule="nonzero"/><path fill="#000000" fill-opacity="0.0" d="m935.6378 254.6273l91.49609 0l0 36.818893l-91.49609 0z" fill-rule="evenodd"/><path fill="#000000" d="m948.9972 285.46918q-1.359375 -1.703125 -2.296875 -4.0q-0.9375 -2.296875 -0.9375 -4.765625q0 -2.15625 0.703125 -4.140625q0.828125 -2.3125 2.53125 -4.59375l1.171875 0q-1.09375 1.890625 -1.453125 2.703125q-0.546875 1.25 -0.875 2.625q-0.390625 1.703125 -0.390625 3.421875q0 4.375 2.71875 8.75l-1.171875 0zm8.8063965 -3.921875l-1.640625 0l0 -10.453125q-0.59375 0.5625 -1.5625 1.140625q-0.953125 0.5625 -1.71875 0.84375l0 -1.59375q1.375 -0.640625 2.40625 -1.5625q1.03125 -0.921875 1.453125 -1.78125l1.0625 0l0 13.40625zm5.0788574 0l0 -1.875l1.875 0l0 1.875q0 1.03125 -0.375 1.65625q-0.359375 0.640625 -1.15625 0.984375l-0.453125 -0.703125q0.515625 -0.21875 0.765625 -0.671875q0.25 -0.4375 0.28125 -1.265625l-0.9375 0zm10.480164 0l-1.640625 0l0 -10.453125q-0.59375 0.5625 -1.5625 1.140625q-0.953125 0.5625 -1.71875 0.84375l0 -1.59375q1.375 -0.640625 2.40625 -1.5625q1.03125 -0.921875 1.453125 -1.78125l1.0625 0l0 13.40625zm5.0788574 0l0 -1.875l1.875 0l0 1.875q0 1.03125 -0.375 1.65625q-0.359375 0.640625 -1.15625 0.984375l-0.453125 -0.703125q0.515625 -0.21875 0.765625 -0.671875q0.25 -0.4375 0.28125 -1.265625l-0.9375 0zm4.3082886 -6.59375q0 -2.359375 0.484375 -3.796875q0.484375 -1.453125 1.4375 -2.234375q0.96875 -0.78125 2.421875 -0.78125q1.078125 0 1.890625 0.4375q0.8125 0.421875 1.328125 1.25q0.53125 0.8125 0.828125 1.984375q0.3125 1.15625 0.3125 3.140625q0 2.359375 -0.484375 3.8125q-0.484375 1.4375 -1.453125 2.234375q-0.953125 0.78125 -2.421875 0.78125q-1.921875 0 -3.03125 -1.390625q-1.3125 -1.671875 -1.3125 -5.4375zm1.671875 0q0 3.296875 0.765625 4.390625q0.78125 1.078125 1.90625 1.078125q1.140625 0 1.90625 -1.09375q0.765625 -1.09375 0.765625 -4.375q0 -3.296875 -0.765625 -4.375q-0.765625 -1.078125 -1.921875 -1.078125q-1.125 0 -1.796875 0.953125q-0.859375 1.21875 -0.859375 4.5zm10.235107 10.515625l-1.1875 0q2.734375 -4.375 2.734375 -8.75q0 -1.71875 -0.390625 -3.390625q-0.3125 -1.375 -0.875 -2.625q-0.359375 -0.828125 -1.46875 -2.734375l1.1875 0q1.703125 2.28125 2.53125 4.59375q0.6875 1.984375 0.6875 4.140625q0 2.46875 -0.9375 4.765625q-0.9375 2.296875 -2.28125 4.0z" fill-rule="nonzero"/><path fill="#000000" fill-opacity="0.0" d="m935.6378 222.6273l91.49609 0l0 36.818893l-91.49609 0z" fill-rule="evenodd"/><path fill="#000000" d="m948.9972 253.46918q-1.359375 -1.703125 -2.296875 -4.0q-0.9375 -2.296875 -0.9375 -4.765625q0 -2.15625 0.703125 -4.140625q0.828125 -2.3125 2.53125 -4.59375l1.171875 0q-1.09375 1.890625 -1.453125 2.703125q-0.546875 1.25 -0.875 2.625q-0.390625 1.703125 -0.390625 3.421875q0 4.375 2.71875 8.75l-1.171875 0zm8.8063965 -3.921875l-1.640625 0l0 -10.453125q-0.59375 0.5625 -1.5625 1.140625q-0.953125 0.5625 -1.71875 0.84375l0 -1.59375q1.375 -0.640625 2.40625 -1.5625q1.03125 -0.921875 1.453125 -1.78125l1.0625 0l0 13.40625zm5.0788574 0l0 -1.875l1.875 0l0 1.875q0 1.03125 -0.375 1.65625q-0.359375 0.640625 -1.15625 0.984375l-0.453125 -0.703125q0.515625 -0.21875 0.765625 -0.671875q0.25 -0.4375 0.28125 -1.265625l-0.9375 0zm10.480164 0l-1.640625 0l0 -10.453125q-0.59375 0.5625 -1.5625 1.140625q-0.953125 0.5625 -1.71875 0.84375l0 -1.59375q1.375 -0.640625 2.40625 -1.5625q1.03125 -0.921875 1.453125 -1.78125l1.0625 0l0 13.40625zm5.0788574 0l0 -1.875l1.875 0l0 1.875q0 1.03125 -0.375 1.65625q-0.359375 0.640625 -1.15625 0.984375l-0.453125 -0.703125q0.515625 -0.21875 0.765625 -0.671875q0.25 -0.4375 0.28125 -1.265625l-0.9375 0zm10.480164 0l-1.640625 0l0 -10.453125q-0.59375 0.5625 -1.5625 1.140625q-0.953125 0.5625 -1.71875 0.84375l0 -1.59375q1.375 -0.640625 2.40625 -1.5625q1.03125 -0.921875 1.453125 -1.78125l1.0625 0l0 13.40625zm5.7351074 3.921875l-1.1875 0q2.734375 -4.375 2.734375 -8.75q0 -1.71875 -0.390625 -3.390625q-0.3125 -1.375 -0.875 -2.625q-0.359375 -0.828125 -1.46875 -2.734375l1.1875 0q1.703125 2.28125 2.53125 4.59375q0.6875 1.984375 0.6875 4.140625q0 2.46875 -0.9375 4.765625q-0.9375 2.296875 -2.28125 4.0z" fill-rule="nonzero"/><path fill="#000000" fill-opacity="0.0" d="m935.6378 198.6273l91.49609 0l0 36.818893l-91.49609 0z" fill-rule="evenodd"/><path fill="#000000" d="m948.9972 229.46918q-1.359375 -1.703125 -2.296875 -4.0q-0.9375 -2.296875 -0.9375 -4.765625q0 -2.15625 0.703125 -4.140625q0.828125 -2.3125 2.53125 -4.59375l1.171875 0q-1.09375 1.890625 -1.453125 2.703125q-0.546875 1.25 -0.875 2.625q-0.390625 1.703125 -0.390625 3.421875q0 4.375 2.71875 8.75l-1.171875 0zm8.8063965 -3.921875l-1.640625 0l0 -10.453125q-0.59375 0.5625 -1.5625 1.140625q-0.953125 0.5625 -1.71875 0.84375l0 -1.59375q1.375 -0.640625 2.40625 -1.5625q1.03125 -0.921875 1.453125 -1.78125l1.0625 0l0 13.40625zm5.0788574 0l0 -1.875l1.875 0l0 1.875q0 1.03125 -0.375 1.65625q-0.359375 0.640625 -1.15625 0.984375l-0.453125 -0.703125q0.515625 -0.21875 0.765625 -0.671875q0.25 -0.4375 0.28125 -1.265625l-0.9375 0zm4.3082886 -6.59375q0 -2.359375 0.484375 -3.796875q0.484375 -1.453125 1.4375 -2.234375q0.96875 -0.78125 2.421875 -0.78125q1.078125 0 1.890625 0.4375q0.8125 0.421875 1.328125 1.25q0.53125 0.8125 0.828125 1.984375q0.3125 1.15625 0.3125 3.140625q0 2.359375 -0.484375 3.8125q-0.484375 1.4375 -1.453125 2.234375q-0.953125 0.78125 -2.421875 0.78125q-1.921875 0 -3.03125 -1.390625q-1.3125 -1.671875 -1.3125 -5.4375zm1.671875 0q0 3.296875 0.765625 4.390625q0.78125 1.078125 1.90625 1.078125q1.140625 0 1.90625 -1.09375q0.765625 -1.09375 0.765625 -4.375q0 -3.296875 -0.765625 -4.375q-0.765625 -1.078125 -1.921875 -1.078125q-1.125 0 -1.796875 0.953125q-0.859375 1.21875 -0.859375 4.5zm9.578857 6.59375l0 -1.875l1.875 0l0 1.875q0 1.03125 -0.375 1.65625q-0.359375 0.640625 -1.15625 0.984375l-0.453125 -0.703125q0.515625 -0.21875 0.765625 -0.671875q0.25 -0.4375 0.28125 -1.265625l-0.9375 0zm10.480164 0l-1.640625 0l0 -10.453125q-0.59375 0.5625 -1.5625 1.140625q-0.953125 0.5625 -1.71875 0.84375l0 -1.59375q1.375 -0.640625 2.40625 -1.5625q1.03125 -0.921875 1.453125 -1.78125l1.0625 0l0 13.40625zm5.7351074 3.921875l-1.1875 0q2.734375 -4.375 2.734375 -8.75q0 -1.71875 -0.390625 -3.390625q-0.3125 -1.375 -0.875 -2.625q-0.359375 -0.828125 -1.46875 -2.734375l1.1875 0q1.703125 2.28125 2.53125 4.59375q0.6875 1.984375 0.6875 4.140625q0 2.46875 -0.9375 4.765625q-0.9375 2.296875 -2.28125 4.0z" fill-rule="nonzero"/><path fill="#000000" fill-opacity="0.0" d="m463.76642 256.6404l-64.47244 64.47244" fill-rule="evenodd"/><path stroke="#000000" stroke-width="1.0" stroke-linejoin="round" stroke-linecap="butt" d="m459.52374 260.88306l-55.98712 55.987152" fill-rule="evenodd"/><path fill="#000000" stroke="#000000" stroke-width="1.0" stroke-linecap="butt" d="m460.6917 262.05103l2.040985 -4.376892l-4.376892 2.040985z" fill-rule="evenodd"/><path fill="#000000" stroke="#000000" stroke-width="1.0" stroke-linecap="butt" d="m402.36865 315.70227l-2.0409546 4.3768616l4.3768616 -2.0409546z" fill-rule="evenodd"/><path fill="#000000" fill-opacity="0.0" d="m431.7379 277.0761l64.47244 0l0 36.81891l-64.47244 0z" fill-rule="evenodd"/><path fill="#000000" d="m453.5973 303.99612l-6.046875 0l0 -0.46875q0.75 0 1.109375 -0.140625q0.375 -0.140625 0.375 -0.578125q0 -0.703125 -3.015625 -7.75q-2.859375 7.265625 -2.859375 7.671875q0 0.796875 1.53125 0.796875l0 0.46875l-3.78125 0l0 -0.46875q0.40625 -0.046875 0.703125 -0.265625q0.3125 -0.234375 0.484375 -0.53125q0.1875 -0.3125 0.359375 -0.671875q0.171875 -0.375 0.28125 -0.71875l4.140625 -10.21875l0.515625 0l4.171875 9.8125q0.59375 1.421875 0.984375 1.984375q0.40625 0.5625 1.046875 0.609375l0 0.46875z" fill-rule="nonzero"/><path fill="#000000" d="m455.03586 310.99612l0 -8.90625l1.09375 0l0 5.078125l2.578125 -2.625l1.421875 0l-2.46875 2.390625l2.71875 4.0625l-1.34375 0l-2.140625 -3.296875l-0.765625 0.734375l0 2.5625l-1.09375 0z" fill-rule="nonzero"/><path fill="#000000" d="m464.78577 307.918q-1.359375 -1.703125 -2.296875 -4.0q-0.9375 -2.296875 -0.9375 -4.765625q0 -2.15625 0.703125 -4.140625q0.828125 -2.3125 2.53125 -4.59375l1.171875 0q-1.09375 1.890625 -1.453125 2.703125q-0.546875 1.25 -0.875 2.625q-0.390625 1.703125 -0.390625 3.421875q0 4.375 2.71875 8.75l-1.171875 0zm1.993927 -3.921875l3.53125 -5.03125l-3.265625 -4.640625l2.046875 0l1.484375 2.265625q0.421875 0.640625 0.671875 1.078125q0.40625 -0.59375 0.734375 -1.0625l1.640625 -2.28125l1.953125 0l-3.34375 4.546875l3.59375 5.125l-2.015625 0l-1.984375 -3.0l-0.515625 -0.8125l-2.546875 3.8125l-1.984375 0zm11.5 3.921875l-1.1875 0q2.734375 -4.375 2.734375 -8.75q0 -1.71875 -0.390625 -3.390625q-0.3125 -1.375 -0.875 -2.625q-0.359375 -0.828125 -1.46875 -2.734375l1.1875 0q1.703125 2.28125 2.53125 4.59375q0.6875 1.984375 0.6875 4.140625q0 2.46875 -0.9375 4.765625q-0.9375 2.296875 -2.28125 4.0z" fill-rule="nonzero"/><path fill="#000000" fill-opacity="0.0" d="m232.10236 45.750656l111.08661 0" fill-rule="evenodd"/><path stroke="#000000" stroke-width="1.0" stroke-linejoin="round" stroke-linecap="butt" d="m238.10236 45.750656l99.08661 0" fill-rule="evenodd"/><path fill="#000000" stroke="#000000" stroke-width="1.0" stroke-linecap="butt" d="m238.10236 44.098923l-4.538086 1.6517334l4.538086 1.6517334z" fill-rule="evenodd"/><path fill="#000000" stroke="#000000" stroke-width="1.0" stroke-linecap="butt" d="m337.18896 47.40239l4.5381165 -1.6517334l-4.5381165 -1.6517334z" fill-rule="evenodd"/><path fill="#000000" fill-opacity="0.0" d="m241.89633 0.21784776l91.49606 0l0 36.8189l-91.49606 0z" fill-rule="evenodd"/><path fill="#000000" d="m269.0053 20.637846q0 -3.34375 1.796875 -5.21875q1.796875 -1.875 4.59375 -1.875q2.8125 0 4.59375 1.90625q1.78125 1.90625 1.78125 5.03125q0 3.09375 -1.796875 5.0q-1.78125 1.890625 -4.578125 1.890625q-2.015625 0 -3.53125 -1.0q-1.515625 -1.015625 -2.1875 -2.59375q-0.671875 -1.59375 -0.671875 -3.140625zm1.828125 0.015625q0 2.296875 1.234375 3.75q1.234375 1.453125 3.3125 1.453125q2.046875 0 3.3125 -1.4375q1.265625 -1.4375 1.265625 -3.953125q0 -2.546875 -1.28125 -3.96875q-1.265625 -1.421875 -3.265625 -1.421875q-1.96875 0 -3.28125 1.34375q-1.296875 1.328125 -1.296875 4.234375zm1.921875 0.59375l0 -1.5625l5.28125 0l0 1.5625l-5.28125 0z" fill-rule="nonzero"/><path fill="#000000" d="m283.45425 26.497221l0 -1.265625l1.09375 0l0 1.265625l-1.09375 0zm-1.390625 10.140623l0.21875 -0.921875q0.328125 0.078125 0.515625 0.078125q0.328125 0 0.484375 -0.21875q0.171875 -0.21875 0.171875 -1.109375l0 -6.781248l1.09375 0l0 6.812498q0 1.1875 -0.3125 1.65625q-0.390625 0.609375 -1.3125 0.609375q-0.4375 0 -0.859375 -0.125z" fill-rule="nonzero"/><path fill="#000000" d="m289.76428 31.059721q-1.359375 -1.703125 -2.296875 -4.0q-0.9375 -2.296875 -0.9375 -4.765625q0 -2.15625 0.703125 -4.140625q0.828125 -2.3125 2.53125 -4.59375l1.171875 0q-1.09375 1.890625 -1.453125 2.703125q-0.546875 1.25 -0.875 2.625q-0.390625 1.703125 -0.390625 3.421875q0 4.375 2.71875 8.75l-1.171875 0zm1.993927 -3.921875l3.53125 -5.03125l-3.265625 -4.640625l2.046875 0l1.484375 2.265625q0.421875 0.640625 0.671875 1.078125q0.40625 -0.59375 0.734375 -1.0625l1.640625 -2.28125l1.953125 0l-3.34375 4.546875l3.59375 5.125l-2.015625 0l-1.984375 -3.0l-0.515625 -0.8125l-2.546875 3.8125l-1.984375 0zm11.5 3.921875l-1.1875 0q2.734375 -4.375 2.734375 -8.75q0 -1.71875 -0.390625 -3.390625q-0.3125 -1.375 -0.875 -2.625q-0.359375 -0.828125 -1.46875 -2.734375l1.1875 0q1.703125 2.28125 2.53125 4.59375q0.6875 1.984375 0.6875 4.140625q0 2.46875 -0.9375 4.765625q-0.9375 2.296875 -2.28125 4.0z" fill-rule="nonzero"/><path fill="#000000" fill-opacity="0.0" d="m344.10236 45.750656l111.08661 0" fill-rule="evenodd"/><path stroke="#000000" stroke-width="1.0" stroke-linejoin="round" stroke-linecap="butt" d="m350.10236 45.750656l99.08661 0" fill-rule="evenodd"/><path fill="#000000" stroke="#000000" stroke-width="1.0" stroke-linecap="butt" d="m350.10236 44.098923l-4.538086 1.6517334l4.538086 1.6517334z" fill-rule="evenodd"/><path fill="#000000" stroke="#000000" stroke-width="1.0" stroke-linecap="butt" d="m449.18896 47.40239l4.5381165 -1.6517334l-4.5381165 -1.6517334z" fill-rule="evenodd"/><path fill="#000000" fill-opacity="0.0" d="m353.89633 0.21784776l91.49606 0l0 36.8189l-91.49606 0z" fill-rule="evenodd"/><path fill="#000000" d="m381.30334 25.559721l2.90625 0q-2.765625 -2.3125 -2.765625 -5.640625q0 -1.8125 0.71875 -3.25q0.734375 -1.453125 2.0625 -2.28125q1.328125 -0.828125 3.203125 -0.828125q1.84375 0 3.078125 0.765625q1.234375 0.765625 2.03125 2.203125q0.796875 1.421875 0.796875 3.390625q0 3.328125 -2.765625 5.640625l2.921875 0l0 1.578125l-5.203125 0l0 -1.46875q3.25 -1.515625 3.25 -5.484375q0 -2.234375 -1.140625 -3.671875q-1.140625 -1.4375 -2.984375 -1.4375q-1.875 0 -3.015625 1.453125q-1.125 1.4375 -1.125 3.5625q0 4.015625 3.21875 5.578125l0 1.46875l-5.1875 0l0 -1.578125z" fill-rule="nonzero"/><path fill="#000000" d="m395.17184 26.497221l0 -1.265625l1.09375 0l0 1.265625l-1.09375 0zm-1.390625 10.140623l0.21875 -0.921875q0.328125 0.078125 0.515625 0.078125q0.328125 0 0.484375 -0.21875q0.171875 -0.21875 0.171875 -1.109375l0 -6.781248l1.09375 0l0 6.812498q0 1.1875 -0.3125 1.65625q-0.390625 0.609375 -1.3125 0.609375q-0.4375 0 -0.859375 -0.125z" fill-rule="nonzero"/><path fill="#000000" d="m401.4819 31.059721q-1.359375 -1.703125 -2.296875 -4.0q-0.9375 -2.296875 -0.9375 -4.765625q0 -2.15625 0.703125 -4.140625q0.828125 -2.3125 2.53125 -4.59375l1.171875 0q-1.09375 1.890625 -1.453125 2.703125q-0.546875 1.25 -0.875 2.625q-0.390625 1.703125 -0.390625 3.421875q0 4.375 2.71875 8.75l-1.171875 0zm1.993927 -3.921875l3.53125 -5.03125l-3.265625 -4.640625l2.046875 0l1.484375 2.265625q0.421875 0.640625 0.671875 1.078125q0.40625 -0.59375 0.734375 -1.0625l1.640625 -2.28125l1.953125 0l-3.34375 4.546875l3.59375 5.125l-2.015625 0l-1.984375 -3.0l-0.515625 -0.8125l-2.546875 3.8125l-1.984375 0zm11.5 3.921875l-1.1875 0q2.734375 -4.375 2.734375 -8.75q0 -1.71875 -0.390625 -3.390625q-0.3125 -1.375 -0.875 -2.625q-0.359375 -0.828125 -1.46875 -2.734375l1.1875 0q1.703125 2.28125 2.53125 4.59375q0.6875 1.984375 0.6875 4.140625q0 2.46875 -0.9375 4.765625q-0.9375 2.296875 -2.28125 4.0z" fill-rule="nonzero"/><path fill="#000000" fill-opacity="0.0" d="m189.72966 84.96719l-35.149612 35.11811" fill-rule="evenodd"/><path stroke="#000000" stroke-width="1.0" stroke-linejoin="round" stroke-linecap="butt" d="m185.4851 89.20793l-26.660507 26.636627" fill-rule="evenodd"/><path fill="#000000" stroke="#000000" stroke-width="1.0" stroke-linecap="butt" d="m186.65254 90.3764l2.0429382 -4.3759537l-4.3777924 2.039009z" fill-rule="evenodd"/><path fill="#000000" stroke="#000000" stroke-width="1.0" stroke-linecap="butt" d="m157.65717 114.67609l-2.042923 4.3759613l4.377777 -2.039009z" fill-rule="evenodd"/><path fill="#000000" fill-opacity="0.0" d="m224.87927 49.850395l-35.149612 35.11811" fill-rule="evenodd"/><path stroke="#000000" stroke-width="1.0" stroke-linejoin="round" stroke-linecap="butt" d="m220.63472 54.09113l-26.660522 26.636639" fill-rule="evenodd"/><path fill="#000000" stroke="#000000" stroke-width="1.0" stroke-linecap="butt" d="m221.80215 55.259605l2.042923 -4.3759537l-4.377777 2.0390053z" fill-rule="evenodd"/><path fill="#000000" stroke="#000000" stroke-width="1.0" stroke-linecap="butt" d="m192.80678 79.55929l-2.0429382 4.3759613l4.3777924 -2.039009z" fill-rule="evenodd"/><path fill="#000000" fill-opacity="0.0" d="m110.391075 72.47244l61.291344 0l0 36.818893l-61.291344 0z" fill-rule="evenodd"/><path fill="#000000" d="m120.66997 92.89244q0 -3.34375 1.796875 -5.21875q1.796875 -1.875 4.59375 -1.875q2.8125 0 4.59375 1.90625q1.78125 1.90625 1.78125 5.03125q0 3.09375 -1.796875 5.0q-1.78125 1.890625 -4.578125 1.890625q-2.015625 0 -3.53125 -1.0q-1.515625 -1.015625 -2.1875 -2.59375q-0.671875 -1.59375 -0.671875 -3.140625zm1.828125 0.015625q0 2.296875 1.234375 3.75q1.234375 1.453125 3.3125 1.453125q2.046875 0 3.3125 -1.4375q1.265625 -1.4375 1.265625 -3.953125q0 -2.546875 -1.28125 -3.96875q-1.265625 -1.421875 -3.265625 -1.421875q-1.96875 0 -3.28125 1.34375q-1.296875 1.328125 -1.296875 4.234375zm1.921875 0.59375l0 -1.5625l5.28125 0l0 1.5625l-5.28125 0z" fill-rule="nonzero"/><path fill="#000000" d="m135.13452 106.39244l0 -8.90625l1.09375 0l0 5.078125l2.578125 -2.625l1.421875 0l-2.46875 2.390625l2.71875 4.0625l-1.34375 0l-2.140625 -3.296875l-0.765625 0.734375l0 2.5625l-1.09375 0z" fill-rule="nonzero"/><path fill="#000000" d="m144.88441 103.314316q-1.359375 -1.703125 -2.296875 -4.0q-0.9375 -2.296875 -0.9375 -4.765625q0 -2.15625 0.703125 -4.140625q0.828125 -2.3125 2.53125 -4.59375l1.171875 0q-1.09375 1.890625 -1.453125 2.703125q-0.546875 1.25 -0.875 2.625q-0.390625 1.703125 -0.390625 3.421875q0 4.375 2.71875 8.75l-1.171875 0zm1.993927 -3.921875l3.53125 -5.03125l-3.265625 -4.640625l2.046875 0l1.484375 2.265625q0.421875 0.640625 0.671875 1.078125q0.40625 -0.59375 0.734375 -1.0625l1.640625 -2.28125l1.953125 0l-3.34375 4.546875l3.59375 5.125l-2.015625 0l-1.984375 -3.0l-0.515625 -0.8125l-2.546875 3.8125l-1.984375 0zm11.5 3.921875l-1.1875 0q2.734375 -4.375 2.734375 -8.75q0 -1.71875 -0.390625 -3.390625q-0.3125 -1.375 -0.875 -2.625q-0.359375 -0.828125 -1.46875 -2.734375l1.1875 0q1.703125 2.28125 2.53125 4.59375q0.6875 1.984375 0.6875 4.140625q0 2.46875 -0.9375 4.765625q-0.9375 2.296875 -2.28125 4.0z" fill-rule="nonzero"/><path fill="#000000" fill-opacity="0.0" d="m137.89777 40.217846l75.14961 0l0 36.818897l-75.14961 0z" fill-rule="evenodd"/><path fill="#000000" d="m155.40382 65.55972l2.90625 0q-2.765625 -2.3125038 -2.765625 -5.640629q0 -1.8125 0.71875 -3.25q0.734375 -1.453125 2.0625 -2.28125q1.328125 -0.828125 3.203125 -0.828125q1.84375 0 3.078125 0.765625q1.234375 0.765625 2.03125 2.203125q0.796875 1.421875 0.796875 3.390625q0 3.328125 -2.765625 5.640629l2.921875 0l0 1.578125l-5.203125 0l0 -1.46875q3.25 -1.515625 3.25 -5.484379q0 -2.234375 -1.140625 -3.671875q-1.140625 -1.4375 -2.984375 -1.4375q-1.875 0 -3.015625 1.453125q-1.125 1.4375 -1.125 3.5625q0 4.015629 3.21875 5.578129l0 1.46875l-5.1875 0l0 -1.578125z" fill-rule="nonzero"/><path fill="#000000" d="m169.28796 74.13785l0 -8.90625l1.09375 0l0 5.078125l2.578125 -2.625l1.421875 0l-2.46875 2.390625l2.71875 4.0625l-1.34375 0l-2.140625 -3.296875l-0.765625 0.734375l0 2.5625l-1.09375 0z" fill-rule="nonzero"/><path fill="#000000" d="m179.03786 71.05972q-1.359375 -1.703125 -2.296875 -4.0q-0.9375 -2.296875 -0.9375 -4.765629q0 -2.15625 0.703125 -4.140625q0.828125 -2.3125 2.53125 -4.59375l1.171875 0q-1.09375 1.890625 -1.453125 2.703125q-0.546875 1.25 -0.875 2.625q-0.390625 1.703125 -0.390625 3.421875q0 4.375004 2.71875 8.750004l-1.171875 0zm1.993927 -3.921875l3.53125 -5.031254l-3.265625 -4.640625l2.046875 0l1.484375 2.265625q0.421875 0.640625 0.671875 1.078125q0.40625 -0.59375 0.734375 -1.0625l1.640625 -2.28125l1.953125 0l-3.34375 4.546875l3.59375 5.125004l-2.015625 0l-1.984375 -3.0l-0.515625 -0.8125038l-2.546875 3.8125038l-1.984375 0zm11.5 3.921875l-1.1875 0q2.734375 -4.375 2.734375 -8.750004q0 -1.71875 -0.390625 -3.390625q-0.3125 -1.375 -0.875 -2.625q-0.359375 -0.828125 -1.46875 -2.734375l1.1875 0q1.703125 2.28125 2.53125 4.59375q0.6875 1.984375 0.6875 4.140625q0 2.4687538 -0.9375 4.765629q-0.9375 2.296875 -2.28125 4.0z" fill-rule="nonzero"/><path fill="#000000" fill-opacity="0.0" d="m81.896324 144.21785l91.49607 0l0 36.818893l-91.49607 0z" fill-rule="evenodd"/><path fill="#000000" d="m109.00532 164.63785q0 -3.34375 1.796875 -5.21875q1.796875 -1.875 4.59375 -1.875q2.8125 0 4.59375 1.90625q1.78125 1.90625 1.78125 5.03125q0 3.09375 -1.796875 5.0q-1.78125 1.890625 -4.578125 1.890625q-2.015625 0 -3.53125 -1.0q-1.515625 -1.015625 -2.1875 -2.59375q-0.671875 -1.59375 -0.671875 -3.140625zm1.828125 0.015625q0 2.296875 1.234375 3.75q1.234375 1.453125 3.3125 1.453125q2.046875 0 3.3125 -1.4375q1.265625 -1.4375 1.265625 -3.953125q0 -2.546875 -1.28125 -3.96875q-1.265625 -1.421875 -3.265625 -1.421875q-1.96875 0 -3.28125 1.34375q-1.296875 1.328125 -1.296875 4.234375zm1.921875 0.59375l0 -1.5625l5.28125 0l0 1.5625l-5.28125 0z" fill-rule="nonzero"/><path fill="#000000" d="m123.46987 170.49722l0 -1.265625l1.09375 0l0 1.265625l-1.09375 0zm0 7.640625l0 -6.453125l1.09375 0l0 6.453125l-1.09375 0z" fill-rule="nonzero"/><path fill="#000000" d="m129.7643 175.05972q-1.359375 -1.703125 -2.2968826 -4.0q-0.9375 -2.296875 -0.9375 -4.765625q0 -2.15625 0.703125 -4.140625q0.8281326 -2.3125 2.5312576 -4.59375l1.171875 0q-1.09375 1.890625 -1.453125 2.703125q-0.546875 1.25 -0.875 2.625q-0.390625 1.703125 -0.390625 3.421875q0 4.375 2.71875 8.75l-1.171875 0zm1.993927 -3.921875l3.53125 -5.03125l-3.265625 -4.640625l2.046875 0l1.484375 2.265625q0.421875 0.640625 0.671875 1.078125q0.40625 -0.59375 0.734375 -1.0625l1.640625 -2.28125l1.953125 0l-3.34375 4.546875l3.59375 5.125l-2.015625 0l-1.984375 -3.0l-0.515625 -0.8125l-2.546875 3.8125l-1.984375 0zm11.5 3.921875l-1.1875 0q2.734375 -4.375 2.734375 -8.75q0 -1.71875 -0.390625 -3.390625q-0.3125 -1.375 -0.875 -2.625q-0.359375 -0.828125 -1.46875 -2.734375l1.1875 0q1.703125 2.28125 2.53125 4.59375q0.6875 1.984375 0.6875 4.140625q0 2.46875 -0.9375 4.765625q-0.9375 2.296875 -2.28125 4.0z" fill-rule="nonzero"/><path fill="#000000" fill-opacity="0.0" d="m81.896324 240.21785l91.49607 0l0 36.818893l-91.49607 0z" fill-rule="evenodd"/><path fill="#000000" d="m109.30334 265.55972l2.90625 0q-2.765625 -2.3125 -2.765625 -5.640625q0 -1.8125 0.71875 -3.25q0.734375 -1.453125 2.0625 -2.28125q1.328125 -0.828125 3.203125 -0.828125q1.84375 0 3.078125 0.765625q1.234375 0.765625 2.03125 2.203125q0.796875 1.421875 0.796875 3.390625q0 3.328125 -2.765625 5.640625l2.921875 0l0 1.578125l-5.203125 0l0 -1.46875q3.25 -1.515625 3.25 -5.484375q0 -2.234375 -1.140625 -3.671875q-1.140625 -1.4375 -2.984375 -1.4375q-1.875 0 -3.015625 1.453125q-1.125 1.4375 -1.125 3.5625q0 4.015625 3.21875 5.578125l0 1.46875l-5.1875 0l0 -1.578125z" fill-rule="nonzero"/><path fill="#000000" d="m123.18748 266.49722l0 -1.265625l1.09375 0l0 1.265625l-1.09375 0zm0 7.640625l0 -6.453125l1.09375 0l0 6.453125l-1.09375 0z" fill-rule="nonzero"/><path fill="#000000" d="m129.4819 271.05972q-1.359375 -1.703125 -2.2968826 -4.0q-0.9375 -2.296875 -0.9375 -4.765625q0 -2.15625 0.703125 -4.140625q0.828125 -2.3125 2.5312576 -4.59375l1.171875 0q-1.09375 1.890625 -1.453125 2.703125q-0.546875 1.25 -0.875 2.625q-0.39063263 1.703125 -0.39063263 3.421875q0 4.375 2.7187576 8.75l-1.171875 0zm1.993927 -3.921875l3.53125 -5.03125l-3.265625 -4.640625l2.046875 0l1.484375 2.265625q0.421875 0.640625 0.671875 1.078125q0.40625 -0.59375 0.734375 -1.0625l1.640625 -2.28125l1.953125 0l-3.34375 4.546875l3.59375 5.125l-2.015625 0l-1.984375 -3.0l-0.515625 -0.8125l-2.546875 3.8125l-1.984375 0zm11.5 3.921875l-1.1875 0q2.734375 -4.375 2.734375 -8.75q0 -1.71875 -0.390625 -3.390625q-0.3125 -1.375 -0.875 -2.625q-0.359375 -0.828125 -1.46875 -2.734375l1.1875 0q1.703125 2.28125 2.53125 4.59375q0.6875 1.984375 0.6875 4.140625q0 2.46875 -0.9375 4.765625q-0.9375 2.296875 -2.28125 4.0z" fill-rule="nonzero"/><path fill="#000000" fill-opacity="0.0" d="m153.96326 121.93438l0 91.30709" fill-rule="evenodd"/><path stroke="#000000" stroke-width="1.0" stroke-linejoin="round" stroke-linecap="butt" d="m153.96326 127.93438l0 79.30709" fill-rule="evenodd"/><path fill="#000000" stroke="#000000" stroke-width="1.0" stroke-linecap="butt" d="m155.61499 127.93438l-1.6517334 -4.5380936l-1.6517334 4.5380936z" fill-rule="evenodd"/><path fill="#000000" stroke="#000000" stroke-width="1.0" stroke-linecap="butt" d="m152.31152 207.24147l1.6517334 4.538101l1.6517334 -4.538101z" fill-rule="evenodd"/><path fill="#000000" fill-opacity="0.0" d="m153.96326 222.07349l0 96.0" fill-rule="evenodd"/><path stroke="#000000" stroke-width="1.0" stroke-linejoin="round" stroke-linecap="butt" d="m153.96326 228.07349l0 84.0" fill-rule="evenodd"/><path fill="#000000" stroke="#000000" stroke-width="1.0" stroke-linecap="butt" d="m155.61499 228.07349l-1.6517334 -4.538086l-1.6517334 4.538086z" fill-rule="evenodd"/><path fill="#000000" stroke="#000000" stroke-width="1.0" stroke-linecap="butt" d="m152.31152 312.0735l1.6517334 4.5381165l1.6517334 -4.5381165z" fill-rule="evenodd"/><path fill="#000000" fill-opacity="0.0" d="m470.08398 56.157482l0 195.37007" fill-rule="evenodd"/><path stroke="#000000" stroke-width="1.0" stroke-linejoin="round" stroke-linecap="butt" d="m470.08398 62.157482l0 183.37007" fill-rule="evenodd"/><path fill="#000000" stroke="#000000" stroke-width="1.0" stroke-linecap="butt" d="m471.73572 62.15748l-1.6517334 -4.5380974l-1.6517334 4.5380974z" fill-rule="evenodd"/><path fill="#000000" stroke="#000000" stroke-width="1.0" stroke-linecap="butt" d="m468.43225 245.52756l1.6517334 4.538101l1.6517334 -4.538101z" fill-rule="evenodd"/><path fill="#000000" fill-opacity="0.0" d="m392.52756 329.08136l-226.77165 0" fill-rule="evenodd"/><path stroke="#000000" stroke-width="1.0" stroke-linejoin="round" stroke-linecap="butt" d="m386.52756 329.08136l-214.77165 0" fill-rule="evenodd"/><path fill="#000000" stroke="#000000" stroke-width="1.0" stroke-linecap="butt" d="m386.52756 330.7331l4.538086 -1.6517334l-4.538086 -1.6517334z" fill-rule="evenodd"/><path fill="#000000" stroke="#000000" stroke-width="1.0" stroke-linecap="butt" d="m171.7559 327.42963l-4.538101 1.6517334l4.538101 1.6517334z" fill-rule="evenodd"/><path fill="#000000" fill-opacity="0.0" d="m471.73752 133.07611l61.29135 0l0 36.81891l-61.29135 0z" fill-rule="evenodd"/><path fill="#000000" d="m493.5969 159.99611l-6.046875 0l0 -0.46875q0.75 0 1.109375 -0.140625q0.375 -0.140625 0.375 -0.578125q0 -0.703125 -3.015625 -7.75q-2.859375 7.265625 -2.859375 7.671875q0 0.796875 1.53125 0.796875l0 0.46875l-3.78125 0l0 -0.46875q0.40625 -0.046875 0.703125 -0.265625q0.3125 -0.234375 0.484375 -0.53125q0.1875 -0.3125 0.359375 -0.671875q0.171875 -0.375 0.28125 -0.71875l4.140625 -10.21875l0.515625 0l4.171875 9.8125q0.59375 1.421875 0.984375 1.984375q0.40625 0.5625 1.046875 0.609375l0 0.46875z" fill-rule="nonzero"/><path fill="#000000" d="m495.03546 159.35548l0 -1.265625l1.09375 0l0 1.265625l-1.09375 0zm0 7.640625l0 -6.453125l1.09375 0l0 6.453125l-1.09375 0z" fill-rule="nonzero"/><path fill="#000000" d="m501.32986 163.91798q-1.359375 -1.703125 -2.296875 -4.0q-0.9375 -2.296875 -0.9375 -4.765625q0 -2.15625 0.703125 -4.140625q0.828125 -2.3125 2.53125 -4.59375l1.171875 0q-1.09375 1.890625 -1.453125 2.703125q-0.546875 1.25 -0.875 2.625q-0.390625 1.703125 -0.390625 3.421875q0 4.375 2.71875 8.75l-1.171875 0zm1.993927 -3.921875l3.53125 -5.03125l-3.265625 -4.640625l2.046875 0l1.484375 2.265625q0.421875 0.640625 0.671875 1.078125q0.40625 -0.59375 0.734375 -1.0625l1.640625 -2.28125l1.953125 0l-3.34375 4.546875l3.59375 5.125l-2.015625 0l-1.984375 -3.0l-0.515625 -0.8125l-2.546875 3.8125l-1.984375 0zm11.5 3.921875l-1.1875 0q2.734375 -4.375 2.734375 -8.75q0 -1.71875 -0.390625 -3.390625q-0.3125 -1.375 -0.875 -2.625q-0.359375 -0.828125 -1.46875 -2.734375l1.1875 0q1.703125 2.28125 2.53125 4.59375q0.6875 1.984375 0.6875 4.140625q0 2.46875 -0.9375 4.765625q-0.9375 2.296875 -2.28125 4.0z" fill-rule="nonzero"/><path fill="#000000" fill-opacity="0.0" d="m255.73784 325.0761l58.267715 0l0 36.81891l-58.267715 0z" fill-rule="evenodd"/><path fill="#000000" d="m277.59723 351.99612l-6.046875 0l0 -0.46875q0.75 0 1.109375 -0.140625q0.375 -0.140625 0.375 -0.578125q0 -0.703125 -3.015625 -7.75q-2.859375 7.265625 -2.859375 7.671875q0 0.796875 1.53125 0.796875l0 0.46875l-3.78125 0l0 -0.46875q0.40625 -0.046875 0.703125 -0.265625q0.3125 -0.234375 0.484375 -0.53125q0.1875 -0.3125 0.359375 -0.671875q0.171875 -0.375 0.28125 -0.71875l4.140625 -10.21875l0.515625 0l4.171875 9.8125q0.59375 1.421875 0.984375 1.984375q0.40625 0.5625 1.046875 0.609375l0 0.46875z" fill-rule="nonzero"/><path fill="#000000" d="m279.02017 351.3555l0 -1.265625l1.09375 0l0 1.265625l-1.09375 0zm-1.390625 10.140625l0.21875 -0.921875q0.328125 0.078125 0.515625 0.078125q0.328125 0 0.484375 -0.21875q0.171875 -0.21875 0.171875 -1.109375l0 -6.78125l1.09375 0l0 6.8125q0 1.1875 -0.3125 1.65625q-0.390625 0.609375 -1.3125 0.609375q-0.4375 0 -0.859375 -0.125z" fill-rule="nonzero"/><path fill="#000000" d="m285.3302 355.918q-1.359375 -1.703125 -2.296875 -4.0q-0.9375 -2.296875 -0.9375 -4.765625q0 -2.15625 0.703125 -4.140625q0.828125 -2.3125 2.53125 -4.59375l1.171875 0q-1.09375 1.890625 -1.453125 2.703125q-0.546875 1.25 -0.875 2.625q-0.390625 1.703125 -0.390625 3.421875q0 4.375 2.71875 8.75l-1.171875 0zm1.993927 -3.921875l3.53125 -5.03125l-3.265625 -4.640625l2.046875 0l1.484375 2.265625q0.421875 0.640625 0.671875 1.078125q0.40625 -0.59375 0.734375 -1.0625l1.640625 -2.28125l1.953125 0l-3.34375 4.546875l3.59375 5.125l-2.015625 0l-1.984375 -3.0l-0.515625 -0.8125l-2.546875 3.8125l-1.984375 0zm11.5 3.921875l-1.1875 0q2.734375 -4.375 2.734375 -8.75q0 -1.71875 -0.390625 -3.390625q-0.3125 -1.375 -0.875 -2.625q-0.359375 -0.828125 -1.46875 -2.734375l1.1875 0q1.703125 2.28125 2.53125 4.59375q0.6875 1.984375 0.6875 4.140625q0 2.46875 -0.9375 4.765625q-0.9375 2.296875 -2.28125 4.0z" fill-rule="nonzero"/><path fill="#000000" fill-opacity="0.0" d="m21.38845 123.74016l31.622047 -34.677162" fill-rule="evenodd"/><path stroke="#000000" stroke-width="1.0" stroke-linejoin="round" stroke-linecap="butt" d="m21.38845 123.74016l27.5792 -30.243729" fill-rule="evenodd"/><path fill="#000000" stroke="#000000" stroke-width="1.0" stroke-linecap="butt" d="m50.18813 94.60938l1.8373299 -4.466179l-4.278282 2.2402802z" fill-rule="evenodd"/><path fill="#000000" fill-opacity="0.0" d="m22.154856 123.149605l0 47.46456" fill-rule="evenodd"/><path stroke="#000000" stroke-width="1.0" stroke-linejoin="round" stroke-linecap="butt" d="m22.154856 123.149605l0 41.46456" fill-rule="evenodd"/><path fill="#000000" stroke="#000000" stroke-width="1.0" stroke-linecap="butt" d="m20.503122 164.61417l1.6517334 4.538101l1.6517315 -4.538101z" fill-rule="evenodd"/><path fill="#000000" fill-opacity="0.0" d="m22.763779 124.367455l45.007874 0" fill-rule="evenodd"/><path stroke="#000000" stroke-width="1.0" stroke-linejoin="round" stroke-linecap="butt" d="m22.763779 124.367455l39.007874 0" fill-rule="evenodd"/><path fill="#000000" stroke="#000000" stroke-width="1.0" stroke-linecap="butt" d="m61.771652 126.01919l4.538101 -1.6517334l-4.538101 -1.6517334z" fill-rule="evenodd"/><path fill="#000000" fill-opacity="0.0" d="m45.010498 61.036747l24.346458 0l0 36.818897l-24.346458 0z" fill-rule="evenodd"/><path fill="#000000" d="m55.244873 87.95674l0 -13.359375l1.640625 0l0 7.625l3.890625 -3.9375l2.109375 0l-3.6875 3.59375l4.0625 6.078125l-2.015625 0l-3.203125 -4.953125l-1.15625 1.125l0 3.828125l-1.640625 0z" fill-rule="nonzero"/><path fill="#000000" fill-opacity="0.0" d="m61.010498 101.03674l24.346458 0l0 36.818893l-24.346458 0z" fill-rule="evenodd"/><path fill="#000000" d="m71.22925 116.50362l0 -1.90625l1.640625 0l0 1.90625l-1.640625 0zm-2.078125 15.203125l0.3125 -1.390625q0.5 0.125 0.78125 0.125q0.5 0 0.734375 -0.328125q0.25 -0.328125 0.25 -1.671875l0 -10.15625l1.640625 0l0 10.203125q0 1.78125 -0.46875 2.484375q-0.59375 0.90625 -1.96875 0.90625q-0.65625 0 -1.28125 -0.171875z" fill-rule="nonzero"/><path fill="#000000" fill-opacity="0.0" d="m4.5800524 161.8084l35.14961 0l0 36.81891l-35.14961 0z" fill-rule="evenodd"/><path fill="#000000" d="m21.31682 177.25964l0 -1.890625l1.640625 0l0 1.890625l-1.640625 0zm0 11.46875l0 -9.671875l1.640625 0l0 9.671875l-1.640625 0z" fill-rule="nonzero"/><path fill="#000000" fill-opacity="0.0" d="m248.33333 380.1942l45.00789 0l0 40.881897l-45.00789 0z" fill-rule="evenodd"/><path fill="#000000" d="m261.69272 411.0361q-1.359375 -1.703125 -2.296875 -4.0q-0.9375 -2.296875 -0.9375 -4.765625q0 -2.15625 0.703125 -4.140625q0.828125 -2.3125 2.53125 -4.59375l1.171875 0q-1.09375 1.890625 -1.453125 2.703125q-0.546875 1.25 -0.875 2.625q-0.390625 1.703125 -0.390625 3.421875q0 4.375 2.71875 8.75l-1.171875 0zm9.400177 -5.109375q-0.921875 0.765625 -1.765625 1.09375q-0.828125 0.3125 -1.796875 0.3125q-1.59375 0 -2.453125 -0.78125q-0.859375 -0.78125 -0.859375 -1.984375q0 -0.71875 0.328125 -1.296875q0.328125 -0.59375 0.84375 -0.9375q0.53125 -0.359375 1.1875 -0.546875q0.46875 -0.125 1.453125 -0.25q1.984375 -0.234375 2.921875 -0.5625q0.015625 -0.34375 0.015625 -0.421875q0 -1.0 -0.46875 -1.421875q-0.625 -0.546875 -1.875 -0.546875q-1.15625 0 -1.703125 0.40625q-0.546875 0.40625 -0.8125 1.421875l-1.609375 -0.21875q0.21875 -1.015625 0.71875 -1.640625q0.5 -0.640625 1.453125 -0.984375q0.953125 -0.34375 2.1875 -0.34375q1.25 0 2.015625 0.296875q0.78125 0.28125 1.140625 0.734375q0.375 0.4375 0.515625 1.109375q0.078125 0.421875 0.078125 1.515625l0 2.1875q0 2.28125 0.109375 2.890625q0.109375 0.59375 0.40625 1.15625l-1.703125 0q-0.265625 -0.515625 -0.328125 -1.1875zm-0.140625 -3.671875q-0.890625 0.375 -2.671875 0.625q-1.015625 0.140625 -1.4375 0.328125q-0.421875 0.1875 -0.65625 0.53125q-0.21875 0.34375 -0.21875 0.78125q0 0.65625 0.5 1.09375q0.5 0.4375 1.453125 0.4375q0.9375 0 1.671875 -0.40625q0.75 -0.421875 1.09375 -1.140625q0.265625 -0.5625 0.265625 -1.640625l0 -0.609375zm5.281952 8.78125l-1.1875 0q2.734375 -4.375 2.734375 -8.75q0 -1.71875 -0.390625 -3.390625q-0.3125 -1.375 -0.875 -2.625q-0.359375 -0.828125 -1.46875 -2.734375l1.1875 0q1.703125 2.28125 2.53125 4.59375q0.6875 1.984375 0.6875 4.140625q0 2.46875 -0.9375 4.765625q-0.9375 2.296875 -2.28125 4.0z" fill-rule="nonzero"/><path fill="#000000" fill-opacity="0.0" d="m656.3333 380.1942l45.007874 0l0 40.881897l-45.007874 0z" fill-rule="evenodd"/><path fill="#000000" d="m669.6927 411.0361q-1.359375 -1.703125 -2.296875 -4.0q-0.9375 -2.296875 -0.9375 -4.765625q0 -2.15625 0.703125 -4.140625q0.828125 -2.3125 2.53125 -4.59375l1.171875 0q-1.09375 1.890625 -1.453125 2.703125q-0.546875 1.25 -0.875 2.625q-0.390625 1.703125 -0.390625 3.421875q0 4.375 2.71875 8.75l-1.171875 0zm4.5877075 -3.921875l-1.515625 0l0 -13.359375l1.640625 0l0 4.765625q1.046875 -1.296875 2.65625 -1.296875q0.890625 0 1.6875 0.359375q0.796875 0.359375 1.3125 1.015625q0.515625 0.640625 0.796875 1.5625q0.296875 0.921875 0.296875 1.96875q0 2.484375 -1.234375 3.84375q-1.21875 1.359375 -2.953125 1.359375q-1.703125 0 -2.6875 -1.4375l0 1.21875zm-0.015625 -4.90625q0 1.734375 0.484375 2.515625q0.765625 1.265625 2.09375 1.265625q1.078125 0 1.859375 -0.9375q0.78125 -0.9375 0.78125 -2.78125q0 -1.890625 -0.75 -2.796875q-0.75 -0.90625 -1.828125 -0.90625q-1.0625 0 -1.859375 0.9375q-0.78125 0.9375 -0.78125 2.703125zm9.969482 8.828125l-1.1875 0q2.734375 -4.375 2.734375 -8.75q0 -1.71875 -0.390625 -3.390625q-0.3125 -1.375 -0.875 -2.625q-0.359375 -0.828125 -1.46875 -2.734375l1.1875 0q1.703125 2.28125 2.53125 4.59375q0.6875 1.984375 0.6875 4.140625q0 2.46875 -0.9375 4.765625q-0.9375 2.296875 -2.28125 4.0z" fill-rule="nonzero"/></g></svg>